<svg width="140" height="42" viewBox="0 0 140 42" fill="none" xmlns="http://www.w3.org/2000/svg">
<path d="M0 21C0 9.40202 9.40202 0 21 0V0C32.598 0 42 9.40202 42 21V21C42 32.598 32.598 42 21 42V42C9.40202 42 0 32.598 0 21V21Z" fill="#FFE248"/>
<path fill-rule="evenodd" clip-rule="evenodd" d="M21.0309 8.00004C21.0206 8.00001 21.0103 8 21 8C13.8203 8 8 13.8203 8 21C8 28.1797 13.8203 34 21 34C28.1694 34 33.9833 28.1964 34 21.0309H27.2066C27.19 24.4445 24.4176 27.2067 21 27.2067C17.5722 27.2067 14.7934 24.4278 14.7934 21C14.7934 17.5722 17.5722 14.7933 21 14.7933C21.0103 14.7933 21.0206 14.7934 21.0309 14.7934V8.00004Z" fill="white"/>
<path d="M48.5397 21.058C48.5397 20.1047 48.7157 19.1733 49.0677 18.264C49.4343 17.34 49.9623 16.504 50.6517 15.756C51.341 15.008 52.177 14.414 53.1597 13.974C54.157 13.5193 55.279 13.292 56.5257 13.292C58.0217 13.292 59.327 13.6073 60.4417 14.238C61.5563 14.854 62.385 15.6753 62.9277 16.702L59.6497 19.034C59.459 18.5207 59.1803 18.1247 58.8137 17.846C58.4617 17.5673 58.073 17.3767 57.6477 17.274C57.237 17.1567 56.8337 17.098 56.4377 17.098C55.8217 17.098 55.2863 17.2227 54.8317 17.472C54.3917 17.7067 54.025 18.022 53.7317 18.418C53.453 18.814 53.2403 19.254 53.0937 19.738C52.9617 20.222 52.8957 20.706 52.8957 21.19C52.8957 21.7327 52.9763 22.2533 53.1377 22.752C53.299 23.2507 53.5337 23.698 53.8417 24.094C54.1497 24.4753 54.5237 24.776 54.9637 24.996C55.4183 25.216 55.9243 25.326 56.4817 25.326C56.8777 25.326 57.281 25.2673 57.6917 25.15C58.1023 25.018 58.4763 24.8127 58.8137 24.534C59.151 24.2553 59.4077 23.8813 59.5837 23.412L63.0817 25.502C62.7737 26.2647 62.2603 26.9173 61.5417 27.46C60.823 28.0027 60.009 28.4207 59.0997 28.714C58.1903 28.9927 57.2883 29.132 56.3937 29.132C55.235 29.132 54.1717 28.9047 53.2037 28.45C52.2503 27.9807 51.4217 27.3647 50.7177 26.602C50.0283 25.8247 49.493 24.9593 49.1117 24.006C48.7303 23.038 48.5397 22.0553 48.5397 21.058ZM69.9132 29.22C68.8865 29.22 67.9772 29.0587 67.1852 28.736C66.3932 28.4133 65.7258 27.9733 65.1832 27.416C64.6552 26.844 64.2518 26.1987 63.9732 25.48C63.7092 24.7613 63.5772 24.006 63.5772 23.214C63.5772 22.422 63.7092 21.6667 63.9732 20.948C64.2518 20.2147 64.6552 19.5693 65.1832 19.012C65.7258 18.4547 66.3932 18.0147 67.1852 17.692C67.9772 17.3693 68.8865 17.208 69.9132 17.208C70.9545 17.208 71.8638 17.3693 72.6412 17.692C73.4332 18.0147 74.0932 18.4547 74.6212 19.012C75.1638 19.5693 75.5672 20.2147 75.8312 20.948C76.1098 21.6667 76.2492 22.422 76.2492 23.214C76.2492 24.006 76.1098 24.7613 75.8312 25.48C75.5672 26.1987 75.1638 26.844 74.6212 27.416C74.0932 27.9733 73.4332 28.4133 72.6412 28.736C71.8638 29.0587 70.9545 29.22 69.9132 29.22ZM67.8672 23.214C67.8672 23.7273 67.9552 24.1747 68.1312 24.556C68.3072 24.9227 68.5492 25.2087 68.8572 25.414C69.1652 25.6047 69.5172 25.7 69.9132 25.7C70.3092 25.7 70.6612 25.6047 70.9692 25.414C71.2772 25.2087 71.5192 24.9227 71.6952 24.556C71.8712 24.1747 71.9592 23.7273 71.9592 23.214C71.9592 22.7007 71.8712 22.2607 71.6952 21.894C71.5192 21.5127 71.2772 21.2267 70.9692 21.036C70.6612 20.8307 70.3092 20.728 69.9132 20.728C69.5172 20.728 69.1652 20.8307 68.8572 21.036C68.5492 21.2267 68.3072 21.5127 68.1312 21.894C67.9552 22.2607 67.8672 22.7007 67.8672 23.214ZM77.1129 23.192C77.1129 22.048 77.3255 21.0287 77.7509 20.134C78.1909 19.2247 78.7922 18.5133 79.5549 18C80.3175 17.472 81.1902 17.208 82.1729 17.208C82.9209 17.208 83.6102 17.384 84.2409 17.736C84.8715 18.0733 85.3482 18.5427 85.6709 19.144V12.94H89.8509V24.38C89.8509 24.776 89.9095 25.0547 90.0269 25.216C90.1442 25.3627 90.3495 25.4507 90.6429 25.48V29C89.9242 29.1467 89.3375 29.22 88.8829 29.22C88.1789 29.22 87.6215 29.088 87.2109 28.824C86.8002 28.56 86.5362 28.1567 86.4189 27.614L86.3309 27.196C85.9349 27.9 85.3995 28.4133 84.7249 28.736C84.0502 29.0587 83.3315 29.22 82.5689 29.22C81.7769 29.22 81.0435 29.0733 80.3689 28.78C79.7089 28.4867 79.1295 28.076 78.6309 27.548C78.1469 27.0053 77.7729 26.3673 77.5089 25.634C77.2449 24.886 77.1129 24.072 77.1129 23.192ZM85.6929 24.512V22.444C85.5609 22.1067 85.3775 21.8133 85.1429 21.564C84.9229 21.3 84.6735 21.0947 84.3949 20.948C84.1162 20.8013 83.8302 20.728 83.5369 20.728C83.2289 20.728 82.9429 20.794 82.6789 20.926C82.4295 21.058 82.2095 21.2413 82.0189 21.476C81.8282 21.7107 81.6815 21.982 81.5789 22.29C81.4762 22.598 81.4249 22.928 81.4249 23.28C81.4249 23.6467 81.4762 23.9767 81.5789 24.27C81.6962 24.5633 81.8575 24.82 82.0629 25.04C82.2682 25.2453 82.5102 25.4067 82.7889 25.524C83.0675 25.6413 83.3755 25.7 83.7129 25.7C83.9182 25.7 84.1089 25.678 84.2849 25.634C84.4609 25.5753 84.6295 25.502 84.7909 25.414C84.9522 25.3113 85.1062 25.1867 85.2529 25.04C85.4142 24.8787 85.5609 24.7027 85.6929 24.512ZM98.0577 29.22C97.0457 29.22 96.1437 29.066 95.3517 28.758C94.5597 28.4353 93.8924 28.0027 93.3497 27.46C92.8217 26.9173 92.4184 26.294 92.1397 25.59C91.861 24.886 91.7217 24.1453 91.7217 23.368C91.7217 22.2533 91.9637 21.234 92.4477 20.31C92.9317 19.3713 93.643 18.6233 94.5817 18.066C95.5204 17.494 96.679 17.208 98.0577 17.208C99.4364 17.208 100.595 17.4867 101.534 18.044C102.472 18.6013 103.184 19.3347 103.668 20.244C104.152 21.1533 104.394 22.1433 104.394 23.214C104.394 23.434 104.379 23.6613 104.35 23.896C104.335 24.116 104.313 24.314 104.284 24.49H96.1657C96.195 24.9007 96.305 25.238 96.4957 25.502C96.701 25.7513 96.9504 25.9347 97.2437 26.052C97.5517 26.1693 97.867 26.228 98.1897 26.228C98.6444 26.228 99.0697 26.1253 99.4657 25.92C99.8764 25.7147 100.148 25.4287 100.28 25.062L103.822 26.074C103.514 26.69 103.081 27.2327 102.524 27.702C101.981 28.1713 101.336 28.5453 100.588 28.824C99.8397 29.088 98.9964 29.22 98.0577 29.22ZM96.0777 21.982H99.9057C99.8617 21.6007 99.7517 21.278 99.5757 21.014C99.4144 20.75 99.1944 20.5447 98.9157 20.398C98.6517 20.2513 98.3437 20.178 97.9917 20.178C97.6397 20.178 97.3244 20.2513 97.0457 20.398C96.7817 20.5447 96.5617 20.75 96.3857 21.014C96.2244 21.278 96.1217 21.6007 96.0777 21.982ZM105.678 12.94H109.858V24.402C109.858 24.8273 109.946 25.1573 110.122 25.392C110.313 25.612 110.584 25.722 110.936 25.722C111.112 25.722 111.303 25.6927 111.508 25.634C111.713 25.5753 111.904 25.4947 112.08 25.392L112.608 28.472C112.109 28.7067 111.545 28.89 110.914 29.022C110.298 29.154 109.711 29.22 109.154 29.22C108.039 29.22 107.181 28.934 106.58 28.362C105.979 27.7753 105.678 26.9467 105.678 25.876V12.94ZM112.948 25.502C112.948 24.7247 113.161 24.0427 113.586 23.456C114.012 22.8547 114.598 22.3853 115.346 22.048C116.109 21.7107 116.974 21.542 117.942 21.542C118.397 21.542 118.822 21.5787 119.218 21.652C119.629 21.7253 119.981 21.8353 120.274 21.982V21.63C120.274 21.0873 120.113 20.684 119.79 20.42C119.482 20.156 118.976 20.024 118.272 20.024C117.627 20.024 117.018 20.134 116.446 20.354C115.889 20.5593 115.302 20.8673 114.686 21.278L113.476 18.682C114.254 18.1833 115.068 17.8167 115.918 17.582C116.784 17.3327 117.708 17.208 118.69 17.208C120.524 17.208 121.939 17.626 122.936 18.462C123.948 19.2833 124.454 20.508 124.454 22.136V24.38C124.454 24.776 124.513 25.0547 124.63 25.216C124.748 25.3627 124.953 25.4507 125.246 25.48V29C124.909 29.0733 124.586 29.1247 124.278 29.154C123.985 29.198 123.721 29.22 123.486 29.22C122.738 29.22 122.166 29.088 121.77 28.824C121.389 28.5453 121.14 28.142 121.022 27.614L120.934 27.196C120.421 27.856 119.827 28.362 119.152 28.714C118.478 29.0513 117.759 29.22 116.996 29.22C116.234 29.22 115.544 29.0587 114.928 28.736C114.312 28.4133 113.828 27.9733 113.476 27.416C113.124 26.844 112.948 26.206 112.948 25.502ZM119.724 25.788C119.886 25.6707 120.018 25.546 120.12 25.414C120.223 25.2673 120.274 25.1207 120.274 24.974V24.116C120.04 24.028 119.768 23.9547 119.46 23.896C119.167 23.8373 118.903 23.808 118.668 23.808C118.17 23.808 117.744 23.9327 117.392 24.182C117.055 24.4313 116.886 24.7467 116.886 25.128C116.886 25.3333 116.945 25.524 117.062 25.7C117.18 25.8613 117.341 25.9933 117.546 26.096C117.752 26.184 117.986 26.228 118.25 26.228C118.5 26.228 118.756 26.1913 119.02 26.118C119.299 26.03 119.534 25.92 119.724 25.788ZM134.126 29.22C133.261 29.22 132.513 29.0513 131.882 28.714C131.252 28.362 130.753 27.856 130.386 27.196V29H126.756V12.94H130.936V19.144C131.274 18.5133 131.75 18.0367 132.366 17.714C132.982 17.3767 133.708 17.208 134.544 17.208C135.248 17.208 135.901 17.362 136.502 17.67C137.104 17.9633 137.624 18.3813 138.064 18.924C138.519 19.4667 138.871 20.112 139.12 20.86C139.37 21.5933 139.494 22.3927 139.494 23.258C139.494 24.1087 139.355 24.9007 139.076 25.634C138.812 26.3527 138.438 26.9833 137.954 27.526C137.485 28.0687 136.92 28.4867 136.26 28.78C135.615 29.0733 134.904 29.22 134.126 29.22ZM132.916 25.7C133.254 25.7 133.562 25.6413 133.84 25.524C134.119 25.4067 134.361 25.2453 134.566 25.04C134.772 24.82 134.926 24.5633 135.028 24.27C135.146 23.9767 135.204 23.6467 135.204 23.28C135.204 22.8107 135.109 22.3853 134.918 22.004C134.742 21.608 134.493 21.3 134.17 21.08C133.862 20.8453 133.503 20.728 133.092 20.728C132.799 20.728 132.513 20.8013 132.234 20.948C131.956 21.0947 131.699 21.3 131.464 21.564C131.244 21.8133 131.068 22.1067 130.936 22.444V24.512C131.068 24.7027 131.208 24.8787 131.354 25.04C131.516 25.1867 131.677 25.3113 131.838 25.414C132 25.502 132.168 25.5753 132.344 25.634C132.535 25.678 132.726 25.7 132.916 25.7Z" fill="black"/>
</svg>
