<?xml version="1.0" encoding="UTF-8"?>
<svg width="160px" height="104px" viewBox="0 0 160 104" version="1.1" xmlns="http://www.w3.org/2000/svg" xmlns:xlink="http://www.w3.org/1999/xlink">
    <title>编组 2</title>
    <g id="组件骨架图更新" stroke="none" stroke-width="1" fill="none" fill-rule="evenodd">
        <g id="🎉-5.0-新版" transform="translate(-174.000000, -4316.000000)">
            <g id="编组-2" transform="translate(174.000000, 4316.000000)">
                <g id="Feedback/Alert/Light/Default-Error" transform="translate(0.000000, 28.000000)">
                    <path d="M5.1277704,0.25 L154.87223,0.25 C156.584468,0.25 157.20888,0.419442838 157.835792,0.754718707 C158.443432,1.07968831 158.920312,1.55656799 159.245281,2.16420831 C159.580557,2.79111968 159.75,3.41553223 159.75,5.1277704 L159.75,14.8722296 C159.75,16.5844678 159.580557,17.2088803 159.245281,17.8357917 C158.920312,18.443432 158.443432,18.9203117 157.835792,19.2452813 C157.20888,19.5805572 156.584468,19.75 154.87223,19.75 L5.1277704,19.75 C3.41553223,19.75 2.79111968,19.5805572 2.16420831,19.2452813 C1.55656799,18.9203117 1.07968831,18.443432 0.754718707,17.8357917 C0.419442838,17.2088803 0.25,16.5844678 0.25,14.8722296 L0.25,5.1277704 C0.25,3.41553223 0.419442838,2.79111968 0.754718707,2.16420831 C1.07968831,1.55656799 1.55656799,1.07968831 2.16420831,0.754718707 C2.79111968,0.419442838 3.41553223,0.25 5.1277704,0.25 Z" id="bg" stroke="#FFCCC7" stroke-width="0.5" fill="#FFF1F0"></path>
                    <text id="Text" font-family="PingFangSC-Regular, PingFang SC" font-size="7" font-weight="normal" line-spacing="11" fill="#000000" fill-opacity="0.88">
                        <tspan x="18" y="11.5">||||||||||||||||||||||||||||||||||||||||||||||||||||||||||</tspan>
                    </text>
                    <g id="Icon/Fill/Close-Circle-Fill" transform="translate(6.000000, 6.000000)" fill="#FF4D4F">
                        <rect id="矩形" fill-rule="nonzero" opacity="0" x="0" y="0" width="8" height="8"></rect>
                        <path d="M4,0.5 C2.0671875,0.5 0.5,2.0671875 0.5,4 C0.5,5.9328125 2.0671875,7.5 4,7.5 C5.9328125,7.5 7.5,5.9328125 7.5,4 C7.5,2.0671875 5.9328125,0.5 4,0.5 Z M5.2921875,5.3296875 L4.7765625,5.32734375 L4,4.4015625 L3.22421875,5.3265625 L2.7078125,5.32890625 C2.6734375,5.32890625 2.6453125,5.3015625 2.6453125,5.26640625 C2.6453125,5.2515625 2.65078125,5.2375 2.66015625,5.22578125 L3.6765625,4.01484375 L2.66015625,2.8046875 C2.65078125,2.79296875 2.6453125,2.77890625 2.6453125,2.7640625 C2.6453125,2.7296875 2.6734375,2.7015625 2.7078125,2.7015625 L3.22421875,2.70390625 L4,3.6296875 L4.77578125,2.7046875 L5.29140625,2.70234375 C5.32578125,2.70234375 5.35390625,2.7296875 5.35390625,2.76484375 C5.35390625,2.7796875 5.3484375,2.79375 5.3390625,2.80546875 L4.32421875,4.015625 L5.33984375,5.2265625 C5.34921875,5.23828125 5.3546875,5.25234375 5.3546875,5.2671875 C5.3546875,5.3015625 5.3265625,5.3296875 5.2921875,5.3296875 Z" id="形状"></path>
                    </g>
                    <g id="Icon/Close" opacity="0.45" transform="translate(146.000000, 6.000000)" fill="#000000">
                        <rect id="矩形" fill-rule="nonzero" opacity="0" x="0" y="0" width="8" height="8"></rect>
                        <path d="M4.4046875,4 L6.45546875,1.55546875 C6.48984375,1.51484375 6.4609375,1.453125 6.4078125,1.453125 L5.784375,1.453125 C5.74765625,1.453125 5.7125,1.46953125 5.68828125,1.49765625 L3.996875,3.5140625 L2.30546875,1.49765625 C2.28203125,1.46953125 2.246875,1.453125 2.209375,1.453125 L1.5859375,1.453125 C1.5328125,1.453125 1.50390625,1.51484375 1.53828125,1.55546875 L3.5890625,4 L1.53828125,6.44453125 C1.50390625,6.48515625 1.5328125,6.546875 1.5859375,6.546875 L2.209375,6.546875 C2.24609375,6.546875 2.28125,6.53046875 2.30546875,6.50234375 L3.996875,4.4859375 L5.68828125,6.50234375 C5.71171875,6.53046875 5.746875,6.546875 5.784375,6.546875 L6.4078125,6.546875 C6.4609375,6.546875 6.48984375,6.48515625 6.45546875,6.44453125 L4.4046875,4 Z" id="路径"></path>
                    </g>
                </g>
                <g id="Feedback/Alert/Light/Default-Success" transform="translate(0.000000, 56.000000)">
                    <path d="M5.1277704,0.25 L154.87223,0.25 C156.584468,0.25 157.20888,0.419442838 157.835792,0.754718707 C158.443432,1.07968831 158.920312,1.55656799 159.245281,2.16420831 C159.580557,2.79111968 159.75,3.41553223 159.75,5.1277704 L159.75,14.8722296 C159.75,16.5844678 159.580557,17.2088803 159.245281,17.8357917 C158.920312,18.443432 158.443432,18.9203117 157.835792,19.2452813 C157.20888,19.5805572 156.584468,19.75 154.87223,19.75 L5.1277704,19.75 C3.41553223,19.75 2.79111968,19.5805572 2.16420831,19.2452813 C1.55656799,18.9203117 1.07968831,18.443432 0.754718707,17.8357917 C0.419442838,17.2088803 0.25,16.5844678 0.25,14.8722296 L0.25,5.1277704 C0.25,3.41553223 0.419442838,2.79111968 0.754718707,2.16420831 C1.07968831,1.55656799 1.55656799,1.07968831 2.16420831,0.754718707 C2.79111968,0.419442838 3.41553223,0.25 5.1277704,0.25 Z" id="bg" stroke="#D9F7BE" stroke-width="0.5" fill="#F6FFED"></path>
                    <text id="Text" font-family="PingFangSC-Regular, PingFang SC" font-size="7" font-weight="normal" line-spacing="11" fill="#000000" fill-opacity="0.88">
                        <tspan x="18" y="11.5">||||||||||||||||||||||||||||||||||||||||||||||||||||||||||</tspan>
                    </text>
                    <g id="Icon/Fill/Close-Circle-Fill" transform="translate(6.000000, 6.000000)" fill="#52C41A">
                        <rect id="矩形" fill-rule="nonzero" opacity="0" x="0" y="0" width="8" height="8"></rect>
                        <path d="M4,0.5 C2.0671875,0.5 0.5,2.0671875 0.5,4 C0.5,5.9328125 2.0671875,7.5 4,7.5 C5.9328125,7.5 7.5,5.9328125 7.5,4 C7.5,2.0671875 5.9328125,0.5 4,0.5 Z M5.51171875,2.85703125 L3.86640625,5.13828125 C3.7671875,5.2765625 3.56171875,5.2765625 3.4625,5.13828125 L2.48828125,3.78828125 C2.45859375,3.746875 2.48828125,3.6890625 2.5390625,3.6890625 L2.90546875,3.6890625 C2.98515625,3.6890625 3.0609375,3.72734375 3.1078125,3.79296875 L3.6640625,4.56484375 L4.8921875,2.86171875 C4.9390625,2.796875 5.0140625,2.7578125 5.09453125,2.7578125 L5.4609375,2.7578125 C5.51171875,2.7578125 5.54140625,2.815625 5.51171875,2.85703125 Z" id="形状"></path>
                    </g>
                    <g id="Icon/Close" opacity="0.45" transform="translate(146.000000, 6.000000)" fill="#000000">
                        <rect id="矩形" fill-rule="nonzero" opacity="0" x="0" y="0" width="8" height="8"></rect>
                        <path d="M4.4046875,4 L6.45546875,1.55546875 C6.48984375,1.51484375 6.4609375,1.453125 6.4078125,1.453125 L5.784375,1.453125 C5.74765625,1.453125 5.7125,1.46953125 5.68828125,1.49765625 L3.996875,3.5140625 L2.30546875,1.49765625 C2.28203125,1.46953125 2.246875,1.453125 2.209375,1.453125 L1.5859375,1.453125 C1.5328125,1.453125 1.50390625,1.51484375 1.53828125,1.55546875 L3.5890625,4 L1.53828125,6.44453125 C1.50390625,6.48515625 1.5328125,6.546875 1.5859375,6.546875 L2.209375,6.546875 C2.24609375,6.546875 2.28125,6.53046875 2.30546875,6.50234375 L3.996875,4.4859375 L5.68828125,6.50234375 C5.71171875,6.53046875 5.746875,6.546875 5.784375,6.546875 L6.4078125,6.546875 C6.4609375,6.546875 6.48984375,6.48515625 6.45546875,6.44453125 L4.4046875,4 Z" id="路径"></path>
                    </g>
                </g>
                <g id="Feedback/Alert/Light/Default-Info">
                    <path d="M5.1277704,0.25 L154.87223,0.25 C156.584468,0.25 157.20888,0.419442838 157.835792,0.754718707 C158.443432,1.07968831 158.920312,1.55656799 159.245281,2.16420831 C159.580557,2.79111968 159.75,3.41553223 159.75,5.1277704 L159.75,14.8722296 C159.75,16.5844678 159.580557,17.2088803 159.245281,17.8357917 C158.920312,18.443432 158.443432,18.9203117 157.835792,19.2452813 C157.20888,19.5805572 156.584468,19.75 154.87223,19.75 L5.1277704,19.75 C3.41553223,19.75 2.79111968,19.5805572 2.16420831,19.2452813 C1.55656799,18.9203117 1.07968831,18.443432 0.754718707,17.8357917 C0.419442838,17.2088803 0.25,16.5844678 0.25,14.8722296 L0.25,5.1277704 C0.25,3.41553223 0.419442838,2.79111968 0.754718707,2.16420831 C1.07968831,1.55656799 1.55656799,1.07968831 2.16420831,0.754718707 C2.79111968,0.419442838 3.41553223,0.25 5.1277704,0.25 Z" id="bg" stroke="#BAE0FF" stroke-width="0.5" fill="#E6F4FF"></path>
                    <text id="Text" font-family="PingFangSC-Regular, PingFang SC" font-size="7" font-weight="normal" line-spacing="11" fill="#000000" fill-opacity="0.88">
                        <tspan x="18" y="11.5">||||||||||||||||||||||||||||||||||||||||||||||||||||||||||</tspan>
                    </text>
                    <g id="Icon/Fill/Close-Circle-Fill" transform="translate(6.000000, 6.000000)" fill="#1677FF">
                        <rect id="矩形" fill-rule="nonzero" opacity="0" x="0" y="0" width="8" height="8"></rect>
                        <path d="M4,0.5 C2.0671875,0.5 0.5,2.0671875 0.5,4 C0.5,5.9328125 2.0671875,7.5 4,7.5 C5.9328125,7.5 7.5,5.9328125 7.5,4 C7.5,2.0671875 5.9328125,0.5 4,0.5 Z M4.25,5.6875 C4.25,5.721875 4.221875,5.75 4.1875,5.75 L3.8125,5.75 C3.778125,5.75 3.75,5.721875 3.75,5.6875 L3.75,3.5625 C3.75,3.528125 3.778125,3.5 3.8125,3.5 L4.1875,3.5 C4.221875,3.5 4.25,3.528125 4.25,3.5625 L4.25,5.6875 Z M4,3 C3.79296875,3 3.625,2.83203125 3.625,2.625 C3.625,2.41796875 3.79296875,2.25 4,2.25 C4.20703125,2.25 4.375,2.41796875 4.375,2.625 C4.375,2.83203125 4.20703125,3 4,3 Z" id="形状"></path>
                    </g>
                    <g id="Icon/Close" opacity="0.45" transform="translate(146.000000, 6.000000)" fill="#000000">
                        <rect id="矩形" fill-rule="nonzero" opacity="0" x="0" y="0" width="8" height="8"></rect>
                        <path d="M4.4046875,4 L6.45546875,1.55546875 C6.48984375,1.51484375 6.4609375,1.453125 6.4078125,1.453125 L5.784375,1.453125 C5.74765625,1.453125 5.7125,1.46953125 5.68828125,1.49765625 L3.996875,3.5140625 L2.30546875,1.49765625 C2.28203125,1.46953125 2.246875,1.453125 2.209375,1.453125 L1.5859375,1.453125 C1.5328125,1.453125 1.50390625,1.51484375 1.53828125,1.55546875 L3.5890625,4 L1.53828125,6.44453125 C1.50390625,6.48515625 1.5328125,6.546875 1.5859375,6.546875 L2.209375,6.546875 C2.24609375,6.546875 2.28125,6.53046875 2.30546875,6.50234375 L3.996875,4.4859375 L5.68828125,6.50234375 C5.71171875,6.53046875 5.746875,6.546875 5.784375,6.546875 L6.4078125,6.546875 C6.4609375,6.546875 6.48984375,6.48515625 6.45546875,6.44453125 L4.4046875,4 Z" id="路径"></path>
                    </g>
                </g>
                <g id="Feedback/Alert/Light/Default-Warning" transform="translate(0.000000, 84.000000)">
                    <path d="M5.1277704,0.25 L154.87223,0.25 C156.584468,0.25 157.20888,0.419442838 157.835792,0.754718707 C158.443432,1.07968831 158.920312,1.55656799 159.245281,2.16420831 C159.580557,2.79111968 159.75,3.41553223 159.75,5.1277704 L159.75,14.8722296 C159.75,16.5844678 159.580557,17.2088803 159.245281,17.8357917 C158.920312,18.443432 158.443432,18.9203117 157.835792,19.2452813 C157.20888,19.5805572 156.584468,19.75 154.87223,19.75 L5.1277704,19.75 C3.41553223,19.75 2.79111968,19.5805572 2.16420831,19.2452813 C1.55656799,18.9203117 1.07968831,18.443432 0.754718707,17.8357917 C0.419442838,17.2088803 0.25,16.5844678 0.25,14.8722296 L0.25,5.1277704 C0.25,3.41553223 0.419442838,2.79111968 0.754718707,2.16420831 C1.07968831,1.55656799 1.55656799,1.07968831 2.16420831,0.754718707 C2.79111968,0.419442838 3.41553223,0.25 5.1277704,0.25 Z" id="bg" stroke="#FFF1B8" stroke-width="0.5" fill="#FFFBE6"></path>
                    <text id="Text" font-family="PingFangSC-Regular, PingFang SC" font-size="7" font-weight="normal" line-spacing="11" fill="#000000" fill-opacity="0.88">
                        <tspan x="18" y="11.5">||||||||||||||||||||||||||||||||||||||||||||||||||||||||||</tspan>
                    </text>
                    <g id="Icon/Fill/Close-Circle-Fill" transform="translate(6.000000, 6.000000)" fill="#FAAD14">
                        <rect id="矩形" fill-rule="nonzero" opacity="0" x="0" y="0" width="8" height="8"></rect>
                        <path d="M4,0.5 C2.0671875,0.5 0.5,2.0671875 0.5,4 C0.5,5.9328125 2.0671875,7.5 4,7.5 C5.9328125,7.5 7.5,5.9328125 7.5,4 C7.5,2.0671875 5.9328125,0.5 4,0.5 Z M3.75,2.3125 C3.75,2.278125 3.778125,2.25 3.8125,2.25 L4.1875,2.25 C4.221875,2.25 4.25,2.278125 4.25,2.3125 L4.25,4.4375 C4.25,4.471875 4.221875,4.5 4.1875,4.5 L3.8125,4.5 C3.778125,4.5 3.75,4.471875 3.75,4.4375 L3.75,2.3125 Z M4,5.75 C3.79296875,5.75 3.625,5.58203125 3.625,5.375 C3.625,5.16796875 3.79296875,5 4,5 C4.20703125,5 4.375,5.16796875 4.375,5.375 C4.375,5.58203125 4.20703125,5.75 4,5.75 Z" id="形状"></path>
                    </g>
                    <g id="Icon/Close" opacity="0.45" transform="translate(146.000000, 6.000000)" fill="#000000">
                        <rect id="矩形" fill-rule="nonzero" opacity="0" x="0" y="0" width="8" height="8"></rect>
                        <path d="M4.4046875,4 L6.45546875,1.55546875 C6.48984375,1.51484375 6.4609375,1.453125 6.4078125,1.453125 L5.784375,1.453125 C5.74765625,1.453125 5.7125,1.46953125 5.68828125,1.49765625 L3.996875,3.5140625 L2.30546875,1.49765625 C2.28203125,1.46953125 2.246875,1.453125 2.209375,1.453125 L1.5859375,1.453125 C1.5328125,1.453125 1.50390625,1.51484375 1.53828125,1.55546875 L3.5890625,4 L1.53828125,6.44453125 C1.50390625,6.48515625 1.5328125,6.546875 1.5859375,6.546875 L2.209375,6.546875 C2.24609375,6.546875 2.28125,6.53046875 2.30546875,6.50234375 L3.996875,4.4859375 L5.68828125,6.50234375 C5.71171875,6.53046875 5.746875,6.546875 5.784375,6.546875 L6.4078125,6.546875 C6.4609375,6.546875 6.48984375,6.48515625 6.45546875,6.44453125 L4.4046875,4 Z" id="路径"></path>
                    </g>
                </g>
            </g>
        </g>
    </g>
</svg>