<?xml version="1.0" encoding="UTF-8"?>
<svg width="180px" height="108px" viewBox="0 0 180 108" version="1.1" xmlns="http://www.w3.org/2000/svg" xmlns:xlink="http://www.w3.org/1999/xlink">
    <title>ç¼–ç»„ 4</title>
    <g id="ç»„ä»¶éª¨æž¶å›¾æ›´æ–°" stroke="none" stroke-width="1" fill="none" fill-rule="evenodd">
        <g id="ðŸŽ‰-5.0-æ–°ç‰ˆ" transform="translate(-893.000000, -5485.000000)">
            <g id="ç¼–ç»„-4" transform="translate(893.000000, 5485.000000)">
                <rect id="çŸ©å½¢å¤åˆ¶-90å¤‡ä»½" fill="#F5F5F5" fill-rule="nonzero" x="0" y="0" width="180" height="108" rx="6"></rect>
                <g id="&lt;App&gt;" transform="translate(51.380000, 35.560000)" fill="#000000" fill-opacity="0.88" fill-rule="nonzero">
                    <path d="M12.04,18.62 L0,12.6 L0,9.8 L12.04,3.78 L12.04,6.216 L3.36,10.472 C3.00533333,10.64 2.674,10.7846667 2.366,10.906 C2.058,11.0273333 1.82933333,11.1066667 1.68,11.144 C1.848,11.1813333 2.09066667,11.2606667 2.408,11.382 C2.72533333,11.5033333 3.04266667,11.648 3.36,11.816 L12.04,16.1 L12.04,18.62 Z" id="è·¯å¾„"></path>
                    <path d="M15.5575,20.44 L20.8775,0 L24.2655,0 L29.5575,20.44 L27.0095,20.44 L25.6655,15.008 L19.4775,15.008 L18.1335,20.44 L15.5575,20.44 Z M19.9815,12.88 L25.1335,12.88 L23.5655,6.58 C23.2668333,5.38533333 23.0335,4.38666667 22.8655,3.584 C22.6975,2.78133333 22.5948333,2.25866667 22.5575,2.016 C22.5201667,2.25866667 22.4175,2.78133333 22.2495,3.584 C22.0815,4.38666667 21.8481667,5.376 21.5495,6.552 L19.9815,12.88 Z" id="å½¢çŠ¶"></path>
                    <path d="M33.299,25.48 L33.299,5.04 L35.819,5.04 L35.819,7.98 L35.847,7.98 C35.9776667,6.972 36.421,6.18333333 37.177,5.614 C37.933,5.04466667 38.8896667,4.76 40.047,4.76 C41.5963333,4.76 42.833,5.26866667 43.757,6.286 C44.681,7.30333333 45.143,8.69866667 45.143,10.472 L45.143,14.98 C45.143,16.7533333 44.681,18.1533333 43.757,19.18 C42.833,20.2066667 41.5963333,20.72 40.047,20.72 C38.8896667,20.72 37.9376667,20.4306667 37.191,19.852 C36.4443333,19.2733333 35.9963333,18.4893333 35.847,17.5 L35.763,17.5 L35.819,21 L35.819,25.48 L33.299,25.48 Z M39.207,18.536 C40.271,18.536 41.1063333,18.2186667 41.713,17.584 C42.3196667,16.9493333 42.623,16.0346667 42.623,14.84 L42.623,10.64 C42.623,9.44533333 42.3196667,8.53066667 41.713,7.896 C41.1063333,7.26133333 40.271,6.944 39.207,6.944 C38.1803333,6.944 37.359,7.27066667 36.743,7.924 C36.127,8.57733333 35.819,9.48266667 35.819,10.64 L35.819,14.84 C35.819,15.9973333 36.127,16.9026667 36.743,17.556 C37.359,18.2093333 38.1803333,18.536 39.207,18.536 Z" id="å½¢çŠ¶"></path>
                    <path d="M49.8365,25.48 L49.8365,5.04 L52.3565,5.04 L52.3565,7.98 L52.3845,7.98 C52.5151667,6.972 52.9585,6.18333333 53.7145,5.614 C54.4705,5.04466667 55.4271667,4.76 56.5845,4.76 C58.1338333,4.76 59.3705,5.26866667 60.2945,6.286 C61.2185,7.30333333 61.6805,8.69866667 61.6805,10.472 L61.6805,14.98 C61.6805,16.7533333 61.2185,18.1533333 60.2945,19.18 C59.3705,20.2066667 58.1338333,20.72 56.5845,20.72 C55.4271667,20.72 54.4751667,20.4306667 53.7285,19.852 C52.9818333,19.2733333 52.5338333,18.4893333 52.3845,17.5 L52.3005,17.5 L52.3565,21 L52.3565,25.48 L49.8365,25.48 Z M55.7445,18.536 C56.8085,18.536 57.6438333,18.2186667 58.2505,17.584 C58.8571667,16.9493333 59.1605,16.0346667 59.1605,14.84 L59.1605,10.64 C59.1605,9.44533333 58.8571667,8.53066667 58.2505,7.896 C57.6438333,7.26133333 56.8085,6.944 55.7445,6.944 C54.7178333,6.944 53.8965,7.27066667 53.2805,7.924 C52.6645,8.57733333 52.3565,9.48266667 52.3565,10.64 L52.3565,14.84 C52.3565,15.9973333 52.6645,16.9026667 53.2805,17.556 C53.8965,18.2093333 54.7178333,18.536 55.7445,18.536 Z" id="å½¢çŠ¶"></path>
                    <path d="M66.15,18.62 L66.15,16.184 L74.83,11.928 C75.1846667,11.76 75.516,11.6153333 75.824,11.494 C76.132,11.3726667 76.3606667,11.2933333 76.51,11.256 C76.342,11.2186667 76.0993333,11.1393333 75.782,11.018 C75.4646667,10.8966667 75.1473333,10.752 74.83,10.584 L66.15,6.3 L66.15,3.78 L78.19,9.8 L78.19,12.6 L66.15,18.62 Z" id="è·¯å¾„"></path>
                </g>
                <rect id="çŸ©å½¢å¤‡ä»½-6" fill="#91CAFF" x="53" y="72" width="8" height="8" rx="1"></rect>
                <rect id="çŸ©å½¢å¤‡ä»½-7" fill="#B7EB8F" x="75" y="72" width="8" height="8" rx="1"></rect>
                <rect id="çŸ©å½¢å¤‡ä»½-8" fill="#FFE58F" x="97" y="72" width="8" height="8" rx="1"></rect>
                <rect id="çŸ©å½¢å¤‡ä»½-9" fill="#FFA39E" x="119" y="72" width="8" height="8" rx="1"></rect>
            </g>
        </g>
    </g>
</svg>