<?xml version="1.0" encoding="UTF-8"?>
<svg width="180px" height="173px" viewBox="0 0 180 173" version="1.1" xmlns="http://www.w3.org/2000/svg" xmlns:xlink="http://www.w3.org/1999/xlink">
    <title>数据录入/DatePicker日期选择框/Light/选择-年月日</title>
    <defs>
        <path d="M5.1277704,-1.1140022e-15 L138.87223,2.07168062e-16 C140.655267,-1.2037061e-16 141.30184,0.185651222 141.953691,0.534265408 C142.605543,0.882879593 143.11712,1.39445674 143.465735,2.04630859 C143.814349,2.69816044 144,3.34473292 144,5.1277704 L144,131.87223 C144,133.655267 143.814349,134.30184 143.465735,134.953691 C143.11712,135.605543 142.605543,136.11712 141.953691,136.465735 C141.30184,136.814349 140.655267,137 138.87223,137 L5.1277704,137 C3.34473292,137 2.69816044,136.814349 2.04630859,136.465735 C1.39445674,136.11712 0.882879593,135.605543 0.534265408,134.953691 C0.185651222,134.30184 6.07143823e-16,133.655267 -1.04494618e-15,131.87223 L1.38112041e-16,5.1277704 C-8.02470732e-17,3.34473292 0.185651222,2.69816044 0.534265408,2.04630859 C0.882879593,1.39445674 1.39445674,0.882879593 2.04630859,0.534265408 C2.69816044,0.185651222 3.34473292,6.4726736e-16 5.1277704,-1.1140022e-15 Z" id="path-1"></path>
        <filter x="-20.5%" y="-17.9%" width="141.0%" height="143.1%" filterUnits="objectBoundingBox" id="filter-2">
            <feMorphology radius="2" operator="dilate" in="SourceAlpha" result="shadowSpreadOuter1"></feMorphology>
            <feOffset dx="0" dy="5" in="shadowSpreadOuter1" result="shadowOffsetOuter1"></feOffset>
            <feGaussianBlur stdDeviation="7" in="shadowOffsetOuter1" result="shadowBlurOuter1"></feGaussianBlur>
            <feColorMatrix values="0 0 0 0 0   0 0 0 0 0   0 0 0 0 0  0 0 0 0.05 0" type="matrix" in="shadowBlurOuter1" result="shadowMatrixOuter1"></feColorMatrix>
            <feOffset dx="0" dy="3" in="SourceAlpha" result="shadowOffsetOuter2"></feOffset>
            <feGaussianBlur stdDeviation="4" in="shadowOffsetOuter2" result="shadowBlurOuter2"></feGaussianBlur>
            <feColorMatrix values="0 0 0 0 0   0 0 0 0 0   0 0 0 0 0  0 0 0 0.08 0" type="matrix" in="shadowBlurOuter2" result="shadowMatrixOuter2"></feColorMatrix>
            <feMorphology radius="1" operator="erode" in="SourceAlpha" result="shadowSpreadOuter3"></feMorphology>
            <feOffset dx="0" dy="2" in="shadowSpreadOuter3" result="shadowOffsetOuter3"></feOffset>
            <feGaussianBlur stdDeviation="1.5" in="shadowOffsetOuter3" result="shadowBlurOuter3"></feGaussianBlur>
            <feColorMatrix values="0 0 0 0 0   0 0 0 0 0   0 0 0 0 0  0 0 0 0.12 0" type="matrix" in="shadowBlurOuter3" result="shadowMatrixOuter3"></feColorMatrix>
            <feMerge>
                <feMergeNode in="shadowMatrixOuter1"></feMergeNode>
                <feMergeNode in="shadowMatrixOuter2"></feMergeNode>
                <feMergeNode in="shadowMatrixOuter3"></feMergeNode>
            </feMerge>
        </filter>
    </defs>
    <g id="组件骨架图更新" stroke="none" stroke-width="1" fill="none" fill-rule="evenodd">
        <g id="🎉-5.0-新版" transform="translate(-893.000000, -2983.000000)">
            <g id="数据录入/DatePicker日期选择框/Light/选择-年月日" transform="translate(911.000000, 2996.000000)">
                <g id="Rectangle-5-Copy-10">
                    <use fill="black" fill-opacity="1" filter="url(#filter-2)" xlink:href="#path-1"></use>
                    <use fill="#FFFFFF" fill-rule="evenodd" xlink:href="#path-1"></use>
                </g>
                <rect id="Rectangle-52-Copy-11备份-89" x="66" y="62.5" width="12" height="12" rx="2"></rect>
                <text id="17-copy-7备份-2" font-family="PingFangSC-Regular, PingFang SC" font-size="7" font-weight="normal" line-spacing="11" fill="#000000" fill-opacity="0.88">
                    <tspan x="68.682" y="70">17</tspan>
                </text>
                <path d="M111.436115,62.75 C112.256834,62.75 112.557961,62.8266172 112.858946,62.987586 C113.14066,63.1382485 113.361751,63.3593396 113.512414,63.641054 C113.673383,63.9420395 113.75,64.2431658 113.75,65.0638852 L113.75,71.9361148 C113.75,72.7568342 113.673383,73.0579605 113.512414,73.358946 C113.361751,73.6406604 113.14066,73.8617515 112.858946,74.012414 C112.557961,74.1733828 112.256834,74.25 111.436115,74.25 L104.563885,74.25 C103.743166,74.25 103.442039,74.1733828 103.141054,74.012414 C102.85934,73.8617515 102.638249,73.6406604 102.487586,73.358946 C102.326617,73.0579605 102.25,72.7568342 102.25,71.9361148 L102.25,65.0638852 C102.25,64.2431658 102.326617,63.9420395 102.487586,63.641054 C102.638249,63.3593396 102.85934,63.1382485 103.141054,62.987586 C103.442039,62.8266172 103.743166,62.75 104.563885,62.75 Z" id="Rectangle-52-Copy-11备份-90" stroke="#1677FF" stroke-width="0.5" fill-opacity="0" fill="#1677FF"></path>
                <text id="19-copy-7备份-2" font-family="PingFangSC-Regular, PingFang SC" font-size="7" font-weight="normal" line-spacing="11" fill="#000000" fill-opacity="0.88">
                    <tspan x="104.4965" y="70">19</tspan>
                </text>
                <path d="M122.563885,98.5 L129.436115,98.5 C130.327634,98.5 130.65092,98.5928256 130.976846,98.7671327 C131.302772,98.9414398 131.55856,99.1972284 131.732867,99.5231543 C131.907174,99.8490802 132,100.172366 132,101.063885 L132,107.936115 C132,108.827634 131.907174,109.15092 131.732867,109.476846 C131.55856,109.802772 131.302772,110.05856 130.976846,110.232867 C130.65092,110.407174 130.327634,110.5 129.436115,110.5 L122.563885,110.5 C121.672366,110.5 121.34908,110.407174 121.023154,110.232867 C120.697228,110.05856 120.44144,109.802772 120.267133,109.476846 C120.092826,109.15092 120,108.827634 120,107.936115 L120,101.063885 C120,100.172366 120.092826,99.8490802 120.267133,99.5231543 C120.44144,99.1972284 120.697228,98.9414398 121.023154,98.7671327 C121.34908,98.5928256 121.672366,98.5 122.563885,98.5 Z" id="Rectangle-52-Copy-11备份-91"></path>
                <text id="4备份-3" font-family="PingFangSC-Regular, PingFang SC" font-size="7" font-weight="normal" line-spacing="11" fill="#000000" fill-opacity="0.25">
                    <tspan x="123.9" y="106">4</tspan>
                </text>
                <path d="M14.5638852,116.5 L21.4361148,116.5 C22.3276335,116.5 22.6509198,116.592826 22.9768457,116.767133 C23.3027716,116.94144 23.5585602,117.197228 23.7328673,117.523154 C23.9071744,117.84908 24,118.172366 24,119.063885 L24,125.936115 C24,126.827634 23.9071744,127.15092 23.7328673,127.476846 C23.5585602,127.802772 23.3027716,128.05856 22.9768457,128.232867 C22.6509198,128.407174 22.3276335,128.5 21.4361148,128.5 L14.5638852,128.5 C13.6723665,128.5 13.3490802,128.407174 13.0231543,128.232867 C12.6972284,128.05856 12.4414398,127.802772 12.2671327,127.476846 C12.0928256,127.15092 12,126.827634 12,125.936115 L12,119.063885 C12,118.172366 12.0928256,117.84908 12.2671327,117.523154 C12.4414398,117.197228 12.6972284,116.94144 13.0231543,116.767133 C13.3490802,116.592826 13.6723665,116.5 14.5638852,116.5 Z" id="Rectangle-52-Copy-11备份-94"></path>
                <text id="5备份-3" font-family="PingFangSC-Regular, PingFang SC" font-size="7" font-weight="normal" line-spacing="11" fill="#000000" fill-opacity="0.25">
                    <tspan x="15.9" y="124">5</tspan>
                </text>
                <path d="M68.5638852,116.5 L75.4361148,116.5 C76.3276335,116.5 76.6509198,116.592826 76.9768457,116.767133 C77.3027716,116.94144 77.5585602,117.197228 77.7328673,117.523154 C77.9071744,117.84908 78,118.172366 78,119.063885 L78,125.936115 C78,126.827634 77.9071744,127.15092 77.7328673,127.476846 C77.5585602,127.802772 77.3027716,128.05856 76.9768457,128.232867 C76.6509198,128.407174 76.3276335,128.5 75.4361148,128.5 L68.5638852,128.5 C67.6723665,128.5 67.3490802,128.407174 67.0231543,128.232867 C66.6972284,128.05856 66.4414398,127.802772 66.2671327,127.476846 C66.0928256,127.15092 66,126.827634 66,125.936115 L66,119.063885 C66,118.172366 66.0928256,117.84908 66.2671327,117.523154 C66.4414398,117.197228 66.6972284,116.94144 67.0231543,116.767133 C67.3490802,116.592826 67.6723665,116.5 68.5638852,116.5 Z" id="Rectangle-52-Copy-11备份-95"></path>
                <text id="8备份-3" font-family="PingFangSC-Regular, PingFang SC" font-size="7" font-weight="normal" line-spacing="11" fill="#000000" fill-opacity="0.25">
                    <tspan x="69.9" y="124">8</tspan>
                </text>
                <g id="编组-59备份-2" transform="translate(120.000000, 8.500000)">
                    <path d="M2.5638852,3.49833039e-16 L9.4361148,1.03584031e-16 C10.3276335,-6.01853049e-17 10.6509198,0.0928256111 10.9768457,0.267132704 C11.3027716,0.441439796 11.5585602,0.697228371 11.7328673,1.0231543 C11.9071744,1.34908022 12,1.67236646 12,2.5638852 L12,9.4361148 C12,10.3276335 11.9071744,10.6509198 11.7328673,10.9768457 C11.5585602,11.3027716 11.3027716,11.5585602 10.9768457,11.7328673 C10.6509198,11.9071744 10.3276335,12 9.4361148,12 L2.5638852,12 C1.67236646,12 1.34908022,11.9071744 1.0231543,11.7328673 C0.697228371,11.5585602 0.441439796,11.3027716 0.267132704,10.9768457 C0.0928256111,10.6509198 -2.23324838e-16,10.3276335 3.84361049e-16,9.4361148 L6.90560205e-17,2.5638852 C-4.01235366e-17,1.67236646 0.0928256111,1.34908022 0.267132704,1.0231543 C0.441439796,0.697228371 0.697228371,0.441439796 1.0231543,0.267132704 C1.34908022,0.0928256111 1.67236646,-2.0326307e-16 2.5638852,3.49833039e-16 Z" id="Rectangle-52-Copy-11备份"></path>
                    <text id="日-copy" font-family="PingFangSC-Regular, PingFang SC" font-size="7" font-weight="normal" line-spacing="11" fill="#000000" fill-opacity="0.45">
                        <tspan x="2.5" y="7.5">日</tspan>
                    </text>
                </g>
                <path d="M32.5638852,8.5 L39.4361148,8.5 C40.3276335,8.5 40.6509198,8.59282561 40.9768457,8.7671327 C41.3027716,8.9414398 41.5585602,9.19722837 41.7328673,9.5231543 C41.9071744,9.84908022 42,10.1723665 42,11.0638852 L42,17.9361148 C42,18.8276335 41.9071744,19.1509198 41.7328673,19.4768457 C41.5585602,19.8027716 41.3027716,20.0585602 40.9768457,20.2328673 C40.6509198,20.4071744 40.3276335,20.5 39.4361148,20.5 L32.5638852,20.5 C31.6723665,20.5 31.3490802,20.4071744 31.0231543,20.2328673 C30.6972284,20.0585602 30.4414398,19.8027716 30.2671327,19.4768457 C30.0928256,19.1509198 30,18.8276335 30,17.9361148 L30,11.0638852 C30,10.1723665 30.0928256,9.84908022 30.2671327,9.5231543 C30.4414398,9.19722837 30.6972284,8.9414398 31.0231543,8.7671327 C31.3490802,8.59282561 31.6723665,8.5 32.5638852,8.5 Z" id="Rectangle-52-Copy-11备份-96"></path>
                <text id="二-copy-9备份-2" font-family="PingFangSC-Regular, PingFang SC" font-size="7" font-weight="normal" line-spacing="11" fill="#000000" fill-opacity="0.45">
                    <tspan x="32.5" y="16">二</tspan>
                </text>
                <path d="M68.5638852,8.5 L75.4361148,8.5 C76.3276335,8.5 76.6509198,8.59282561 76.9768457,8.7671327 C77.3027716,8.9414398 77.5585602,9.19722837 77.7328673,9.5231543 C77.9071744,9.84908022 78,10.1723665 78,11.0638852 L78,17.9361148 C78,18.8276335 77.9071744,19.1509198 77.7328673,19.4768457 C77.5585602,19.8027716 77.3027716,20.0585602 76.9768457,20.2328673 C76.6509198,20.4071744 76.3276335,20.5 75.4361148,20.5 L68.5638852,20.5 C67.6723665,20.5 67.3490802,20.4071744 67.0231543,20.2328673 C66.6972284,20.0585602 66.4414398,19.8027716 66.2671327,19.4768457 C66.0928256,19.1509198 66,18.8276335 66,17.9361148 L66,11.0638852 C66,10.1723665 66.0928256,9.84908022 66.2671327,9.5231543 C66.4414398,9.19722837 66.6972284,8.9414398 67.0231543,8.7671327 C67.3490802,8.59282561 67.6723665,8.5 68.5638852,8.5 Z" id="Rectangle-52-Copy-11备份-97"></path>
                <text id="四-copy-9备份-2" font-family="PingFangSC-Regular, PingFang SC" font-size="7" font-weight="normal" line-spacing="11" fill="#000000" fill-opacity="0.45">
                    <tspan x="68.5" y="16">四</tspan>
                </text>
                <path d="M14.5638852,8.5 L21.4361148,8.5 C22.3276335,8.5 22.6509198,8.59282561 22.9768457,8.7671327 C23.3027716,8.9414398 23.5585602,9.19722837 23.7328673,9.5231543 C23.9071744,9.84908022 24,10.1723665 24,11.0638852 L24,17.9361148 C24,18.8276335 23.9071744,19.1509198 23.7328673,19.4768457 C23.5585602,19.8027716 23.3027716,20.0585602 22.9768457,20.2328673 C22.6509198,20.4071744 22.3276335,20.5 21.4361148,20.5 L14.5638852,20.5 C13.6723665,20.5 13.3490802,20.4071744 13.0231543,20.2328673 C12.6972284,20.0585602 12.4414398,19.8027716 12.2671327,19.4768457 C12.0928256,19.1509198 12,18.8276335 12,17.9361148 L12,11.0638852 C12,10.1723665 12.0928256,9.84908022 12.2671327,9.5231543 C12.4414398,9.19722837 12.6972284,8.9414398 13.0231543,8.7671327 C13.3490802,8.59282561 13.6723665,8.5 14.5638852,8.5 Z" id="Rectangle-52-Copy-11备份-98"></path>
                <text id="一-copy-9备份-2" font-family="PingFangSC-Regular, PingFang SC" font-size="7" font-weight="normal" line-spacing="11" fill="#000000" fill-opacity="0.45">
                    <tspan x="14.5" y="16">一</tspan>
                </text>
                <path d="M50.5638852,8.5 L57.4361148,8.5 C58.3276335,8.5 58.6509198,8.59282561 58.9768457,8.7671327 C59.3027716,8.9414398 59.5585602,9.19722837 59.7328673,9.5231543 C59.9071744,9.84908022 60,10.1723665 60,11.0638852 L60,17.9361148 C60,18.8276335 59.9071744,19.1509198 59.7328673,19.4768457 C59.5585602,19.8027716 59.3027716,20.0585602 58.9768457,20.2328673 C58.6509198,20.4071744 58.3276335,20.5 57.4361148,20.5 L50.5638852,20.5 C49.6723665,20.5 49.3490802,20.4071744 49.0231543,20.2328673 C48.6972284,20.0585602 48.4414398,19.8027716 48.2671327,19.4768457 C48.0928256,19.1509198 48,18.8276335 48,17.9361148 L48,11.0638852 C48,10.1723665 48.0928256,9.84908022 48.2671327,9.5231543 C48.4414398,9.19722837 48.6972284,8.9414398 49.0231543,8.7671327 C49.3490802,8.59282561 49.6723665,8.5 50.5638852,8.5 Z" id="Rectangle-52-Copy-11备份-99"></path>
                <text id="三-copy-9备份-2" font-family="PingFangSC-Regular, PingFang SC" font-size="7" font-weight="normal" line-spacing="11" fill="#000000" fill-opacity="0.45">
                    <tspan x="50.5" y="16">三</tspan>
                </text>
                <path d="M86.5638852,8.5 L93.4361148,8.5 C94.3276335,8.5 94.6509198,8.59282561 94.9768457,8.7671327 C95.3027716,8.9414398 95.5585602,9.19722837 95.7328673,9.5231543 C95.9071744,9.84908022 96,10.1723665 96,11.0638852 L96,17.9361148 C96,18.8276335 95.9071744,19.1509198 95.7328673,19.4768457 C95.5585602,19.8027716 95.3027716,20.0585602 94.9768457,20.2328673 C94.6509198,20.4071744 94.3276335,20.5 93.4361148,20.5 L86.5638852,20.5 C85.6723665,20.5 85.3490802,20.4071744 85.0231543,20.2328673 C84.6972284,20.0585602 84.4414398,19.8027716 84.2671327,19.4768457 C84.0928256,19.1509198 84,18.8276335 84,17.9361148 L84,11.0638852 C84,10.1723665 84.0928256,9.84908022 84.2671327,9.5231543 C84.4414398,9.19722837 84.6972284,8.9414398 85.0231543,8.7671327 C85.3490802,8.59282561 85.6723665,8.5 86.5638852,8.5 Z" id="Rectangle-52-Copy-11备份-100"></path>
                <text id="五-copy-9备份-2" font-family="PingFangSC-Regular, PingFang SC" font-size="7" font-weight="normal" line-spacing="11" fill="#000000" fill-opacity="0.45">
                    <tspan x="86.5" y="16">五</tspan>
                </text>
                <path d="M104.563885,8.5 L111.436115,8.5 C112.327634,8.5 112.65092,8.59282561 112.976846,8.7671327 C113.302772,8.9414398 113.55856,9.19722837 113.732867,9.5231543 C113.907174,9.84908022 114,10.1723665 114,11.0638852 L114,17.9361148 C114,18.8276335 113.907174,19.1509198 113.732867,19.4768457 C113.55856,19.8027716 113.302772,20.0585602 112.976846,20.2328673 C112.65092,20.4071744 112.327634,20.5 111.436115,20.5 L104.563885,20.5 C103.672366,20.5 103.34908,20.4071744 103.023154,20.2328673 C102.697228,20.0585602 102.44144,19.8027716 102.267133,19.4768457 C102.092826,19.1509198 102,18.8276335 102,17.9361148 L102,11.0638852 C102,10.1723665 102.092826,9.84908022 102.267133,9.5231543 C102.44144,9.19722837 102.697228,8.9414398 103.023154,8.7671327 C103.34908,8.59282561 103.672366,8.5 104.563885,8.5 Z" id="Rectangle-52-Copy-11备份-101"></path>
                <text id="六-copy-9备份-2" font-family="PingFangSC-Regular, PingFang SC" font-size="7" font-weight="normal" line-spacing="11" fill="#000000" fill-opacity="0.45">
                    <tspan x="104.5" y="16">六</tspan>
                </text>
                <path d="M14.5638852,26.5 L21.4361148,26.5 C22.3276335,26.5 22.6509198,26.5928256 22.9768457,26.7671327 C23.3027716,26.9414398 23.5585602,27.1972284 23.7328673,27.5231543 C23.9071744,27.8490802 24,28.1723665 24,29.0638852 L24,35.9361148 C24,36.8276335 23.9071744,37.1509198 23.7328673,37.4768457 C23.5585602,37.8027716 23.3027716,38.0585602 22.9768457,38.2328673 C22.6509198,38.4071744 22.3276335,38.5 21.4361148,38.5 L14.5638852,38.5 C13.6723665,38.5 13.3490802,38.4071744 13.0231543,38.2328673 C12.6972284,38.0585602 12.4414398,37.8027716 12.2671327,37.4768457 C12.0928256,37.1509198 12,36.8276335 12,35.9361148 L12,29.0638852 C12,28.1723665 12.0928256,27.8490802 12.2671327,27.5231543 C12.4414398,27.1972284 12.6972284,26.9414398 13.0231543,26.7671327 C13.3490802,26.5928256 13.6723665,26.5 14.5638852,26.5 Z" id="Rectangle-52-Copy-11备份-102"></path>
                <text id="31备份-2" font-family="PingFangSC-Regular, PingFang SC" font-size="7" font-weight="normal" line-spacing="11" fill="#000000" fill-opacity="0.25">
                    <tspan x="14.4965" y="34">31</tspan>
                </text>
                <path d="M50.5638852,26.5 L57.4361148,26.5 C58.3276335,26.5 58.6509198,26.5928256 58.9768457,26.7671327 C59.3027716,26.9414398 59.5585602,27.1972284 59.7328673,27.5231543 C59.9071744,27.8490802 60,28.1723665 60,29.0638852 L60,35.9361148 C60,36.8276335 59.9071744,37.1509198 59.7328673,37.4768457 C59.5585602,37.8027716 59.3027716,38.0585602 58.9768457,38.2328673 C58.6509198,38.4071744 58.3276335,38.5 57.4361148,38.5 L50.5638852,38.5 C49.6723665,38.5 49.3490802,38.4071744 49.0231543,38.2328673 C48.6972284,38.0585602 48.4414398,37.8027716 48.2671327,37.4768457 C48.0928256,37.1509198 48,36.8276335 48,35.9361148 L48,29.0638852 C48,28.1723665 48.0928256,27.8490802 48.2671327,27.5231543 C48.4414398,27.1972284 48.6972284,26.9414398 49.0231543,26.7671327 C49.3490802,26.5928256 49.6723665,26.5 50.5638852,26.5 Z" id="Rectangle-52-Copy-11备份-103"></path>
                <text id="2备份-3" font-family="PingFangSC-Regular, PingFang SC" font-size="7" font-weight="normal" line-spacing="11" fill="#000000" fill-opacity="0.25">
                    <tspan x="51.9" y="34">2</tspan>
                </text>
                <path d="M32.5638852,26.5 L39.4361148,26.5 C40.3276335,26.5 40.6509198,26.5928256 40.9768457,26.7671327 C41.3027716,26.9414398 41.5585602,27.1972284 41.7328673,27.5231543 C41.9071744,27.8490802 42,28.1723665 42,29.0638852 L42,35.9361148 C42,36.8276335 41.9071744,37.1509198 41.7328673,37.4768457 C41.5585602,37.8027716 41.3027716,38.0585602 40.9768457,38.2328673 C40.6509198,38.4071744 40.3276335,38.5 39.4361148,38.5 L32.5638852,38.5 C31.6723665,38.5 31.3490802,38.4071744 31.0231543,38.2328673 C30.6972284,38.0585602 30.4414398,37.8027716 30.2671327,37.4768457 C30.0928256,37.1509198 30,36.8276335 30,35.9361148 L30,29.0638852 C30,28.1723665 30.0928256,27.8490802 30.2671327,27.5231543 C30.4414398,27.1972284 30.6972284,26.9414398 31.0231543,26.7671327 C31.3490802,26.5928256 31.6723665,26.5 32.5638852,26.5 Z" id="Rectangle-52-Copy-11备份-104"></path>
                <text id="1备份-3" font-family="PingFangSC-Regular, PingFang SC" font-size="7" font-weight="normal" line-spacing="11" fill="#000000" fill-opacity="0.25">
                    <tspan x="34.5965" y="34">1</tspan>
                </text>
                <path d="M68.5638852,26.5 L75.4361148,26.5 C76.3276335,26.5 76.6509198,26.5928256 76.9768457,26.7671327 C77.3027716,26.9414398 77.5585602,27.1972284 77.7328673,27.5231543 C77.9071744,27.8490802 78,28.1723665 78,29.0638852 L78,35.9361148 C78,36.8276335 77.9071744,37.1509198 77.7328673,37.4768457 C77.5585602,37.8027716 77.3027716,38.0585602 76.9768457,38.2328673 C76.6509198,38.4071744 76.3276335,38.5 75.4361148,38.5 L68.5638852,38.5 C67.6723665,38.5 67.3490802,38.4071744 67.0231543,38.2328673 C66.6972284,38.0585602 66.4414398,37.8027716 66.2671327,37.4768457 C66.0928256,37.1509198 66,36.8276335 66,35.9361148 L66,29.0638852 C66,28.1723665 66.0928256,27.8490802 66.2671327,27.5231543 C66.4414398,27.1972284 66.6972284,26.9414398 67.0231543,26.7671327 C67.3490802,26.5928256 67.6723665,26.5 68.5638852,26.5 Z" id="Rectangle-52-Copy-11备份-105"></path>
                <text id="3备份-3" font-family="PingFangSC-Regular, PingFang SC" font-size="7" font-weight="normal" line-spacing="11" fill="#000000" fill-opacity="0.88">
                    <tspan x="69.9" y="34">3</tspan>
                </text>
                <path d="M86.5638852,26.5 L93.4361148,26.5 C94.3276335,26.5 94.6509198,26.5928256 94.9768457,26.7671327 C95.3027716,26.9414398 95.5585602,27.1972284 95.7328673,27.5231543 C95.9071744,27.8490802 96,28.1723665 96,29.0638852 L96,35.9361148 C96,36.8276335 95.9071744,37.1509198 95.7328673,37.4768457 C95.5585602,37.8027716 95.3027716,38.0585602 94.9768457,38.2328673 C94.6509198,38.4071744 94.3276335,38.5 93.4361148,38.5 L86.5638852,38.5 C85.6723665,38.5 85.3490802,38.4071744 85.0231543,38.2328673 C84.6972284,38.0585602 84.4414398,37.8027716 84.2671327,37.4768457 C84.0928256,37.1509198 84,36.8276335 84,35.9361148 L84,29.0638852 C84,28.1723665 84.0928256,27.8490802 84.2671327,27.5231543 C84.4414398,27.1972284 84.6972284,26.9414398 85.0231543,26.7671327 C85.3490802,26.5928256 85.6723665,26.5 86.5638852,26.5 Z" id="Rectangle-52-Copy-11备份-106"></path>
                <text id="4备份-4" font-family="PingFangSC-Regular, PingFang SC" font-size="7" font-weight="normal" line-spacing="11" fill="#000000" fill-opacity="0.88">
                    <tspan x="87.9" y="34">4</tspan>
                </text>
                <path d="M104.563885,26.5 L111.436115,26.5 C112.327634,26.5 112.65092,26.5928256 112.976846,26.7671327 C113.302772,26.9414398 113.55856,27.1972284 113.732867,27.5231543 C113.907174,27.8490802 114,28.1723665 114,29.0638852 L114,35.9361148 C114,36.8276335 113.907174,37.1509198 113.732867,37.4768457 C113.55856,37.8027716 113.302772,38.0585602 112.976846,38.2328673 C112.65092,38.4071744 112.327634,38.5 111.436115,38.5 L104.563885,38.5 C103.672366,38.5 103.34908,38.4071744 103.023154,38.2328673 C102.697228,38.0585602 102.44144,37.8027716 102.267133,37.4768457 C102.092826,37.1509198 102,36.8276335 102,35.9361148 L102,29.0638852 C102,28.1723665 102.092826,27.8490802 102.267133,27.5231543 C102.44144,27.1972284 102.697228,26.9414398 103.023154,26.7671327 C103.34908,26.5928256 103.672366,26.5 104.563885,26.5 Z" id="Rectangle-52-Copy-11备份-107"></path>
                <text id="5备份-4" font-family="PingFangSC-Regular, PingFang SC" font-size="7" font-weight="normal" line-spacing="11" fill="#000000" fill-opacity="0.88">
                    <tspan x="105.9" y="34">5</tspan>
                </text>
                <path d="M104.563885,44.5 L111.436115,44.5 C112.327634,44.5 112.65092,44.5928256 112.976846,44.7671327 C113.302772,44.9414398 113.55856,45.1972284 113.732867,45.5231543 C113.907174,45.8490802 114,46.1723665 114,47.0638852 L114,53.9361148 C114,54.8276335 113.907174,55.1509198 113.732867,55.4768457 C113.55856,55.8027716 113.302772,56.0585602 112.976846,56.2328673 C112.65092,56.4071744 112.327634,56.5 111.436115,56.5 L104.563885,56.5 C103.672366,56.5 103.34908,56.4071744 103.023154,56.2328673 C102.697228,56.0585602 102.44144,55.8027716 102.267133,55.4768457 C102.092826,55.1509198 102,54.8276335 102,53.9361148 L102,47.0638852 C102,46.1723665 102.092826,45.8490802 102.267133,45.5231543 C102.44144,45.1972284 102.697228,44.9414398 103.023154,44.7671327 C103.34908,44.5928256 103.672366,44.5 104.563885,44.5 Z" id="Rectangle-52-Copy-11备份-108"></path>
                <text id="12-copy-5备份-2" font-family="PingFangSC-Regular, PingFang SC" font-size="7" font-weight="normal" line-spacing="11" fill="#000000" fill-opacity="0.88">
                    <tspan x="104.4965" y="52">12</tspan>
                </text>
                <path d="M14.5638852,44.5 L21.4361148,44.5 C22.3276335,44.5 22.6509198,44.5928256 22.9768457,44.7671327 C23.3027716,44.9414398 23.5585602,45.1972284 23.7328673,45.5231543 C23.9071744,45.8490802 24,46.1723665 24,47.0638852 L24,53.9361148 C24,54.8276335 23.9071744,55.1509198 23.7328673,55.4768457 C23.5585602,55.8027716 23.3027716,56.0585602 22.9768457,56.2328673 C22.6509198,56.4071744 22.3276335,56.5 21.4361148,56.5 L14.5638852,56.5 C13.6723665,56.5 13.3490802,56.4071744 13.0231543,56.2328673 C12.6972284,56.0585602 12.4414398,55.8027716 12.2671327,55.4768457 C12.0928256,55.1509198 12,54.8276335 12,53.9361148 L12,47.0638852 C12,46.1723665 12.0928256,45.8490802 12.2671327,45.5231543 C12.4414398,45.1972284 12.6972284,44.9414398 13.0231543,44.7671327 C13.3490802,44.5928256 13.6723665,44.5 14.5638852,44.5 Z" id="Rectangle-52-Copy-11备份-109"></path>
                <text id="7备份-3" font-family="PingFangSC-Regular, PingFang SC" font-size="7" font-weight="normal" line-spacing="11" fill="#000000" fill-opacity="0.88">
                    <tspan x="16.0855" y="52">7</tspan>
                </text>
                <path d="M14.5638852,62.5 L21.4361148,62.5 C22.3276335,62.5 22.6509198,62.5928256 22.9768457,62.7671327 C23.3027716,62.9414398 23.5585602,63.1972284 23.7328673,63.5231543 C23.9071744,63.8490802 24,64.1723665 24,65.0638852 L24,71.9361148 C24,72.8276335 23.9071744,73.1509198 23.7328673,73.4768457 C23.5585602,73.8027716 23.3027716,74.0585602 22.9768457,74.2328673 C22.6509198,74.4071744 22.3276335,74.5 21.4361148,74.5 L14.5638852,74.5 C13.6723665,74.5 13.3490802,74.4071744 13.0231543,74.2328673 C12.6972284,74.0585602 12.4414398,73.8027716 12.2671327,73.4768457 C12.0928256,73.1509198 12,72.8276335 12,71.9361148 L12,65.0638852 C12,64.1723665 12.0928256,63.8490802 12.2671327,63.5231543 C12.4414398,63.1972284 12.6972284,62.9414398 13.0231543,62.7671327 C13.3490802,62.5928256 13.6723665,62.5 14.5638852,62.5 Z" id="Rectangle-52-Copy-11备份-110"></path>
                <text id="14-copy-7备份-2" font-family="PingFangSC-Regular, PingFang SC" font-size="7" font-weight="normal" line-spacing="11" fill="#000000" fill-opacity="0.88">
                    <tspan x="14.4965" y="70">14</tspan>
                </text>
                <path d="M68.5638852,80.5 L75.4361148,80.5 C76.3276335,80.5 76.6509198,80.5928256 76.9768457,80.7671327 C77.3027716,80.9414398 77.5585602,81.1972284 77.7328673,81.5231543 C77.9071744,81.8490802 78,82.1723665 78,83.0638852 L78,89.9361148 C78,90.8276335 77.9071744,91.1509198 77.7328673,91.4768457 C77.5585602,91.8027716 77.3027716,92.0585602 76.9768457,92.2328673 C76.6509198,92.4071744 76.3276335,92.5 75.4361148,92.5 L68.5638852,92.5 C67.6723665,92.5 67.3490802,92.4071744 67.0231543,92.2328673 C66.6972284,92.0585602 66.4414398,91.8027716 66.2671327,91.4768457 C66.0928256,91.1509198 66,90.8276335 66,89.9361148 L66,83.0638852 C66,82.1723665 66.0928256,81.8490802 66.2671327,81.5231543 C66.4414398,81.1972284 66.6972284,80.9414398 67.0231543,80.7671327 C67.3490802,80.5928256 67.6723665,80.5 68.5638852,80.5 Z" id="Rectangle-52-Copy-11备份-111"></path>
                <text id="24-copy-7备份-2" font-family="PingFangSC-Regular, PingFang SC" font-size="7" font-weight="normal" line-spacing="11" fill="#000000" fill-opacity="0.88">
                    <tspan x="67.8" y="88">24</tspan>
                </text>
                <path d="M14.5638852,80.5 L21.4361148,80.5 C22.3276335,80.5 22.6509198,80.5928256 22.9768457,80.7671327 C23.3027716,80.9414398 23.5585602,81.1972284 23.7328673,81.5231543 C23.9071744,81.8490802 24,82.1723665 24,83.0638852 L24,89.9361148 C24,90.8276335 23.9071744,91.1509198 23.7328673,91.4768457 C23.5585602,91.8027716 23.3027716,92.0585602 22.9768457,92.2328673 C22.6509198,92.4071744 22.3276335,92.5 21.4361148,92.5 L14.5638852,92.5 C13.6723665,92.5 13.3490802,92.4071744 13.0231543,92.2328673 C12.6972284,92.0585602 12.4414398,91.8027716 12.2671327,91.4768457 C12.0928256,91.1509198 12,90.8276335 12,89.9361148 L12,83.0638852 C12,82.1723665 12.0928256,81.8490802 12.2671327,81.5231543 C12.4414398,81.1972284 12.6972284,80.9414398 13.0231543,80.7671327 C13.3490802,80.5928256 13.6723665,80.5 14.5638852,80.5 Z" id="Rectangle-52-Copy-11备份-112"></path>
                <text id="21-copy-4备份-2" font-family="PingFangSC-Regular, PingFang SC" font-size="7" font-weight="normal" line-spacing="11" fill="#000000" fill-opacity="0.88">
                    <tspan x="14.4965" y="88">21</tspan>
                </text>
                <path d="M50.5638852,44.5 L57.4361148,44.5 C58.3276335,44.5 58.6509198,44.5928256 58.9768457,44.7671327 C59.3027716,44.9414398 59.5585602,45.1972284 59.7328673,45.5231543 C59.9071744,45.8490802 60,46.1723665 60,47.0638852 L60,53.9361148 C60,54.8276335 59.9071744,55.1509198 59.7328673,55.4768457 C59.5585602,55.8027716 59.3027716,56.0585602 58.9768457,56.2328673 C58.6509198,56.4071744 58.3276335,56.5 57.4361148,56.5 L50.5638852,56.5 C49.6723665,56.5 49.3490802,56.4071744 49.0231543,56.2328673 C48.6972284,56.0585602 48.4414398,55.8027716 48.2671327,55.4768457 C48.0928256,55.1509198 48,54.8276335 48,53.9361148 L48,47.0638852 C48,46.1723665 48.0928256,45.8490802 48.2671327,45.5231543 C48.4414398,45.1972284 48.6972284,44.9414398 49.0231543,44.7671327 C49.3490802,44.5928256 49.6723665,44.5 50.5638852,44.5 Z" id="Rectangle-52-Copy-11备份-113"></path>
                <text id="9备份-2" font-family="PingFangSC-Regular, PingFang SC" font-size="7" font-weight="normal" line-spacing="11" fill="#000000" fill-opacity="0.88">
                    <tspan x="51.9" y="52">9</tspan>
                </text>
                <path d="M50.5638852,62.5 L57.4361148,62.5 C58.3276335,62.5 58.6509198,62.5928256 58.9768457,62.7671327 C59.3027716,62.9414398 59.5585602,63.1972284 59.7328673,63.5231543 C59.9071744,63.8490802 60,64.1723665 60,65.0638852 L60,71.9361148 C60,72.8276335 59.9071744,73.1509198 59.7328673,73.4768457 C59.5585602,73.8027716 59.3027716,74.0585602 58.9768457,74.2328673 C58.6509198,74.4071744 58.3276335,74.5 57.4361148,74.5 L50.5638852,74.5 C49.6723665,74.5 49.3490802,74.4071744 49.0231543,74.2328673 C48.6972284,74.0585602 48.4414398,73.8027716 48.2671327,73.4768457 C48.0928256,73.1509198 48,72.8276335 48,71.9361148 L48,65.0638852 C48,64.1723665 48.0928256,63.8490802 48.2671327,63.5231543 C48.4414398,63.1972284 48.6972284,62.9414398 49.0231543,62.7671327 C49.3490802,62.5928256 49.6723665,62.5 50.5638852,62.5 Z" id="Rectangle-52-Copy-11备份-114"></path>
                <text id="16-copy-12备份-2" font-family="PingFangSC-Regular, PingFang SC" font-size="7" font-weight="normal" line-spacing="11" fill="#000000" fill-opacity="0.88">
                    <tspan x="50.4965" y="70">16</tspan>
                </text>
                <path d="M50.5638852,80.5 L57.4361148,80.5 C58.3276335,80.5 58.6509198,80.5928256 58.9768457,80.7671327 C59.3027716,80.9414398 59.5585602,81.1972284 59.7328673,81.5231543 C59.9071744,81.8490802 60,82.1723665 60,83.0638852 L60,89.9361148 C60,90.8276335 59.9071744,91.1509198 59.7328673,91.4768457 C59.5585602,91.8027716 59.3027716,92.0585602 58.9768457,92.2328673 C58.6509198,92.4071744 58.3276335,92.5 57.4361148,92.5 L50.5638852,92.5 C49.6723665,92.5 49.3490802,92.4071744 49.0231543,92.2328673 C48.6972284,92.0585602 48.4414398,91.8027716 48.2671327,91.4768457 C48.0928256,91.1509198 48,90.8276335 48,89.9361148 L48,83.0638852 C48,82.1723665 48.0928256,81.8490802 48.2671327,81.5231543 C48.4414398,81.1972284 48.6972284,80.9414398 49.0231543,80.7671327 C49.3490802,80.5928256 49.6723665,80.5 50.5638852,80.5 Z" id="Rectangle-52-Copy-11备份-115"></path>
                <text id="23-copy-8备份-2" font-family="PingFangSC-Regular, PingFang SC" font-size="7" font-weight="normal" line-spacing="11" fill="#000000" fill-opacity="0.88">
                    <tspan x="49.8" y="88">23</tspan>
                </text>
                <path d="M122.563885,26.5 L129.436115,26.5 C130.327634,26.5 130.65092,26.5928256 130.976846,26.7671327 C131.302772,26.9414398 131.55856,27.1972284 131.732867,27.5231543 C131.907174,27.8490802 132,28.1723665 132,29.0638852 L132,35.9361148 C132,36.8276335 131.907174,37.1509198 131.732867,37.4768457 C131.55856,37.8027716 131.302772,38.0585602 130.976846,38.2328673 C130.65092,38.4071744 130.327634,38.5 129.436115,38.5 L122.563885,38.5 C121.672366,38.5 121.34908,38.4071744 121.023154,38.2328673 C120.697228,38.0585602 120.44144,37.8027716 120.267133,37.4768457 C120.092826,37.1509198 120,36.8276335 120,35.9361148 L120,29.0638852 C120,28.1723665 120.092826,27.8490802 120.267133,27.5231543 C120.44144,27.1972284 120.697228,26.9414398 121.023154,26.7671327 C121.34908,26.5928256 121.672366,26.5 122.563885,26.5 Z" id="Rectangle-52-Copy-11备份-116"></path>
                <text id="6备份-3" font-family="PingFangSC-Regular, PingFang SC" font-size="7" font-weight="normal" line-spacing="11" fill="#000000" fill-opacity="0.88">
                    <tspan x="123.9" y="34">6</tspan>
                </text>
                <path d="M122.563885,44.5 L129.436115,44.5 C130.327634,44.5 130.65092,44.5928256 130.976846,44.7671327 C131.302772,44.9414398 131.55856,45.1972284 131.732867,45.5231543 C131.907174,45.8490802 132,46.1723665 132,47.0638852 L132,53.9361148 C132,54.8276335 131.907174,55.1509198 131.732867,55.4768457 C131.55856,55.8027716 131.302772,56.0585602 130.976846,56.2328673 C130.65092,56.4071744 130.327634,56.5 129.436115,56.5 L122.563885,56.5 C121.672366,56.5 121.34908,56.4071744 121.023154,56.2328673 C120.697228,56.0585602 120.44144,55.8027716 120.267133,55.4768457 C120.092826,55.1509198 120,54.8276335 120,53.9361148 L120,47.0638852 C120,46.1723665 120.092826,45.8490802 120.267133,45.5231543 C120.44144,45.1972284 120.697228,44.9414398 121.023154,44.7671327 C121.34908,44.5928256 121.672366,44.5 122.563885,44.5 Z" id="Rectangle-52-Copy-11备份-117"></path>
                <text id="13-copy-7备份-2" font-family="PingFangSC-Regular, PingFang SC" font-size="7" font-weight="normal" line-spacing="11" fill="#000000" fill-opacity="0.88">
                    <tspan x="122.4965" y="52">13</tspan>
                </text>
                <path d="M32.5638852,44.5 L39.4361148,44.5 C40.3276335,44.5 40.6509198,44.5928256 40.9768457,44.7671327 C41.3027716,44.9414398 41.5585602,45.1972284 41.7328673,45.5231543 C41.9071744,45.8490802 42,46.1723665 42,47.0638852 L42,53.9361148 C42,54.8276335 41.9071744,55.1509198 41.7328673,55.4768457 C41.5585602,55.8027716 41.3027716,56.0585602 40.9768457,56.2328673 C40.6509198,56.4071744 40.3276335,56.5 39.4361148,56.5 L32.5638852,56.5 C31.6723665,56.5 31.3490802,56.4071744 31.0231543,56.2328673 C30.6972284,56.0585602 30.4414398,55.8027716 30.2671327,55.4768457 C30.0928256,55.1509198 30,54.8276335 30,53.9361148 L30,47.0638852 C30,46.1723665 30.0928256,45.8490802 30.2671327,45.5231543 C30.4414398,45.1972284 30.6972284,44.9414398 31.0231543,44.7671327 C31.3490802,44.5928256 31.6723665,44.5 32.5638852,44.5 Z" id="Rectangle-52-Copy-11备份-118"></path>
                <text id="8备份-4" font-family="PingFangSC-Regular, PingFang SC" font-size="7" font-weight="normal" line-spacing="11" fill="#000000" fill-opacity="0.88">
                    <tspan x="33.9" y="52">8</tspan>
                </text>
                <path d="M32.5638852,62.5 L39.4361148,62.5 C40.3276335,62.5 40.6509198,62.5928256 40.9768457,62.7671327 C41.3027716,62.9414398 41.5585602,63.1972284 41.7328673,63.5231543 C41.9071744,63.8490802 42,64.1723665 42,65.0638852 L42,71.9361148 C42,72.8276335 41.9071744,73.1509198 41.7328673,73.4768457 C41.5585602,73.8027716 41.3027716,74.0585602 40.9768457,74.2328673 C40.6509198,74.4071744 40.3276335,74.5 39.4361148,74.5 L32.5638852,74.5 C31.6723665,74.5 31.3490802,74.4071744 31.0231543,74.2328673 C30.6972284,74.0585602 30.4414398,73.8027716 30.2671327,73.4768457 C30.0928256,73.1509198 30,72.8276335 30,71.9361148 L30,65.0638852 C30,64.1723665 30.0928256,63.8490802 30.2671327,63.5231543 C30.4414398,63.1972284 30.6972284,62.9414398 31.0231543,62.7671327 C31.3490802,62.5928256 31.6723665,62.5 32.5638852,62.5 Z" id="Rectangle-52-Copy-11备份-119"></path>
                <text id="15-copy-6备份-2" font-family="PingFangSC-Regular, PingFang SC" font-size="7" font-weight="normal" line-spacing="11" fill="#000000" fill-opacity="0.88">
                    <tspan x="32.4965" y="70">15</tspan>
                </text>
                <path d="M32.5638852,80.5 L39.4361148,80.5 C40.3276335,80.5 40.6509198,80.5928256 40.9768457,80.7671327 C41.3027716,80.9414398 41.5585602,81.1972284 41.7328673,81.5231543 C41.9071744,81.8490802 42,82.1723665 42,83.0638852 L42,89.9361148 C42,90.8276335 41.9071744,91.1509198 41.7328673,91.4768457 C41.5585602,91.8027716 41.3027716,92.0585602 40.9768457,92.2328673 C40.6509198,92.4071744 40.3276335,92.5 39.4361148,92.5 L32.5638852,92.5 C31.6723665,92.5 31.3490802,92.4071744 31.0231543,92.2328673 C30.6972284,92.0585602 30.4414398,91.8027716 30.2671327,91.4768457 C30.0928256,91.1509198 30,90.8276335 30,89.9361148 L30,83.0638852 C30,82.1723665 30.0928256,81.8490802 30.2671327,81.5231543 C30.4414398,81.1972284 30.6972284,80.9414398 31.0231543,80.7671327 C31.3490802,80.5928256 31.6723665,80.5 32.5638852,80.5 Z" id="Rectangle-52-Copy-11备份-120"></path>
                <text id="22-copy-4备份-2" font-family="PingFangSC-Regular, PingFang SC" font-size="7" font-weight="normal" line-spacing="11" fill="#000000" fill-opacity="0.88">
                    <tspan x="31.8" y="88">22</tspan>
                </text>
                <path d="M68.5638852,44.5 L75.4361148,44.5 C76.3276335,44.5 76.6509198,44.5928256 76.9768457,44.7671327 C77.3027716,44.9414398 77.5585602,45.1972284 77.7328673,45.5231543 C77.9071744,45.8490802 78,46.1723665 78,47.0638852 L78,53.9361148 C78,54.8276335 77.9071744,55.1509198 77.7328673,55.4768457 C77.5585602,55.8027716 77.3027716,56.0585602 76.9768457,56.2328673 C76.6509198,56.4071744 76.3276335,56.5 75.4361148,56.5 L68.5638852,56.5 C67.6723665,56.5 67.3490802,56.4071744 67.0231543,56.2328673 C66.6972284,56.0585602 66.4414398,55.8027716 66.2671327,55.4768457 C66.0928256,55.1509198 66,54.8276335 66,53.9361148 L66,47.0638852 C66,46.1723665 66.0928256,45.8490802 66.2671327,45.5231543 C66.4414398,45.1972284 66.6972284,44.9414398 67.0231543,44.7671327 C67.3490802,44.5928256 67.6723665,44.5 68.5638852,44.5 Z" id="Rectangle-52-Copy-11备份-121"></path>
                <text id="10-copy-13备份-2" font-family="PingFangSC-Regular, PingFang SC" font-size="7" font-weight="normal" line-spacing="11" fill="#000000" fill-opacity="0.88">
                    <tspan x="68.4965" y="52">10</tspan>
                </text>
                <path d="M86.5638852,44.5 L93.4361148,44.5 C94.3276335,44.5 94.6509198,44.5928256 94.9768457,44.7671327 C95.3027716,44.9414398 95.5585602,45.1972284 95.7328673,45.5231543 C95.9071744,45.8490802 96,46.1723665 96,47.0638852 L96,53.9361148 C96,54.8276335 95.9071744,55.1509198 95.7328673,55.4768457 C95.5585602,55.8027716 95.3027716,56.0585602 94.9768457,56.2328673 C94.6509198,56.4071744 94.3276335,56.5 93.4361148,56.5 L86.5638852,56.5 C85.6723665,56.5 85.3490802,56.4071744 85.0231543,56.2328673 C84.6972284,56.0585602 84.4414398,55.8027716 84.2671327,55.4768457 C84.0928256,55.1509198 84,54.8276335 84,53.9361148 L84,47.0638852 C84,46.1723665 84.0928256,45.8490802 84.2671327,45.5231543 C84.4414398,45.1972284 84.6972284,44.9414398 85.0231543,44.7671327 C85.3490802,44.5928256 85.6723665,44.5 86.5638852,44.5 Z" id="Rectangle-52-Copy-11备份-122"></path>
                <text id="11-copy-8备份-2" font-family="PingFangSC-Regular, PingFang SC" font-size="7" font-weight="normal" line-spacing="11" fill="#000000" fill-opacity="0.88">
                    <tspan x="87.193" y="52">11</tspan>
                </text>
                <path d="M86.5638852,62.5 L93.4361148,62.5 C94.3276335,62.5 94.6509198,62.5928256 94.9768457,62.7671327 C95.3027716,62.9414398 95.5585602,63.1972284 95.7328673,63.5231543 C95.9071744,63.8490802 96,64.1723665 96,65.0638852 L96,71.9361148 C96,72.8276335 95.9071744,73.1509198 95.7328673,73.4768457 C95.5585602,73.8027716 95.3027716,74.0585602 94.9768457,74.2328673 C94.6509198,74.4071744 94.3276335,74.5 93.4361148,74.5 L86.5638852,74.5 C85.6723665,74.5 85.3490802,74.4071744 85.0231543,74.2328673 C84.6972284,74.0585602 84.4414398,73.8027716 84.2671327,73.4768457 C84.0928256,73.1509198 84,72.8276335 84,71.9361148 L84,65.0638852 C84,64.1723665 84.0928256,63.8490802 84.2671327,63.5231543 C84.4414398,63.1972284 84.6972284,62.9414398 85.0231543,62.7671327 C85.3490802,62.5928256 85.6723665,62.5 86.5638852,62.5 Z" id="Rectangle-52-Copy-11备份-123"></path>
                <text id="18-copy-7备份-2" font-family="PingFangSC-Regular, PingFang SC" font-size="7" font-weight="normal" line-spacing="11" fill="#000000" fill-opacity="0.88">
                    <tspan x="86.4965" y="70">18</tspan>
                </text>
                <path d="M86.5638852,80.5 L93.4361148,80.5 C94.3276335,80.5 94.6509198,80.5928256 94.9768457,80.7671327 C95.3027716,80.9414398 95.5585602,81.1972284 95.7328673,81.5231543 C95.9071744,81.8490802 96,82.1723665 96,83.0638852 L96,89.9361148 C96,90.8276335 95.9071744,91.1509198 95.7328673,91.4768457 C95.5585602,91.8027716 95.3027716,92.0585602 94.9768457,92.2328673 C94.6509198,92.4071744 94.3276335,92.5 93.4361148,92.5 L86.5638852,92.5 C85.6723665,92.5 85.3490802,92.4071744 85.0231543,92.2328673 C84.6972284,92.0585602 84.4414398,91.8027716 84.2671327,91.4768457 C84.0928256,91.1509198 84,90.8276335 84,89.9361148 L84,83.0638852 C84,82.1723665 84.0928256,81.8490802 84.2671327,81.5231543 C84.4414398,81.1972284 84.6972284,80.9414398 85.0231543,80.7671327 C85.3490802,80.5928256 85.6723665,80.5 86.5638852,80.5 Z" id="Rectangle-52-Copy-11备份-124"></path>
                <text id="25-copy-7备份-2" font-family="PingFangSC-Regular, PingFang SC" font-size="7" font-weight="normal" line-spacing="11" fill="#000000" fill-opacity="0.88">
                    <tspan x="85.8" y="88">25</tspan>
                </text>
                <path d="M122.563885,62.5 L129.436115,62.5 C130.327634,62.5 130.65092,62.5928256 130.976846,62.7671327 C131.302772,62.9414398 131.55856,63.1972284 131.732867,63.5231543 C131.907174,63.8490802 132,64.1723665 132,65.0638852 L132,71.9361148 C132,72.8276335 131.907174,73.1509198 131.732867,73.4768457 C131.55856,73.8027716 131.302772,74.0585602 130.976846,74.2328673 C130.65092,74.4071744 130.327634,74.5 129.436115,74.5 L122.563885,74.5 C121.672366,74.5 121.34908,74.4071744 121.023154,74.2328673 C120.697228,74.0585602 120.44144,73.8027716 120.267133,73.4768457 C120.092826,73.1509198 120,72.8276335 120,71.9361148 L120,65.0638852 C120,64.1723665 120.092826,63.8490802 120.267133,63.5231543 C120.44144,63.1972284 120.697228,62.9414398 121.023154,62.7671327 C121.34908,62.5928256 121.672366,62.5 122.563885,62.5 Z" id="Rectangle-52-Copy-11备份-125"></path>
                <text id="20-copy-9备份-2" font-family="PingFangSC-Regular, PingFang SC" font-size="7" font-weight="normal" line-spacing="11" fill="#000000" fill-opacity="0.88">
                    <tspan x="121.8" y="70">20</tspan>
                </text>
                <path d="M104.563885,80.5 L111.436115,80.5 C112.327634,80.5 112.65092,80.5928256 112.976846,80.7671327 C113.302772,80.9414398 113.55856,81.1972284 113.732867,81.5231543 C113.907174,81.8490802 114,82.1723665 114,83.0638852 L114,89.9361148 C114,90.8276335 113.907174,91.1509198 113.732867,91.4768457 C113.55856,91.8027716 113.302772,92.0585602 112.976846,92.2328673 C112.65092,92.4071744 112.327634,92.5 111.436115,92.5 L104.563885,92.5 C103.672366,92.5 103.34908,92.4071744 103.023154,92.2328673 C102.697228,92.0585602 102.44144,91.8027716 102.267133,91.4768457 C102.092826,91.1509198 102,90.8276335 102,89.9361148 L102,83.0638852 C102,82.1723665 102.092826,81.8490802 102.267133,81.5231543 C102.44144,81.1972284 102.697228,80.9414398 103.023154,80.7671327 C103.34908,80.5928256 103.672366,80.5 104.563885,80.5 Z" id="Rectangle-52-Copy-11备份-126"></path>
                <text id="26-copy-8备份-2" font-family="PingFangSC-Regular, PingFang SC" font-size="7" font-weight="normal" line-spacing="11" fill="#000000" fill-opacity="0.88">
                    <tspan x="103.8" y="88">26</tspan>
                </text>
                <path d="M122.563885,80.5 L129.436115,80.5 C130.327634,80.5 130.65092,80.5928256 130.976846,80.7671327 C131.302772,80.9414398 131.55856,81.1972284 131.732867,81.5231543 C131.907174,81.8490802 132,82.1723665 132,83.0638852 L132,89.9361148 C132,90.8276335 131.907174,91.1509198 131.732867,91.4768457 C131.55856,91.8027716 131.302772,92.0585602 130.976846,92.2328673 C130.65092,92.4071744 130.327634,92.5 129.436115,92.5 L122.563885,92.5 C121.672366,92.5 121.34908,92.4071744 121.023154,92.2328673 C120.697228,92.0585602 120.44144,91.8027716 120.267133,91.4768457 C120.092826,91.1509198 120,90.8276335 120,89.9361148 L120,83.0638852 C120,82.1723665 120.092826,81.8490802 120.267133,81.5231543 C120.44144,81.1972284 120.697228,80.9414398 121.023154,80.7671327 C121.34908,80.5928256 121.672366,80.5 122.563885,80.5 Z" id="Rectangle-52-Copy-11备份-127"></path>
                <text id="27-copy-8备份-2" font-family="PingFangSC-Regular, PingFang SC" font-size="7" font-weight="normal" line-spacing="11" fill="#000000" fill-opacity="0.88">
                    <tspan x="121.9855" y="88">27</tspan>
                </text>
                <path d="M14.5638852,98.5 L21.4361148,98.5 C22.3276335,98.5 22.6509198,98.5928256 22.9768457,98.7671327 C23.3027716,98.9414398 23.5585602,99.1972284 23.7328673,99.5231543 C23.9071744,99.8490802 24,100.172366 24,101.063885 L24,107.936115 C24,108.827634 23.9071744,109.15092 23.7328673,109.476846 C23.5585602,109.802772 23.3027716,110.05856 22.9768457,110.232867 C22.6509198,110.407174 22.3276335,110.5 21.4361148,110.5 L14.5638852,110.5 C13.6723665,110.5 13.3490802,110.407174 13.0231543,110.232867 C12.6972284,110.05856 12.4414398,109.802772 12.2671327,109.476846 C12.0928256,109.15092 12,108.827634 12,107.936115 L12,101.063885 C12,100.172366 12.0928256,99.8490802 12.2671327,99.5231543 C12.4414398,99.1972284 12.6972284,98.9414398 13.0231543,98.7671327 C13.3490802,98.5928256 13.6723665,98.5 14.5638852,98.5 Z" id="Rectangle-52-Copy-11备份-128"></path>
                <text id="28-copy-15备份-2" font-family="PingFangSC-Regular, PingFang SC" font-size="7" font-weight="normal" line-spacing="11" fill="#000000" fill-opacity="0.88">
                    <tspan x="13.8" y="106">28</tspan>
                </text>
                <path d="M32.5638852,98.5 L39.4361148,98.5 C40.3276335,98.5 40.6509198,98.5928256 40.9768457,98.7671327 C41.3027716,98.9414398 41.5585602,99.1972284 41.7328673,99.5231543 C41.9071744,99.8490802 42,100.172366 42,101.063885 L42,107.936115 C42,108.827634 41.9071744,109.15092 41.7328673,109.476846 C41.5585602,109.802772 41.3027716,110.05856 40.9768457,110.232867 C40.6509198,110.407174 40.3276335,110.5 39.4361148,110.5 L32.5638852,110.5 C31.6723665,110.5 31.3490802,110.407174 31.0231543,110.232867 C30.6972284,110.05856 30.4414398,109.802772 30.2671327,109.476846 C30.0928256,109.15092 30,108.827634 30,107.936115 L30,101.063885 C30,100.172366 30.0928256,99.8490802 30.2671327,99.5231543 C30.4414398,99.1972284 30.6972284,98.9414398 31.0231543,98.7671327 C31.3490802,98.5928256 31.6723665,98.5 32.5638852,98.5 Z" id="Rectangle-52-Copy-11备份-129"></path>
                <text id="29-copy-15备份-3" font-family="PingFangSC-Regular, PingFang SC" font-size="7" font-weight="normal" line-spacing="11" fill="#000000" fill-opacity="0.88">
                    <tspan x="31.8" y="106">29</tspan>
                </text>
                <path d="M50.5638852,98.5 L57.4361148,98.5 C58.3276335,98.5 58.6509198,98.5928256 58.9768457,98.7671327 C59.3027716,98.9414398 59.5585602,99.1972284 59.7328673,99.5231543 C59.9071744,99.8490802 60,100.172366 60,101.063885 L60,107.936115 C60,108.827634 59.9071744,109.15092 59.7328673,109.476846 C59.5585602,109.802772 59.3027716,110.05856 58.9768457,110.232867 C58.6509198,110.407174 58.3276335,110.5 57.4361148,110.5 L50.5638852,110.5 C49.6723665,110.5 49.3490802,110.407174 49.0231543,110.232867 C48.6972284,110.05856 48.4414398,109.802772 48.2671327,109.476846 C48.0928256,109.15092 48,108.827634 48,107.936115 L48,101.063885 C48,100.172366 48.0928256,99.8490802 48.2671327,99.5231543 C48.4414398,99.1972284 48.6972284,98.9414398 49.0231543,98.7671327 C49.3490802,98.5928256 49.6723665,98.5 50.5638852,98.5 Z" id="Rectangle-52-Copy-11备份-130"></path>
                <text id="30-copy-15备份-3" font-family="PingFangSC-Regular, PingFang SC" font-size="7" font-weight="normal" line-spacing="11" fill="#000000" fill-opacity="0.88">
                    <tspan x="49.8" y="106">30</tspan>
                </text>
                <path d="M68.5638852,98.5 L75.4361148,98.5 C76.3276335,98.5 76.6509198,98.5928256 76.9768457,98.7671327 C77.3027716,98.9414398 77.5585602,99.1972284 77.7328673,99.5231543 C77.9071744,99.8490802 78,100.172366 78,101.063885 L78,107.936115 C78,108.827634 77.9071744,109.15092 77.7328673,109.476846 C77.5585602,109.802772 77.3027716,110.05856 76.9768457,110.232867 C76.6509198,110.407174 76.3276335,110.5 75.4361148,110.5 L68.5638852,110.5 C67.6723665,110.5 67.3490802,110.407174 67.0231543,110.232867 C66.6972284,110.05856 66.4414398,109.802772 66.2671327,109.476846 C66.0928256,109.15092 66,108.827634 66,107.936115 L66,101.063885 C66,100.172366 66.0928256,99.8490802 66.2671327,99.5231543 C66.4414398,99.1972284 66.6972284,98.9414398 67.0231543,98.7671327 C67.3490802,98.5928256 67.6723665,98.5 68.5638852,98.5 Z" id="Rectangle-52-Copy-11备份-131"></path>
                <text id="1备份-4" font-family="PingFangSC-Regular, PingFang SC" font-size="7" font-weight="normal" line-spacing="11" fill="#000000" fill-opacity="0.25">
                    <tspan x="70.5965" y="106">1</tspan>
                </text>
                <path d="M86.5638852,98.5 L93.4361148,98.5 C94.3276335,98.5 94.6509198,98.5928256 94.9768457,98.7671327 C95.3027716,98.9414398 95.5585602,99.1972284 95.7328673,99.5231543 C95.9071744,99.8490802 96,100.172366 96,101.063885 L96,107.936115 C96,108.827634 95.9071744,109.15092 95.7328673,109.476846 C95.5585602,109.802772 95.3027716,110.05856 94.9768457,110.232867 C94.6509198,110.407174 94.3276335,110.5 93.4361148,110.5 L86.5638852,110.5 C85.6723665,110.5 85.3490802,110.407174 85.0231543,110.232867 C84.6972284,110.05856 84.4414398,109.802772 84.2671327,109.476846 C84.0928256,109.15092 84,108.827634 84,107.936115 L84,101.063885 C84,100.172366 84.0928256,99.8490802 84.2671327,99.5231543 C84.4414398,99.1972284 84.6972284,98.9414398 85.0231543,98.7671327 C85.3490802,98.5928256 85.6723665,98.5 86.5638852,98.5 Z" id="Rectangle-52-Copy-11备份-132"></path>
                <text id="2备份-4" font-family="PingFangSC-Regular, PingFang SC" font-size="7" font-weight="normal" line-spacing="11" fill="#000000" fill-opacity="0.25">
                    <tspan x="87.9" y="106">2</tspan>
                </text>
                <path d="M104.563885,98.5 L111.436115,98.5 C112.327634,98.5 112.65092,98.5928256 112.976846,98.7671327 C113.302772,98.9414398 113.55856,99.1972284 113.732867,99.5231543 C113.907174,99.8490802 114,100.172366 114,101.063885 L114,107.936115 C114,108.827634 113.907174,109.15092 113.732867,109.476846 C113.55856,109.802772 113.302772,110.05856 112.976846,110.232867 C112.65092,110.407174 112.327634,110.5 111.436115,110.5 L104.563885,110.5 C103.672366,110.5 103.34908,110.407174 103.023154,110.232867 C102.697228,110.05856 102.44144,109.802772 102.267133,109.476846 C102.092826,109.15092 102,108.827634 102,107.936115 L102,101.063885 C102,100.172366 102.092826,99.8490802 102.267133,99.5231543 C102.44144,99.1972284 102.697228,98.9414398 103.023154,98.7671327 C103.34908,98.5928256 103.672366,98.5 104.563885,98.5 Z" id="Rectangle-52-Copy-11备份-133"></path>
                <text id="3备份-4" font-family="PingFangSC-Regular, PingFang SC" font-size="7" font-weight="normal" line-spacing="11" fill="#000000" fill-opacity="0.25">
                    <tspan x="105.9" y="106">3</tspan>
                </text>
                <path d="M32.5638852,116.5 L39.4361148,116.5 C40.3276335,116.5 40.6509198,116.592826 40.9768457,116.767133 C41.3027716,116.94144 41.5585602,117.197228 41.7328673,117.523154 C41.9071744,117.84908 42,118.172366 42,119.063885 L42,125.936115 C42,126.827634 41.9071744,127.15092 41.7328673,127.476846 C41.5585602,127.802772 41.3027716,128.05856 40.9768457,128.232867 C40.6509198,128.407174 40.3276335,128.5 39.4361148,128.5 L32.5638852,128.5 C31.6723665,128.5 31.3490802,128.407174 31.0231543,128.232867 C30.6972284,128.05856 30.4414398,127.802772 30.2671327,127.476846 C30.0928256,127.15092 30,126.827634 30,125.936115 L30,119.063885 C30,118.172366 30.0928256,117.84908 30.2671327,117.523154 C30.4414398,117.197228 30.6972284,116.94144 31.0231543,116.767133 C31.3490802,116.592826 31.6723665,116.5 32.5638852,116.5 Z" id="Rectangle-52-Copy-11备份-134"></path>
                <text id="6备份-4" font-family="PingFangSC-Regular, PingFang SC" font-size="7" font-weight="normal" line-spacing="11" fill="#000000" fill-opacity="0.25">
                    <tspan x="33.9" y="124">6</tspan>
                </text>
                <path d="M50.5638852,116.5 L57.4361148,116.5 C58.3276335,116.5 58.6509198,116.592826 58.9768457,116.767133 C59.3027716,116.94144 59.5585602,117.197228 59.7328673,117.523154 C59.9071744,117.84908 60,118.172366 60,119.063885 L60,125.936115 C60,126.827634 59.9071744,127.15092 59.7328673,127.476846 C59.5585602,127.802772 59.3027716,128.05856 58.9768457,128.232867 C58.6509198,128.407174 58.3276335,128.5 57.4361148,128.5 L50.5638852,128.5 C49.6723665,128.5 49.3490802,128.407174 49.0231543,128.232867 C48.6972284,128.05856 48.4414398,127.802772 48.2671327,127.476846 C48.0928256,127.15092 48,126.827634 48,125.936115 L48,119.063885 C48,118.172366 48.0928256,117.84908 48.2671327,117.523154 C48.4414398,117.197228 48.6972284,116.94144 49.0231543,116.767133 C49.3490802,116.592826 49.6723665,116.5 50.5638852,116.5 Z" id="Rectangle-52-Copy-11备份-135"></path>
                <text id="7备份-4" font-family="PingFangSC-Regular, PingFang SC" font-size="7" font-weight="normal" line-spacing="11" fill="#000000" fill-opacity="0.25">
                    <tspan x="52.0855" y="124">7</tspan>
                </text>
                <path d="M86.5638852,116.5 L93.4361148,116.5 C94.3276335,116.5 94.6509198,116.592826 94.9768457,116.767133 C95.3027716,116.94144 95.5585602,117.197228 95.7328673,117.523154 C95.9071744,117.84908 96,118.172366 96,119.063885 L96,125.936115 C96,126.827634 95.9071744,127.15092 95.7328673,127.476846 C95.5585602,127.802772 95.3027716,128.05856 94.9768457,128.232867 C94.6509198,128.407174 94.3276335,128.5 93.4361148,128.5 L86.5638852,128.5 C85.6723665,128.5 85.3490802,128.407174 85.0231543,128.232867 C84.6972284,128.05856 84.4414398,127.802772 84.2671327,127.476846 C84.0928256,127.15092 84,126.827634 84,125.936115 L84,119.063885 C84,118.172366 84.0928256,117.84908 84.2671327,117.523154 C84.4414398,117.197228 84.6972284,116.94144 85.0231543,116.767133 C85.3490802,116.592826 85.6723665,116.5 86.5638852,116.5 Z" id="Rectangle-52-Copy-11备份-136"></path>
                <path d="M104.563885,116.5 L111.436115,116.5 C112.327634,116.5 112.65092,116.592826 112.976846,116.767133 C113.302772,116.94144 113.55856,117.197228 113.732867,117.523154 C113.907174,117.84908 114,118.172366 114,119.063885 L114,125.936115 C114,126.827634 113.907174,127.15092 113.732867,127.476846 C113.55856,127.802772 113.302772,128.05856 112.976846,128.232867 C112.65092,128.407174 112.327634,128.5 111.436115,128.5 L104.563885,128.5 C103.672366,128.5 103.34908,128.407174 103.023154,128.232867 C102.697228,128.05856 102.44144,127.802772 102.267133,127.476846 C102.092826,127.15092 102,126.827634 102,125.936115 L102,119.063885 C102,118.172366 102.092826,117.84908 102.267133,117.523154 C102.44144,117.197228 102.697228,116.94144 103.023154,116.767133 C103.34908,116.592826 103.672366,116.5 104.563885,116.5 Z" id="Rectangle-52-Copy-11备份-137"></path>
                <path d="M122.563885,116.5 L129.436115,116.5 C130.327634,116.5 130.65092,116.592826 130.976846,116.767133 C131.302772,116.94144 131.55856,117.197228 131.732867,117.523154 C131.907174,117.84908 132,118.172366 132,119.063885 L132,125.936115 C132,126.827634 131.907174,127.15092 131.732867,127.476846 C131.55856,127.802772 131.302772,128.05856 130.976846,128.232867 C130.65092,128.407174 130.327634,128.5 129.436115,128.5 L122.563885,128.5 C121.672366,128.5 121.34908,128.407174 121.023154,128.232867 C120.697228,128.05856 120.44144,127.802772 120.267133,127.476846 C120.092826,127.15092 120,126.827634 120,125.936115 L120,119.063885 C120,118.172366 120.092826,117.84908 120.267133,117.523154 C120.44144,117.197228 120.697228,116.94144 121.023154,116.767133 C121.34908,116.592826 121.672366,116.5 122.563885,116.5 Z" id="Rectangle-52-Copy-11备份-138"></path>
                <text id="9备份-3" font-family="PingFangSC-Regular, PingFang SC" font-size="7" font-weight="normal" line-spacing="11" fill="#000000" fill-opacity="0.25">
                    <tspan x="87.9" y="124">9</tspan>
                </text>
                <text id="10备份" font-family="PingFangSC-Regular, PingFang SC" font-size="7" font-weight="normal" line-spacing="11" fill="#000000" fill-opacity="0.25">
                    <tspan x="104.4965" y="124">10</tspan>
                </text>
                <text id="11备份" font-family="PingFangSC-Regular, PingFang SC" font-size="7" font-weight="normal" line-spacing="11" fill="#000000" fill-opacity="0.25">
                    <tspan x="123.193" y="124">11</tspan>
                </text>
            </g>
        </g>
    </g>
</svg>