<?xml version="1.0" encoding="UTF-8"?>
<svg width="121px" height="69px" viewBox="0 0 121 69" version="1.1" xmlns="http://www.w3.org/2000/svg" xmlns:xlink="http://www.w3.org/1999/xlink">
    <title>DatePicker</title>
    <g id="组件骨架图更新" stroke="none" stroke-width="1" fill="none" fill-rule="evenodd">
        <g id="🎉-5.0-新版" transform="translate(-1286.000000, -1724.000000)">
            <g id="DatePicker" transform="translate(1287.000000, 1725.000000)">
                <g id="3.DataEntry/Selecte/Default/Unselected">
                    <g id="3.DataEntry/Input/Default/Basic-#">
                        <g id="Z/Shape/RectangleRC/2px/RC-A">
                            <rect id="BG/fill" fill="#FFFFFF" fill-rule="nonzero" x="0.5" y="0.5" width="118" height="30" rx="1"></rect>
                            <rect id="outline" stroke="#000000" opacity="0.15" x="0" y="0" width="119" height="31" rx="6"></rect>
                        </g>
                        <text id="|||||||||||||||||||" fill="#000000" fill-rule="nonzero" font-family="PingFangSC-Regular, PingFang SC" font-size="14" font-weight="normal">
                            <tspan x="11.5" y="19.5">|||||||||||||||||||</tspan>
                        </text>
                    </g>
                    <g id="7.Icon/interface/3.calendar/outline" opacity="0.65" transform="translate(99.031250, 10.031250)" fill="#000000" fill-rule="nonzero">
                        <path d="M10.5,0.984375 L8.203125,0.984375 L8.203125,0.109375 C8.203125,0.04921875 8.15390625,0 8.09375,0 L7.328125,0 C7.26796875,0 7.21875,0.04921875 7.21875,0.109375 L7.21875,0.984375 L3.71875,0.984375 L3.71875,0.109375 C3.71875,0.04921875 3.66953125,0 3.609375,0 L2.84375,0 C2.78359375,0 2.734375,0.04921875 2.734375,0.109375 L2.734375,0.984375 L0.4375,0.984375 C0.19550781,0.984375 0,1.17988281 0,1.421875 L0,10.5 C0,10.7419922 0.19550781,10.9375 0.4375,10.9375 L10.5,10.9375 C10.7419922,10.9375 10.9375,10.7419922 10.9375,10.5 L10.9375,1.421875 C10.9375,1.17988281 10.7419922,0.984375 10.5,0.984375 Z M9.953125,9.953125 L0.984375,9.953125 L0.984375,4.7578125 L9.953125,4.7578125 L9.953125,9.953125 Z M0.984375,3.828125 L0.984375,1.96875 L2.734375,1.96875 L2.734375,2.625 C2.734375,2.68515625 2.78359375,2.734375 2.84375,2.734375 L3.609375,2.734375 C3.66953125,2.734375 3.71875,2.68515625 3.71875,2.625 L3.71875,1.96875 L7.21875,1.96875 L7.21875,2.625 C7.21875,2.68515625 7.26796875,2.734375 7.328125,2.734375 L8.09375,2.734375 C8.15390625,2.734375 8.203125,2.68515625 8.203125,2.625 L8.203125,1.96875 L9.953125,1.96875 L9.953125,3.828125 L0.984375,3.828125 Z" id="fill"></path>
                    </g>
                </g>
                <g id="3.DataEntry/Selecte/Small/Unselected" transform="translate(0.000000, 44.000000)">
                    <g id="3.DataEntry/Input/Small/Basic-#">
                        <g id="9.Box/1.Cards/4.Border" opacity="0.15" stroke="#000000">
                            <g id="Z/Shape/RectangleRC/2px/RC-A">
                                <rect id="outline" x="0" y="0" width="119" height="23" rx="4"></rect>
                            </g>
                        </g>
                        <text id="|||||||||||||||||||||" fill="#000000" fill-rule="nonzero" font-family="PingFangSC-Regular, PingFang SC" font-size="12" font-weight="normal">
                            <tspan x="11.5" y="16.5">|||||||||||||||||||||</tspan>
                        </text>
                    </g>
                    <g id="7.Icon/interface/3.calendar/outline" opacity="0.65" transform="translate(100.812500, 6.812500)" fill="#000000" fill-rule="nonzero">
                        <path d="M9,0.84375 L7.03125,0.84375 L7.03125,0.09375 C7.03125,0.0421875 6.9890625,0 6.9375,0 L6.28125,0 C6.2296875,0 6.1875,0.0421875 6.1875,0.09375 L6.1875,0.84375 L3.1875,0.84375 L3.1875,0.09375 C3.1875,0.0421875 3.1453125,0 3.09375,0 L2.4375,0 C2.3859375,0 2.34375,0.0421875 2.34375,0.09375 L2.34375,0.84375 L0.375,0.84375 C0.16757812,0.84375 0,1.01132813 0,1.21875 L0,9 C0,9.2074219 0.16757812,9.375 0.375,9.375 L9,9.375 C9.2074219,9.375 9.375,9.2074219 9.375,9 L9.375,1.21875 C9.375,1.01132813 9.2074219,0.84375 9,0.84375 Z M8.53125,8.53125 L0.84375,8.53125 L0.84375,4.078125 L8.53125,4.078125 L8.53125,8.53125 Z M0.84375,3.28125 L0.84375,1.6875 L2.34375,1.6875 L2.34375,2.25 C2.34375,2.3015625 2.3859375,2.34375 2.4375,2.34375 L3.09375,2.34375 C3.1453125,2.34375 3.1875,2.3015625 3.1875,2.25 L3.1875,1.6875 L6.1875,1.6875 L6.1875,2.25 C6.1875,2.3015625 6.2296875,2.34375 6.28125,2.34375 L6.9375,2.34375 C6.9890625,2.34375 7.03125,2.3015625 7.03125,2.25 L7.03125,1.6875 L8.53125,1.6875 L8.53125,3.28125 L0.84375,3.28125 Z" id="fill"></path>
                    </g>
                </g>
            </g>
        </g>
    </g>
</svg>