<?xml version="1.0" encoding="UTF-8"?>
<svg width="156px" height="81px" viewBox="0 0 156 81" version="1.1" xmlns="http://www.w3.org/2000/svg" xmlns:xlink="http://www.w3.org/1999/xlink">
    <title>Form</title>
    <g id="组件骨架图更新" stroke="none" stroke-width="1" fill="none" fill-rule="evenodd">
        <g id="🎉-5.0-新版" transform="translate(-176.000000, -1957.000000)">
            <g id="Form" transform="translate(176.000000, 1958.000000)">
                <g id="数据录入/Form表单/Light/标题-必填" transform="translate(0.000000, 2.718750)" fill-rule="nonzero">
                    <g id=":" transform="translate(31.000000, 0.000000)" fill="#000000" fill-opacity="0.85" font-family="PingFangSC-Regular, PingFang SC" font-size="7.875" font-weight="normal">
                        <text>
                            <tspan x="0" y="8">:</tspan>
                        </text>
                    </g>
                    <rect id="矩形复制-61" fill="#EBEBEB" x="0" y="2" width="29" height="10"></rect>
                </g>
                <g id="数据录入/Form表单/Light/标题-必填备份" transform="translate(31.000000, 32.718750)" fill="#000000" fill-opacity="0.85" fill-rule="nonzero" font-family="PingFangSC-Regular, PingFang SC" font-size="7.875" font-weight="normal">
                    <g id=":">
                        <text>
                            <tspan x="0" y="8">:</tspan>
                        </text>
                    </g>
                </g>
                <g id="3.数据录入/4.Input输入框/亮色/中-未输入" transform="translate(43.281250, 0.000000)">
                    <path d="M111.087047,0 L0.85045338,0 C0.614044259,0 0.401440035,0.093931855 0.247919057,0.246676514 C0.094252081,0.399566432 0,0.611113409 0,0.84473062 L0,16.5927694 C0,16.826939 0.094502811,17.0377424 0.247625385,17.1900906 C0.401774138,17.3434599 0.615044012,17.4375 0.85045338,17.4375 L111.087047,17.4375 C111.323456,17.4375 111.53606,17.3435681 111.689581,17.1908235 C111.843248,17.0379336 111.9375,16.8263866 111.9375,16.5927694 L111.9375,0.84473062 C111.9375,0.610560962 111.842997,0.399757624 111.689875,0.247409355 C111.535726,0.094040097 111.322456,0 111.087047,0 Z" id="Rectangle-26-Copy-23" stroke-opacity="0.15" stroke="#000000" stroke-width="0.5625" fill="#FFFFFF"></path>
                    <g id="Text" transform="translate(6.468750, 2.531250)" fill="#000000" fill-opacity="0.25" fill-rule="nonzero" font-family="PingFangSC-Regular, PingFang SC" font-size="7.875" font-weight="normal">
                        <text id="请输入用户名">
                            <tspan x="0" y="8">请输入用户名</tspan>
                        </text>
                    </g>
                </g>
                <g id="DataEntry/Input/Light/Search" transform="translate(43.281250, 31.000000)" fill-rule="nonzero">
                    <path d="M111.087047,0 L0.85045338,0 C0.614044259,0 0.401440035,0.093931855 0.247919057,0.246676514 C0.094252081,0.399566432 0,0.611113409 0,0.84473062 L0,16.5927694 C0,16.826939 0.094502811,17.0377424 0.247625385,17.1900906 C0.401774138,17.3434599 0.615044012,17.4375 0.85045338,17.4375 L111.087047,17.4375 C111.323456,17.4375 111.53606,17.3435681 111.689581,17.1908235 C111.843248,17.0379336 111.9375,16.8263866 111.9375,16.5927694 L111.9375,0.84473062 C111.9375,0.610560962 111.842997,0.399757624 111.689875,0.247409355 C111.535726,0.094040097 111.322456,0 111.087047,0 Z" id="bg" stroke="#D9D9D9" stroke-width="0.5625" fill="#FFFFFF"></path>
                    <g id="Text" transform="translate(6.468750, 2.531250)" fill="#000000" fill-opacity="0.25" font-family="PingFangSC-Regular, PingFang SC" font-size="7.875" font-weight="normal">
                        <text id="请输入密码">
                            <tspan x="0" y="8">请输入密码</tspan>
                        </text>
                    </g>
                </g>
                <g id="1.通用/1.Buttons按钮/主按钮/亮色/默认" transform="translate(43.000000, 61.718750)" fill="#1677FF">
                    <rect id="矩形" x="0" y="0" width="38.625" height="18" rx="4"></rect>
                </g>
                <rect id="矩形复制-60" fill="#F5F5F5" fill-rule="nonzero" x="49" y="34.71875" width="51" height="10"></rect>
                <rect id="矩形复制-60备份" fill="#F5F5F5" fill-rule="nonzero" x="49" y="3.71875" width="51" height="10"></rect>
                <rect id="矩形复制-61备份" fill="#EBEBEB" fill-rule="nonzero" x="0" y="34.71875" width="29" height="10"></rect>
            </g>
        </g>
    </g>
</svg>