<?xml version="1.0" encoding="UTF-8"?>
<svg width="155px" height="105px" viewBox="0 0 155 105" version="1.1" xmlns="http://www.w3.org/2000/svg" xmlns:xlink="http://www.w3.org/1999/xlink">
    <title>Layout</title>
    <g id="ç»„ä»¶éª¨æž¶å›¾æ›´æ–°" stroke="none" stroke-width="1" fill="none" fill-rule="evenodd">
        <g id="ðŸŽ‰-5.0-æ–°ç‰ˆ" transform="translate(-905.000000, -773.000000)">
            <g id="Layout" transform="translate(905.000000, 774.000000)">
                <path d="M0,6.5 L21,6.5 L21,103.5 L2,103.5 C0.8954305,103.5 0,102.604569 0,101.5 L0,6.5 L0,6.5 Z" id="çŸ©å½¢" fill="#BAE0FF" fill-rule="nonzero"></path>
                <path d="M71.5,-71 L81.5,-71 C82.6045695,-71 83.5,-70.1045695 83.5,-69 L83.5,81 C83.5,82.1045695 82.6045695,83 81.5,83 L71.5,83 L71.5,83 L71.5,-71 Z" id="çŸ©å½¢å¤åˆ¶-40" fill="#E6F4FF" fill-rule="nonzero" transform="translate(77.500000, 6.000000) rotate(-90.000000) translate(-77.500000, -6.000000) "></path>
                <rect id="çŸ©å½¢" stroke="#D9D9D9" x="0.5" y="0" width="154" height="103" rx="2"></rect>
                <rect id="çŸ©å½¢" fill="#F5F5F5" fill-rule="nonzero" x="31" y="33.5" width="114" height="60"></rect>
                <rect id="çŸ©å½¢" fill="#EBEBEB" fill-rule="nonzero" x="31" y="22.5" width="43" height="5"></rect>
            </g>
        </g>
    </g>
</svg>