<?xml version="1.0" encoding="UTF-8"?>
<svg width="208px" height="98px" viewBox="0 0 208 98" version="1.1" xmlns="http://www.w3.org/2000/svg" xmlns:xlink="http://www.w3.org/1999/xlink">
    <title>Feedback/Modal/Light/Basic</title>
    <g id="组件骨架图更新" stroke="none" stroke-width="1" fill="none" fill-rule="evenodd">
        <g id="🎉-5.0-新版" transform="translate(-150.000000, -4560.000000)">
            <g id="Feedback/Modal/Light/Basic" transform="translate(151.000000, 4561.000000)">
                <path d="M6.15332448,2.04815396e-16 L199.846676,2.48601674e-16 C201.98632,-1.44444732e-16 202.762207,0.222781467 203.54443,0.641118489 C204.326652,1.05945551 204.940544,1.67334809 205.358882,2.45557031 C205.777219,3.23779253 206,4.0136795 206,6.15332448 L206,89.8466755 C206,91.9863205 205.777219,92.7622075 205.358882,93.5444297 C204.940544,94.3266519 204.326652,94.9405445 203.54443,95.3588815 C202.762207,95.7772185 201.98632,96 199.846676,96 L6.15332448,96 C4.0136795,96 3.23779253,95.7772185 2.45557031,95.3588815 C1.67334809,94.9405445 1.05945551,94.3266519 0.641118489,93.5444297 C0.222781467,92.7622075 9.62964878e-17,91.9863205 -1.65734449e-16,89.8466755 L1.65734449e-16,6.15332448 C-9.62964878e-17,4.0136795 0.222781467,3.23779253 0.641118489,2.45557031 C1.05945551,1.67334809 1.67334809,1.05945551 2.45557031,0.641118489 C3.23779253,0.222781467 4.0136795,-1.19003643e-16 6.15332448,2.04815396e-16 Z" id="bg" stroke="#F0F0F0" fill="#FFFFFF" fill-rule="nonzero"></path>
                <text id="||||||||||||||||||||" font-family="PingFangSC-Regular, PingFang SC" font-size="8.4" font-weight="normal" line-spacing="13.2" fill="#000000" fill-opacity="0.88">
                    <tspan x="14.4" y="40.2">||||||||||||||||||||||||||||||||||||||||||||||||||||||||||||||||||||||||||||||||||||||||||||||||||||||||||||||</tspan>
                    <tspan x="14.4" y="53.4">||||||||||||||||||||||||||||||||||||||||||||||||||||||||||||||||||||||||||||||||</tspan>
                </text>
                <text id="Title" font-family="PingFangSC-Medium, PingFang SC" font-size="9.6" font-weight="400" line-spacing="14.4" fill="#000000" fill-opacity="0.88">
                    <tspan x="14.4" y="22">||||||||||||||||||||||||||||||</tspan>
                </text>
                <g id="1.通用/2.Icon图标/Line/Close" opacity="0.458865211" transform="translate(182.000000, 14.400000)" fill="#000000">
                    <rect id="矩形" fill-rule="nonzero" opacity="0" x="0" y="0" width="9.6" height="9.6"></rect>
                    <path d="M5.285625,4.8 L7.7465625,1.8665625 C7.7878125,1.8178125 7.753125,1.74375 7.689375,1.74375 L6.94125,1.74375 C6.8971875,1.74375 6.855,1.7634375 6.8259375,1.7971875 L4.79625,4.216875 L2.7665625,1.7971875 C2.7384375,1.7634375 2.69625,1.74375 2.65125,1.74375 L1.903125,1.74375 C1.839375,1.74375 1.8046875,1.8178125 1.8459375,1.8665625 L4.306875,4.8 L1.8459375,7.7334375 C1.8046875,7.7821875 1.839375,7.85625 1.903125,7.85625 L2.65125,7.85625 C2.6953125,7.85625 2.7375,7.8365625 2.7665625,7.8028125 L4.79625,5.383125 L6.8259375,7.8028125 C6.8540625,7.8365625 6.89625,7.85625 6.94125,7.85625 L7.689375,7.85625 C7.753125,7.85625 7.7878125,7.7821875 7.7465625,7.7334375 L5.285625,4.8 Z" id="路径"></path>
                </g>
                <g id="1.通用/1.Buttons按钮/主按钮/亮色/默认" transform="translate(152.600000, 64.800000)">
                    <path d="M4.61499336,-4.1315979e-16 L34.3850066,-4.02572794e-17 C35.9897404,2.33906387e-17 36.5716556,0.1670861 37.1583223,0.480838867 C37.7449889,0.794591634 38.2054084,1.25501107 38.5191611,1.84167773 C38.8329139,2.4283444 39,3.01025963 39,4.61499336 L39,14.5850066 C39,16.1897404 38.8329139,16.7716556 38.5191611,17.3583223 C38.2054084,17.9449889 37.7449889,18.4054084 37.1583223,18.7191611 C36.5716556,19.0329139 35.9897404,19.2 34.3850066,19.2 L4.61499336,19.2 C3.01025963,19.2 2.4283444,19.0329139 1.84167773,18.7191611 C1.25501107,18.4054084 0.794591634,17.9449889 0.480838867,17.3583223 C0.1670861,16.7716556 2.03946553e-16,16.1897404 -3.51009372e-16,14.5850066 L3.51009372e-16,4.61499336 C-2.03946553e-16,3.01025963 0.1670861,2.4283444 0.480838867,1.84167773 C0.794591634,1.25501107 1.25501107,0.794591634 1.84167773,0.480838867 C2.4283444,0.1670861 3.01025963,2.40057736e-16 4.61499336,-4.1315979e-16 Z" id="矩形" fill="#1677FF"></path>
                    <text id="主按钮" font-family="PingFangSC-Regular, PingFang SC" font-size="8.4" font-weight="normal" line-spacing="13.2"></text>
                </g>
                <g id="1.通用/1.Buttons按钮/次按钮/亮色/默认" transform="translate(110.000000, 64.800000)">
                    <rect id="矩形" stroke-opacity="0.15" stroke="#000000" stroke-width="0.6" fill="#FFFFFF" x="0.3" y="0.3" width="35.4" height="18.6" rx="3.6"></rect>
                    <text id="次按钮" font-family="PingFangSC-Regular, PingFang SC" font-size="8.4" font-weight="normal" line-spacing="13.2"></text>
                </g>
            </g>
        </g>
    </g>
</svg>