<?xml version="1.0" encoding="UTF-8"?>
<svg width="186px" height="60px" viewBox="0 0 186 60" version="1.1" xmlns="http://www.w3.org/2000/svg" xmlns:xlink="http://www.w3.org/1999/xlink">
    <title>Feedback/Modal/Light/Confirmå¤‡ä»½</title>
    <g id="ç»„ä»¶éª¨æž¶å›¾æ›´æ–°" stroke="none" stroke-width="1" fill="none" fill-rule="evenodd">
        <g id="ðŸŽ‰-5.0-æ–°ç‰ˆ" transform="translate(-164.000000, -4572.000000)">
            <g id="Feedback/Modal/Light/Confirmå¤‡ä»½" transform="translate(165.000000, 4573.000000)">
                <path d="M6.15332472,2.04815386e-16 L177.846675,2.48601684e-16 C179.98632,-1.44444737e-16 180.762207,0.222781476 181.54443,0.641118515 C182.326652,1.05945555 182.940544,1.67334816 183.358881,2.45557041 C183.777219,3.23779266 184,4.01367966 184,6.15332472 L184,51.8466753 C184,53.9863203 183.777219,54.7622073 183.358881,55.5444296 C182.940544,56.3266518 182.326652,56.9405444 181.54443,57.3588815 C180.762207,57.7772185 179.98632,58 177.846675,58 L6.15332472,58 C4.01367966,58 3.23779266,57.7772185 2.45557041,57.3588815 C1.67334816,56.9405444 1.05945555,56.3266518 0.641118515,55.5444296 C0.222781476,54.7622073 1.41353837e-15,53.9863203 -2.4328198e-15,51.8466753 L1.65734456e-16,6.15332472 C-9.62964916e-17,4.01367966 0.222781476,3.23779266 0.641118515,2.45557041 C1.05945555,1.67334816 1.67334816,1.05945555 2.45557041,0.641118515 C3.23779266,0.222781476 4.01367966,-1.19003637e-16 6.15332472,2.04815386e-16 Z" id="bg" stroke="#F0F0F0" fill="#FFFFFF" fill-rule="nonzero"></path>
                <g id="ç¼–ç»„" transform="translate(36.000000, 14.000000)" fill="#000000" fill-opacity="0.88" fill-rule="nonzero">
                    <rect id="çŸ©å½¢" x="0" y="0" width="1" height="10"></rect>
                    <rect id="çŸ©å½¢å¤‡ä»½" x="3" y="0" width="1" height="10"></rect>
                    <rect id="çŸ©å½¢å¤‡ä»½-2" x="6" y="0" width="1" height="10"></rect>
                    <rect id="çŸ©å½¢å¤‡ä»½-3" x="9" y="0" width="1" height="10"></rect>
                    <rect id="çŸ©å½¢å¤‡ä»½-4" x="12" y="0" width="1" height="10"></rect>
                    <rect id="çŸ©å½¢å¤‡ä»½-5" x="15" y="0" width="1" height="10"></rect>
                    <rect id="çŸ©å½¢å¤‡ä»½-6" x="18" y="0" width="1" height="10"></rect>
                    <rect id="çŸ©å½¢å¤‡ä»½-7" x="21" y="0" width="1" height="10"></rect>
                    <rect id="çŸ©å½¢å¤‡ä»½-8" x="24" y="0" width="1" height="10"></rect>
                    <rect id="çŸ©å½¢å¤‡ä»½-9" x="27" y="0" width="1" height="10"></rect>
                    <rect id="çŸ©å½¢å¤‡ä»½-10" x="30" y="0" width="1" height="10"></rect>
                    <rect id="çŸ©å½¢å¤‡ä»½-10å¤‡ä»½" x="36" y="0" width="1" height="10"></rect>
                    <rect id="çŸ©å½¢å¤‡ä»½-11" x="33" y="0" width="1" height="10"></rect>
                    <rect id="çŸ©å½¢å¤‡ä»½-11å¤‡ä»½-3" x="39" y="0" width="1" height="10"></rect>
                </g>
                <rect id="çŸ©å½¢å¤åˆ¶-81" fill="#EBEBEB" fill-rule="nonzero" x="36" y="33" width="120" height="10" rx="1"></rect>
                <g id="1.é€šç”¨/2.Iconå›¾æ ‡/Line/Close" opacity="0.446259998" transform="translate(160.000000, 14.446377)" fill="#000000">
                    <rect id="çŸ©å½¢" fill-rule="nonzero" opacity="0" x="0" y="0" width="9.6" height="9.6"></rect>
                    <path d="M5.285625,4.8 L7.7465625,1.8665625 C7.7878125,1.8178125 7.753125,1.74375 7.689375,1.74375 L6.94125,1.74375 C6.8971875,1.74375 6.855,1.7634375 6.8259375,1.7971875 L4.79625,4.216875 L2.7665625,1.7971875 C2.7384375,1.7634375 2.69625,1.74375 2.65125,1.74375 L1.903125,1.74375 C1.839375,1.74375 1.8046875,1.8178125 1.8459375,1.8665625 L4.306875,4.8 L1.8459375,7.7334375 C1.8046875,7.7821875 1.839375,7.85625 1.903125,7.85625 L2.65125,7.85625 C2.6953125,7.85625 2.7375,7.8365625 2.7665625,7.8028125 L4.79625,5.383125 L6.8259375,7.8028125 C6.8540625,7.8365625 6.89625,7.85625 6.94125,7.85625 L7.689375,7.85625 C7.753125,7.85625 7.7878125,7.7821875 7.7465625,7.7334375 L5.285625,4.8 Z" id="è·¯å¾„"></path>
                </g>
                <g id="info-circle-filledd" transform="translate(14.400000, 12.000000)" fill="#1677FF" fill-rule="nonzero">
                    <rect id="çŸ©å½¢" opacity="0" x="0" y="0" width="14.4" height="14.4"></rect>
                    <path d="M7.2,0.9 C3.7209375,0.9 0.9,3.7209375 0.9,7.2 C0.9,10.6790625 3.7209375,13.5 7.2,13.5 C10.6790625,13.5 13.5,10.6790625 13.5,7.2 C13.5,3.7209375 10.6790625,0.9 7.2,0.9 Z M7.65,10.2375 C7.65,10.299375 7.599375,10.35 7.5375,10.35 L6.8625,10.35 C6.800625,10.35 6.75,10.299375 6.75,10.2375 L6.75,6.4125 C6.75,6.350625 6.800625,6.3 6.8625,6.3 L7.5375,6.3 C7.599375,6.3 7.65,6.350625 7.65,6.4125 L7.65,10.2375 Z M7.2,5.4 C6.82734375,5.4 6.525,5.09765625 6.525,4.725 C6.525,4.35234375 6.82734375,4.05 7.2,4.05 C7.57265625,4.05 7.875,4.35234375 7.875,4.725 C7.875,5.09765625 7.57265625,5.4 7.2,5.4 Z" id="å½¢çŠ¶"></path>
                </g>
            </g>
        </g>
    </g>
</svg>