<?xml version="1.0" encoding="UTF-8"?>
<svg width="196px" height="22px" viewBox="0 0 196 22" version="1.1" xmlns="http://www.w3.org/2000/svg" xmlns:xlink="http://www.w3.org/1999/xlink">
    <title>Navigation/Pagination/Light/Small 1</title>
    <g id="组件骨架图更新" stroke="none" stroke-width="1" fill="none" fill-rule="evenodd">
        <g id="🎉-5.0-新版" transform="translate(-155.000000, -1393.000000)">
            <g id="Small-1" transform="translate(152.000000, 1393.000000)">
                <g id="1" transform="translate(30.000000, 0.000000)">
                    <rect id="框" stroke="#1677FF" fill="#FFFFFF" x="0.5" y="0.5" width="21" height="21" rx="4"></rect>
                    <text font-family="PingFangSC-Regular, PingFang SC" font-size="14" font-weight="normal" line-spacing="22" fill="#1677FF">
                        <tspan x="8.193" y="15">1</tspan>
                    </text>
                </g>
                <text id="2-" font-family="PingFangSC-Regular, PingFang SC" font-size="14" font-weight="normal" line-spacing="22" fill="#000000" fill-opacity="0.65">
                    <tspan x="66.8" y="15">2</tspan>
                </text>
                <text id="3" font-family="PingFangSC-Regular, PingFang SC" font-size="14" font-weight="normal" line-spacing="22" fill="#000000" fill-opacity="0.65">
                    <tspan x="96.8" y="15">3</tspan>
                </text>
                <text id="4" font-family="PingFangSC-Regular, PingFang SC" font-size="14" font-weight="normal" line-spacing="22" fill="#000000" fill-opacity="0.65">
                    <tspan x="126.8" y="15">4</tspan>
                </text>
                <text id="5" font-family="PingFangSC-Regular, PingFang SC" font-size="14" font-weight="normal" line-spacing="22" fill="#000000" fill-opacity="0.65">
                    <tspan x="156.8" y="15">5</tspan>
                </text>
                <g id="通用/Icon图标/Line/left" opacity="0.88" transform="translate(0.000000, 3.000000)" fill="#000000">
                    <g id="minus-square" fill-rule="nonzero" opacity="0">
                        <rect id="矩形" x="0" y="0" width="16" height="16"></rect>
                    </g>
                    <g id="left">
                        <rect id="矩形" fill-rule="nonzero" opacity="0" x="0" y="0" width="16" height="16"></rect>
                        <path d="M11.3125,3.4109375 L11.3125,2.203125 C11.3125,2.0984375 11.1921875,2.040625 11.1109375,2.1046875 L4.0671875,7.60625 C3.8109375,7.80625 3.8109375,8.1921875 4.0671875,8.3921875 L11.1109375,13.89375 C11.19375,13.9578125 11.3125,13.9 11.3125,13.7953125 L11.3125,12.5875 C11.3125,12.5109375 11.2765625,12.4375 11.2171875,12.390625 L5.5921875,8 L11.2171875,3.6078125 C11.2765625,3.5609375 11.3125,3.4875 11.3125,3.4109375 Z" id="路径"></path>
                    </g>
                </g>
                <g id="通用/Icon图标/Line/Right" opacity="0.88" transform="translate(186.000000, 3.000000)" fill="#000000">
                    <g id="right">
                        <rect id="矩形" fill-rule="nonzero" opacity="0" x="0" y="0" width="16" height="16"></rect>
                        <path d="M11.9640625,7.60625 L4.9203125,2.1046875 C4.8375,2.040625 4.71875,2.0984375 4.71875,2.203125 L4.71875,3.4109375 C4.71875,3.4875 4.7546875,3.5609375 4.8140625,3.6078125 L10.4390625,8 L4.8140625,12.3921875 C4.753125,12.4390625 4.71875,12.5125 4.71875,12.5890625 L4.71875,13.796875 C4.71875,13.9015625 4.8390625,13.959375 4.9203125,13.8953125 L11.9640625,8.39375 C12.2203125,8.19375 12.2203125,7.80625 11.9640625,7.60625 Z" id="路径"></path>
                    </g>
                </g>
            </g>
        </g>
    </g>
</svg>