<?xml version="1.0" encoding="UTF-8"?>
<svg width="182px" height="91px" viewBox="0 0 182 91" version="1.1" xmlns="http://www.w3.org/2000/svg" xmlns:xlink="http://www.w3.org/1999/xlink">
    <title>ç¼–ç»„ 4</title>
    <g id="ç»„ä»¶éª¨æž¶å›¾æ›´æ–°" stroke="none" stroke-width="1" fill="none" fill-rule="evenodd">
        <g id="ðŸŽ‰-5.0-æ–°ç‰ˆ" transform="translate(-527.000000, -4555.000000)">
            <g id="ç¼–ç»„-4" transform="translate(528.000000, 4556.000000)">
                <path d="M35.3137085,82 C33.1919766,82 31.1571453,82.8428547 29.6568542,84.3431458 L25.4142136,88.5857864 C24.633165,89.366835 23.366835,89.366835 22.5857864,88.5857864 L18.3431458,84.3431458 C16.8428547,82.8428547 14.8080234,82 12.6862915,82 L10.2555408,82 C6.68946584,82 5.39632089,81.6286976 4.09261719,80.9314692 C2.78891348,80.2342408 1.76575919,79.2110865 1.06853082,77.9073828 C0.371302445,76.6036791 0,75.3105342 0,71.7444592 L0,10.2555408 C0,6.68946584 0.371302445,5.39632089 1.06853082,4.09261719 C1.76575919,2.78891348 2.78891348,1.76575919 4.09261719,1.06853082 C5.39632089,0.371302445 6.68946584,-2.27614417e-13 10.2555408,-2.26959339e-13 L169.744459,-2.27334594e-13 C173.310534,-2.27396383e-13 174.603679,0.371302445 175.907383,1.06853082 C177.211087,1.76575919 178.234241,2.78891348 178.931469,4.09261719 C179.628698,5.39632089 180,6.68946584 180,10.2555408 L180,71.7444592 C180,75.3105342 179.628698,76.6036791 178.931469,77.9073828 C178.234241,79.2110865 177.211087,80.2342408 175.907383,80.9314692 C174.603679,81.6286976 173.310534,82 169.744459,82 Z" id="å½¢çŠ¶ç»“åˆ" stroke="#F0F0F0" fill="#FFFFFF" fill-rule="nonzero"></path>
                <g id="1.é€šç”¨/1.ButtonsæŒ‰é’®/ä¸»æŒ‰é’®/äº®è‰²/å°" transform="translate(126.000000, 46.000000)">
                    <rect id="çŸ©å½¢" fill="#1677FF" x="0" y="0" width="40" height="24" rx="4"></rect>
                    <text id="ä¸»æŒ‰é’®" font-family="PingFangSC-Regular, PingFang SC" font-size="14" font-weight="normal" line-spacing="22"></text>
                </g>
                <g id="1.é€šç”¨/1.ButtonsæŒ‰é’®/æ¬¡æŒ‰é’®/äº®è‰²/å°" transform="translate(78.000000, 46.000000)">
                    <rect id="çŸ©å½¢" stroke-opacity="0.15" stroke="#000000" fill="#FFFFFF" x="0.5" y="0.5" width="39" height="23" rx="4"></rect>
                    <text id="æ¬¡æŒ‰é’®" font-family="PingFangSC-Regular, PingFang SC" font-size="14" font-weight="normal" line-spacing="22"></text>
                </g>
                <g id="ç¼–ç»„" transform="translate(40.000000, 18.000000)" fill="#000000" fill-opacity="0.88" fill-rule="nonzero">
                    <rect id="çŸ©å½¢" x="0" y="0" width="1" height="10"></rect>
                    <rect id="çŸ©å½¢å¤‡ä»½" x="3" y="0" width="1" height="10"></rect>
                    <rect id="çŸ©å½¢å¤‡ä»½-2" x="6" y="0" width="1" height="10"></rect>
                    <rect id="çŸ©å½¢å¤‡ä»½-3" x="9" y="0" width="1" height="10"></rect>
                    <rect id="çŸ©å½¢å¤‡ä»½-4" x="12" y="0" width="1" height="10"></rect>
                    <rect id="çŸ©å½¢å¤‡ä»½-5" x="15" y="0" width="1" height="10"></rect>
                    <rect id="çŸ©å½¢å¤‡ä»½-6" x="18" y="0" width="1" height="10"></rect>
                    <rect id="çŸ©å½¢å¤‡ä»½-7" x="21" y="0" width="1" height="10"></rect>
                    <rect id="çŸ©å½¢å¤‡ä»½-8" x="24" y="0" width="1" height="10"></rect>
                    <rect id="çŸ©å½¢å¤‡ä»½-9" x="27" y="0" width="1" height="10"></rect>
                    <rect id="çŸ©å½¢å¤‡ä»½-10" x="30" y="0" width="1" height="10"></rect>
                    <rect id="çŸ©å½¢å¤‡ä»½-10å¤‡ä»½-2" x="42" y="0" width="1" height="10"></rect>
                    <rect id="çŸ©å½¢å¤‡ä»½-10å¤‡ä»½-4" x="54" y="0" width="1" height="10"></rect>
                    <rect id="çŸ©å½¢å¤‡ä»½-10å¤‡ä»½" x="36" y="0" width="1" height="10"></rect>
                    <rect id="çŸ©å½¢å¤‡ä»½-10å¤‡ä»½-3" x="48" y="0" width="1" height="10"></rect>
                    <rect id="çŸ©å½¢å¤‡ä»½-10å¤‡ä»½-5" x="60" y="0" width="1" height="10"></rect>
                    <rect id="çŸ©å½¢å¤‡ä»½-11" x="33" y="0" width="1" height="10"></rect>
                    <rect id="çŸ©å½¢å¤‡ä»½-11å¤‡ä»½-4" x="45" y="0" width="1" height="10"></rect>
                    <rect id="çŸ©å½¢å¤‡ä»½-11å¤‡ä»½-6" x="57" y="0" width="1" height="10"></rect>
                    <rect id="çŸ©å½¢å¤‡ä»½-11å¤‡ä»½-3" x="39" y="0" width="1" height="10"></rect>
                    <rect id="çŸ©å½¢å¤‡ä»½-11å¤‡ä»½-5" x="51" y="0" width="1" height="10"></rect>
                    <rect id="çŸ©å½¢å¤‡ä»½-11å¤‡ä»½-7" x="63" y="0" width="1" height="10"></rect>
                </g>
                <g id="Icon/Warning" transform="translate(12.000000, 15.000000)" fill="#FAAD14">
                    <rect id="çŸ©å½¢" fill-rule="nonzero" opacity="0" x="0" y="0" width="16" height="16"></rect>
                    <path d="M8,1 C4.134375,1 1,4.134375 1,8 C1,11.865625 4.134375,15 8,15 C11.865625,15 15,11.865625 15,8 C15,4.134375 11.865625,1 8,1 Z M7.5,4.625 C7.5,4.55625 7.55625,4.5 7.625,4.5 L8.375,4.5 C8.44375,4.5 8.5,4.55625 8.5,4.625 L8.5,8.875 C8.5,8.94375 8.44375,9 8.375,9 L7.625,9 C7.55625,9 7.5,8.94375 7.5,8.875 L7.5,4.625 Z M8,11.5 C7.5859375,11.5 7.25,11.1640625 7.25,10.75 C7.25,10.3359375 7.5859375,10 8,10 C8.4140625,10 8.75,10.3359375 8.75,10.75 C8.75,11.1640625 8.4140625,11.5 8,11.5 Z" id="å½¢çŠ¶"></path>
                </g>
            </g>
        </g>
    </g>
</svg>