<?xml version="1.0" encoding="UTF-8"?>
<svg width="174px" height="107px" viewBox="0 0 174 107" version="1.1" xmlns="http://www.w3.org/2000/svg" xmlns:xlink="http://www.w3.org/1999/xlink">
    <title>4.数据展示/2.Popover气泡卡片/亮色/上左⬇️</title>
    <g id="组件骨架图更新" stroke="none" stroke-width="1" fill="none" fill-rule="evenodd">
        <g id="🎉-5.0-新版" transform="translate(-898.000000, -3486.000000)">
            <g id="4.数据展示/2.Popover气泡卡片/亮色/上左⬇️" transform="translate(899.000000, 3487.000000)">
                <path d="M161.744459,4.92498016e-16 C165.310534,-2.8615553e-16 166.603679,0.371302445 167.907383,1.06853082 C169.211087,1.76575919 170.234241,2.78891348 170.931469,4.09261719 C171.628698,5.39632089 172,6.68946584 172,10.2555408 L172,87.7444592 C172,91.3105342 171.628698,92.6036791 170.931469,93.9073828 C170.234241,95.2110865 169.211087,96.2342408 167.907383,96.9314692 C166.603679,97.6286976 165.310534,98 161.744459,98 L32.6287,98.0000989 C31.5780019,98.0074846 30.5719342,98.4280658 29.8284271,99.1715729 L24.4142136,104.585786 C23.633165,105.366835 22.366835,105.366835 21.5857864,104.585786 L16.1715729,99.1715729 C15.4214274,98.4214274 14.4040117,98 13.3431458,98 L13.375,98 L10.2555408,98 C6.81243394,98 5.48820595,97.6538631 4.22753905,97.0024318 L4.09261719,96.9314692 C2.78891348,96.2342408 1.76575919,95.2110865 1.06853082,93.9073828 C0.371302445,92.6036791 -2.84217094e-14,91.3105342 2.84217094e-14,87.7444592 L0,10.2555408 C0,6.68946584 0.371302445,5.39632089 1.06853082,4.09261719 C1.76575919,2.78891348 2.78891348,1.76575919 4.09261719,1.06853082 C5.39632089,0.371302445 6.68946584,-7.67637969e-16 10.2555408,1.32117026e-15 Z" id="形状结合" stroke="#F0F0F0" fill="#FFFFFF" fill-rule="nonzero"></path>
                <text id="Title" font-family="PingFangSC-Medium, PingFang SC" font-size="14" font-weight="400" line-spacing="22" fill="#000000" fill-opacity="0.88">
                    <tspan x="12" y="27">||||||||||||||||||||</tspan>
                </text>
                <text id="Text" font-family="PingFangSC-Regular, PingFang SC" font-size="14" font-weight="normal" line-spacing="22" fill="#000000" fill-opacity="0.88">
                    <tspan x="12" y="57">||||||||||||||||||||||||||||||||||||||||||||||||||||||</tspan>
                    <tspan x="12" y="79">||||||||||||||||||||||||||||||||||||||</tspan>
                </text>
            </g>
        </g>
    </g>
</svg>