<?xml version="1.0" encoding="UTF-8"?>
<svg width="168px" height="127px" viewBox="0 0 168 127" version="1.1" xmlns="http://www.w3.org/2000/svg" xmlns:xlink="http://www.w3.org/1999/xlink">
    <title>编组 7</title>
    <g id="页面-1" stroke="none" stroke-width="1" fill="none" fill-rule="evenodd">
        <g id="画板" transform="translate(-409.000000, -89.000000)">
            <g id="编组-7" transform="translate(409.000000, 89.000000)">
                <rect id="矩形" stroke="#D9D9D9" fill="#FFFFFF" x="16.3740157" y="0.5" width="151.125984" height="114" rx="2"></rect>
                <rect id="矩形" stroke="#1791FF" fill="#FFFFFF" x="0.5" y="8.5" width="156.417323" height="118" rx="2"></rect>
                <g id="编组-5" transform="translate(16.000000, 33.000000)">
                    <rect id="矩形" fill-opacity="0.06" fill="#000000" x="0" y="0" width="32" height="8" rx="2"></rect>
                    <rect id="矩形备份-8" fill-opacity="0.06" fill="#000000" x="0" y="28" width="104" height="8" rx="2"></rect>
                    <rect id="矩形备份-5" fill-opacity="0.06" fill="#000000" x="36" y="0" width="32" height="8" rx="2"></rect>
                    <rect id="矩形备份-10" fill-opacity="0.06" fill="#000000" x="72" y="42" width="32" height="8" rx="2"></rect>
                    <rect id="矩形备份-7" fill-opacity="0.06" fill="#000000" x="0" y="42" width="68" height="8" rx="2"></rect>
                    <rect id="矩形备份-9" fill-opacity="0.06" fill="#000000" x="0" y="56" width="32" height="8" rx="2"></rect>
                    <rect id="矩形备份-11" fill="#1791FF" x="0" y="74" width="16" height="8" rx="2"></rect>
                    <rect id="矩形备份-4" fill-opacity="0.06" fill="#000000" x="0" y="14" width="68" height="8" rx="2"></rect>
                </g>
                <text id="｜｜｜｜｜｜｜｜｜｜｜｜" font-family="PingFangSC-Regular, PingFang SC" font-size="8" font-weight="normal" letter-spacing="-5.71428571" fill="#000000" fill-opacity="0.65">
                    <tspan x="13" y="25">｜｜｜｜｜｜｜｜｜｜｜｜</tspan>
                </text>
            </g>
        </g>
    </g>
</svg>