<?xml version="1.0" encoding="UTF-8"?>
<svg width="176px" height="118px" viewBox="0 0 176 118" version="1.1" xmlns="http://www.w3.org/2000/svg" xmlns:xlink="http://www.w3.org/1999/xlink">
    <title>编组 4</title>
    <g id="页面-1" stroke="none" stroke-width="1" fill="none" fill-rule="evenodd">
        <g id="画板" transform="translate(-81.000000, -98.000000)">
            <g id="编组-4" transform="translate(81.000000, 98.000000)">
                <g id="编组-3" transform="translate(0.000000, 24.000000)">
                    <rect id="矩形" stroke="#D9D9D9" fill="#FFFFFF" x="0.5" y="0.5" width="95" height="67.5714286"></rect>
                    <path d="M3.41247535,2.43274825 L92.2125247,2.43274825 C92.7648094,2.43274825 93.2125247,2.8804635 93.2125247,3.43274825 L93.2125247,9.57560539 L93.2125247,9.57560539 L2.41247535,9.57560539 L2.41247535,3.43274825 C2.41247535,2.8804635 2.8601906,2.43274825 3.41247535,2.43274825 Z" id="矩形" fill="#B9E7FF"></path>
                    <rect id="矩形" fill="#B9E7FF" x="12.0209566" y="13.5714286" width="24.7916667" height="2.14285714"></rect>
                    <rect id="矩形" fill-opacity="0.04" fill="#000000" x="12.0209566" y="19.2857143" width="68" height="42.1428571"></rect>
                </g>
                <g id="编组-3备份" transform="translate(40.000000, 49.000000)">
                    <rect id="矩形" stroke="#D9D9D9" fill="#FFFFFF" x="0.5" y="0.5" width="95" height="67.5714286"></rect>
                    <path d="M2.41247535,2.70175526 L15.1624753,2.70175526 L15.1624753,66.284869 L3.41247535,66.284869 C2.8601906,66.284869 2.41247535,65.8371537 2.41247535,65.284869 L2.41247535,2.70175526 L2.41247535,2.70175526 Z" id="矩形备份" fill="#B9E7FF"></path>
                    <rect id="矩形" fill="#B9E7FF" x="20.5416667" y="13.5714286" width="24.7916667" height="2.14285714"></rect>
                    <rect id="矩形" fill-opacity="0.04" fill="#000000" x="20.5416667" y="19.2857143" width="68" height="42.1428571"></rect>
                </g>
                <g id="编组-3备份-3" transform="translate(80.000000, 0.000000)">
                    <rect id="矩形" stroke="#1791FF" fill="#FFFFFF" x="0.5" y="0.5" width="95" height="67.5714286"></rect>
                    <path d="M1.69818963,0.718462533 L94.4982389,0.718462533 C95.0505237,0.718462533 95.4982389,1.16617778 95.4982389,1.71846253 L95.4982389,7.86131968 L95.4982389,7.86131968 L0.698189631,7.86131968 L0.698189631,1.71846253 C0.698189631,1.16617778 1.14590488,0.718462533 1.69818963,0.718462533 Z" id="矩形" fill="#E5F7FF"></path>
                    <path d="M0.698189631,7.71513102 L13.4481896,7.71513102 L13.4481896,67.852966 L1.69818963,67.852966 C1.14590488,67.852966 0.698189631,67.4052508 0.698189631,66.852966 L0.698189631,7.71513102 L0.698189631,7.71513102 Z" id="矩形备份" fill="#B9E7FF"></path>
                    <rect id="矩形" fill="#B9E7FF" x="20.5416667" y="13.5714286" width="24.7916667" height="2.14285714"></rect>
                    <rect id="矩形" fill-opacity="0.04" fill="#000000" x="20.5416667" y="19.2857143" width="68" height="42.1428571"></rect>
                </g>
            </g>
        </g>
    </g>
</svg>