<?xml version="1.0" encoding="UTF-8"?>
<svg width="118px" height="118px" viewBox="0 0 118 118" version="1.1" xmlns="http://www.w3.org/2000/svg" xmlns:xlink="http://www.w3.org/1999/xlink">
    <title>ç¼–ç»„ 4</title>
    <g id="ç»„ä»¶éª¨æž¶å›¾æ›´æ–°" stroke="none" stroke-width="1" fill="none" fill-rule="evenodd">
        <g id="ðŸŽ‰-5.0-æ–°ç‰ˆ" transform="translate(-195.000000, -5480.000000)" fill-rule="nonzero">
            <g id="ç¼–ç»„-4" transform="translate(196.000000, 5481.000000)">
                <rect id="çŸ©å½¢å¤‡ä»½-2" stroke="#F0F0F0" stroke-width="0.8" fill="#FFFFFF" x="0" y="0" width="116" height="116" rx="6.4000001"></rect>
                <g id="äºŒç»´ç " transform="translate(14.000000, 14.000000)" fill="#000000">
                    <rect id="çŸ©å½¢" opacity="0" x="0" y="0" width="88" height="88"></rect>
                    <path d="M2.7225,0.033 L37.972,0.033 C41.5525,0.385 40.689,6.6055 40.689,10.648 L40.689,29.8925 C40.689,34.0725 41.4865,39.1985 38.676,40.3865 C36.85,41.1565 31.9385,40.6175 29.568,40.6175 L10.879,40.6175 C6.5615,40.6175 0.6655,41.635 0,37.9335 L0,2.717 C0.484,1.4025 1.331,0.4565 2.7225,0.033 Z M7.568,7.964 L7.568,33.0385 L33,33.0385 L33,7.612 L7.689,7.612 C7.5515,7.634 7.557,7.799 7.568,7.964 Z M50.0335,0.033 L85.283,0.033 C86.7185,0.561 87.703,1.529 88,3.1845 L88,37.4715 C87.6755,38.896 86.922,40.1115 85.514,40.502 C83.215,41.14 79.3925,40.6175 76.6425,40.6175 L58.5475,40.6175 C55.8195,40.6175 51.7715,41.184 49.5605,40.502 C46.431,39.5395 47.311,33.517 47.311,29.3095 L47.311,11.3465 C47.311,6.4845 46.2275,0.715 50.0335,0.033 L50.0335,0.033 Z M54.8845,7.964 L54.8845,33.0385 L80.3165,33.0385 L80.3165,7.612 L55,7.612 C54.8625,7.634 54.8735,7.799 54.8845,7.964 Z M19.162,15.312 C22.704,14.652 25.487,17.0115 25.5475,20.207 C25.6245,24.4255 21.2575,26.741 17.8585,24.9865 C13.97,22.9845 14.2285,16.2305 19.162,15.312 L19.162,15.312 Z M66.473,15.312 C74.8165,13.7775 74.657,26.8015 66.473,25.4595 C61.2645,24.6015 61.0995,16.302 66.473,15.312 Z M37.73,87.967 L2.838,87.967 C1.3915,87.527 0.4125,86.625 0,85.1675 L0,50.0665 C0.3465,49.038 1.1385,47.839 2.365,47.498 C4.6805,46.8545 8.4645,47.3825 11.2365,47.3825 L29.3315,47.3825 C32.0045,47.3825 35.8985,46.794 38.3185,47.498 C41.5965,48.4495 40.6835,54.373 40.6835,58.575 L40.6835,77.1155 C40.689,81.653 41.679,87.56 37.73,87.967 L37.73,87.967 Z M7.568,55.3135 L7.568,80.388 L33,80.388 L33,54.9615 L7.689,54.9615 C7.5515,54.9835 7.557,55.1485 7.568,55.3135 Z M88,50.5285 L88,60.324 C87.725,63.6295 87.9615,67.4355 87.8845,70.9335 L62.689,70.9335 L62.689,65.219 C60.324,64.944 57.4475,65.1805 54.8845,65.1035 C54.6095,72.49 54.846,80.3825 54.7635,87.9615 L50.149,87.9615 C46.1835,87.175 47.311,81.312 47.311,76.648 L47.311,58.5695 C47.311,55.8525 46.75,51.777 47.4265,49.588 C48.235,46.981 51.733,47.3715 55.231,47.3715 L72.38,47.3715 L72.38,62.8815 L80.3055,62.8815 C80.3825,57.75 80.146,52.3105 80.421,47.3715 C84.2435,47.157 87.7745,47.212 88,50.5285 L88,50.5285 Z M19.7505,62.5405 C23.5345,62.128 26.6585,65.714 25.19,69.6575 C23.155,75.1245 13.431,73.0675 15.2515,66.1595 C15.763,64.2455 17.215,62.821 19.7505,62.5405 L19.7505,62.5405 Z M71.203,87.967 L62.689,87.967 C62.766,84.975 62.5295,81.6695 62.81,78.87 L71.2085,78.87 L71.203,87.967 Z M88,78.87 L88,84.8155 C87.67,86.471 86.6855,87.4885 85.162,87.967 L79.1285,87.967 C79.2055,84.975 78.969,81.6695 79.2495,78.87 L88,78.87 Z" id="å½¢çŠ¶" fill-opacity="0.15"></path>
                </g>
            </g>
        </g>
    </g>
</svg>