<?xml version="1.0" encoding="UTF-8"?>
<svg width="176px" height="96px" viewBox="0 0 176 96" version="1.1" xmlns="http://www.w3.org/2000/svg" xmlns:xlink="http://www.w3.org/1999/xlink">
    <title>Space</title>
    <g id="组件骨架图更新" stroke="none" stroke-width="1" fill="none" fill-rule="evenodd">
        <g id="🎉-5.0-新版" transform="translate(-1258.000000, -778.000000)" fill-rule="nonzero">
            <g id="Space" transform="translate(1258.000000, 778.000000)">
                <path d="M0,0 L80,0 L80,40 L0,40 L0,0 Z M0,56 L80,56 L80,96 L0,96 L0,56 Z M96,0 L176,0 L176,40 L96,40 L96,0 Z M96,56 L176,56 L176,96 L96,96 L96,56 Z" id="形状" fill="#EEEEEE"></path>
                <path d="M95.75,23.75 L95.25,23.75 L95.25,20.75 L80.75,20.75 L80.75,23.75 L80.25,23.75 L80.25,17.25 L80.75,17.25 L80.75,20.25 L95.25,20.25 L95.25,17.25 L95.75,17.25 L95.75,23.75 Z M95.75,79.75 L95.25,79.75 L95.25,76.75 L80.75,76.75 L80.75,79.75 L80.25,79.75 L80.25,73.25 L80.75,73.25 L80.75,76.25 L95.25,76.25 L95.25,73.25 L95.75,73.25 L95.75,79.75 Z M37.25,55.75 L37.25,55.25 L40.25,55.25 L40.25,40.75 L37.25,40.75 L37.25,40.25 L43.75,40.25 L43.75,40.75 L40.75,40.75 L40.75,55.25 L43.75,55.25 L43.75,55.75 L37.25,55.75 Z M133.25,55.75 L133.25,55.25 L136.25,55.25 L136.25,40.75 L133.25,40.75 L133.25,40.25 L139.75,40.25 L139.75,40.75 L136.75,40.75 L136.75,55.25 L139.75,55.25 L139.75,55.75 L133.25,55.75 Z" id="形状" fill="#1677FF"></path>
            </g>
        </g>
    </g>
</svg>