<?xml version="1.0" encoding="UTF-8"?>
<svg width="101px" height="58px" viewBox="0 0 101 58" version="1.1" xmlns="http://www.w3.org/2000/svg" xmlns:xlink="http://www.w3.org/1999/xlink">
    <title>编组 6</title>
    <g id="组件骨架图更新" stroke="none" stroke-width="1" fill="none" fill-rule="evenodd">
        <g id="🎉-5.0-新版" transform="translate(-204.000000, -3749.000000)" fill="#000000" fill-rule="nonzero">
            <g id="编组-6" transform="translate(204.000000, 3749.000000)">
                <path d="M3.526,11.6484596 L4.566,8.7844596 L9.35,8.7844596 L10.39,11.6484596 L12.39,11.6484596 L8.022,0.224459601 L5.894,0.224459601 L1.526,11.6484596 L3.526,11.6484596 Z M8.79,7.2484596 L5.126,7.2484596 L6.934,2.2404596 L6.998,2.2404596 L8.79,7.2484596 Z M17.03,11.8724596 C18.102,11.8724596 18.966,11.6004596 19.606,11.0724596 C20.262,10.5284596 20.694,9.6964596 20.886,8.5764596 L19.078,8.5764596 C18.934,9.7764596 18.262,10.3844596 17.046,10.3844596 C16.342,10.3844596 15.814,10.1284596 15.462,9.6324596 C15.078,9.1204596 14.902,8.4004596 14.902,7.4884596 C14.902,6.5924596 15.094,5.8884596 15.478,5.3924596 C15.862,4.8804596 16.39,4.6404596 17.062,4.6404596 C17.606,4.6404596 18.054,4.7684596 18.39,5.0244596 C18.71,5.2804596 18.934,5.6644596 19.046,6.1924596 L20.854,6.1924596 C20.694,5.1524596 20.278,4.3844596 19.622,3.8724596 C18.982,3.3924596 18.134,3.1524596 17.062,3.1524596 C15.766,3.1524596 14.758,3.5844596 14.038,4.4484596 C13.366,5.2324596 13.03,6.2564596 13.03,7.5044596 C13.03,8.7844596 13.366,9.8244596 14.054,10.6244596 C14.758,11.4564596 15.75,11.8724596 17.03,11.8724596 L17.03,11.8724596 Z M26.55,11.6484596 L26.55,10.1444596 L25.462,10.1444596 C25.27,10.1444596 25.142,10.0964596 25.046,10.0004596 C24.95,9.8884596 24.918,9.7444596 24.918,9.5524596 L24.918,4.8804596 L26.758,4.8804596 L26.758,3.3764596 L24.918,3.3764596 L24.918,0.704459601 L23.094,1.4564596 L23.094,3.3764596 L21.606,3.3764596 L21.606,4.8804596 L23.094,4.8804596 L23.094,9.5524596 C23.094,10.2244596 23.254,10.7204596 23.574,11.0724596 C23.91,11.4564596 24.438,11.6484596 25.158,11.6484596 L26.55,11.6484596 Z M29.35,2.4164596 C29.702,2.4164596 29.99,2.3044596 30.23,2.0804596 C30.4720967,1.85271495 30.6059008,1.53274864 30.598,1.2004596 C30.598,0.848459601 30.47,0.560459601 30.246,0.336459601 C30.0024536,0.112102698 29.6810162,-0.00843632943 29.35,0.000459600976 C28.998,0.000459600976 28.71,0.112459601 28.47,0.336459601 C28.23,0.560459601 28.118,0.848459601 28.118,1.2004596 C28.118,1.5524596 28.23,1.8404596 28.47,2.0804596 C28.71,2.3044596 28.998,2.4164596 29.35,2.4164596 L29.35,2.4164596 Z M30.262,11.6484596 L30.262,3.3764596 L28.438,3.3764596 L28.438,11.6484596 L30.262,11.6484596 Z M36.518,11.6484596 L39.574,3.3764596 L37.59,3.3764596 L35.606,9.3764596 L33.622,3.3764596 L31.638,3.3764596 L34.694,11.6484596 L36.518,11.6484596 L36.518,11.6484596 Z M44.214,11.8724596 C45.318,11.8724596 46.23,11.5524596 46.966,10.9284596 C47.5389961,10.4161594 47.9410772,9.74043981 48.118,8.9924596 L46.294,8.9924596 C46.07,9.4564596 45.83,9.7924596 45.558,10.0004596 C45.206,10.2564596 44.758,10.3844596 44.198,10.3844596 C43.542,10.3844596 43.03,10.1764596 42.678,9.7764596 C42.326,9.3764596 42.118,8.7844596 42.054,8.0164596 L48.246,8.0164596 C48.246,6.5284596 47.91,5.3604596 47.254,4.5284596 C46.534,3.6004596 45.494,3.1524596 44.134,3.1524596 C42.902,3.1524596 41.926,3.5684596 41.222,4.4164596 C40.486,5.2484596 40.134,6.2724596 40.134,7.5044596 C40.134,8.8804596 40.518,9.9524596 41.286,10.7364596 C42.006,11.4884596 42.982,11.8724596 44.214,11.8724596 L44.214,11.8724596 Z M46.342,6.6404596 L42.086,6.6404596 C42.198,5.9844596 42.422,5.4884596 42.758,5.1524596 C43.11,4.8004596 43.574,4.6404596 44.182,4.6404596 C45.462,4.6404596 46.182,5.2964596 46.342,6.6404596 L46.342,6.6404596 Z M59.926,11.8724596 C61.43,11.8724596 62.598,11.4884596 63.43,10.7204596 C64.262,9.9364596 64.678,8.8004596 64.678,7.3124596 L64.678,0.224459601 L62.806,0.224459601 L62.806,7.3444596 C62.806,8.3364596 62.566,9.0564596 62.118,9.5364596 C61.654,10.0004596 60.918,10.2404596 59.926,10.2404596 C58.918,10.2404596 58.182,10.0004596 57.734,9.5364596 C57.27,9.0564596 57.046,8.3364596 57.046,7.3444596 L57.046,0.224459601 L55.174,0.224459601 L55.174,7.3124596 C55.174,8.8004596 55.59,9.9364596 56.438,10.7364596 C57.238,11.4884596 58.406,11.8724596 59.926,11.8724596 Z M69.99,11.8724596 C72.47,11.8724596 73.718,10.9924596 73.718,9.2324596 C73.718,8.4964596 73.382,7.9044596 72.726,7.4884596 C72.278,7.1844596 71.574,6.9284596 70.646,6.7044596 C69.814,6.4964596 69.27,6.3364596 68.998,6.2244596 C68.55,6.0324596 68.342,5.7924596 68.342,5.5364596 C68.342,5.2164596 68.47,4.9924596 68.758,4.8484596 C68.998,4.7044596 69.366,4.6404596 69.846,4.6404596 C70.406,4.6404596 70.822,4.7204596 71.094,4.8964596 C71.35,5.0564596 71.542,5.3604596 71.67,5.7764596 L73.446,5.7764596 C73.254,4.0164596 72.054,3.1524596 69.878,3.1524596 C68.854,3.1524596 68.038,3.3604596 67.414,3.8084596 C66.774,4.2244596 66.47,4.8164596 66.47,5.5844596 C66.47,6.3044596 66.79,6.8644596 67.43,7.2644596 C67.83,7.5204596 68.518,7.7604596 69.494,7.9844596 C70.326,8.1764596 70.87,8.3204596 71.126,8.4484596 C71.606,8.6724596 71.846,8.9764596 71.846,9.3604596 C71.846,10.0324596 71.206,10.3844596 69.926,10.3844596 C69.318,10.3844596 68.886,10.2724596 68.614,10.0804596 C68.342,9.8564596 68.15,9.4884596 68.054,8.9604596 L66.278,8.9604596 C66.454,10.8964596 67.686,11.8724596 69.99,11.8724596 L69.99,11.8724596 Z M78.758,11.8724596 C79.862,11.8724596 80.774,11.5524596 81.51,10.9284596 C82.0829961,10.4161594 82.4850772,9.74043981 82.662,8.9924596 L80.838,8.9924596 C80.614,9.4564596 80.374,9.7924596 80.102,10.0004596 C79.75,10.2564596 79.302,10.3844596 78.742,10.3844596 C78.086,10.3844596 77.574,10.1764596 77.222,9.7764596 C76.87,9.3764596 76.662,8.7844596 76.598,8.0164596 L82.79,8.0164596 C82.79,6.5284596 82.454,5.3604596 81.798,4.5284596 C81.078,3.6004596 80.038,3.1524596 78.678,3.1524596 C77.446,3.1524596 76.47,3.5684596 75.766,4.4164596 C75.03,5.2484596 74.678,6.2724596 74.678,7.5044596 C74.678,8.8804596 75.062,9.9524596 75.83,10.7364596 C76.55,11.4884596 77.526,11.8724596 78.758,11.8724596 L78.758,11.8724596 Z M80.886,6.6404596 L76.63,6.6404596 C76.742,5.9844596 76.966,5.4884596 77.302,5.1524596 C77.654,4.8004596 78.118,4.6404596 78.726,4.6404596 C80.006,4.6404596 80.726,5.2964596 80.886,6.6404596 L80.886,6.6404596 Z M86.038,11.6484596 L86.038,7.2644596 C86.038,6.5604596 86.246,6.0004596 86.694,5.5684596 C87.078,5.1844596 87.51,5.0084596 87.99,5.0084596 C88.374,5.0084596 88.758,5.0564596 89.174,5.1844596 L89.174,3.3604596 C88.886,3.2164596 88.534,3.1524596 88.134,3.1524596 C87.622,3.1524596 87.19,3.2964596 86.822,3.6004596 C86.518,3.8244596 86.262,4.1444596 86.038,4.5604596 L86.038,3.3764596 L84.23,3.3764596 L84.23,11.6484596 L86.038,11.6484596 Z M93.446,11.8724596 C95.926,11.8724596 97.174,10.9924596 97.174,9.2324596 C97.174,8.4964596 96.838,7.9044596 96.182,7.4884596 C95.734,7.1844596 95.03,6.9284596 94.102,6.7044596 C93.27,6.4964596 92.726,6.3364596 92.454,6.2244596 C92.006,6.0324596 91.798,5.7924596 91.798,5.5364596 C91.798,5.2164596 91.926,4.9924596 92.214,4.8484596 C92.454,4.7044596 92.822,4.6404596 93.302,4.6404596 C93.862,4.6404596 94.278,4.7204596 94.55,4.8964596 C94.806,5.0564596 94.998,5.3604596 95.126,5.7764596 L96.902,5.7764596 C96.71,4.0164596 95.51,3.1524596 93.334,3.1524596 C92.31,3.1524596 91.494,3.3604596 90.87,3.8084596 C90.23,4.2244596 89.926,4.8164596 89.926,5.5844596 C89.926,6.3044596 90.246,6.8644596 90.886,7.2644596 C91.286,7.5204596 91.974,7.7604596 92.95,7.9844596 C93.782,8.1764596 94.326,8.3204596 94.582,8.4484596 C95.062,8.6724596 95.302,8.9764596 95.302,9.3604596 C95.302,10.0324596 94.662,10.3844596 93.382,10.3844596 C92.774,10.3844596 92.342,10.2724596 92.07,10.0804596 C91.798,9.8564596 91.606,9.4884596 91.51,8.9604596 L89.734,8.9604596 C89.91,10.8964596 91.142,11.8724596 93.446,11.8724596 L93.446,11.8724596 Z" id="形状" fill-opacity="0.45"></path>
                <path d="M7.178,51.6484596 L7.178,31.3324596 L4.84,31.3324596 L0,34.9414596 L0,37.4164596 L4.731,34.0114596 L4.841,34.0114596 L4.841,51.6484596 L7.178,51.6484596 Z M20.891,51.6484596 L20.891,31.3324596 L18.553,31.3324596 L13.713,34.9414596 L13.713,37.4164596 L18.444,34.0114596 L18.554,34.0114596 L18.554,51.6484596 L20.891,51.6484596 Z M40.059,51.6484596 L40.059,49.5434596 L30.612,49.5434596 L30.612,49.3654596 L36.245,42.8574596 C36.7186714,42.3185486 37.1857066,41.7738409 37.646,41.2234596 C37.951,40.8544596 38.293,40.3764596 38.672,39.7884596 C39.05,39.2004596 39.314,38.6444596 39.464,38.1204596 C39.614,37.5964596 39.69,37.0334596 39.69,36.4314596 C39.69,34.8364596 39.12,33.5174596 37.981,32.4734596 C36.841,31.4304596 35.342,30.9084596 33.483,30.9084596 C31.533,30.9084596 29.993,31.4824596 28.862,32.6304596 C27.732,33.7794596 27.167,35.1694596 27.167,36.8004596 L27.167,36.8824596 L29.505,36.8824596 L29.505,36.8004596 C29.505,35.7344596 29.86,34.8324596 30.571,34.0934596 C31.281,33.3554596 32.234,32.9864596 33.428,32.9864596 C34.549,32.9864596 35.47,33.3124596 36.19,33.9634596 C36.91,34.6154596 37.27,35.4934596 37.27,36.5954596 C37.27,37.1884596 37.138,37.7874596 36.874,38.3934596 C36.609,38.9994596 36.34,39.4834596 36.067,39.8434596 C35.794,40.2034596 35.407,40.6654596 34.905,41.2304596 L27.235,50.1444596 L27.235,51.6484596 L40.059,51.6484596 L40.059,51.6484596 Z M44.379,57.3084596 L47.401,49.1734596 L44.611,49.1734596 L42.561,57.3084596 L44.38,57.3084596 L44.379,57.3084596 Z M58.297,52.0724596 C60.339,52.0724596 62.034,51.5184596 63.383,50.4114596 C64.733,49.3034596 65.407,47.8654596 65.407,46.0974596 C65.4142558,45.3976335 65.2841313,44.7031833 65.024,44.0534596 C64.769,43.4294596 64.427,42.9164596 63.999,42.5154596 C63.6011419,42.1374523 63.1604891,41.8072144 62.686,41.5314596 C62.26327,41.2857886 61.8076915,41.1016042 61.333,40.9844596 L61.333,40.8614596 C61.697,40.7514596 62.055,40.5834596 62.406,40.3554596 C62.7860921,40.1033458 63.1389836,39.8124532 63.459,39.4874596 C63.809,39.1364596 64.094,38.6854596 64.313,38.1334596 C64.532,37.5824596 64.641,36.9834596 64.641,36.3354596 C64.641,35.2964596 64.366,34.3654596 63.814,33.5404596 C63.263,32.7154596 62.513,32.0704596 61.565,31.6054596 C60.617,31.1404596 59.546,30.9084596 58.352,30.9084596 C56.566,30.9084596 55.075,31.4204596 53.882,32.4464596 C52.687,33.4714596 52.09,34.7684596 52.09,36.3364596 C52.09,37.5304596 52.428,38.5124596 53.102,39.2824596 C53.777,40.0524596 54.529,40.5784596 55.358,40.8614596 L55.358,40.9844596 C54.5749821,41.1867329 53.8436294,41.5524093 53.212,42.0574596 C52.8439441,42.3388611 52.5171043,42.6704134 52.241,43.0424596 C51.967,43.4114596 51.741,43.8664596 51.564,44.4094596 C51.3842543,44.9636076 51.2941203,45.5428961 51.2969331,46.1254596 C51.2969331,47.8934596 51.951,49.3264596 53.259,50.4254596 C54.567,51.5234596 56.247,52.0724596 58.297,52.0724596 L58.297,52.0724596 Z M58.352,40.0134596 C57.212,40.0134596 56.267,39.6814596 55.515,39.0154596 C54.763,38.3504596 54.387,37.4984596 54.387,36.4594596 C54.387,35.4294596 54.763,34.5924596 55.515,33.9494596 C56.267,33.3074596 57.213,32.9864596 58.352,32.9864596 C59.528,32.9864596 60.485,33.3074596 61.223,33.9504596 C61.962,34.5924596 62.331,35.4294596 62.331,36.4594596 C62.331,37.5164596 61.957,38.3734596 61.21,39.0294596 C60.462,39.6854596 59.51,40.0134596 58.352,40.0134596 L58.352,40.0134596 Z M58.352,50.0214596 C56.985,50.0214596 55.85,49.6514596 54.948,48.9144596 C54.046,48.1754596 53.594,47.2184596 53.594,46.0434596 C53.594,44.8674596 54.046,43.9104596 54.948,43.1714596 C55.85,42.4334596 56.985,42.0644596 58.352,42.0644596 C59.719,42.0644596 60.852,42.4344596 61.75,43.1714596 C62.647,43.9104596 63.096,44.8674596 63.096,46.0434596 C63.096,47.2184596 62.647,48.1754596 61.75,48.9134596 C60.852,49.6524596 59.72,50.0214596 58.352,50.0214596 L58.352,50.0214596 Z M75.702,52.0444596 C78.282,52.0444596 80.188,51.1244596 81.423,49.2834596 C82.658,47.4424596 83.276,44.6754596 83.276,40.9834596 C83.276,39.3894596 83.132,37.9834596 82.846,36.7664596 C82.558,35.5494596 82.191,34.5764596 81.745,33.8474596 C81.3272769,33.1505765 80.7768811,32.5424231 80.125,32.0574596 C79.491,31.5914596 78.855,31.2794596 78.217,31.1204596 C77.5503979,30.9573021 76.8662686,30.8766977 76.18,30.8803338 C74.175,30.8803338 72.519,31.4914596 71.21,32.7124596 C69.903,33.9344596 69.249,35.5924596 69.249,37.6894596 C69.249,39.7854596 69.859,41.4564596 71.081,42.6994596 C72.302,43.9444596 73.851,44.5664596 75.729,44.5664596 C77.042,44.5664596 78.129,44.2634596 78.989,43.6564596 C79.8269372,43.0809615 80.468951,42.2630917 80.829,41.3124596 L80.965,41.3124596 C80.9904078,42.4336096 80.9151055,43.5547769 80.74,44.6624596 C80.571,45.6734596 80.286,46.5824596 79.885,47.3894596 C79.485,48.1964596 78.933,48.8224596 78.231,49.2694596 C77.529,49.7164596 76.704,49.9394596 75.756,49.9394596 C74.79,49.9394596 74,49.7414596 73.384,49.3444596 C72.769,48.9484596 72.384,48.4724596 72.229,47.9164596 L69.782,47.9164596 C69.937,49.0914596 70.536,50.0734596 71.58,50.8624596 C72.623,51.6504596 73.997,52.0444596 75.702,52.0444596 L75.702,52.0444596 Z M76.071,42.4604596 C74.804,42.4604596 73.742,42.0574596 72.885,41.2504596 C72.029,40.4444596 71.6,39.2804596 71.6,37.7574596 C71.6,36.2994596 72.024,35.1394596 72.872,34.2774596 C73.719,33.4174596 74.758,32.9864596 75.989,32.9864596 C77.311,32.9864596 78.395,33.4164596 79.243,34.2784596 C80.09,35.1394596 80.514,36.3314596 80.514,37.8534596 C80.514,39.3304596 80.081,40.4674596 79.215,41.2644596 C78.35,42.0624596 77.301,42.4604596 76.071,42.4604596 L76.071,42.4604596 Z M93.503,52.1004596 C95.59,52.1004596 97.299,51.5204596 98.63,50.3634596 C99.96,49.2054596 100.607,47.7564596 100.57,46.0154596 C100.552878,45.2829921 100.385771,44.5618115 100.079,43.8964596 C99.778,43.2584596 99.395,42.7544596 98.93,42.3864596 C98.4975467,42.0370474 98.0248568,41.740609 97.522,41.5034596 C97.0835846,41.2946788 96.6116031,41.165341 96.128,41.1214596 L96.128,40.9844596 C97.039,40.8294596 97.903,40.3004596 98.718,39.3984596 C99.534,38.4964596 99.924,37.3794596 99.888,36.0484596 C99.824,34.5724596 99.213,33.3414596 98.055,32.3574596 C96.898,31.3734596 95.403,30.8904596 93.571,30.9074596 C91.711,30.9264596 90.244,31.4274596 89.169,32.4124596 C88.093,33.3964596 87.528,34.5544596 87.473,35.8844596 L89.756,35.8844596 C89.811,35.3744596 89.996,34.9004596 90.31,34.4624596 C90.625,34.0254596 91.071,33.6694596 91.65,33.3964596 C92.229,33.1234596 92.878,32.9864596 93.598,32.9864596 C94.738,32.9864596 95.663,33.3074596 96.374,33.9504596 C97.084,34.5924596 97.449,35.4294596 97.467,36.4594596 C97.467,37.5164596 97.101,38.3914596 96.367,39.0844596 C95.633,39.7764596 94.71,40.1234596 93.598,40.1234596 L91.52,40.1234596 L91.52,42.2284596 L93.735,42.2284596 C95.029,42.2284596 96.089,42.5794596 96.914,43.2814596 C97.739,43.9834596 98.151,44.9034596 98.151,46.0434596 C98.169,47.2184596 97.761,48.1754596 96.927,48.9134596 C96.093,49.6524596 94.975,50.0124596 93.571,49.9934596 C92.368,49.9934596 91.365,49.7094596 90.563,49.1394596 C89.761,48.5694596 89.31,47.8704596 89.21,47.0414596 L86.966,47.0414596 C87.039,48.4994596 87.673,49.7074596 88.866,50.6644596 C90.061,51.6214596 91.606,52.0994596 93.502,52.0994596 L93.503,52.1004596 Z" id="形状" fill-opacity="0.88"></path>
            </g>
        </g>
    </g>
</svg>