<?xml version="1.0" encoding="UTF-8"?>
<svg width="168px" height="103px" viewBox="0 0 168 103" version="1.1" xmlns="http://www.w3.org/2000/svg" xmlns:xlink="http://www.w3.org/1999/xlink">
    <title>Timeline</title>
    <g id="组件骨架图更新" stroke="none" stroke-width="1" fill="none" fill-rule="evenodd">
        <g id="🎉-5.0-新版" transform="translate(-170.000000, -3969.000000)" fill-rule="nonzero">
            <g id="Timeline" transform="translate(171.000000, 3969.000000)">
                <rect id="矩形" fill="#E9E9E9" x="2.24" y="1.5" width="1.494" height="99.771" rx="0.747"></rect>
                <path d="M13.885,101.812 L13.885,98.595 L16.198,98.595 C16.613,98.595 16.918,98.641 17.112,98.733 C17.452,98.899 17.635,99.228 17.658,99.718 L17.72,100.969 C17.733,101.262 17.75,101.459 17.77,101.561 C17.7856055,101.647733 17.8132034,101.731873 17.852,101.811 L19.098,101.811 L19.098,101.643 C18.942,101.575 18.833,101.422 18.771,101.183 C18.7252615,100.973373 18.7014666,100.759554 18.7,100.545 L18.664,99.539 C18.647,99.104 18.564,98.789 18.417,98.595 C18.268,98.401 18.048,98.245 17.755,98.125 C18.070736,97.9673726 18.3394074,97.7293966 18.534,97.435 C18.719,97.15 18.812,96.782 18.812,96.333 C18.812,95.472 18.46,94.881 17.755,94.561 C17.385,94.395 16.913,94.311 16.341,94.311 L12.87,94.311 L12.87,101.811 L13.886,101.811 L13.885,101.812 Z M16.234,97.747 L13.885,97.747 L13.885,95.184 L16.367,95.184 C16.714,95.184 16.991,95.235 17.199,95.337 C17.587,95.531 17.781,95.896 17.781,96.43 C17.781,96.927 17.642,97.27 17.365,97.461 C17.087,97.652 16.71,97.747 16.234,97.747 L16.234,97.747 Z M22.31,102.005 C22.589,102.005 22.839,101.978 23.06,101.924 C23.472,101.828 23.818,101.644 24.097,101.372 C24.2785504,101.195601 24.4307969,100.991367 24.548,100.767 C24.6691247,100.56043 24.7498908,100.332724 24.786,100.096 L23.882,100.096 C23.8167665,100.332454 23.6980416,100.550743 23.535,100.734 C23.249,101.051 22.866,101.209 22.386,101.209 C21.872,101.209 21.493,101.041 21.248,100.706 C21.003,100.371 20.872,99.926 20.855,99.371 L24.862,99.371 C24.862,98.819 24.835,98.418 24.781,98.166 C24.7285949,97.82176 24.6031178,97.4927236 24.413,97.201 C24.223,96.911 23.945,96.676 23.581,96.494 C23.2316991,96.3155644 22.8452363,96.2220322 22.453,96.221 C21.683,96.221 21.06,96.495 20.583,97.043 C20.107,97.591 19.869,98.303 19.869,99.182 C19.869,100.074 20.106,100.767 20.579,101.262 C21.0232361,101.745166 21.6527343,102.015523 22.309,102.005 L22.31,102.005 Z M23.918,98.641 L20.88,98.641 C20.897,98.171 21.049,97.784 21.334,97.479 C21.6056313,97.1807835 21.9926935,97.0142228 22.396,97.022 C22.986,97.022 23.406,97.244 23.658,97.686 C23.794,97.924 23.88,98.243 23.918,98.641 L23.918,98.641 Z M26.935,101.811 L26.935,94.311 L26.016,94.311 L26.016,101.811 L26.936,101.811 L26.935,101.811 Z M30.448,102.005 C30.728,102.005 30.978,101.978 31.198,101.924 C31.61,101.828 31.956,101.644 32.235,101.372 C32.402,101.216 32.552,101.014 32.687,100.767 C32.821,100.521 32.901,100.297 32.924,100.096 L32.021,100.096 C31.9554727,100.332544 31.8364016,100.550842 31.673,100.734 C31.388,101.051 31.005,101.209 30.525,101.209 C30.011,101.209 29.631,101.041 29.386,100.706 C29.141,100.371 29.01,99.926 28.993,99.371 L33.001,99.371 C33.001,98.819 32.974,98.418 32.919,98.166 C32.8668991,97.821838 32.741765,97.4928068 32.552,97.201 C32.361,96.911 32.084,96.676 31.719,96.494 C31.3696991,96.3155644 30.9832363,96.2220322 30.591,96.221 C29.821,96.221 29.199,96.495 28.722,97.043 C28.246,97.591 28.008,98.303 28.008,99.182 C28.008,100.074 28.244,100.767 28.718,101.262 C29.19,101.758 29.768,102.005 30.448,102.005 L30.448,102.005 Z M32.056,98.641 L29.018,98.641 C29.036,98.171 29.187,97.784 29.473,97.479 C29.7446313,97.1807835 30.1316935,97.0142228 30.535,97.022 C31.124,97.022 31.545,97.244 31.796,97.686 C31.932,97.924 32.019,98.243 32.056,98.641 L32.056,98.641 Z M35.6,101.995 C36.022,101.995 36.408,101.905 36.759,101.725 C37.109,101.545 37.379,101.331 37.565,101.086 C37.5826636,101.263801 37.63679,101.436052 37.724,101.592 C37.867,101.817 38.096,101.929 38.413,101.929 C38.543,101.929 38.644,101.924 38.719,101.914 C38.8295683,101.895521 38.9388035,101.869799 39.046,101.837 L39.046,101.157 C38.9465172,101.174543 38.8459474,101.185235 38.745,101.189 C38.619,101.189 38.536,101.159 38.497,101.102 C38.4546812,101.032998 38.4341219,100.952852 38.438,100.872 L38.438,97.722 C38.438,97.204 38.239,96.823 37.841,96.578 C37.439,96.333 36.917,96.21 36.274,96.21 C35.719,96.21 35.231,96.342 34.811,96.606 C34.391,96.87 34.171,97.339 34.155,98.013 L35.013,98.013 C35.047,97.73 35.12,97.518 35.233,97.375 C35.433,97.115 35.773,96.987 36.253,96.987 C36.669,96.987 36.988,97.057 37.211,97.198 C37.434,97.34 37.545,97.567 37.545,97.88 C37.545,98.033 37.525,98.15 37.484,98.232 C37.412,98.382 37.271,98.471 37.06,98.498 L35.595,98.682 C35.081,98.746 34.665,98.918 34.349,99.197 C34.032,99.477 33.874,99.87 33.874,100.377 C33.874,100.84 34.034,101.225 34.356,101.533 C34.678,101.841 35.093,101.995 35.6,101.995 L35.6,101.995 Z M35.814,101.215 C35.5644505,101.219594 35.3208834,101.138405 35.124,100.985 C34.9314576,100.834445 34.823454,100.600189 34.834,100.356 C34.834,100.006 34.975,99.75 35.258,99.59 C35.424,99.495 35.675,99.425 36.008,99.381 L36.565,99.31 C36.735,99.29 36.908,99.255 37.085,99.208 C37.262,99.16 37.407,99.1 37.519,99.028 L37.519,99.769 C37.519,100.334 37.264,100.741 36.754,100.989 C36.451,101.139 36.138,101.214 35.814,101.214 L35.814,101.215 Z M41.88,102.021 C42.635,102.021 43.198,101.844 43.567,101.49 C43.937,101.136 44.121,100.715 44.121,100.229 C44.121,99.725 43.942,99.356 43.585,99.121 C43.36,98.971 42.918,98.816 42.258,98.656 L41.65,98.508 C41.4387938,98.4638717 41.2354886,98.3880115 41.047,98.283 C40.813,98.14 40.695,97.95 40.695,97.712 C40.695,97.494 40.785,97.318 40.963,97.186 C41.142,97.053 41.405,96.986 41.753,96.986 C42.273,96.986 42.639,97.107 42.85,97.349 C42.98,97.519 43.052,97.709 43.07,97.916 L43.937,97.916 C43.9422867,97.5578237 43.8251635,97.2085708 43.605,96.926 C43.241,96.442 42.647,96.2 41.824,96.2 C41.194,96.2 40.693,96.36 40.32,96.68 C39.947,97 39.76,97.419 39.76,97.936 C39.76,98.376 39.958,98.719 40.353,98.968 C40.574,99.111 40.918,99.24 41.384,99.356 L42.114,99.539 C42.506,99.639 42.768,99.725 42.901,99.799 C43.0985433,99.9040942 43.2191563,100.112355 43.212,100.336 C43.212,100.646 43.082,100.875 42.824,101.023 C42.5495141,101.174979 42.2396828,101.251574 41.926,101.245 C41.354,101.245 40.952,101.097 40.721,100.8 C40.595,100.637 40.518,100.402 40.491,100.096 L39.608,100.096 C39.631,100.641 39.813,101.097 40.151,101.466 C40.491,101.836 41.066,102.021 41.88,102.021 L41.88,102.021 Z M47.307,102.005 C47.587,102.005 47.837,101.978 48.057,101.924 C48.469,101.828 48.815,101.644 49.094,101.372 C49.261,101.216 49.411,101.014 49.546,100.767 C49.68,100.521 49.759,100.297 49.783,100.096 L48.88,100.096 C48.8144727,100.332544 48.6954016,100.550842 48.532,100.734 C48.246,101.051 47.864,101.209 47.384,101.209 C46.87,101.209 46.49,101.041 46.245,100.706 C46,100.371 45.869,99.926 45.852,99.371 L49.86,99.371 C49.86,98.819 49.833,98.418 49.778,98.166 C49.7258991,97.821838 49.600765,97.4928068 49.411,97.201 C49.22,96.911 48.943,96.676 48.578,96.494 C48.2286991,96.3155644 47.8422363,96.2220322 47.45,96.221 C46.68,96.221 46.058,96.495 45.581,97.043 C45.105,97.591 44.867,98.303 44.867,99.182 C44.867,100.074 45.103,100.767 45.577,101.262 C46.049,101.758 46.627,102.005 47.307,102.005 L47.307,102.005 Z M48.915,98.641 L45.877,98.641 C45.894,98.171 46.046,97.784 46.332,97.479 C46.6036313,97.1807835 46.9906935,97.0142228 47.394,97.022 C47.983,97.022 48.404,97.244 48.654,97.686 C48.791,97.924 48.878,98.243 48.915,98.641 L48.915,98.641 Z M58.565,101.811 L58.565,100.943 L54.572,100.943 C54.661,100.583 54.875,100.254 55.216,99.958 C55.4589293,99.7557221 55.7223646,99.5794282 56.002,99.432 L56.702,99.044 C57.318,98.7 57.745,98.408 57.983,98.166 C58.395,97.751 58.601,97.25 58.601,96.665 C58.601,96.11 58.408,95.606 58.021,95.154 C57.635,94.701 57.023,94.474 56.186,94.474 C55.178,94.474 54.476,94.829 54.077,95.537 C53.853,95.938 53.735,96.457 53.725,97.094 L54.659,97.094 C54.673,96.641 54.744,96.287 54.874,96.032 C55.115,95.555 55.551,95.317 56.181,95.317 C56.606,95.317 56.947,95.442 57.201,95.692 C57.457,95.942 57.585,96.28 57.585,96.706 C57.585,97.07 57.445,97.393 57.166,97.676 C56.989,97.856 56.681,98.074 56.242,98.329 L55.262,98.896 C54.605,99.277 54.163,99.701 53.937,100.167 C53.71,100.634 53.58,101.182 53.547,101.811 L58.565,101.811 L58.565,101.811 Z M61.858,102.011 C62.832,102.011 63.533,101.544 63.962,100.611 C64.258,99.961 64.406,99.139 64.406,98.146 C64.406,97.097 64.243,96.272 63.916,95.669 C63.494,94.889 62.81,94.5 61.863,94.5 C60.812,94.5 60.085,95.055 59.683,96.165 C59.469,96.76 59.362,97.473 59.362,98.304 C59.362,99.376 59.54,100.23 59.898,100.867 C60.327,101.629 60.98,102.011 61.858,102.011 L61.858,102.011 Z M61.853,101.173 C61.261,101.173 60.843,100.828 60.597,100.137 C60.437,99.684 60.357,99.085 60.357,98.34 C60.357,97.35 60.482,96.6 60.732,96.09 C60.982,95.582 61.378,95.327 61.919,95.327 C62.509,95.327 62.905,95.595 63.109,96.131 C63.313,96.667 63.415,97.351 63.415,98.181 C63.415,99.331 63.275,100.118 62.992,100.541 C62.709,100.962 62.33,101.173 61.853,101.173 L61.853,101.173 Z M68.552,101.811 L68.552,94.531 L67.827,94.531 C67.697,95.096 67.502,95.454 67.24,95.605 C66.978,95.757 66.515,95.865 65.85,95.93 L65.85,96.634 L67.571,96.634 L67.571,101.811 L68.551,101.811 L68.552,101.811 Z M73.352,101.995 C74.287,101.995 74.969,101.731 75.396,101.204 C75.823,100.676 76.036,100.067 76.036,99.376 C76.036,98.712 75.804,98.164 75.337,97.732 C74.871,97.3 74.302,97.084 73.632,97.084 C73.275,97.084 72.96,97.14 72.687,97.252 C72.5138962,97.3285215 72.3509796,97.4262715 72.202,97.543 L72.514,95.511 L75.624,95.511 L75.624,94.623 L71.824,94.623 L71.268,98.559 L72.064,98.605 C72.2166868,98.3936973 72.4149025,98.2194042 72.644,98.095 C72.87,97.972 73.142,97.911 73.458,97.911 C73.894,97.911 74.268,98.051 74.579,98.329 C74.89,98.609 75.046,99.003 75.046,99.514 C75.046,99.936 74.916,100.321 74.653,100.668 C74.391,101.015 73.988,101.188 73.443,101.188 C73.1827571,101.193861 72.9244844,101.141592 72.687,101.035 C72.262,100.835 72.019,100.472 71.957,99.948 L71.002,99.948 C71.057,100.642 71.313,101.157 71.771,101.492 C72.229,101.828 72.755,101.995 73.351,101.995 L73.352,101.995 Z M79.478,99.371 L79.478,98.426 L76.915,98.426 L76.915,99.371 L79.478,99.371 Z M82.786,102.011 C83.76,102.011 84.461,101.544 84.89,100.611 C85.186,99.961 85.334,99.139 85.334,98.146 C85.334,97.097 85.171,96.272 84.844,95.669 C84.422,94.889 83.738,94.5 82.792,94.5 C81.74,94.5 81.013,95.055 80.612,96.165 C80.397,96.76 80.29,97.473 80.29,98.304 C80.29,99.376 80.468,100.23 80.826,100.867 C81.255,101.629 81.908,102.011 82.786,102.011 L82.786,102.011 Z M82.781,101.173 C82.189,101.173 81.771,100.828 81.525,100.137 C81.365,99.684 81.285,99.085 81.285,98.34 C81.285,97.35 81.41,96.6 81.661,96.09 C81.911,95.582 82.306,95.327 82.848,95.327 C83.437,95.327 83.833,95.595 84.038,96.131 C84.242,96.667 84.344,97.351 84.344,98.181 C84.344,99.331 84.202,100.118 83.92,100.541 C83.637,100.962 83.258,101.173 82.781,101.173 Z M88.423,102.016 C89.488,102.016 90.244,101.44 90.69,100.29 C90.959,99.599 91.093,98.806 91.093,97.91 C91.093,97.118 90.981,96.457 90.756,95.93 C90.351,94.97 89.616,94.49 88.551,94.49 C87.761,94.49 87.164,94.742 86.759,95.246 C86.3573486,95.7399648 86.1421355,96.3594103 86.151,96.996 C86.151,97.688 86.356,98.253 86.766,98.692 C87.176,99.131 87.734,99.35 88.438,99.35 C88.786,99.35 89.11,99.285 89.411,99.154 C89.712,99.023 89.965,98.796 90.169,98.472 C90.039,99.592 89.82,100.335 89.511,100.701 C89.201,101.067 88.826,101.25 88.387,101.25 C88.1664364,101.253532 87.9486016,101.20088 87.754,101.097 C87.39,100.903 87.194,100.552 87.167,100.045 L86.237,100.045 C86.237,100.61 86.423,101.08 86.794,101.454 C87.165,101.828 87.708,102.016 88.424,102.016 L88.423,102.016 Z M88.561,98.544 C88.054,98.544 87.684,98.404 87.453,98.123 C87.222,97.842 87.106,97.463 87.106,96.987 C87.106,96.483 87.238,96.08 87.501,95.779 C87.765,95.478 88.121,95.327 88.571,95.327 C88.99,95.327 89.334,95.459 89.605,95.723 C89.875,95.987 90.011,96.387 90.011,96.925 C90.011,97.525 89.861,97.944 89.559,98.184 C89.258,98.424 88.925,98.544 88.561,98.544 Z M94.591,99.371 L94.591,98.426 L92.028,98.426 L92.028,99.371 L94.591,99.371 Z M98.777,101.811 L98.777,94.531 L98.052,94.531 C97.923,95.096 97.727,95.454 97.465,95.605 C97.203,95.757 96.74,95.865 96.076,95.93 L96.076,96.634 L97.797,96.634 L97.797,101.811 L98.777,101.811 L98.777,101.811 Z M103.715,102.011 C104.688,102.011 105.389,101.544 105.818,100.611 C106.114,99.961 106.262,99.139 106.262,98.146 C106.262,97.097 106.099,96.272 105.772,95.669 C105.35,94.889 104.666,94.5 103.72,94.5 C102.668,94.5 101.941,95.055 101.54,96.165 C101.325,96.76 101.218,97.473 101.218,98.304 C101.218,99.376 101.397,100.23 101.754,100.867 C102.183,101.629 102.836,102.011 103.714,102.011 L103.715,102.011 Z M103.709,101.173 C103.117,101.173 102.699,100.828 102.453,100.137 C102.293,99.684 102.213,99.085 102.213,98.34 C102.213,97.35 102.339,96.6 102.589,96.09 C102.839,95.582 103.235,95.327 103.776,95.327 C104.365,95.327 104.761,95.595 104.966,96.131 C105.17,96.667 105.272,97.351 105.272,98.181 C105.272,99.331 105.131,100.118 104.848,100.541 C104.566,100.962 104.186,101.173 103.709,101.173 Z" id="形状" fill-opacity="0.65" fill="#000000"></path>
                <circle id="椭圆形" stroke="#1677FF" stroke-width="2" fill="#FFFFFF" cx="2.988" cy="98.596" r="2.988"></circle>
                <path d="M15.677,70.442 L15.677,63.835 L18.205,63.835 L18.205,62.942 L12.119,62.942 L12.119,63.835 L14.646,63.835 L14.646,70.442 L15.677,70.442 L15.677,70.442 Z M19.987,70.636 C20.266,70.636 20.516,70.609 20.737,70.554 C21.1271724,70.4703197 21.4862851,70.2795086 21.774,70.003 C21.94,69.846 22.091,69.645 22.225,69.398 C22.36,69.151 22.439,68.928 22.463,68.727 L21.559,68.727 C21.4937665,68.9634535 21.3750416,69.1817431 21.212,69.365 C20.926,69.681 20.543,69.84 20.063,69.84 C19.549,69.84 19.17,69.672 18.925,69.337 C18.679,69.001 18.548,68.557 18.531,68.002 L22.539,68.002 C22.539,67.45 22.512,67.049 22.458,66.797 C22.4055949,66.45276 22.2801178,66.1237236 22.09,65.832 C21.9,65.542 21.622,65.307 21.258,65.125 C20.9087844,64.9462177 20.5223173,64.8523418 20.13,64.851 C19.36,64.851 18.737,65.125 18.26,65.673 C17.784,66.221 17.546,66.935 17.546,67.813 C17.546,68.704 17.783,69.398 18.256,69.893 C18.7002361,70.3761664 19.3297343,70.6465231 19.986,70.636 L19.987,70.636 Z M21.595,67.272 L18.557,67.272 C18.574,66.802 18.725,66.416 19.011,66.111 C19.297,65.806 19.651,65.654 20.073,65.654 C20.663,65.654 21.083,65.875 21.334,66.318 C21.471,66.556 21.557,66.874 21.594,67.272 L21.595,67.272 Z M25.644,70.602 C26.28,70.602 26.803,70.434 27.211,70.098 C27.62,69.763 27.875,69.233 27.977,68.508 L27.083,68.508 C26.998,68.913 26.844,69.232 26.621,69.465 C26.398,69.699 26.096,69.815 25.715,69.815 C25.218,69.815 24.854,69.628 24.623,69.254 C24.391,68.879 24.275,68.418 24.275,67.87 C24.275,67.325 24.357,66.867 24.52,66.496 C24.772,65.925 25.19,65.639 25.776,65.639 C26.206,65.639 26.516,65.75 26.711,65.973 C26.905,66.196 27.029,66.476 27.083,66.813 L27.977,66.813 C27.899,66.081 27.667,65.565 27.28,65.266 C26.894,64.966 26.392,64.816 25.776,64.816 C25.055,64.816 24.461,65.084 23.995,65.618 C23.528,66.153 23.295,66.9 23.295,67.86 C23.295,68.643 23.508,69.295 23.933,69.818 C24.359,70.34 24.929,70.601 25.643,70.601 L25.644,70.602 Z M29.815,70.443 L29.815,67.543 C29.815,66.815 29.97,66.319 30.28,66.057 C30.59,65.795 30.935,65.664 31.316,65.664 C31.776,65.664 32.089,65.814 32.256,66.114 C32.358,66.301 32.409,66.595 32.409,66.997 L32.409,70.443 L33.353,70.443 L33.353,66.936 C33.353,66.398 33.277,65.977 33.123,65.674 C32.841,65.12 32.303,64.842 31.51,64.842 C31.068,64.842 30.698,64.939 30.402,65.133 C30.229,65.246 30.032,65.44 29.815,65.715 L29.815,62.917 L28.896,62.917 L28.896,70.443 L29.815,70.443 L29.815,70.443 Z M35.63,70.443 L35.63,67.579 C35.63,67.221 35.653,66.947 35.7,66.754 C35.745,66.562 35.845,66.376 35.998,66.195 C36.1698963,65.9825652 36.4009937,65.825948 36.662,65.745 C36.802,65.702 36.98,65.68 37.198,65.68 C37.627,65.68 37.923,65.85 38.086,66.19 C38.185,66.394 38.234,66.663 38.234,66.997 L38.234,70.443 L39.169,70.443 L39.169,66.936 C39.169,66.384 39.094,65.96 38.944,65.664 C38.672,65.123 38.147,64.852 37.371,64.852 C37.017,64.852 36.696,64.922 36.406,65.062 C36.117,65.202 35.843,65.431 35.584,65.751 L35.584,64.975 L34.711,64.975 L34.711,70.443 L35.631,70.443 L35.63,70.443 Z M41.461,63.984 L41.461,62.942 L40.527,62.942 L40.527,63.983 L41.461,63.983 L41.461,63.984 Z M41.461,70.444 L41.461,65 L40.527,65 L40.527,70.443 L41.461,70.443 L41.461,70.444 Z M44.826,70.601 C45.462,70.601 45.985,70.434 46.393,70.098 C46.802,69.763 47.057,69.233 47.159,68.508 L46.265,68.508 C46.18,68.913 46.026,69.232 45.803,69.465 C45.58,69.699 45.278,69.815 44.897,69.815 C44.4,69.815 44.036,69.628 43.805,69.254 C43.573,68.879 43.457,68.418 43.457,67.87 C43.457,67.325 43.539,66.867 43.702,66.496 C43.954,65.925 44.373,65.639 44.958,65.639 C45.388,65.639 45.698,65.75 45.893,65.973 C46.087,66.196 46.211,66.476 46.265,66.813 L47.159,66.813 C47.081,66.081 46.849,65.565 46.462,65.266 C46.076,64.966 45.575,64.816 44.958,64.816 C44.237,64.816 43.643,65.084 43.177,65.618 C42.71,66.153 42.477,66.9 42.477,67.86 C42.477,68.643 42.69,69.295 43.115,69.818 C43.541,70.34 44.111,70.601 44.825,70.601 L44.826,70.601 Z M49.548,70.627 C49.971,70.627 50.357,70.537 50.708,70.357 C51.058,70.176 51.327,69.963 51.514,69.718 C51.5313545,69.8957283 51.5851392,70.0679753 51.672,70.224 C51.815,70.448 52.045,70.561 52.362,70.561 C52.491,70.561 52.593,70.555 52.668,70.545 C52.7785455,70.5268487 52.8877803,70.5014608 52.995,70.469 L52.995,69.789 C52.895494,69.8062074 52.7949244,69.8165651 52.694,69.82 C52.568,69.82 52.485,69.791 52.446,69.733 C52.4036812,69.6639984 52.3831219,69.5838521 52.387,69.503 L52.387,66.353 C52.387,65.836 52.188,65.455 51.79,65.21 C51.388,64.965 50.866,64.842 50.222,64.842 C49.668,64.842 49.18,64.974 48.76,65.238 C48.34,65.502 48.12,65.971 48.104,66.644 L48.961,66.644 C48.995,66.362 49.068,66.149 49.181,66.006 C49.381,65.748 49.722,65.618 50.202,65.618 C50.617,65.618 50.936,65.688 51.159,65.83 C51.382,65.971 51.494,66.199 51.494,66.512 C51.5004957,66.6325291 51.4792863,66.7529439 51.432,66.864 C51.361,67.014 51.22,67.102 51.009,67.13 L49.543,67.313 C49.029,67.378 48.614,67.55 48.298,67.829 C47.981,68.109 47.823,68.501 47.823,69.009 C47.823,69.471 47.983,69.857 48.305,70.165 C48.627,70.473 49.041,70.627 49.548,70.627 L49.548,70.627 Z M49.763,69.846 C49.497,69.846 49.268,69.769 49.073,69.616 C48.8807518,69.4656536 48.7727815,69.2318421 48.783,68.988 C48.783,68.638 48.923,68.382 49.206,68.222 C49.373,68.127 49.623,68.057 49.956,68.012 L50.513,67.942 C50.683,67.921 50.857,67.887 51.034,67.839 C51.211,67.792 51.356,67.732 51.468,67.661 L51.468,68.401 C51.468,68.966 51.213,69.373 50.702,69.621 C50.399,69.771 50.086,69.846 49.762,69.846 L49.763,69.846 Z M54.838,70.443 L54.838,62.943 L53.918,62.943 L53.918,70.443 L54.838,70.443 Z M60.408,70.53 C60.541,70.53 60.664,70.523 60.778,70.51 C60.892,70.496 61.002,70.474 61.108,70.443 L61.108,69.718 C61.0010535,69.7293079 60.8935346,69.7343165 60.786,69.733 C60.619,69.733 60.5,69.715 60.429,69.677 C60.299,69.613 60.235,69.485 60.235,69.294 L60.235,65.725 L61.108,65.725 L61.108,64.975 L60.235,64.975 L60.235,63.448 L59.305,63.448 L59.305,64.975 L58.565,64.975 L58.565,65.725 L59.305,65.725 L59.305,69.345 C59.305,69.696 59.382,69.981 59.535,70.201 C59.688,70.421 59.979,70.53 60.408,70.53 L60.408,70.53 Z M64.161,70.637 C64.44,70.637 64.691,70.61 64.911,70.555 C65.3012457,70.4715208 65.6604107,70.280682 65.948,70.004 C66.1296503,69.8274505 66.2822052,69.6232564 66.4,69.399 C66.534,69.152 66.613,68.929 66.637,68.728 L65.733,68.728 C65.6677665,68.9644535 65.5490416,69.1827431 65.386,69.366 C65.1,69.682 64.717,69.841 64.237,69.841 C63.723,69.841 63.344,69.673 63.099,69.338 C62.854,69.002 62.723,68.558 62.706,68.003 L66.714,68.003 C66.714,67.451 66.686,67.05 66.632,66.798 C66.5795949,66.45376 66.4541178,66.1247236 66.264,65.833 C66.074,65.543 65.796,65.308 65.432,65.126 C65.0827844,64.9472177 64.6963173,64.8533418 64.304,64.852 C63.534,64.852 62.912,65.126 62.435,65.674 C61.959,66.222 61.72,66.936 61.72,67.814 C61.72,68.705 61.957,69.399 62.43,69.894 C62.8742361,70.3771664 63.5037343,70.6475231 64.16,70.637 L64.161,70.637 Z M65.769,67.272 L62.731,67.272 C62.748,66.802 62.9,66.416 63.186,66.111 C63.472,65.806 63.826,65.654 64.248,65.654 C64.837,65.654 65.257,65.875 65.508,66.318 C65.645,66.556 65.732,66.874 65.769,67.272 Z M69.777,70.652 C70.533,70.652 71.095,70.475 71.465,70.122 C71.834,69.767 72.019,69.347 72.019,68.86 C72.019,68.357 71.839,67.987 71.482,67.752 C71.258,67.602 70.815,67.448 70.155,67.288 L69.547,67.14 C69.282,67.075 69.081,67 68.945,66.915 C68.71,66.772 68.593,66.582 68.593,66.343 C68.593,66.125 68.682,65.95 68.861,65.817 C69.039,65.685 69.302,65.618 69.649,65.618 C70.17,65.618 70.536,65.739 70.747,65.981 C70.877,66.151 70.95,66.34 70.967,66.547 L71.835,66.547 C71.8402867,66.1888237 71.7231635,65.8395708 71.503,65.557 C71.139,65.074 70.545,64.832 69.721,64.832 C69.091,64.832 68.591,64.992 68.217,65.312 C67.845,65.632 67.658,66.051 67.658,66.568 C67.658,67.007 67.856,67.351 68.251,67.599 C68.471,67.742 68.816,67.872 69.281,67.987 L70.012,68.171 C70.403,68.27 70.666,68.357 70.798,68.431 C70.9959307,68.5358191 71.1169639,68.744136 71.11,68.968 C71.11,69.278 70.98,69.506 70.722,69.654 C70.4472193,69.8061507 70.1370202,69.8827516 69.823,69.876 C69.251,69.876 68.85,69.728 68.618,69.432 C68.492,69.269 68.416,69.034 68.388,68.728 L67.505,68.728 C67.529,69.272 67.71,69.729 68.049,70.098 C68.388,70.468 68.964,70.652 69.777,70.652 L69.777,70.652 Z M74.357,70.53 C74.49,70.53 74.613,70.523 74.727,70.51 C74.841,70.496 74.951,70.474 75.057,70.443 L75.057,69.718 C74.9500535,69.7293079 74.8425346,69.7343165 74.735,69.733 C74.568,69.733 74.449,69.715 74.377,69.677 C74.248,69.613 74.183,69.485 74.183,69.294 L74.183,65.725 L75.056,65.725 L75.056,64.975 L74.183,64.975 L74.183,63.448 L73.254,63.448 L73.254,64.975 L72.514,64.975 L72.514,65.725 L73.254,65.725 L73.254,69.345 C73.254,69.696 73.331,69.981 73.484,70.201 C73.637,70.421 73.928,70.53 74.357,70.53 Z M76.91,63.984 L76.91,62.942 L75.975,62.942 L75.975,63.983 L76.91,63.983 L76.91,63.984 Z M76.91,70.444 L76.91,65 L75.975,65 L75.975,70.443 L76.91,70.443 L76.91,70.444 Z M79.218,70.444 L79.218,67.579 C79.218,67.221 79.241,66.947 79.286,66.754 C79.332,66.562 79.432,66.376 79.586,66.195 C79.7576289,65.9827278 79.9883572,65.8261249 80.249,65.745 C80.389,65.702 80.567,65.68 80.785,65.68 C81.214,65.68 81.51,65.85 81.673,66.19 C81.773,66.394 81.821,66.663 81.821,66.997 L81.821,70.443 L82.756,70.443 L82.756,66.936 C82.756,66.384 82.681,65.96 82.531,65.664 C82.259,65.123 81.735,64.852 80.959,64.852 C80.605,64.852 80.283,64.922 79.994,65.062 C79.704,65.202 79.43,65.431 79.172,65.751 L79.172,64.975 L78.299,64.975 L78.299,70.443 L79.218,70.443 L79.218,70.444 Z M86.08,72.756 C87.138,72.756 87.858,72.385 88.24,71.643 C88.443,71.241 88.546,70.693 88.546,69.999 L88.546,65.026 L87.698,65.026 L87.698,65.716 C87.5480964,65.516768 87.3694888,65.3408563 87.168,65.194 C86.8332805,64.9788207 86.4418114,64.8687636 86.044,64.878 C85.411,64.878 84.87,65.135 84.423,65.648 C83.975,66.163 83.751,66.878 83.751,67.793 C83.751,68.763 83.973,69.459 84.418,69.879 C84.862,70.299 85.38,70.509 85.972,70.509 C86.398,70.509 86.74,70.441 86.999,70.305 C87.2697006,70.157531 87.4979925,69.9430124 87.662,69.682 C87.672,70.435 87.613,70.957 87.484,71.25 C87.266,71.747 86.804,71.995 86.1,71.995 C85.654,71.995 85.327,71.893 85.12,71.689 C84.987,71.556 84.898,71.367 84.854,71.122 L83.92,71.122 C83.968,71.684 84.192,72.097 84.594,72.36 C84.995,72.624 85.491,72.756 86.08,72.756 L86.08,72.756 Z M86.08,69.759 C85.657,69.759 85.321,69.599 85.071,69.276 C84.821,68.955 84.696,68.486 84.696,67.87 C84.696,67.346 84.759,66.922 84.885,66.599 C85.123,65.993 85.565,65.689 86.212,65.689 C86.645,65.689 87,65.853 87.279,66.179 C87.559,66.507 87.699,67.009 87.699,67.686 C87.699,68.136 87.623,68.528 87.473,68.866 C87.205,69.461 86.74,69.759 86.08,69.759 L86.08,69.759 Z M97.506,70.443 L97.506,69.575 L93.513,69.575 C93.602,69.215 93.816,68.885 94.157,68.59 C94.3999293,68.3877221 94.6633646,68.2114282 94.943,68.064 L95.643,67.676 C96.259,67.332 96.686,67.039 96.924,66.798 C97.336,66.382 97.542,65.882 97.542,65.297 C97.542,64.742 97.349,64.238 96.962,63.785 C96.576,63.333 95.964,63.106 95.127,63.106 C94.119,63.106 93.417,63.46 93.018,64.168 C92.794,64.57 92.676,65.089 92.666,65.725 L93.6,65.725 C93.614,65.273 93.685,64.919 93.815,64.663 C94.056,64.187 94.492,63.949 95.122,63.949 C95.547,63.949 95.888,64.074 96.142,64.324 C96.398,64.574 96.526,64.912 96.526,65.337 C96.526,65.702 96.386,66.025 96.107,66.307 C95.93,66.487 95.622,66.706 95.183,66.961 L94.203,67.528 C93.546,67.909 93.104,68.333 92.878,68.799 C92.651,69.265 92.521,69.813 92.488,70.443 L97.506,70.443 L97.506,70.443 Z M100.799,70.643 C101.773,70.643 102.474,70.176 102.903,69.243 C103.199,68.593 103.347,67.771 103.347,66.777 C103.347,65.729 103.184,64.903 102.857,64.301 C102.435,63.521 101.751,63.131 100.804,63.131 C99.753,63.131 99.026,63.687 98.624,64.796 C98.41,65.392 98.303,66.105 98.303,66.936 C98.303,68.008 98.481,68.862 98.839,69.499 C99.268,70.261 99.921,70.642 100.799,70.642 L100.799,70.643 Z M100.794,69.805 C100.202,69.805 99.784,69.459 99.538,68.768 C99.378,68.316 99.298,67.717 99.298,66.971 C99.298,65.981 99.423,65.231 99.673,64.722 C99.923,64.213 100.319,63.959 100.861,63.959 C101.449,63.959 101.846,64.227 102.051,64.763 C102.254,65.299 102.356,65.983 102.356,66.813 C102.356,67.963 102.216,68.75 101.933,69.172 C101.65,69.594 101.271,69.805 100.794,69.805 L100.794,69.805 Z M107.493,70.443 L107.493,63.163 L106.768,63.163 C106.638,63.727 106.443,64.086 106.181,64.237 C105.919,64.389 105.456,64.497 104.791,64.561 L104.791,65.266 L106.512,65.266 L106.512,70.443 L107.492,70.443 L107.493,70.443 Z M112.293,70.627 C113.228,70.627 113.91,70.363 114.337,69.836 C114.764,69.308 114.977,68.699 114.977,68.008 C114.977,67.344 114.745,66.796 114.278,66.364 C113.812,65.931 113.243,65.715 112.573,65.715 C112.216,65.715 111.901,65.771 111.628,65.884 C111.454948,65.9602086 111.292033,66.0576213 111.143,66.174 L111.455,64.143 L114.565,64.143 L114.565,63.254 L110.765,63.254 L110.209,67.191 L111.005,67.237 C111.157687,67.0256973 111.355902,66.8514042 111.585,66.727 C111.811,66.604 112.083,66.542 112.399,66.542 C112.835,66.542 113.209,66.682 113.52,66.962 C113.831,67.24 113.987,67.635 113.987,68.146 C113.987,68.568 113.857,68.952 113.594,69.299 C113.332,69.647 112.929,69.82 112.384,69.82 C112.123757,69.8258615 111.865484,69.773592 111.628,69.667 C111.203,69.467 110.96,69.104 110.898,68.58 L109.944,68.58 C109.998,69.274 110.254,69.789 110.712,70.124 C111.17,70.459 111.696,70.627 112.292,70.627 L112.293,70.627 Z M118.419,68.003 L118.419,67.058 L115.856,67.058 L115.856,68.003 L118.419,68.003 Z M121.727,70.643 C122.701,70.643 123.402,70.176 123.831,69.243 C124.127,68.593 124.275,67.771 124.275,66.777 C124.275,65.729 124.112,64.903 123.785,64.301 C123.363,63.521 122.679,63.131 121.733,63.131 C120.681,63.131 119.954,63.687 119.553,64.796 C119.338,65.392 119.231,66.105 119.231,66.936 C119.231,68.008 119.409,68.862 119.767,69.499 C120.196,70.261 120.849,70.642 121.727,70.642 L121.727,70.643 Z M121.722,69.805 C121.13,69.805 120.712,69.459 120.466,68.768 C120.306,68.316 120.226,67.717 120.226,66.971 C120.226,65.981 120.351,65.231 120.602,64.722 C120.852,64.213 121.247,63.959 121.789,63.959 C122.378,63.959 122.774,64.227 122.979,64.763 C123.183,65.299 123.285,65.983 123.285,66.813 C123.285,67.963 123.143,68.75 122.861,69.172 C122.578,69.594 122.199,69.805 121.722,69.805 L121.722,69.805 Z M127.364,70.647 C128.429,70.647 129.185,70.072 129.631,68.922 C129.9,68.231 130.034,67.438 130.034,66.542 C130.034,65.749 129.922,65.089 129.697,64.562 C129.292,63.602 128.557,63.122 127.492,63.122 C126.702,63.122 126.105,63.373 125.7,63.877 C125.298127,64.3712295 125.0829,64.9910682 125.092,65.628 C125.092,66.319 125.297,66.884 125.707,67.324 C126.117,67.763 126.675,67.982 127.379,67.982 C127.727,67.982 128.051,67.917 128.352,67.786 C128.653,67.655 128.906,67.427 129.11,67.104 C128.98,68.224 128.761,68.967 128.452,69.333 C128.142,69.699 127.767,69.881 127.328,69.881 C127.107436,69.8845316 126.889602,69.8318796 126.695,69.728 C126.331,69.534 126.135,69.184 126.108,68.677 L125.178,68.677 C125.178,69.242 125.364,69.711 125.735,70.086 C126.106,70.46 126.649,70.647 127.365,70.647 L127.364,70.647 Z M127.502,67.175 C126.995,67.175 126.625,67.035 126.394,66.755 C126.163,66.473 126.047,66.095 126.047,65.618 C126.047,65.114 126.179,64.712 126.443,64.411 C126.706,64.11 127.063,63.959 127.513,63.959 C127.931,63.959 128.275,64.091 128.546,64.355 C128.816,64.618 128.952,65.019 128.952,65.557 C128.952,66.157 128.802,66.576 128.5,66.816 C128.199,67.056 127.866,67.176 127.502,67.176 L127.502,67.175 Z M133.532,68.003 L133.532,67.058 L130.969,67.058 L130.969,68.003 L133.532,68.003 Z M136.84,70.643 C137.814,70.643 138.515,70.176 138.944,69.243 C139.24,68.593 139.388,67.771 139.388,66.777 C139.388,65.729 139.225,64.903 138.898,64.301 C138.476,63.521 137.792,63.131 136.845,63.131 C135.794,63.131 135.067,63.687 134.665,64.796 C134.451,65.392 134.344,66.105 134.344,66.936 C134.344,68.008 134.522,68.862 134.88,69.499 C135.309,70.261 135.962,70.642 136.84,70.642 L136.84,70.643 Z M136.835,69.805 C136.243,69.805 135.825,69.459 135.579,68.768 C135.419,68.316 135.339,67.717 135.339,66.971 C135.339,65.981 135.464,65.231 135.714,64.722 C135.964,64.213 136.36,63.959 136.902,63.959 C137.49,63.959 137.887,64.227 138.092,64.763 C138.295,65.299 138.397,65.983 138.397,66.813 C138.397,67.963 138.257,68.75 137.974,69.172 C137.691,69.594 137.312,69.805 136.835,69.805 L136.835,69.805 Z M142.548,70.642 C143.393,70.642 144.044,70.422 144.504,69.984 C144.964,69.544 145.194,68.976 145.194,68.278 C145.194,67.843 145.085,67.474 144.869,67.173 C144.649993,66.8697835 144.330868,66.6537272 143.968,66.563 C144.206,66.464 144.4,66.328 144.55,66.154 C144.791,65.875 144.912,65.511 144.912,65.062 C144.912,64.432 144.708,63.952 144.3,63.619 C143.891,63.288 143.314,63.122 142.569,63.122 C141.626,63.122 140.967,63.462 140.593,64.142 C140.375,64.524 140.266,64.987 140.266,65.532 L141.175,65.532 C141.192,65.116 141.265,64.796 141.395,64.572 C141.629,64.163 142.053,63.959 142.665,63.959 C143.01,63.959 143.311,64.058 143.57,64.255 C143.828,64.452 143.958,64.733 143.958,65.097 C143.958,65.587 143.764,65.928 143.376,66.119 C143.154,66.228 142.872,66.282 142.528,66.282 C142.37763,66.2818028 142.227392,66.2731223 142.078,66.256 L142.078,67.068 C142.203896,67.0614891 142.329936,67.0581547 142.456,67.058 C143.004,67.058 143.433,67.158 143.741,67.359 C144.049,67.56 144.203,67.912 144.203,68.416 C144.203,68.825 144.056,69.158 143.763,69.416 C143.471,69.676 143.083,69.805 142.599,69.805 C141.977,69.805 141.546,69.613 141.308,69.228 C141.172,69.014 141.083,68.67 141.042,68.197 L140.082,68.197 C140.082,68.877 140.277,69.455 140.667,69.93 C141.057,70.405 141.684,70.642 142.548,70.642 Z" id="形状" fill-opacity="0.65" fill="#000000"></path>
                <circle id="椭圆形" stroke="#1677FF" stroke-width="2" fill="#FFFFFF" cx="2.988" cy="67.227" r="2.988"></circle>
                <path d="M15.422,39.292 C16.222,39.292 16.924,39.114 17.528,38.756 C18.132,38.399 18.434,37.805 18.434,36.974 C18.434,36.307 18.196,35.798 17.72,35.448 C17.444,35.247 17.052,35.088 16.545,34.973 L15.494,34.733 C14.786,34.57 14.331,34.433 14.13,34.325 C13.824,34.155 13.67,33.885 13.67,33.518 C13.67,33.184 13.802,32.892 14.064,32.64 C14.326,32.388 14.757,32.262 15.356,32.262 C16.098,32.262 16.624,32.458 16.933,32.849 C17.1,33.063 17.209,33.371 17.26,33.773 L18.215,33.773 C18.215,32.939 17.94,32.333 17.39,31.953 C16.84,31.573 16.173,31.383 15.386,31.383 C14.532,31.383 13.872,31.6 13.406,32.033 C12.939,32.464 12.706,33.017 12.706,33.691 C12.706,34.314 12.944,34.782 13.421,35.096 C13.696,35.276 14.166,35.441 14.83,35.591 L15.846,35.821 C16.397,35.946 16.802,36.095 17.061,36.265 C17.316,36.438 17.444,36.729 17.444,37.138 C17.444,37.682 17.141,38.06 16.535,38.271 C16.222,38.381 15.875,38.435 15.494,38.435 C14.643,38.435 14.049,38.186 13.712,37.689 C13.535,37.424 13.434,37.079 13.41,36.653 L12.456,36.653 C12.446,37.463 12.704,38.104 13.232,38.578 C13.759,39.054 14.489,39.292 15.422,39.292 L15.422,39.292 Z M21.682,39.272 C22.584,39.272 23.249,38.984 23.678,38.409 C24.107,37.834 24.321,37.105 24.321,36.224 C24.321,35.312 24.078,34.621 23.591,34.151 C23.104,33.681 22.509,33.446 21.804,33.446 C21.018,33.446 20.392,33.719 19.925,34.263 C19.459,34.808 19.225,35.54 19.225,36.459 C19.225,37.316 19.447,37.999 19.89,38.509 C20.332,39.018 20.93,39.272 21.682,39.272 L21.682,39.272 Z M21.768,38.481 C21.214,38.481 20.808,38.287 20.553,37.899 C20.298,37.51 20.17,37.025 20.17,36.443 C20.17,35.838 20.298,35.32 20.553,34.891 C20.809,34.462 21.217,34.248 21.779,34.248 C22.412,34.248 22.858,34.5 23.116,35.004 C23.28,35.324 23.361,35.739 23.361,36.249 C23.3684538,36.7817365 23.252062,37.3089229 23.021,37.789 C22.796,38.25 22.378,38.481 21.768,38.481 L21.768,38.481 Z M26.358,39.073 L26.358,31.573 L25.439,31.573 L25.439,39.073 L26.359,39.073 L26.358,39.073 Z M30.116,39.073 L32.179,33.605 L31.173,33.605 L29.646,38.057 L28.186,33.605 L27.12,33.605 L29.137,39.073 L30.117,39.073 L30.116,39.073 Z M35.099,39.267 C35.379,39.267 35.629,39.24 35.849,39.185 C36.2393377,39.1017733 36.5985685,38.9108995 36.886,38.634 C37.053,38.477 37.204,38.275 37.338,38.029 C37.473,37.782 37.552,37.559 37.576,37.357 L36.672,37.357 C36.6069078,37.5938085 36.4881753,37.8124542 36.325,37.996 C36.039,38.312 35.655,38.47 35.175,38.47 C34.662,38.47 34.282,38.303 34.037,37.967 C33.792,37.632 33.661,37.187 33.644,36.632 L37.652,36.632 C37.652,36.081 37.625,35.679 37.571,35.427 C37.5185949,35.08276 37.3931178,34.7537236 37.203,34.462 C37.013,34.173 36.735,33.937 36.371,33.755 C36.0213979,33.5764115 35.6345745,33.4828749 35.242,33.482 C34.473,33.482 33.85,33.756 33.374,34.304 C32.897,34.852 32.659,35.565 32.659,36.444 C32.659,37.335 32.895,38.029 33.369,38.524 C33.842,39.019 34.419,39.267 35.099,39.267 L35.099,39.267 Z M36.708,35.902 L33.67,35.902 C33.687,35.432 33.838,35.045 34.124,34.741 C34.41,34.436 34.764,34.284 35.186,34.284 C35.775,34.284 36.196,34.504 36.447,34.947 C36.583,35.186 36.67,35.504 36.707,35.902 L36.708,35.902 Z M42.62,32.614 L42.62,31.573 L41.686,31.573 L41.686,32.614 L42.62,32.614 Z M42.62,39.073 L42.62,33.63 L41.686,33.63 L41.686,39.073 L42.62,39.073 Z M44.928,39.073 L44.928,36.209 C44.928,35.851 44.951,35.576 44.997,35.384 C45.043,35.192 45.142,35.005 45.295,34.824 C45.4671733,34.6123035 45.6982422,34.4564016 45.959,34.376 C46.099,34.331 46.277,34.309 46.495,34.309 C46.925,34.309 47.22,34.479 47.384,34.819 C47.482,35.024 47.532,35.293 47.532,35.626 L47.532,39.073 L48.466,39.073 L48.466,35.565 C48.466,35.014 48.391,34.59 48.241,34.294 C47.969,33.753 47.445,33.482 46.669,33.482 C46.315,33.482 45.993,33.552 45.704,33.692 C45.414,33.831 45.141,34.061 44.882,34.381 L44.882,33.605 L44.009,33.605 L44.009,39.072 L44.928,39.072 L44.928,39.073 Z M50.758,32.614 L50.758,31.573 L49.824,31.573 L49.824,32.614 L50.758,32.614 Z M50.758,39.073 L50.758,33.63 L49.824,33.63 L49.824,39.073 L50.758,39.073 Z M53.434,39.16 C53.567,39.16 53.69,39.153 53.804,39.14 C53.918,39.126 54.028,39.103 54.134,39.073 L54.134,38.348 C54.0270535,38.3593079 53.9195346,38.3643165 53.812,38.363 C53.645,38.363 53.526,38.344 53.454,38.307 C53.324,38.242 53.26,38.115 53.26,37.924 L53.26,34.355 L54.133,34.355 L54.133,33.605 L53.26,33.605 L53.26,32.078 L52.331,32.078 L52.331,33.605 L51.591,33.605 L51.591,34.355 L52.331,34.355 L52.331,37.975 C52.331,38.325 52.408,38.611 52.561,38.83 C52.714,39.05 53.005,39.16 53.434,39.16 L53.434,39.16 Z M55.987,32.614 L55.987,31.573 L55.052,31.573 L55.052,32.614 L55.987,32.614 Z M55.987,39.073 L55.987,33.63 L55.052,33.63 L55.052,39.073 L55.987,39.073 Z M58.846,39.257 C59.268,39.257 59.654,39.167 60.005,38.986 C60.355,38.806 60.625,38.593 60.812,38.348 C60.829489,38.5253851 60.8832696,38.6972786 60.97,38.853 C61.113,39.078 61.343,39.19 61.66,39.19 C61.788,39.19 61.89,39.185 61.965,39.175 C62.0755683,39.1565207 62.1848035,39.1307986 62.292,39.098 L62.292,38.419 C62.1924709,38.4358722 62.0919014,38.4458957 61.991,38.449 C61.865,38.449 61.782,38.421 61.743,38.363 C61.7010311,38.2938879 61.6808222,38.2137491 61.685,38.133 L61.685,34.983 C61.685,34.466 61.485,34.085 61.087,33.84 C60.686,33.594 60.163,33.472 59.52,33.472 C58.965,33.472 58.477,33.604 58.057,33.868 C57.637,34.131 57.418,34.6 57.401,35.274 L58.259,35.274 C58.293,34.992 58.366,34.779 58.479,34.636 C58.679,34.377 59.019,34.248 59.499,34.248 C59.915,34.248 60.234,34.318 60.457,34.46 C60.68,34.601 60.791,34.828 60.791,35.141 C60.791,35.295 60.771,35.412 60.73,35.494 C60.658,35.644 60.517,35.732 60.306,35.759 L58.841,35.943 C58.327,36.008 57.911,36.18 57.595,36.459 C57.278,36.738 57.12,37.131 57.12,37.639 C57.12,38.101 57.281,38.487 57.603,38.795 C57.924,39.103 58.339,39.257 58.846,39.257 L58.846,39.257 Z M59.06,38.475 C58.795,38.475 58.565,38.399 58.371,38.245 C58.1786702,38.0950722 58.0703456,37.8616717 58.08,37.618 C58.08,37.268 58.221,37.012 58.504,36.852 C58.671,36.757 58.921,36.687 59.254,36.642 L59.811,36.571 C59.981,36.551 60.155,36.517 60.331,36.469 C60.4841663,36.4315169 60.6308119,36.3711732 60.766,36.29 L60.766,37.03 C60.766,37.596 60.51,38.002 60,38.25 C59.697,38.4 59.384,38.475 59.06,38.475 L59.06,38.475 Z M64.135,39.073 L64.135,31.573 L63.216,31.573 L63.216,39.073 L64.136,39.073 L64.135,39.073 Z M69.267,41.253 L69.267,38.46 C69.467,38.709 69.649,38.884 69.813,38.986 C70.092,39.166 70.437,39.256 70.849,39.256 C71.374,39.256 71.833,39.095 72.228,38.772 C72.851,38.261 73.162,37.41 73.162,36.219 C73.162,35.337 72.946,34.659 72.514,34.184 C72.081,33.709 71.556,33.472 70.936,33.472 C70.5496466,33.4629568 70.1693964,33.5695105 69.844,33.778 C69.6084795,33.9306717 69.4038974,34.1264327 69.241,34.355 L69.241,33.63 L68.348,33.63 L68.348,41.253 L69.267,41.253 L69.267,41.253 Z M70.727,38.455 C70.094,38.455 69.658,38.173 69.42,37.608 C69.294,37.311 69.23,36.952 69.23,36.53 C69.23,36.006 69.294,35.574 69.42,35.233 C69.655,34.597 70.09,34.279 70.727,34.279 C71.36,34.279 71.796,34.579 72.034,35.182 C72.16,35.495 72.223,35.87 72.223,36.306 C72.223,37.02 72.081,37.557 71.796,37.916 C71.512,38.276 71.156,38.455 70.726,38.455 L70.727,38.455 Z M75.179,39.073 L75.179,35.928 C75.179,35.54 75.303,35.197 75.552,34.898 C75.8,34.601 76.156,34.452 76.619,34.452 C76.7199843,34.4495678 76.8209286,34.4582872 76.92,34.478 L76.92,33.508 C76.8214426,33.4981318 76.7227686,33.4894645 76.624,33.482 C76.26,33.482 75.938,33.614 75.659,33.878 C75.379,34.142 75.204,34.365 75.133,34.549 L75.133,33.605 L74.26,33.605 L74.26,39.072 L75.179,39.072 L75.179,39.073 Z M79.799,39.272 C80.702,39.272 81.367,38.984 81.796,38.409 C82.225,37.834 82.439,37.105 82.439,36.224 C82.439,35.312 82.196,34.621 81.709,34.151 C81.222,33.681 80.627,33.446 79.922,33.446 C79.136,33.446 78.51,33.719 78.043,34.263 C77.577,34.808 77.343,35.54 77.343,36.459 C77.343,37.316 77.565,37.999 78.007,38.509 C78.45,39.018 79.047,39.272 79.8,39.272 L79.799,39.272 Z M79.886,38.481 C79.332,38.481 78.926,38.287 78.671,37.899 C78.416,37.51 78.288,37.025 78.288,36.443 C78.288,35.838 78.416,35.32 78.671,34.891 C78.927,34.462 79.335,34.248 79.897,34.248 C80.53,34.248 80.976,34.5 81.234,35.004 C81.398,35.324 81.479,35.739 81.479,36.249 C81.4864538,36.7817365 81.370062,37.3089229 81.139,37.789 C80.913,38.25 80.496,38.481 79.886,38.481 L79.886,38.481 Z M85.906,39.246 C86.648,39.246 87.228,38.961 87.647,38.389 C88.066,37.817 88.275,37.099 88.275,36.234 C88.275,35.322 88.063,34.632 87.639,34.164 C87.216,33.696 86.663,33.462 85.983,33.462 C85.656,33.462 85.353,33.531 85.073,33.668 C84.7901068,33.8100525 84.5437373,34.0153604 84.353,34.268 L84.353,31.548 L83.46,31.548 L83.46,39.072 L84.308,39.072 L84.308,38.372 C84.502,38.634 84.684,38.825 84.854,38.944 C85.14,39.145 85.491,39.245 85.906,39.245 L85.906,39.246 Z M85.85,38.435 C85.19,38.435 84.738,38.133 84.497,37.531 C84.367,37.211 84.303,36.794 84.303,36.28 C84.303,35.569 84.46,35.058 84.775,34.748 C85.063039,34.4497839 85.4603966,34.2821712 85.875,34.2839852 C86.355,34.2839852 86.719,34.473 86.965,34.85 C87.212,35.228 87.335,35.705 87.335,36.28 C87.335,36.927 87.212,37.448 86.965,37.842 C86.719,38.237 86.347,38.435 85.85,38.435 L85.85,38.435 Z M90.292,39.073 L90.292,31.573 L89.372,31.573 L89.372,39.073 L90.292,39.073 Z M93.804,39.267 C94.084,39.267 94.334,39.24 94.555,39.185 C94.9449629,39.1015482 95.3038129,38.9106926 95.591,38.634 C95.758,38.477 95.909,38.275 96.043,38.029 C96.178,37.782 96.257,37.559 96.281,37.357 L95.377,37.357 C95.3119078,37.5938085 95.1931753,37.8124542 95.03,37.996 C94.744,38.312 94.361,38.47 93.881,38.47 C93.367,38.47 92.988,38.303 92.742,37.967 C92.497,37.632 92.366,37.187 92.349,36.632 L96.357,36.632 C96.357,36.081 96.33,35.679 96.276,35.427 C96.2235949,35.08276 96.0981178,34.7537236 95.908,34.462 C95.718,34.173 95.44,33.937 95.076,33.755 C94.7263979,33.5764115 94.3395745,33.4828749 93.947,33.482 C93.178,33.482 92.555,33.756 92.079,34.304 C91.602,34.852 91.364,35.565 91.364,36.444 C91.364,37.335 91.601,38.029 92.074,38.524 C92.547,39.019 93.124,39.267 93.804,39.267 L93.804,39.267 Z M95.413,35.902 L92.375,35.902 C92.392,35.432 92.543,35.045 92.829,34.741 C93.115,34.436 93.469,34.284 93.891,34.284 C94.481,34.284 94.901,34.504 95.152,34.947 C95.289,35.186 95.375,35.504 95.412,35.902 L95.413,35.902 Z M98.405,39.072 L98.405,36.172 C98.405,35.468 98.547,34.982 98.831,34.712 C99.115,34.444 99.431,34.309 99.778,34.309 C100.159,34.309 100.42,34.437 100.559,34.692 C100.648,34.862 100.692,35.132 100.692,35.504 L100.692,39.073 L101.626,39.073 L101.626,35.892 C101.626,35.327 101.756,34.924 102.016,34.682 C102.277,34.44 102.588,34.319 102.949,34.319 C103.211,34.319 103.433,34.388 103.615,34.524 C103.797,34.66 103.888,34.91 103.888,35.274 L103.888,39.073 L104.843,39.073 L104.843,35.433 C104.843,34.949 104.771,34.565 104.629,34.279 C104.363,33.748 103.863,33.482 103.127,33.482 C102.784,33.482 102.474,33.552 102.198,33.694 C101.907848,33.848106 101.660459,34.0717867 101.478,34.345 C101.380132,34.1388416 101.241313,33.9547692 101.07,33.804 C100.804,33.589 100.454,33.482 100.018,33.482 C99.633,33.482 99.29,33.586 98.987,33.794 C98.81,33.916 98.612,34.112 98.394,34.381 L98.394,33.605 L97.486,33.605 L97.486,39.072 L98.405,39.072 L98.405,39.072 Z M108.131,39.282 C108.887,39.282 109.449,39.105 109.818,38.752 C110.188,38.397 110.372,37.977 110.372,37.49 C110.372,36.986 110.194,36.617 109.836,36.382 C109.612,36.232 109.169,36.077 108.509,35.918 L107.901,35.769 C107.690173,35.7251634 107.487203,35.6496399 107.299,35.545 C107.064,35.402 106.946,35.211 106.946,34.973 C106.946,34.755 107.036,34.58 107.215,34.447 C107.393,34.314 107.656,34.248 108.003,34.248 C108.524,34.248 108.89,34.368 109.101,34.61 C109.231,34.78 109.304,34.97 109.321,35.177 L110.189,35.177 C110.194287,34.8188237 110.077163,34.4695708 109.857,34.187 C109.493,33.703 108.899,33.462 108.075,33.462 C107.445,33.462 106.944,33.622 106.571,33.942 C106.198,34.262 106.012,34.68 106.012,35.198 C106.012,35.637 106.21,35.98 106.604,36.229 C106.826,36.372 107.169,36.501 107.636,36.617 L108.366,36.801 C108.757,36.9 109.019,36.986 109.152,37.061 C109.3496,37.1656586 109.470578,37.3734917 109.464,37.597 C109.464,37.907 109.334,38.136 109.076,38.284 C108.800925,38.4363226 108.490357,38.5129292 108.176,38.506 C107.606,38.506 107.203,38.358 106.972,38.062 C106.846,37.899 106.769,37.664 106.742,37.357 L105.859,37.357 C105.883,37.902 106.064,38.359 106.403,38.728 C106.741,39.098 107.317,39.282 108.131,39.282 L108.131,39.282 Z M119.001,39.072 L119.001,38.205 L115.008,38.205 C115.097,37.845 115.311,37.515 115.652,37.219 C115.894976,37.0170701 116.15841,36.8411125 116.438,36.694 L117.138,36.306 C117.754,35.962 118.181,35.669 118.418,35.427 C118.831,35.012 119.037,34.512 119.037,33.927 C119.037,33.371 118.844,32.867 118.457,32.415 C118.071,31.962 117.459,31.736 116.622,31.736 C115.614,31.736 114.912,32.09 114.513,32.798 C114.288,33.2 114.171,33.718 114.161,34.355 L115.095,34.355 C115.109,33.902 115.18,33.548 115.31,33.293 C115.551,32.817 115.987,32.578 116.617,32.578 C117.042,32.578 117.382,32.703 117.637,32.954 C117.893,33.204 118.021,33.542 118.021,33.967 C118.021,34.331 117.881,34.655 117.602,34.937 C117.425,35.117 117.117,35.335 116.678,35.591 L115.698,36.157 C115.041,36.539 114.599,36.962 114.373,37.429 C114.146,37.895 114.016,38.443 113.983,39.073 L119,39.073 L119.001,39.072 Z M122.294,39.272 C123.268,39.272 123.969,38.806 124.398,37.873 C124.694,37.223 124.842,36.401 124.842,35.407 C124.842,34.359 124.679,33.533 124.352,32.931 C123.93,32.151 123.246,31.761 122.299,31.761 C121.247,31.761 120.521,32.316 120.119,33.426 C119.905,34.022 119.797,34.735 119.797,35.566 C119.797,36.637 119.977,37.492 120.334,38.128 C120.762,38.891 121.416,39.272 122.294,39.272 L122.294,39.272 Z M122.289,38.435 C121.697,38.435 121.279,38.089 121.033,37.398 C120.873,36.945 120.793,36.346 120.793,35.601 C120.793,34.611 120.918,33.861 121.168,33.351 C121.418,32.843 121.814,32.589 122.355,32.589 C122.945,32.589 123.341,32.857 123.545,33.393 C123.749,33.929 123.851,34.613 123.851,35.443 C123.851,36.593 123.711,37.379 123.428,37.802 C123.145,38.224 122.766,38.435 122.289,38.435 L122.289,38.435 Z M128.988,39.073 L128.988,31.793 L128.263,31.793 C128.133,32.357 127.938,32.715 127.676,32.867 C127.413,33.018 126.951,33.127 126.286,33.191 L126.286,33.896 L128.007,33.896 L128.007,39.072 L128.987,39.072 L128.988,39.073 Z M133.787,39.257 C134.723,39.257 135.405,38.993 135.832,38.465 C136.254453,37.950332 136.481166,37.3027818 136.472,36.637 C136.472,35.974 136.239,35.426 135.773,34.993 C135.307,34.561 134.738,34.345 134.068,34.345 C133.71,34.345 133.396,34.401 133.123,34.513 C132.949896,34.5895215 132.78698,34.6872715 132.638,34.804 L132.95,32.772 L136.06,32.772 L136.06,31.884 L132.26,31.884 L131.704,35.821 L132.5,35.866 C132.66,35.649 132.854,35.478 133.08,35.356 C133.306,35.233 133.578,35.172 133.894,35.172 C134.33,35.172 134.704,35.312 135.015,35.591 C135.326,35.87 135.482,36.265 135.482,36.775 C135.482,37.197 135.352,37.582 135.089,37.929 C134.827,38.276 134.424,38.449 133.879,38.449 C133.593,38.449 133.341,38.399 133.123,38.297 C132.698,38.096 132.454,37.733 132.393,37.209 L131.438,37.209 C131.493,37.904 131.749,38.419 132.207,38.754 C132.665,39.089 133.191,39.257 133.787,39.257 L133.787,39.257 Z M139.914,36.632 L139.914,35.688 L137.351,35.688 L137.351,36.632 L139.914,36.632 Z M143.222,39.272 C144.196,39.272 144.897,38.806 145.326,37.873 C145.622,37.223 145.77,36.401 145.77,35.407 C145.77,34.359 145.607,33.533 145.28,32.931 C144.858,32.151 144.174,31.761 143.227,31.761 C142.176,31.761 141.449,32.316 141.047,33.426 C140.833,34.022 140.726,34.735 140.726,35.566 C140.726,36.637 140.904,37.492 141.262,38.128 C141.691,38.891 142.344,39.272 143.222,39.272 L143.222,39.272 Z M143.217,38.435 C142.625,38.435 142.207,38.089 141.961,37.398 C141.801,36.945 141.721,36.346 141.721,35.601 C141.721,34.611 141.846,33.861 142.097,33.351 C142.347,32.843 142.742,32.589 143.284,32.589 C143.872,32.589 144.269,32.857 144.474,33.393 C144.677,33.929 144.78,34.613 144.78,35.443 C144.78,36.593 144.638,37.379 144.356,37.802 C144.073,38.224 143.694,38.435 143.217,38.435 L143.217,38.435 Z M148.859,39.277 C149.924,39.277 150.68,38.702 151.126,37.551 C151.395,36.861 151.529,36.067 151.529,35.172 C151.529,34.379 151.417,33.719 151.192,33.192 C150.787,32.232 150.052,31.752 148.987,31.752 C148.197,31.752 147.6,32.003 147.195,32.507 C146.793127,33.0012295 146.5779,33.6210682 146.587,34.258 C146.587,34.949 146.792,35.514 147.202,35.953 C147.612,36.393 148.17,36.612 148.874,36.612 C149.222,36.612 149.546,36.546 149.847,36.415 C150.148,36.285 150.401,36.057 150.605,35.734 C150.475,36.854 150.256,37.596 149.947,37.962 C149.637,38.328 149.262,38.512 148.823,38.512 C148.602349,38.5152244 148.384509,38.462227 148.19,38.358 C147.826,38.164 147.63,37.813 147.603,37.306 L146.673,37.306 C146.673,37.871 146.859,38.341 147.23,38.716 C147.601,39.09 148.144,39.277 148.859,39.277 L148.859,39.277 Z M148.997,35.805 C148.49,35.805 148.12,35.665 147.889,35.384 C147.657,35.104 147.542,34.724 147.542,34.248 C147.542,33.744 147.674,33.342 147.937,33.04 C148.201,32.74 148.557,32.589 149.007,32.589 C149.426,32.589 149.77,32.721 150.041,32.984 C150.311,33.248 150.447,33.649 150.447,34.187 C150.447,34.786 150.297,35.205 149.995,35.445 C149.694,35.685 149.361,35.805 148.997,35.805 L148.997,35.805 Z M155.027,36.632 L155.027,35.688 L152.464,35.688 L152.464,36.632 L155.027,36.632 Z M158.335,39.272 C159.309,39.272 160.01,38.806 160.439,37.873 C160.735,37.223 160.883,36.401 160.883,35.407 C160.883,34.359 160.719,33.533 160.393,32.931 C159.971,32.151 159.287,31.761 158.34,31.761 C157.288,31.761 156.562,32.316 156.16,33.426 C155.946,34.022 155.838,34.735 155.838,35.566 C155.838,36.637 156.018,37.492 156.375,38.128 C156.803,38.891 157.457,39.272 158.335,39.272 L158.335,39.272 Z M158.33,38.435 C157.738,38.435 157.32,38.089 157.074,37.398 C156.914,36.945 156.834,36.346 156.834,35.601 C156.834,34.611 156.959,33.861 157.209,33.351 C157.459,32.843 157.855,32.589 158.396,32.589 C158.986,32.589 159.382,32.857 159.586,33.393 C159.79,33.929 159.892,34.613 159.892,35.443 C159.892,36.593 159.752,37.379 159.469,37.802 C159.186,38.224 158.807,38.435 158.33,38.435 L158.33,38.435 Z M166.673,39.073 L166.673,38.205 L162.68,38.205 C162.769,37.845 162.983,37.515 163.323,37.219 C163.566291,37.0170118 163.830062,36.8410525 164.11,36.694 L164.81,36.306 C165.425,35.962 165.852,35.669 166.09,35.427 C166.503,35.012 166.708,34.512 166.708,33.927 C166.708,33.371 166.515,32.867 166.129,32.415 C165.743,31.962 165.131,31.736 164.293,31.736 C163.286,31.736 162.583,32.09 162.185,32.798 C161.96,33.2 161.843,33.718 161.833,34.355 L162.767,34.355 C162.78,33.902 162.852,33.548 162.981,33.293 C163.223,32.817 163.659,32.578 164.288,32.578 C164.714,32.578 165.054,32.703 165.31,32.954 C165.565,33.204 165.692,33.542 165.692,33.967 C165.692,34.331 165.552,34.655 165.274,34.937 C165.097,35.117 164.789,35.335 164.35,35.591 L163.37,36.157 C162.712,36.539 162.27,36.962 162.044,37.429 C161.818,37.895 161.688,38.443 161.654,39.073 L166.673,39.073 Z" id="形状" fill-opacity="0.65" fill="#000000"></path>
                <circle id="椭圆形" stroke="#1677FF" stroke-width="2" fill="#FFFFFF" cx="2.988" cy="35.858" r="2.988"></circle>
                <path d="M15.774,7.898 C16.785,7.898 17.589,7.576 18.184,6.933 C18.681,6.398 18.974,5.736 19.062,4.946 L18.072,4.946 C17.97,5.44 17.815,5.838 17.607,6.141 C17.216,6.716 16.646,7.004 15.897,7.004 C15.083,7.004 14.472,6.731 14.061,6.184 C13.651,5.638 13.446,4.926 13.446,4.048 C13.446,2.976 13.673,2.18 14.128,1.661 C14.582,1.141 15.178,0.882 15.918,0.882 C16.523,0.882 16.994,1.024 17.329,1.306 C17.664,1.589 17.889,1.972 18,2.455 L18.99,2.455 C18.933,1.818 18.642,1.25 18.118,0.75 C17.594,0.25 16.857,0 15.908,0 C14.794,0 13.921,0.384 13.288,1.153 C12.702,1.861 12.41,2.768 12.41,3.874 C12.41,5.331 12.8,6.408 13.579,7.106 C14.171,7.634 14.903,7.898 15.774,7.898 Z M21.12,7.704 L21.12,4.558 C21.12,4.17 21.244,3.828 21.493,3.53 C21.741,3.232 22.097,3.083 22.56,3.083 C22.6609843,3.08056778 22.7619286,3.08928722 22.861,3.109 L22.861,2.139 C22.7624426,2.12913177 22.6637686,2.12046446 22.565,2.113 C22.201,2.113 21.879,2.245 21.6,2.509 C21.32,2.772 21.146,2.996 21.074,3.179 L21.074,2.235 L20.201,2.235 L20.201,7.704 L21.12,7.704 L21.12,7.704 Z M25.792,7.898 C26.071,7.898 26.321,7.87 26.542,7.816 C26.954,7.721 27.3,7.536 27.579,7.264 C27.745,7.108 27.896,6.906 28.031,6.659 C28.165,6.413 28.244,6.189 28.268,5.988 L27.364,5.988 C27.2987665,6.22445351 27.1800416,6.44274309 27.017,6.626 C26.731,6.943 26.348,7.101 25.868,7.101 C25.354,7.101 24.975,6.933 24.73,6.598 C24.485,6.263 24.354,5.818 24.337,5.263 L28.345,5.263 C28.345,4.712 28.317,4.31 28.263,4.058 C28.2105949,3.71376004 28.0851178,3.38472364 27.895,3.093 C27.705,2.803 27.427,2.568 27.063,2.386 C26.7136991,2.2075644 26.3272363,2.11403219 25.935,2.113 C25.165,2.113 24.543,2.387 24.066,2.935 C23.589,3.483 23.351,4.195 23.351,5.075 C23.351,5.965 23.588,6.659 24.061,7.155 C24.534,7.65 25.111,7.898 25.791,7.898 L25.792,7.898 Z M27.4,4.532 L24.362,4.532 C24.379,4.062 24.531,3.675 24.817,3.37 C25.102,3.066 25.457,2.913 25.879,2.913 C26.467,2.913 26.888,3.135 27.139,3.577 C27.276,3.815 27.363,4.134 27.4,4.532 Z M30.943,7.886 C31.365,7.886 31.752,7.796 32.103,7.616 C32.453,7.436 32.722,7.223 32.909,6.978 C32.926489,7.15538507 32.9802696,7.32727857 33.067,7.483 C33.21,7.708 33.44,7.82 33.757,7.82 C33.886,7.82 33.988,7.815 34.063,7.805 C34.1735683,7.78652065 34.2828035,7.76079862 34.39,7.728 L34.39,7.049 C34.290141,7.06591773 34.1892358,7.07594142 34.088,7.079 C33.962,7.079 33.88,7.051 33.841,6.993 C33.7986812,6.9239984 33.7781219,6.84385212 33.782,6.763 L33.782,3.613 C33.782,3.096 33.583,2.714 33.185,2.469 C32.783,2.224 32.261,2.102 31.617,2.102 C31.062,2.102 30.575,2.234 30.155,2.497 C29.735,2.761 29.515,3.23 29.498,3.904 L30.356,3.904 C30.39,3.621 30.463,3.409 30.576,3.266 C30.776,3.007 31.116,2.878 31.596,2.878 C32.012,2.878 32.331,2.948 32.554,3.09 C32.777,3.23 32.889,3.458 32.889,3.771 C32.8954957,3.89152907 32.8742863,4.0119439 32.827,4.123 C32.756,4.273 32.615,4.362 32.404,4.389 L30.938,4.573 C30.424,4.637 30.009,4.809 29.692,5.088 C29.376,5.368 29.218,5.761 29.218,6.268 C29.218,6.731 29.378,7.116 29.7,7.424 C30.022,7.732 30.436,7.886 30.943,7.886 L30.943,7.886 Z M31.158,7.106 C30.892,7.106 30.663,7.029 30.468,6.876 C30.2754576,6.72544499 30.167454,6.49118876 30.178,6.247 C30.178,5.897 30.318,5.642 30.601,5.482 C30.768,5.386 31.018,5.316 31.351,5.272 L31.908,5.201 C32.078,5.181 32.252,5.146 32.429,5.099 C32.606,5.051 32.751,4.991 32.863,4.919 L32.863,5.66 C32.863,6.225 32.608,6.632 32.097,6.88 C31.794,7.03 31.481,7.105 31.157,7.105 L31.158,7.106 Z M36.575,7.789 C36.708,7.789 36.831,7.783 36.945,7.769 C37.05653,7.75549688 37.1668557,7.73343174 37.275,7.703 L37.275,6.978 C37.1680535,6.98930788 37.0605346,6.99431652 36.953,6.993 C36.786,6.993 36.667,6.974 36.595,6.937 C36.466,6.872 36.401,6.744 36.401,6.554 L36.401,2.984 L37.274,2.984 L37.274,2.234 L36.401,2.234 L36.401,0.709 L35.472,0.709 L35.472,2.235 L34.732,2.235 L34.732,2.985 L35.472,2.985 L35.472,6.605 C35.472,6.956 35.549,7.241 35.702,7.461 C35.855,7.681 36.146,7.791 36.575,7.791 L36.575,7.789 Z M40.328,7.897 C40.607,7.897 40.857,7.869 41.078,7.815 C41.49,7.72 41.835,7.535 42.115,7.263 C42.2965504,7.08660058 42.4487969,6.88236743 42.566,6.658 C42.6871247,6.45143024 42.7678908,6.22372429 42.804,5.987 L41.9,5.987 C41.8347665,6.22345351 41.7160416,6.44174309 41.553,6.625 C41.267,6.942 40.884,7.1 40.404,7.1 C39.89,7.1 39.511,6.932 39.266,6.597 C39.021,6.262 38.889,5.817 38.872,5.262 L42.88,5.262 C42.88,4.711 42.853,4.309 42.799,4.057 C42.7465949,3.71276004 42.6211178,3.38372364 42.431,3.092 C42.241,2.802 41.963,2.567 41.599,2.385 C41.2496991,2.2065644 40.8632363,2.11303219 40.471,2.112 C39.701,2.112 39.078,2.386 38.601,2.934 C38.125,3.482 37.887,4.194 37.887,5.074 C37.887,5.964 38.124,6.658 38.597,7.154 C39.07,7.649 39.647,7.897 40.327,7.897 L40.328,7.897 Z M41.936,4.532 L38.898,4.532 C38.915,4.062 39.066,3.675 39.352,3.37 C39.6236313,3.07178349 40.0106935,2.90522283 40.414,2.913 C41.004,2.913 41.424,3.135 41.675,3.577 C41.812,3.815 41.898,4.134 41.935,4.532 L41.936,4.532 Z M48.384,7.886 C48.806,7.886 49.193,7.796 49.544,7.616 C49.894,7.436 50.163,7.223 50.35,6.978 C50.367489,7.15538507 50.4212696,7.32727857 50.508,7.483 C50.651,7.708 50.881,7.82 51.198,7.82 C51.327,7.82 51.429,7.815 51.504,7.805 C51.6145683,7.78652065 51.7238035,7.76079862 51.831,7.728 L51.831,7.049 C51.731141,7.06591773 51.6302358,7.07594142 51.529,7.079 C51.403,7.079 51.321,7.051 51.282,6.993 C51.2396812,6.9239984 51.2191219,6.84385212 51.223,6.763 L51.223,3.613 C51.223,3.096 51.024,2.714 50.626,2.469 C50.224,2.224 49.702,2.102 49.058,2.102 C48.503,2.102 48.016,2.234 47.596,2.497 C47.176,2.761 46.956,3.23 46.939,3.904 L47.797,3.904 C47.831,3.621 47.904,3.409 48.017,3.266 C48.217,3.007 48.557,2.878 49.037,2.878 C49.453,2.878 49.772,2.948 49.995,3.09 C50.218,3.23 50.33,3.458 50.33,3.771 C50.3364957,3.89152907 50.3152863,4.0119439 50.268,4.123 C50.197,4.273 50.056,4.362 49.845,4.389 L48.379,4.573 C47.865,4.637 47.45,4.809 47.133,5.088 C46.817,5.368 46.659,5.761 46.659,6.268 C46.659,6.731 46.819,7.116 47.141,7.424 C47.463,7.732 47.877,7.886 48.384,7.886 L48.384,7.886 Z M48.599,7.106 C48.333,7.106 48.104,7.029 47.909,6.876 C47.7164576,6.72544499 47.608454,6.49118876 47.619,6.247 C47.619,5.897 47.759,5.642 48.042,5.482 C48.209,5.386 48.459,5.316 48.792,5.272 L49.349,5.201 C49.519,5.181 49.693,5.146 49.87,5.099 C50.047,5.051 50.192,4.991 50.304,4.919 L50.304,5.66 C50.304,6.225 50.049,6.632 49.538,6.88 C49.235,7.03 48.922,7.105 48.598,7.105 L48.599,7.106 Z M57.569,7.912 C58.325,7.912 58.888,7.735 59.257,7.381 C59.627,7.027 59.811,6.607 59.811,6.12 C59.811,5.616 59.632,5.247 59.275,5.012 C59.05,4.862 58.608,4.707 57.947,4.547 L57.34,4.399 C57.1289463,4.35484915 56.9256929,4.27934541 56.737,4.175 C56.502,4.032 56.385,3.841 56.385,3.603 C56.385,3.385 56.475,3.21 56.653,3.077 C56.832,2.944 57.095,2.877 57.442,2.877 C57.962,2.877 58.328,2.999 58.54,3.24 C58.669,3.41 58.742,3.6 58.76,3.807 L59.627,3.807 C59.6322867,3.44882372 59.5151635,3.09957077 59.295,2.817 C58.931,2.333 58.337,2.091 57.513,2.091 C56.883,2.091 56.383,2.251 56.01,2.571 C55.637,2.891 55.45,3.31 55.45,3.827 C55.45,4.267 55.648,4.61 56.043,4.859 C56.264,5.002 56.608,5.131 57.074,5.247 L57.804,5.431 C58.196,5.529 58.458,5.616 58.591,5.691 C58.7882127,5.79593338 58.9087702,6.00371085 58.902,6.227 C58.902,6.537 58.772,6.766 58.514,6.914 C58.2392193,7.06615069 57.9290202,7.1427516 57.615,7.136 C57.044,7.136 56.642,6.988 56.41,6.692 C56.285,6.528 56.208,6.293 56.18,5.987 L55.297,5.987 C55.321,6.532 55.503,6.989 55.841,7.357 C56.18,7.727 56.756,7.912 57.569,7.912 L57.569,7.912 Z M62.997,7.897 C63.276,7.897 63.527,7.869 63.747,7.815 C64.159,7.72 64.505,7.535 64.784,7.263 C64.951,7.107 65.101,6.905 65.236,6.658 C65.37,6.412 65.449,6.188 65.473,5.987 L64.569,5.987 C64.5037665,6.22345351 64.3850416,6.44174309 64.222,6.625 C63.936,6.942 63.553,7.1 63.073,7.1 C62.559,7.1 62.18,6.932 61.935,6.597 C61.69,6.262 61.559,5.817 61.542,5.262 L65.55,5.262 C65.55,4.711 65.522,4.309 65.468,4.057 C65.4155949,3.71276004 65.2901178,3.38372364 65.1,3.092 C64.91,2.802 64.632,2.567 64.268,2.385 C63.9186991,2.2065644 63.5322363,2.11303219 63.14,2.112 C62.37,2.112 61.748,2.386 61.271,2.934 C60.795,3.482 60.556,4.194 60.556,5.074 C60.556,5.964 60.793,6.658 61.266,7.154 C61.739,7.649 62.316,7.897 62.996,7.897 L62.997,7.897 Z M64.605,4.532 L61.567,4.532 C61.584,4.062 61.736,3.675 62.022,3.37 C62.2936313,3.07178349 62.6806935,2.90522283 63.084,2.913 C63.672,2.913 64.093,3.135 64.344,3.577 C64.481,3.815 64.568,4.134 64.605,4.532 Z M67.623,7.702 L67.623,4.559 C67.623,4.171 67.747,3.829 67.995,3.531 C68.244,3.233 68.599,3.084 69.062,3.084 C69.1629843,3.08156778 69.2639286,3.09028722 69.363,3.11 L69.363,2.14 C69.2644426,2.13013177 69.1657686,2.12146446 69.067,2.114 C68.703,2.114 68.382,2.246 68.102,2.51 C67.823,2.773 67.648,2.997 67.577,3.18 L67.577,2.236 L66.704,2.236 L66.704,7.705 L67.623,7.705 L67.623,7.702 Z M72.539,7.702 L74.602,2.234 L73.596,2.234 L72.07,6.688 L70.61,2.235 L69.542,2.235 L71.559,7.704 L72.539,7.704 L72.539,7.702 Z M76.323,1.244 L76.323,0.202 L75.388,0.202 L75.388,1.244 L76.323,1.244 L76.323,1.244 Z M76.323,7.703 L76.323,2.261 L75.388,2.261 L75.388,7.704 L76.323,7.704 L76.323,7.703 Z M79.687,7.861 C80.324,7.861 80.847,7.693 81.255,7.358 C81.663,7.023 81.918,6.492 82.021,5.768 L81.127,5.768 C81.042,6.173 80.887,6.492 80.665,6.725 C80.442,6.958 80.14,7.075 79.759,7.075 C79.262,7.075 78.898,6.887 78.666,6.513 C78.435,6.138 78.319,5.677 78.319,5.129 C78.319,4.585 78.401,4.127 78.564,3.756 C78.816,3.184 79.234,2.898 79.82,2.898 C80.249,2.898 80.56,3.01 80.754,3.233 C80.948,3.455 81.073,3.735 81.127,4.073 L82.021,4.073 C81.942,3.341 81.71,2.825 81.324,2.525 C80.937,2.225 80.436,2.076 79.82,2.076 C79.098,2.076 78.504,2.343 78.038,2.878 C77.572,3.412 77.338,4.159 77.338,5.119 C77.338,5.902 77.551,6.555 77.977,7.077 C78.402,7.6 78.972,7.861 79.687,7.861 L79.687,7.861 Z M85.074,7.897 C85.353,7.897 85.603,7.869 85.824,7.815 C86.236,7.72 86.582,7.535 86.861,7.263 C87.028,7.107 87.178,6.905 87.313,6.658 C87.447,6.412 87.526,6.188 87.55,5.987 L86.646,5.987 C86.5807665,6.22345351 86.4620416,6.44174309 86.299,6.625 C86.013,6.942 85.63,7.1 85.15,7.1 C84.636,7.1 84.257,6.932 84.012,6.597 C83.767,6.262 83.636,5.817 83.619,5.262 L87.627,5.262 C87.627,4.711 87.599,4.309 87.545,4.057 C87.4925949,3.71276004 87.3671178,3.38372364 87.177,3.092 C86.987,2.802 86.709,2.567 86.345,2.385 C85.9956991,2.2065644 85.6092363,2.11303219 85.217,2.112 C84.447,2.112 83.825,2.386 83.348,2.934 C82.871,3.482 82.633,4.194 82.633,5.074 C82.633,5.964 82.87,6.658 83.343,7.154 C83.816,7.649 84.393,7.897 85.073,7.897 L85.074,7.897 Z M86.682,4.532 L83.644,4.532 C83.661,4.062 83.813,3.675 84.099,3.37 C84.384,3.066 84.739,2.913 85.161,2.913 C85.749,2.913 86.17,3.135 86.421,3.577 C86.558,3.815 86.645,4.134 86.682,4.532 Z M90.69,7.912 C91.446,7.912 92.008,7.735 92.377,7.381 C92.747,7.027 92.931,6.607 92.931,6.12 C92.931,5.616 92.753,5.247 92.395,5.012 C92.171,4.862 91.728,4.707 91.068,4.547 L90.46,4.399 C90.2493034,4.35471048 90.0464,4.27921155 89.858,4.175 C89.623,4.032 89.505,3.841 89.505,3.603 C89.505,3.385 89.595,3.21 89.774,3.077 C89.952,2.944 90.215,2.877 90.562,2.877 C91.083,2.877 91.449,2.999 91.66,3.24 C91.79,3.41 91.863,3.6 91.88,3.807 L92.748,3.807 C92.7532867,3.44882372 92.6361635,3.09957077 92.416,2.817 C92.052,2.333 91.458,2.091 90.634,2.091 C90.004,2.091 89.503,2.251 89.13,2.571 C88.757,2.891 88.571,3.31 88.571,3.827 C88.571,4.267 88.769,4.61 89.163,4.859 C89.385,5.002 89.728,5.131 90.195,5.247 L90.925,5.431 C91.316,5.529 91.578,5.616 91.711,5.691 C91.9086001,5.7956586 92.0295776,6.00349169 92.023,6.227 C92.023,6.537 91.893,6.766 91.635,6.914 C91.3599246,7.06632262 91.0493575,7.14292918 90.735,7.136 C90.165,7.136 89.762,6.988 89.531,6.692 C89.405,6.528 89.328,6.293 89.301,5.987 L88.418,5.987 C88.442,6.532 88.623,6.989 88.962,7.357 C89.3,7.727 89.876,7.912 90.69,7.912 L90.69,7.912 Z M98.823,7.912 C99.579,7.912 100.141,7.735 100.511,7.381 C100.881,7.027 101.065,6.607 101.065,6.12 C101.065,5.616 100.886,5.247 100.529,5.012 C100.304,4.862 99.861,4.707 99.201,4.547 L98.594,4.399 C98.3829463,4.35484915 98.1796929,4.27934541 97.991,4.175 C97.756,4.032 97.639,3.841 97.639,3.603 C97.639,3.385 97.729,3.21 97.907,3.077 C98.086,2.944 98.349,2.877 98.696,2.877 C99.216,2.877 99.582,2.999 99.793,3.24 C99.923,3.41 99.996,3.6 100.013,3.807 L100.881,3.807 C100.886287,3.44882372 100.769163,3.09957077 100.549,2.817 C100.185,2.333 99.591,2.091 98.767,2.091 C98.137,2.091 97.637,2.251 97.264,2.571 C96.891,2.891 96.704,3.31 96.704,3.827 C96.704,4.267 96.902,4.61 97.297,4.859 C97.518,5.002 97.862,5.131 98.328,5.247 L99.058,5.431 C99.45,5.529 99.712,5.616 99.844,5.691 C100.0416,5.7956586 100.162578,6.00349169 100.156,6.227 C100.156,6.537 100.026,6.766 99.768,6.914 C99.4932193,7.06615069 99.1830202,7.1427516 98.869,7.136 C98.297,7.136 97.896,6.988 97.664,6.692 C97.538,6.528 97.462,6.293 97.434,5.987 L96.551,5.987 C96.575,6.532 96.756,6.989 97.095,7.357 C97.434,7.727 98.01,7.912 98.823,7.912 L98.823,7.912 Z M103.051,1.244 L103.051,0.202 L102.117,0.202 L102.117,1.244 L103.051,1.244 L103.051,1.244 Z M103.051,7.703 L103.051,2.261 L102.117,2.261 L102.117,7.704 L103.051,7.704 L103.051,7.703 Z M105.726,7.789 C105.859,7.789 105.982,7.783 106.096,7.769 C106.20753,7.75549688 106.317856,7.73343174 106.426,7.703 L106.426,6.978 C106.319054,6.98930788 106.211535,6.99431652 106.104,6.993 C105.937,6.993 105.818,6.974 105.747,6.937 C105.617,6.872 105.553,6.744 105.553,6.554 L105.553,2.984 L106.426,2.984 L106.426,2.234 L105.553,2.234 L105.553,0.709 L104.623,0.709 L104.623,2.235 L103.883,2.235 L103.883,2.985 L104.623,2.985 L104.623,6.605 C104.623,6.956 104.7,7.241 104.853,7.461 C105.006,7.681 105.297,7.791 105.726,7.791 L105.726,7.789 Z M109.479,7.897 C109.758,7.897 110.009,7.869 110.229,7.815 C110.641,7.72 110.987,7.535 111.266,7.263 C111.433,7.107 111.583,6.905 111.718,6.658 C111.852,6.412 111.931,6.188 111.955,5.987 L111.051,5.987 C110.985767,6.22345351 110.867042,6.44174309 110.704,6.625 C110.418,6.942 110.035,7.1 109.555,7.1 C109.042,7.1 108.662,6.932 108.417,6.597 C108.172,6.262 108.041,5.817 108.024,5.262 L112.032,5.262 C112.032,4.711 112.005,4.309 111.95,4.057 C111.897595,3.71276004 111.772118,3.38372364 111.582,3.092 C111.392,2.802 111.114,2.567 110.75,2.385 C110.400699,2.2065644 110.014236,2.11303219 109.622,2.112 C108.852,2.112 108.23,2.386 107.753,2.934 C107.277,3.482 107.038,4.194 107.038,5.074 C107.038,5.964 107.275,6.658 107.748,7.154 C108.221,7.649 108.798,7.897 109.478,7.897 L109.479,7.897 Z M111.087,4.532 L108.049,4.532 C108.066,4.062 108.218,3.675 108.504,3.37 C108.775631,3.07178349 109.162693,2.90522283 109.566,2.913 C110.155,2.913 110.575,3.135 110.826,3.577 C110.963,3.815 111.05,4.134 111.087,4.532 Z M120.737,7.702 L120.737,6.835 L116.744,6.835 C116.833,6.474 117.047,6.145 117.388,5.849 C117.630929,5.64672208 117.894365,5.47042819 118.174,5.323 L118.874,4.935 C119.489,4.591 119.917,4.299 120.154,4.057 C120.567,3.642 120.773,3.141 120.773,2.556 C120.773,2.001 120.579,1.497 120.193,1.045 C119.807,0.592 119.195,0.365 118.358,0.365 C117.35,0.365 116.648,0.72 116.249,1.428 C116.024,1.829 115.907,2.348 115.897,2.985 L116.831,2.985 C116.845,2.532 116.916,2.178 117.046,1.923 C117.287,1.446 117.723,1.208 118.353,1.208 C118.778,1.208 119.118,1.333 119.373,1.583 C119.629,1.833 119.757,2.171 119.757,2.597 C119.757,2.961 119.617,3.284 119.338,3.567 C119.161,3.747 118.853,3.965 118.414,4.22 L117.434,4.787 C116.777,5.168 116.335,5.592 116.109,6.059 C115.882,6.525 115.752,7.073 115.718,7.703 L120.737,7.703 L120.737,7.702 Z M124.03,7.902 C125.004,7.902 125.705,7.435 126.134,6.502 C126.43,5.852 126.578,5.031 126.578,4.037 C126.578,2.988 126.414,2.163 126.088,1.56 C125.666,0.78 124.981,0.391 124.035,0.391 C122.983,0.391 122.257,0.946 121.855,2.056 C121.641,2.651 121.533,3.364 121.533,4.195 C121.533,5.267 121.713,6.121 122.07,6.758 C122.498,7.52 123.152,7.902 124.03,7.902 Z M124.025,7.064 C123.433,7.064 123.015,6.719 122.769,6.028 C122.609,5.575 122.529,4.976 122.529,4.231 C122.529,3.241 122.654,2.491 122.904,1.981 C123.154,1.473 123.55,1.218 124.091,1.218 C124.681,1.218 125.077,1.486 125.281,2.022 C125.485,2.559 125.587,3.242 125.587,4.072 C125.587,5.222 125.447,6.009 125.164,6.432 C124.881,6.853 124.502,7.064 124.025,7.064 Z M130.724,7.703 L130.724,0.422 L129.999,0.422 C129.869,0.987 129.674,1.345 129.411,1.497 C129.149,1.648 128.686,1.757 128.023,1.821 L128.023,2.525 L129.743,2.525 L129.743,7.703 L130.723,7.703 L130.724,7.703 Z M135.523,7.886 C136.459,7.886 137.141,7.623 137.568,7.095 C137.995,6.567 138.208,5.958 138.208,5.267 C138.208,4.603 137.975,4.055 137.509,3.623 C137.043,3.191 136.474,2.975 135.804,2.975 C135.446,2.975 135.132,3.031 134.859,3.143 C134.685896,3.21952153 134.52298,3.3172715 134.374,3.434 L134.686,1.402 L137.795,1.402 L137.795,0.514 L133.996,0.514 L133.44,4.45 L134.236,4.496 C134.388431,4.28446521 134.586705,4.11012106 134.816,3.986 C135.042,3.863 135.314,3.802 135.63,3.802 C136.066,3.802 136.44,3.942 136.75,4.22 C137.062,4.5 137.218,4.894 137.218,5.405 C137.218,5.827 137.087,6.212 136.825,6.559 C136.563,6.906 136.159,7.079 135.615,7.079 C135.354757,7.08486145 135.096484,7.03259198 134.859,6.926 C134.434,6.726 134.19,6.363 134.129,5.839 L133.174,5.839 C133.229,6.533 133.484,7.049 133.943,7.383 C134.401,7.719 134.927,7.886 135.523,7.886 L135.523,7.886 Z M141.65,5.262 L141.65,4.317 L139.087,4.317 L139.087,5.262 L141.65,5.262 Z M144.958,7.902 C145.932,7.902 146.633,7.435 147.062,6.502 C147.358,5.852 147.506,5.031 147.506,4.037 C147.506,2.988 147.343,2.163 147.016,1.56 C146.594,0.78 145.91,0.391 144.963,0.391 C143.912,0.391 143.185,0.946 142.783,2.056 C142.569,2.651 142.462,3.364 142.462,4.195 C142.462,5.267 142.64,6.121 142.998,6.758 C143.427,7.52 144.08,7.902 144.958,7.902 Z M144.953,7.064 C144.361,7.064 143.943,6.719 143.697,6.028 C143.537,5.575 143.457,4.976 143.457,4.231 C143.457,3.241 143.582,2.491 143.832,1.981 C144.082,1.473 144.478,1.218 145.02,1.218 C145.608,1.218 146.005,1.486 146.21,2.022 C146.413,2.559 146.515,3.242 146.515,4.072 C146.515,5.222 146.375,6.009 146.092,6.432 C145.809,6.853 145.43,7.064 144.953,7.064 L144.953,7.064 Z M150.595,7.907 C151.66,7.907 152.416,7.332 152.862,6.181 C153.131,5.491 153.265,4.697 153.265,3.801 C153.265,3.009 153.153,2.348 152.928,1.821 C152.523,0.861 151.788,0.381 150.723,0.381 C149.933,0.381 149.336,0.633 148.93,1.137 C148.528708,1.6311023 148.313854,2.25053416 148.323,2.887 C148.323,3.579 148.528,4.144 148.938,4.583 C149.348,5.023 149.906,5.242 150.61,5.242 C150.957,5.242 151.282,5.176 151.583,5.045 C151.884,4.914 152.137,4.687 152.341,4.363 C152.211,5.483 151.992,6.226 151.682,6.592 C151.372,6.958 150.998,7.141 150.559,7.141 C150.338436,7.14453164 150.120602,7.09187962 149.926,6.988 C149.562,6.794 149.366,6.443 149.339,5.936 L148.409,5.936 C148.409,6.501 148.595,6.971 148.966,7.346 C149.337,7.72 149.88,7.906 150.595,7.906 L150.595,7.907 Z M150.733,4.435 C150.226,4.435 149.856,4.295 149.625,4.014 C149.393,3.733 149.278,3.354 149.278,2.878 C149.278,2.374 149.41,1.971 149.673,1.67 C149.937,1.369 150.293,1.218 150.743,1.218 C151.162,1.218 151.506,1.35 151.777,1.614 C152.047,1.878 152.183,2.279 152.183,2.816 C152.183,3.416 152.033,3.835 151.731,4.075 C151.43,4.315 151.097,4.435 150.733,4.435 L150.733,4.435 Z M156.763,5.262 L156.763,4.317 L154.2,4.317 L154.2,5.262 L156.763,5.262 L156.763,5.262 Z M160.071,7.902 C161.045,7.902 161.746,7.435 162.175,6.502 C162.471,5.852 162.619,5.031 162.619,4.037 C162.619,2.988 162.455,2.163 162.129,1.56 C161.707,0.78 161.022,0.391 160.076,0.391 C159.024,0.391 158.298,0.946 157.896,2.056 C157.682,2.651 157.574,3.364 157.574,4.195 C157.574,5.267 157.754,6.121 158.11,6.758 C158.54,7.52 159.193,7.902 160.071,7.902 Z M160.066,7.064 C159.474,7.064 159.055,6.719 158.81,6.028 C158.65,5.575 158.57,4.976 158.57,4.231 C158.57,3.241 158.695,2.491 158.945,1.981 C159.195,1.473 159.591,1.218 160.132,1.218 C160.722,1.218 161.118,1.486 161.322,2.022 C161.526,2.559 161.628,3.242 161.628,4.072 C161.628,5.222 161.487,6.009 161.205,6.432 C160.922,6.853 160.542,7.064 160.066,7.064 Z M166.765,7.703 L166.765,0.422 L166.04,0.422 C165.91,0.987 165.715,1.345 165.452,1.497 C165.19,1.648 164.727,1.757 164.064,1.821 L164.064,2.525 L165.784,2.525 L165.784,7.703 L166.764,7.703 L166.765,7.703 Z" id="形状" fill-opacity="0.65" fill="#000000"></path>
                <circle id="椭圆形" stroke="#1677FF" stroke-width="2" fill="#FFFFFF" cx="2.988" cy="4.488" r="2.988"></circle>
            </g>
        </g>
    </g>
</svg>