<?xml version="1.0" encoding="UTF-8"?>
<svg width="121px" height="69px" viewBox="0 0 121 69" version="1.1" xmlns="http://www.w3.org/2000/svg" xmlns:xlink="http://www.w3.org/1999/xlink">
    <title>TimePicker</title>
    <g id="组件骨架图更新" stroke="none" stroke-width="1" fill="none" fill-rule="evenodd">
        <g id="🎉-5.0-新版" transform="translate(-557.000000, -2446.000000)">
            <g id="TimePicker" transform="translate(558.000000, 2447.000000)">
                <g id="3.DataEntry/Selecte/Default/Unselected">
                    <g id="3.DataEntry/Input/Default/Basic-#">
                        <g id="9.Box/1.Cards/4.Border" opacity="0.15" stroke="#000000">
                            <g id="Z/Shape/RectangleRC/2px/RC-A">
                                <rect id="outline" x="0" y="0" width="119" height="31" rx="6"></rect>
                            </g>
                        </g>
                        <text id="Default-Size" fill="#000000" fill-rule="nonzero" font-family="PingFangSC-Regular, PingFang SC" font-size="14" font-weight="normal">
                            <tspan x="11.5" y="19.5">Default Size</tspan>
                        </text>
                    </g>
                    <g id="7.Icon/suggested/18.time/outline" opacity="0.65" transform="translate(98.375000, 9.375000)" fill="#000000" fill-rule="nonzero">
                        <path d="M6.125,0 C9.5074219,0 12.25,2.74257813 12.25,6.125 C12.25,9.5074219 9.5074219,12.25 6.125,12.25 C2.74257813,12.25 0,9.5074219 0,6.125 C0,2.74257813 2.74257813,0 6.125,0 Z M6.125,1.0390625 C3.31679688,1.0390625 1.0390625,3.31679688 1.0390625,6.125 C1.0390625,8.93320312 3.31679688,11.2109375 6.125,11.2109375 C8.93320312,11.2109375 11.2109375,8.93320312 11.2109375,6.125 C11.2109375,3.31679688 8.93320312,1.0390625 6.125,1.0390625 Z M6.45449219,2.953125 C6.51464844,2.953125 6.56386719,3.00234375 6.56386719,3.0625 L6.56386719,3.0625 L6.56386719,6.44628906 L8.51347656,7.85585938 C8.56269531,7.89003906 8.57363281,7.95839844 8.53808594,8.00898438 L8.53808594,8.00898438 L8.14707031,8.5421875 C8.11152344,8.59003906 8.04316406,8.60097656 7.99394531,8.56542969 L7.99394531,8.56542969 L5.73261719,6.91660156 C5.70390625,6.89609375 5.6875,6.86328125 5.6875,6.82773438 L5.6875,6.82773438 L5.6875,3.0625 C5.6875,3.00234375 5.73671875,2.953125 5.796875,2.953125 L5.796875,2.953125 L6.45449219,2.953125 Z" id="fill"></path>
                    </g>
                </g>
                <g id="3.DataEntry/Selecte/Small/Unselected" transform="translate(0.000000, 44.000000)">
                    <g id="3.DataEntry/Input/Small/Basic-#">
                        <g id="9.Box/1.Cards/4.Border" opacity="0.15" stroke="#000000">
                            <g id="Z/Shape/RectangleRC/2px/RC-A">
                                <rect id="outline" x="0" y="0" width="119" height="23" rx="4"></rect>
                            </g>
                        </g>
                        <text id="Small-Size" fill="#000000" fill-rule="nonzero" font-family="PingFangSC-Regular, PingFang SC" font-size="12" font-weight="normal">
                            <tspan x="7.5" y="14.5">Small Size</tspan>
                        </text>
                    </g>
                    <g id="7.Icon/suggested/18.time/outline" opacity="0.65" transform="translate(100.250000, 6.250000)" fill="#000000" fill-rule="nonzero">
                        <path d="M5.25,0 C8.14921875,0 10.5,2.35078125 10.5,5.25 C10.5,8.14921875 8.14921875,10.5 5.25,10.5 C2.35078125,10.5 0,8.14921875 0,5.25 C0,2.35078125 2.35078125,0 5.25,0 Z M5.25,0.890625 C2.84296875,0.890625 0.890625,2.84296875 0.890625,5.25 C0.890625,7.65703125 2.84296875,9.609375 5.25,9.609375 C7.65703125,9.609375 9.609375,7.65703125 9.609375,5.25 C9.609375,2.84296875 7.65703125,0.890625 5.25,0.890625 Z M5.53242188,2.53125 C5.58398438,2.53125 5.62617188,2.5734375 5.62617188,2.625 L5.62617188,2.625 L5.62617188,5.52539063 L7.29726563,6.73359375 C7.33945313,6.76289063 7.34882813,6.82148438 7.31835938,6.86484375 L7.31835938,6.86484375 L6.98320313,7.321875 C6.95273438,7.36289063 6.89414063,7.37226563 6.85195313,7.34179688 L6.85195313,7.34179688 L4.91367188,5.92851563 C4.8890625,5.9109375 4.875,5.8828125 4.875,5.85234375 L4.875,5.85234375 L4.875,2.625 C4.875,2.5734375 4.9171875,2.53125 4.96875,2.53125 L4.96875,2.53125 L5.53242188,2.53125 Z" id="fill"></path>
                    </g>
                </g>
            </g>
        </g>
    </g>
</svg>