<?xml version="1.0" encoding="UTF-8"?>
<svg width="176px" height="94px" viewBox="0 0 176 94" version="1.1" xmlns="http://www.w3.org/2000/svg" xmlns:xlink="http://www.w3.org/1999/xlink">
    <title>DataDisplay/Tooltip/Light/Down⬇️</title>
    <defs>
        <path d="M68.6568542,32 C67.5959883,32 66.5785726,32.4214274 65.8284271,33.1715729 L62.4142136,36.5857864 C61.633165,37.366835 60.366835,37.366835 59.5857864,36.5857864 L56.1715729,33.1715729 C55.4214274,32.4214274 54.4040117,32 53.3431458,32 L7.6916556,32 C5.01709938,32 4.04724067,31.7215232 3.06946289,31.1986019 C2.09168511,30.6756806 1.32431939,29.9083149 0.801398111,28.9305371 C0.278476833,27.9527593 0,26.9829006 0,24.3083444 L0,7.6916556 C0,5.01709938 0.278476833,4.04724067 0.801398111,3.06946289 C1.32431939,2.09168511 2.09168511,1.32431939 3.06946289,0.801398111 C4.04724067,0.278476833 5.01709938,-1.80555915e-16 7.6916556,3.10752092e-16 L110.308344,-3.10752092e-16 C112.982901,1.80555915e-16 113.952759,0.278476833 114.930537,0.801398111 C115.908315,1.32431939 116.675681,2.09168511 117.198602,3.06946289 C117.721523,4.04724067 118,5.01709938 118,7.6916556 L118,24.3083444 C118,26.9829006 117.721523,27.9527593 117.198602,28.9305371 C116.675681,29.9083149 115.908315,30.6756806 114.930537,31.1986019 C113.952759,31.7215232 112.982901,32 110.308344,32 Z" id="path-1"></path>
        <filter x="-49.6%" y="-133.2%" width="199.2%" height="414.8%" filterUnits="objectBoundingBox" id="filter-2">
            <feMorphology radius="4" operator="dilate" in="SourceAlpha" result="shadowSpreadOuter1"></feMorphology>
            <feOffset dx="0" dy="9" in="shadowSpreadOuter1" result="shadowOffsetOuter1"></feOffset>
            <feGaussianBlur stdDeviation="14" in="shadowOffsetOuter1" result="shadowBlurOuter1"></feGaussianBlur>
            <feComposite in="shadowBlurOuter1" in2="SourceAlpha" operator="out" result="shadowBlurOuter1"></feComposite>
            <feColorMatrix values="0 0 0 0 0   0 0 0 0 0   0 0 0 0 0  0 0 0 0.05 0" type="matrix" in="shadowBlurOuter1" result="shadowMatrixOuter1"></feColorMatrix>
            <feOffset dx="0" dy="6" in="SourceAlpha" result="shadowOffsetOuter2"></feOffset>
            <feGaussianBlur stdDeviation="8" in="shadowOffsetOuter2" result="shadowBlurOuter2"></feGaussianBlur>
            <feComposite in="shadowBlurOuter2" in2="SourceAlpha" operator="out" result="shadowBlurOuter2"></feComposite>
            <feColorMatrix values="0 0 0 0 0   0 0 0 0 0   0 0 0 0 0  0 0 0 0.08 0" type="matrix" in="shadowBlurOuter2" result="shadowMatrixOuter2"></feColorMatrix>
            <feMorphology radius="2" operator="erode" in="SourceAlpha" result="shadowSpreadOuter3"></feMorphology>
            <feOffset dx="0" dy="3" in="shadowSpreadOuter3" result="shadowOffsetOuter3"></feOffset>
            <feGaussianBlur stdDeviation="3" in="shadowOffsetOuter3" result="shadowBlurOuter3"></feGaussianBlur>
            <feComposite in="shadowBlurOuter3" in2="SourceAlpha" operator="out" result="shadowBlurOuter3"></feComposite>
            <feColorMatrix values="0 0 0 0 0   0 0 0 0 0   0 0 0 0 0  0 0 0 0.12 0" type="matrix" in="shadowBlurOuter3" result="shadowMatrixOuter3"></feColorMatrix>
            <feMerge>
                <feMergeNode in="shadowMatrixOuter1"></feMergeNode>
                <feMergeNode in="shadowMatrixOuter2"></feMergeNode>
                <feMergeNode in="shadowMatrixOuter3"></feMergeNode>
            </feMerge>
        </filter>
    </defs>
    <g id="组件骨架图更新" stroke="none" stroke-width="1" fill="none" fill-rule="evenodd">
        <g id="🎉-5.0-新版" transform="translate(-531.000000, -3973.000000)">
            <g id="DataDisplay/Tooltip/Light/Down⬇️" transform="translate(560.000000, 3994.000000)">
                <g id="形状结合">
                    <use fill="black" fill-opacity="1" filter="url(#filter-2)" xlink:href="#path-1"></use>
                    <use fill-opacity="0.75" fill="#000000" fill-rule="evenodd" xlink:href="#path-1"></use>
                </g>
                <text id="Text" font-family="PingFangSC-Regular, PingFang SC" font-size="14" font-weight="normal" line-spacing="22" fill="#FFFFFF">
                    <tspan x="8.495" y="20">|||||||||||||||||||||||||||||||||||||</tspan>
                </text>
            </g>
        </g>
    </g>
</svg>