<?xml version="1.0" encoding="UTF-8"?>
<svg width="175px" height="104px" viewBox="0 0 175 104" version="1.1" xmlns="http://www.w3.org/2000/svg" xmlns:xlink="http://www.w3.org/1999/xlink">
    <title>cc3fcbfa-bf5b-4c8c-8a3d-c3f8388c75e8</title>
    <g id="ç»„ä»¶éª¨æž¶å›¾æ›´æ–°" stroke="none" stroke-width="1" fill="none" fill-rule="evenodd">
        <g id="ðŸŽ‰-5.0-æ–°ç‰ˆ" transform="translate(-896.000000, -3968.000000)" fill-rule="nonzero">
            <g id="cc3fcbfa-bf5b-4c8c-8a3d-c3f8388c75e8" transform="translate(897.000000, 3969.000000)">
                <path d="M27.3015827,0.481523055 C27.3793404,0.54817244 27.4518638,0.620695897 27.5185132,0.698453513 L30.0476259,3.64908497 C30.1294246,3.74451681 30.2137064,3.8372747 30.3003347,3.92729583 L165.308344,3.92685477 C167.982901,3.92685477 168.952759,4.20533161 169.930537,4.72825289 C170.908315,5.25117416 171.675681,6.01853989 172.198602,6.99631766 C172.721523,7.97409544 173,8.94395415 173,11.6185104 L173,11.6185104 L173,94.2351992 C173,96.9097554 172.721523,97.8796141 172.198602,98.8573919 C171.675681,99.8351697 170.908315,100.602535 169.930537,101.125457 C168.952759,101.648378 167.982901,101.926855 165.308344,101.926855 L165.308344,101.926855 L7.6916556,101.926855 C5.01709938,101.926855 4.04724067,101.648378 3.06946289,101.125457 C2.09168511,100.602535 1.32431939,99.8351697 0.801398111,98.8573919 C0.278476833,97.8796141 0,96.9097554 0,94.2351992 L0,94.2351992 L0,11.6185104 C0,8.94395415 0.278476833,7.97409544 0.801398111,6.99631766 C1.32431939,6.01853989 2.09168511,5.25117416 3.06946289,4.72825289 C4.04724067,4.20533161 5.01709938,3.92685477 7.6916556,3.92685477 L7.6916556,3.92685477 L21.6996653,3.92729583 C21.7862936,3.8372747 21.8705754,3.74451681 21.9523741,3.64908497 L24.4814868,0.698453513 C25.2003311,-0.140198172 26.4629311,-0.237321247 27.3015827,0.481523055 Z" id="å½¢çŠ¶ç»“åˆ" stroke="#F0F0F0" fill="#FFFFFF"></path>
                <g id="ç¼–ç»„" transform="translate(12.000000, 88.926855)">
                    <circle id="æ¤­åœ†å½¢å¤‡ä»½" fill="#1677FF" cx="2" cy="2" r="2"></circle>
                    <circle id="æ¤­åœ†å½¢å¤‡ä»½-2" fill-opacity="0.15" fill="#000000" cx="10" cy="2" r="2"></circle>
                    <circle id="æ¤­åœ†å½¢å¤‡ä»½-3" fill-opacity="0.15" fill="#000000" cx="18" cy="2" r="2"></circle>
                </g>
                <rect id="çŸ©å½¢" stroke="#F0F0F0" fill="#FFFFFF" x="88.5" y="78.9268548" width="36" height="16" rx="4"></rect>
                <rect id="çŸ©å½¢å¤‡ä»½-12" fill="#1677FF" x="130.5" y="78.9268548" width="36" height="16" rx="4"></rect>
                <g id="ç¼–ç»„" transform="translate(13.000000, 14.926855)" fill="#000000" fill-opacity="0.88">
                    <rect id="çŸ©å½¢" x="0" y="0" width="1" height="10"></rect>
                    <rect id="çŸ©å½¢å¤‡ä»½" x="3" y="0" width="1" height="10"></rect>
                    <rect id="çŸ©å½¢å¤‡ä»½-2" x="6" y="0" width="1" height="10"></rect>
                    <rect id="çŸ©å½¢å¤‡ä»½-3" x="9" y="0" width="1" height="10"></rect>
                    <rect id="çŸ©å½¢å¤‡ä»½-4" x="12" y="0" width="1" height="10"></rect>
                    <rect id="çŸ©å½¢å¤‡ä»½-5" x="15" y="0" width="1" height="10"></rect>
                    <rect id="çŸ©å½¢å¤‡ä»½-6" x="18" y="0" width="1" height="10"></rect>
                    <rect id="çŸ©å½¢å¤‡ä»½-7" x="21" y="0" width="1" height="10"></rect>
                    <rect id="çŸ©å½¢å¤‡ä»½-8" x="24" y="0" width="1" height="10"></rect>
                    <rect id="çŸ©å½¢å¤‡ä»½-9" x="27" y="0" width="1" height="10"></rect>
                    <rect id="çŸ©å½¢å¤‡ä»½-10" x="30" y="0" width="1" height="10"></rect>
                    <rect id="çŸ©å½¢å¤‡ä»½-11" x="33" y="0" width="1" height="10"></rect>
                </g>
                <g id="Icon/Close" transform="translate(154.000000, 13.926855)" fill="#000000">
                    <rect id="çŸ©å½¢" opacity="0" x="0" y="0" width="10" height="10"></rect>
                    <path d="M5.50585937,5 L8.06933594,1.94433594 C8.11230469,1.89355469 8.07617187,1.81640625 8.00976562,1.81640625 L7.23046875,1.81640625 C7.18457031,1.81640625 7.140625,1.83691406 7.11035156,1.87207031 L4.99609375,4.39257812 L2.88183594,1.87207031 C2.85253906,1.83691406 2.80859375,1.81640625 2.76171875,1.81640625 L1.98242187,1.81640625 C1.91601562,1.81640625 1.87988281,1.89355469 1.92285156,1.94433594 L4.48632812,5 L1.92285156,8.05566406 C1.87988281,8.10644531 1.91601562,8.18359375 1.98242187,8.18359375 L2.76171875,8.18359375 C2.80761719,8.18359375 2.8515625,8.16308594 2.88183594,8.12792969 L4.99609375,5.60742187 L7.11035156,8.12792969 C7.13964844,8.16308594 7.18359375,8.18359375 7.23046875,8.18359375 L8.00976562,8.18359375 C8.07617187,8.18359375 8.11230469,8.10644531 8.06933594,8.05566406 L5.50585937,5 Z" id="è·¯å¾„"></path>
                </g>
                <rect id="çŸ©å½¢" fill="#EBEBEB" x="12" y="35.9268548" width="142" height="10" rx="1"></rect>
                <rect id="çŸ©å½¢å¤‡ä»½-13" fill="#EBEBEB" x="12" y="51.9268548" width="71" height="10" rx="1"></rect>
            </g>
        </g>
    </g>
</svg>