<svg xmlns="http://www.w3.org/2000/svg" viewBox="0 0 40 30" >

<g transform="matrix(1, 0, 0, 1, -88.53315, -47.565804)"><g transform="matrix(0.29906, 0, 0, 0.29906, 88.407898, 48.319069)" style=""><path class="st0" d="M 85.667 5.891 L 87.813 8.716 C 88.376 9.462 88.235 10.531 87.49 11.094 L 85.211 12.826 C 85.625 13.928 85.891 15.104 85.998 16.306 L 88.592 16.662 C 89.52 16.786 90.166 17.648 90.042 18.576 L 89.561 22.097 C 89.437 23.025 88.575 23.68 87.647 23.547 L 84.814 23.158 C 84.308 24.259 83.662 25.27 82.9 26.173 L 84.49 28.261 C 85.054 29.007 84.905 30.076 84.159 30.639 L 81.334 32.785 C 80.588 33.348 79.519 33.199 78.956 32.462 L 77.224 30.183 C 76.114 30.598 74.946 30.863 73.736 30.971 L 73.38 33.564 C 73.256 34.492 72.394 35.138 71.466 35.014 L 67.945 34.533 C 67.017 34.409 66.371 33.547 66.495 32.619 L 66.884 29.786 C 65.791 29.28 64.772 28.634 63.868 27.88 L 61.781 29.463 C 61.035 30.026 59.966 29.885 59.403 29.14 L 57.257 26.314 C 56.693 25.569 56.834 24.5 57.58 23.936 L 59.858 22.205 C 59.444 21.095 59.179 19.926 59.071 18.725 L 56.478 18.369 C 55.55 18.244 54.896 17.383 55.028 16.455 L 55.509 12.934 C 55.641 12.006 56.495 11.359 57.423 11.484 L 60.256 11.873 C 60.761 10.779 61.408 9.76 62.162 8.857 L 60.579 6.769 C 60.016 6.032 60.157 4.963 60.902 4.4 L 63.728 2.254 C 64.473 1.69 65.542 1.831 66.105 2.577 L 67.837 4.855 C 68.939 4.441 70.116 4.176 71.317 4.068 L 71.673 1.475 C 71.797 0.547 72.659 -0.107 73.587 0.017 L 77.108 0.497 C 78.036 0.622 78.691 1.483 78.558 2.411 L 78.169 5.245 C 79.271 5.75 80.282 6.397 81.193 7.159 L 83.281 5.576 C 84.026 5.005 85.095 5.145 85.667 5.891 Z M 25.085 55.611 L 25.085 41.94 L 32.128 41.94 C 33.437 41.94 34.431 42.048 35.119 42.28 C 35.806 42.504 36.37 42.918 36.784 43.523 C 37.207 44.136 37.422 44.873 37.422 45.743 C 37.422 46.497 37.256 47.16 36.933 47.707 C 36.61 48.262 36.163 48.709 35.599 49.049 C 35.243 49.264 34.746 49.447 34.116 49.587 C 34.622 49.761 34.986 49.919 35.21 50.093 C 35.367 50.209 35.591 50.449 35.881 50.814 C 36.171 51.178 36.37 51.468 36.469 51.667 L 38.524 55.619 L 33.752 55.619 L 31.498 51.452 C 31.208 50.913 30.959 50.557 30.736 50.399 C 30.429 50.192 30.081 50.085 29.7 50.085 L 29.327 50.085 L 29.327 55.619 L 25.085 55.619 L 25.085 55.611 Z M 39.982 79.414 L 32.095 79.414 L 30.959 83.126 L 23.851 83.126 L 32.327 60.599 L 39.949 60.599 L 48.392 83.126 L 41.101 83.126 L 39.982 79.414 Z M 38.507 74.534 L 36.047 66.431 L 33.578 74.534 L 38.507 74.534 Z M 50.032 60.599 L 61.615 60.599 C 64.142 60.599 66.031 61.195 67.282 62.396 C 68.533 63.598 69.163 65.313 69.163 67.525 C 69.163 69.803 68.475 71.585 67.108 72.869 C 65.741 74.153 63.645 74.791 60.836 74.791 L 57.017 74.791 L 57.017 83.126 L 50.032 83.126 L 50.032 60.599 Z M 57.017 70.226 L 58.732 70.226 C 60.082 70.226 61.035 69.994 61.582 69.522 C 62.129 69.058 62.402 68.453 62.402 67.732 C 62.402 67.028 62.162 66.423 61.689 65.934 C 61.217 65.445 60.322 65.197 59.013 65.197 L 57.017 65.197 L 57.017 70.226 Z M 71.98 60.599 L 78.964 60.599 L 78.964 83.126 L 71.98 83.126 L 71.98 60.599 Z M 29.327 47.491 L 31.109 47.491 C 31.299 47.491 31.672 47.425 32.227 47.301 C 32.509 47.243 32.741 47.102 32.915 46.87 C 33.097 46.638 33.18 46.373 33.18 46.075 C 33.18 45.635 33.039 45.287 32.757 45.055 C 32.476 44.815 31.954 44.699 31.183 44.699 L 29.327 44.699 L 29.327 47.491 Z M 39.336 41.94 L 50.645 41.94 L 50.645 44.857 L 43.578 44.857 L 43.578 47.036 L 50.132 47.036 L 50.132 49.819 L 43.578 49.819 L 43.578 52.512 L 50.852 52.512 L 50.852 55.603 L 39.336 55.603 L 39.336 41.94 Z M 51.855 51.087 L 55.865 50.839 C 55.948 51.493 56.13 51.982 56.395 52.322 C 56.834 52.868 57.456 53.15 58.259 53.15 C 58.856 53.15 59.328 53.009 59.651 52.728 C 59.974 52.446 60.14 52.114 60.14 51.742 C 60.14 51.385 59.983 51.071 59.676 50.789 C 59.37 50.507 58.649 50.25 57.514 49.993 C 55.666 49.579 54.349 49.024 53.553 48.336 C 52.758 47.649 52.36 46.771 52.36 45.702 C 52.36 44.997 52.567 44.335 52.973 43.713 C 53.379 43.092 53.992 42.595 54.813 42.238 C 55.633 41.882 56.751 41.708 58.176 41.708 C 59.925 41.708 61.25 42.031 62.17 42.686 C 63.081 43.34 63.628 44.368 63.802 45.793 L 59.834 46.033 C 59.726 45.412 59.502 44.956 59.171 44.683 C 58.831 44.401 58.359 44.26 57.771 44.26 C 57.282 44.26 56.909 44.368 56.66 44.575 C 56.412 44.782 56.287 45.039 56.287 45.337 C 56.287 45.553 56.395 45.743 56.594 45.925 C 56.793 46.099 57.257 46.273 58.002 46.431 C 59.85 46.829 61.176 47.234 61.971 47.64 C 62.767 48.046 63.355 48.552 63.711 49.157 C 64.076 49.753 64.258 50.433 64.258 51.178 C 64.258 52.056 64.018 52.86 63.529 53.598 C 63.048 54.335 62.369 54.898 61.499 55.279 C 60.629 55.661 59.535 55.851 58.21 55.851 C 55.89 55.851 54.274 55.404 53.379 54.509 C 52.485 53.598 51.979 52.462 51.855 51.087 Z M 64.871 41.94 L 77.721 41.94 L 77.721 45.321 L 73.413 45.321 L 73.413 55.611 L 69.188 55.611 L 69.188 45.321 L 64.871 45.321 L 64.871 41.94 Z M 50.653 9.495 C 49.137 9.379 47.605 9.396 46.088 9.545 C 41.424 9.992 36.892 11.691 33.147 14.599 C 28.814 17.954 25.524 22.975 24.257 29.628 L 23.859 31.708 L 21.788 32.072 C 19.758 32.429 17.943 32.918 16.353 33.539 C 14.812 34.136 13.436 34.873 12.235 35.743 C 11.274 36.439 10.445 37.218 9.741 38.063 C 7.562 40.673 6.551 43.945 6.576 47.259 C 6.601 50.623 7.694 54.02 9.716 56.812 C 10.47 57.848 11.34 58.801 12.334 59.629 C 13.345 60.466 14.48 61.162 15.756 61.684 C 16.477 61.982 17.247 62.231 18.051 62.43 L 18.051 68.635 C 16.394 68.337 14.87 67.89 13.444 67.301 C 11.564 66.523 9.898 65.52 8.432 64.294 C 7.04 63.134 5.822 61.817 4.786 60.383 C 2.027 56.572 0.536 51.916 0.503 47.276 C 0.47 42.586 1.928 37.922 5.076 34.144 C 6.095 32.918 7.297 31.791 8.672 30.797 C 10.271 29.637 12.102 28.659 14.174 27.855 C 15.599 27.3 17.123 26.836 18.73 26.463 C 20.553 19.222 24.439 13.646 29.435 9.777 C 34.108 6.156 39.734 4.043 45.525 3.488 C 48.566 3.198 51.648 3.331 54.664 3.894 C 54.597 4.168 54.539 4.441 54.506 4.723 L 54.498 4.773 C 54.44 5.245 54.415 5.717 54.44 6.198 C 53.802 6.446 53.205 6.786 52.667 7.2 L 52.642 7.217 C 51.838 7.822 51.159 8.6 50.653 9.495 Z M 94.491 25.403 C 94.955 25.825 95.402 26.265 95.841 26.737 C 96.728 27.69 97.565 28.767 98.352 29.968 C 101.003 34.044 102.362 39.488 102.304 44.815 C 102.246 50.043 100.837 55.246 97.954 59.074 C 96.073 61.568 93.662 63.606 90.771 65.222 C 88.79 66.332 86.562 67.252 84.134 67.997 L 84.134 61.576 C 85.443 61.087 86.661 60.541 87.78 59.919 C 89.959 58.701 91.74 57.218 93.074 55.437 C 95.145 52.678 96.164 48.776 96.206 44.774 C 96.255 40.573 95.228 36.356 93.231 33.29 C 92.66 32.404 92.03 31.609 91.367 30.896 C 91.11 30.623 90.853 30.366 90.588 30.117 C 90.63 29.703 90.646 29.28 90.621 28.858 C 91.259 28.609 91.856 28.27 92.395 27.855 L 92.419 27.839 C 93.273 27.184 93.985 26.356 94.491 25.403 Z M 73.479 10.605 C 77.299 11.127 79.967 14.649 79.445 18.468 C 78.923 22.288 75.402 24.964 71.582 24.442 C 67.763 23.92 65.086 20.399 65.617 16.579 C 66.147 12.76 69.66 10.083 73.479 10.605 Z" style="clip-rule: evenodd; fill-rule: evenodd;"></path></g><ellipse style="fill: rgb(255, 255, 255);" cx="119.113" cy="68.27" rx="11.033" ry="11.033"></ellipse><g transform="matrix(1, 0, 0, 1, -130.9561, -181.488342)"><rect x="242.131" y="248.843" width="15.737" height="2.314" style="stroke: rgb(0, 0, 0);"></rect><rect x="45.501" y="63.596" width="15.737" height="2.314" style="stroke: rgb(0, 0, 0);" transform="matrix(0, 1, -1, 0, 314.752991, 196.630493)"></rect></g></g>

</svg>