<svg xmlns="http://www.w3.org/2000/svg" height="64" width="64" viewBox="0 0 29.999 30">
<g transform="matrix(1, 0, 0, 1, -88.53315, -47.565804)"><path d="M 90.963 70.433 L 89.863 69.797 L 102.131 48.549 L 103.231 49.185 L 90.963 70.433 Z" style=""></path><path d="M 89.61 68.099 L 114.148 68.099 L 114.148 69.371 L 89.61 69.371 L 89.61 68.099 Z" style=""></path><path d="M 102.369 75.901 L 90.096 68.815 L 90.732 67.715 L 103.005 74.801 L 102.369 75.901 Z M 113.031 57.431 L 100.757 50.346 L 101.393 49.246 L 113.666 56.332 L 113.031 57.431 Z" style=""></path><path d="M 90.735 57.427 L 90.099 56.327 L 102.383 49.239 L 103.019 50.339 L 90.735 57.427 Z" style=""></path><path d="M 112.805 70.433 L 100.535 49.183 L 101.635 48.547 L 113.905 69.797 L 112.805 70.433 Z M 90.583 55.483 L 91.855 55.483 L 91.855 69.655 L 90.583 69.655 L 90.583 55.483 Z M 111.911 55.483 L 113.183 55.483 L 113.183 69.655 L 111.911 69.655 L 111.911 55.483 Z" style=""></path><path d="M 102.153 75.362 L 101.598 74.4 L 112.273 68.237 L 112.828 69.199 L 102.153 75.362 Z" style=""></path><path d="M 114.868 70.069 C 114.128 71.347 112.494 71.785 111.214 71.05 C 109.936 70.31 109.498 68.676 110.233 67.396 C 110.973 66.118 112.607 65.68 113.887 66.415 C 115.174 67.158 115.611 68.79 114.867 70.069 M 93.525 57.743 C 92.785 59.021 91.151 59.459 89.871 58.724 C 88.593 57.984 88.154 56.349 88.89 55.069 C 89.63 53.791 91.264 53.353 92.544 54.088 C 93.822 54.828 94.26 56.462 93.525 57.742 M 88.898 70.069 C 88.163 68.789 88.601 67.155 89.879 66.415 C 91.159 65.68 92.793 66.118 93.533 67.396 C 94.268 68.676 93.83 70.31 92.552 71.05 C 91.265 71.785 89.632 71.35 88.898 70.07 M 110.241 57.744 C 109.506 56.464 109.944 54.83 111.222 54.09 C 112.502 53.355 114.136 53.793 114.876 55.071 C 115.611 56.351 115.173 57.985 113.895 58.725 C 112.615 59.46 110.981 59.022 110.241 57.744 M 101.883 77.569 C 99.824 77.569 98.538 75.341 99.567 73.558 C 100.596 71.775 103.169 71.775 104.199 73.558 C 104.433 73.965 104.557 74.426 104.557 74.896 C 104.553 76.371 103.358 77.566 101.883 77.569 M 101.883 52.917 C 100.405 52.919 99.207 51.721 99.209 50.243 C 99.209 48.185 101.437 46.899 103.219 47.928 C 104.046 48.405 104.556 49.288 104.556 50.243 C 104.558 51.72 103.36 52.918 101.883 52.916" style=""></path><ellipse style="fill: rgb(255, 255, 255);" cx="110.051" cy="68.176" rx="11.033" ry="11.033"></ellipse><g transform="matrix(1, 0, 0, 1, -139.962341, -181.922714)"><rect x="242.131" y="248.843" width="15.737" height="2.314" style="stroke: rgb(0, 0, 0);"></rect><rect x="45.501" y="63.596" width="15.737" height="2.314" style="stroke: rgb(0, 0, 0);" transform="matrix(0, 1, -1, 0, 314.752991, 196.630493)"></rect></g></g>

</svg>