<svg width="382" height="413" viewBox="0 0 382 413" fill="none" xmlns="http://www.w3.org/2000/svg">
<rect y="0.660889" width="382" height="412" rx="10" fill="white"/>
<g filter="url(#filter0_di_785_4155)">
<path d="M0 10.6609C0 5.13804 4.47715 0.660889 10 0.660889H372C377.523 0.660889 382 5.13804 382 10.6609V52.6609H0V10.6609Z" fill="white"/>
<g filter="url(#filter1_i_785_4155)">
<path fill-rule="evenodd" clip-rule="evenodd" d="M27 32.6609C30.3137 32.6609 33 29.9746 33 26.6609C33 23.3472 30.3137 20.6609 27 20.6609C23.6863 20.6609 21 23.3472 21 26.6609C21 29.9746 23.6863 32.6609 27 32.6609Z" fill="#EE6A5F"/>
</g>
<path d="M32.75 26.6609C32.75 29.8365 30.1756 32.4109 27 32.4109C23.8244 32.4109 21.25 29.8365 21.25 26.6609C21.25 23.4853 23.8244 20.9109 27 20.9109C30.1756 20.9109 32.75 23.4853 32.75 26.6609Z" stroke="#CE5347" stroke-width="0.5"/>
<g filter="url(#filter2_i_785_4155)">
<path fill-rule="evenodd" clip-rule="evenodd" d="M47 32.6609C50.3137 32.6609 53 29.9746 53 26.6609C53 23.3472 50.3137 20.6609 47 20.6609C43.6863 20.6609 41 23.3472 41 26.6609C41 29.9746 43.6863 32.6609 47 32.6609Z" fill="#F5BD4F"/>
</g>
<path d="M52.75 26.6609C52.75 29.8365 50.1756 32.4109 47 32.4109C43.8244 32.4109 41.25 29.8365 41.25 26.6609C41.25 23.4853 43.8244 20.9109 47 20.9109C50.1756 20.9109 52.75 23.4853 52.75 26.6609Z" stroke="#D6A243" stroke-width="0.5"/>
<g filter="url(#filter3_i_785_4155)">
<path fill-rule="evenodd" clip-rule="evenodd" d="M67 32.6609C70.3137 32.6609 73 29.9746 73 26.6609C73 23.3472 70.3137 20.6609 67 20.6609C63.6863 20.6609 61 23.3472 61 26.6609C61 29.9746 63.6863 32.6609 67 32.6609Z" fill="#61C454"/>
</g>
<path d="M72.75 26.6609C72.75 29.8365 70.1756 32.4109 67 32.4109C63.8244 32.4109 61.25 29.8365 61.25 26.6609C61.25 23.4853 63.8244 20.9109 67 20.9109C70.1756 20.9109 72.75 23.4853 72.75 26.6609Z" stroke="#58A942" stroke-width="0.5"/>
<rect x="89" y="12.6609" width="272" height="28" rx="6" fill="black" fill-opacity="0.05"/>
<g clip-path="url(#clip0_785_4155)">
<path d="M174.711 32.3767H180.289C181.045 32.3767 181.414 32.0017 181.414 31.1814V26.8806C181.414 26.1423 181.109 25.7615 180.482 25.697V24.2205C180.482 22.0115 179.035 20.9451 177.5 20.9451C175.965 20.9451 174.518 22.0115 174.518 24.2205V25.7263C173.943 25.8142 173.586 26.1892 173.586 26.8806V31.1814C173.586 32.0017 173.955 32.3767 174.711 32.3767ZM175.461 24.0974C175.461 22.6267 176.404 21.8474 177.5 21.8474C178.596 21.8474 179.539 22.6267 179.539 24.0974V25.6912L175.461 25.697V24.0974Z" fill="#9E9E9E"/>
<path d="M190.321 31.7815C191.242 31.7815 191.959 31.3816 192.391 30.6516H192.492V31.6609H193.597V26.9763C193.597 25.5544 192.664 24.6975 190.994 24.6975C189.534 24.6975 188.493 25.4211 188.315 26.4939L188.309 26.532H189.414L189.42 26.5129C189.598 25.9797 190.137 25.675 190.956 25.675C191.978 25.675 192.492 26.1321 192.492 26.9763V27.5984L190.531 27.719C188.938 27.8142 188.036 28.5188 188.036 29.7375V29.7502C188.036 30.9944 189.02 31.7815 190.321 31.7815ZM189.166 29.7249V29.7122C189.166 29.033 189.623 28.6648 190.664 28.6013L192.492 28.4871V29.1091C192.492 30.0867 191.673 30.823 190.55 30.823C189.756 30.823 189.166 30.4167 189.166 29.7249ZM195.563 33.946H196.668V30.5818H196.769C197.144 31.3118 197.963 31.7815 198.902 31.7815C200.641 31.7815 201.771 30.3914 201.771 28.2458V28.2332C201.771 26.1003 200.635 24.6975 198.902 24.6975C197.95 24.6975 197.188 25.1482 196.769 25.9099H196.668V24.8181H195.563V33.946ZM198.648 30.804C197.404 30.804 196.642 29.8264 196.642 28.2458V28.2332C196.642 26.6526 197.404 25.675 198.648 25.675C199.899 25.675 200.641 26.6399 200.641 28.2332V28.2458C200.641 29.8391 199.899 30.804 198.648 30.804ZM203.446 33.946H204.55V30.5818H204.652C205.026 31.3118 205.845 31.7815 206.785 31.7815C208.524 31.7815 209.654 30.3914 209.654 28.2458V28.2332C209.654 26.1003 208.518 24.6975 206.785 24.6975C205.833 24.6975 205.071 25.1482 204.652 25.9099H204.55V24.8181H203.446V33.946ZM206.531 30.804C205.287 30.804 204.525 29.8264 204.525 28.2458V28.2332C204.525 26.6526 205.287 25.675 206.531 25.675C207.781 25.675 208.524 26.6399 208.524 28.2332V28.2458C208.524 29.8391 207.781 30.804 206.531 30.804ZM212.103 31.7244C212.56 31.7244 212.928 31.3499 212.928 30.8992C212.928 30.4421 212.56 30.074 212.103 30.074C211.652 30.074 211.278 30.4421 211.278 30.8992C211.278 31.3499 211.652 31.7244 212.103 31.7244ZM217.554 31.7815C219.198 31.7815 220.119 30.8992 220.398 29.6614L220.411 29.5916L219.319 29.5979L219.306 29.636C219.052 30.3977 218.468 30.804 217.548 30.804C216.329 30.804 215.542 29.7947 215.542 28.2205V28.2078C215.542 26.6653 216.316 25.675 217.548 25.675C218.532 25.675 219.141 26.2209 219.313 26.8938L219.319 26.9128H220.417L220.411 26.8748C220.208 25.656 219.211 24.6975 217.548 24.6975C215.631 24.6975 214.412 26.0813 214.412 28.2078V28.2205C214.412 30.3914 215.637 31.7815 217.554 31.7815ZM224.789 31.7815C226.738 31.7815 227.944 30.4358 227.944 28.2458V28.2332C227.944 26.0369 226.738 24.6975 224.789 24.6975C222.841 24.6975 221.635 26.0369 221.635 28.2332V28.2458C221.635 30.4358 222.841 31.7815 224.789 31.7815ZM224.789 30.804C223.494 30.804 222.764 29.8582 222.764 28.2458V28.2332C222.764 26.6145 223.494 25.675 224.789 25.675C226.084 25.675 226.814 26.6145 226.814 28.2332V28.2458C226.814 29.8582 226.084 30.804 224.789 30.804ZM232.132 31.7815C233.084 31.7815 233.846 31.3308 234.265 30.5691H234.367V31.6609H235.471V22.1013H234.367V25.8972H234.265C233.891 25.1672 233.072 24.6975 232.132 24.6975C230.393 24.6975 229.263 26.0876 229.263 28.2332V28.2458C229.263 30.3787 230.399 31.7815 232.132 31.7815ZM232.386 30.804C231.136 30.804 230.393 29.8391 230.393 28.2458V28.2332C230.393 26.6399 231.136 25.675 232.386 25.675C233.63 25.675 234.392 26.6526 234.392 28.2332V28.2458C234.392 29.8264 233.63 30.804 232.386 30.804ZM240.332 31.7815C241.945 31.7815 242.922 30.8674 243.157 29.9407L243.17 29.8899H242.065L242.04 29.947C241.856 30.3596 241.284 30.7976 240.358 30.7976C239.139 30.7976 238.358 29.9724 238.326 28.5569H243.252V28.1252C243.252 26.0813 242.122 24.6975 240.262 24.6975C238.403 24.6975 237.197 26.1448 237.197 28.2585V28.2649C237.197 30.4104 238.377 31.7815 240.332 31.7815ZM240.256 25.6814C241.265 25.6814 242.014 26.3225 242.129 27.6746H238.345C238.466 26.3733 239.24 25.6814 240.256 25.6814ZM244.978 31.6609H246.082V22.1013H244.978V31.6609ZM250.029 31.7815C250.949 31.7815 251.667 31.3816 252.098 30.6516H252.2V31.6609H253.304V26.9763C253.304 25.5544 252.371 24.6975 250.702 24.6975C249.242 24.6975 248.201 25.4211 248.023 26.4939L248.017 26.532H249.121L249.128 26.5129C249.305 25.9797 249.845 25.675 250.664 25.675C251.686 25.675 252.2 26.1321 252.2 26.9763V27.5984L250.239 27.719C248.645 27.8142 247.744 28.5188 247.744 29.7375V29.7502C247.744 30.9944 248.728 31.7815 250.029 31.7815ZM248.874 29.7249V29.7122C248.874 29.033 249.331 28.6648 250.372 28.6013L252.2 28.4871V29.1091C252.2 30.0867 251.381 30.823 250.258 30.823C249.464 30.823 248.874 30.4167 248.874 29.7249ZM258.673 31.7815C260.406 31.7815 261.543 30.3787 261.543 28.2458V28.2332C261.543 26.0876 260.413 24.6975 258.673 24.6975C257.734 24.6975 256.915 25.1672 256.541 25.8972H256.439V22.1013H255.334V31.6609H256.439V30.5691H256.541C256.959 31.3308 257.721 31.7815 258.673 31.7815ZM258.419 30.804C257.175 30.804 256.414 29.8264 256.414 28.2458V28.2332C256.414 26.6526 257.175 25.675 258.419 25.675C259.67 25.675 260.413 26.6399 260.413 28.2332V28.2458C260.413 29.8391 259.67 30.804 258.419 30.804ZM263.979 31.7244C264.436 31.7244 264.804 31.3499 264.804 30.8992C264.804 30.4421 264.436 30.074 263.979 30.074C263.528 30.074 263.154 30.4421 263.154 30.8992C263.154 31.3499 263.528 31.7244 263.979 31.7244ZM268.764 31.7815C269.684 31.7815 270.401 31.3816 270.833 30.6516H270.935V31.6609H272.039V26.9763C272.039 25.5544 271.106 24.6975 269.437 24.6975C267.977 24.6975 266.936 25.4211 266.758 26.4939L266.751 26.532H267.856L267.862 26.5129C268.04 25.9797 268.58 25.675 269.398 25.675C270.42 25.675 270.935 26.1321 270.935 26.9763V27.5984L268.973 27.719C267.38 27.8142 266.479 28.5188 266.479 29.7375V29.7502C266.479 30.9944 267.462 31.7815 268.764 31.7815ZM267.608 29.7249V29.7122C267.608 29.033 268.065 28.6648 269.106 28.6013L270.935 28.4871V29.1091C270.935 30.0867 270.116 30.823 268.992 30.823C268.199 30.823 267.608 30.4167 267.608 29.7249ZM274.59 23.4978C275.009 23.4978 275.351 23.155 275.351 22.7361C275.351 22.3171 275.009 21.9744 274.59 21.9744C274.171 21.9744 273.828 22.3171 273.828 22.7361C273.828 23.155 274.171 23.4978 274.59 23.4978ZM274.031 31.6609H275.136V24.8181H274.031V31.6609Z" fill="#4C4C4C"/>
</g>
<path d="M349.283 26.2761C349.43 26.2761 349.541 26.2292 349.623 26.1414L352.037 23.7156C352.143 23.616 352.184 23.4988 352.184 23.364C352.184 23.2351 352.131 23.1062 352.037 23.0125L349.623 20.5632C349.541 20.4695 349.424 20.4226 349.283 20.4226C349.02 20.4226 348.82 20.6335 348.82 20.9031C348.82 21.0261 348.867 21.1433 348.949 21.2371L350.514 22.7722C350.18 22.7136 349.84 22.6785 349.5 22.6785C346.629 22.6785 344.32 24.9812 344.32 27.8523C344.32 30.7292 346.629 33.0378 349.5 33.0378C352.371 33.0378 354.674 30.7292 354.674 27.8523C354.674 27.571 354.475 27.366 354.188 27.366C353.912 27.366 353.73 27.571 353.73 27.8523C353.73 30.2078 351.85 32.0945 349.5 32.0945C347.15 32.0945 345.264 30.2078 345.264 27.8523C345.264 25.5027 347.15 23.6218 349.5 23.6218C349.945 23.6218 350.355 23.657 350.707 23.7332L348.955 25.4734C348.867 25.5671 348.82 25.6843 348.82 25.8074C348.82 26.0769 349.02 26.2761 349.283 26.2761Z" fill="#797979"/>
</g>
<defs>
<filter id="filter0_di_785_4155" x="0" y="0.660889" width="382" height="52.5" filterUnits="userSpaceOnUse" color-interpolation-filters="sRGB">
<feFlood flood-opacity="0" result="BackgroundImageFix"/>
<feColorMatrix in="SourceAlpha" type="matrix" values="0 0 0 0 0 0 0 0 0 0 0 0 0 0 0 0 0 0 127 0" result="hardAlpha"/>
<feOffset dy="0.5"/>
<feColorMatrix type="matrix" values="0 0 0 0 0 0 0 0 0 0 0 0 0 0 0 0 0 0 0.15 0"/>
<feBlend mode="normal" in2="BackgroundImageFix" result="effect1_dropShadow_785_4155"/>
<feBlend mode="normal" in="SourceGraphic" in2="effect1_dropShadow_785_4155" result="shape"/>
<feColorMatrix in="SourceAlpha" type="matrix" values="0 0 0 0 0 0 0 0 0 0 0 0 0 0 0 0 0 0 127 0" result="hardAlpha"/>
<feOffset dy="-0.5"/>
<feComposite in2="hardAlpha" operator="arithmetic" k2="-1" k3="1"/>
<feColorMatrix type="matrix" values="0 0 0 0 0 0 0 0 0 0 0 0 0 0 0 0 0 0 0.05 0"/>
<feBlend mode="normal" in2="shape" result="effect2_innerShadow_785_4155"/>
</filter>
<filter id="filter1_i_785_4155" x="21" y="20.6609" width="12" height="12" filterUnits="userSpaceOnUse" color-interpolation-filters="sRGB">
<feFlood flood-opacity="0" result="BackgroundImageFix"/>
<feBlend mode="normal" in="SourceGraphic" in2="BackgroundImageFix" result="shape"/>
<feColorMatrix in="SourceAlpha" type="matrix" values="0 0 0 0 0 0 0 0 0 0 0 0 0 0 0 0 0 0 127 0" result="hardAlpha"/>
<feOffset/>
<feGaussianBlur stdDeviation="3"/>
<feComposite in2="hardAlpha" operator="arithmetic" k2="-1" k3="1"/>
<feColorMatrix type="matrix" values="0 0 0 0 0.92549 0 0 0 0 0.427451 0 0 0 0 0.384314 0 0 0 1 0"/>
<feBlend mode="normal" in2="shape" result="effect1_innerShadow_785_4155"/>
</filter>
<filter id="filter2_i_785_4155" x="41" y="20.6609" width="12" height="12" filterUnits="userSpaceOnUse" color-interpolation-filters="sRGB">
<feFlood flood-opacity="0" result="BackgroundImageFix"/>
<feBlend mode="normal" in="SourceGraphic" in2="BackgroundImageFix" result="shape"/>
<feColorMatrix in="SourceAlpha" type="matrix" values="0 0 0 0 0 0 0 0 0 0 0 0 0 0 0 0 0 0 127 0" result="hardAlpha"/>
<feOffset/>
<feGaussianBlur stdDeviation="3"/>
<feComposite in2="hardAlpha" operator="arithmetic" k2="-1" k3="1"/>
<feColorMatrix type="matrix" values="0 0 0 0 0.960784 0 0 0 0 0.768627 0 0 0 0 0.317647 0 0 0 1 0"/>
<feBlend mode="normal" in2="shape" result="effect1_innerShadow_785_4155"/>
</filter>
<filter id="filter3_i_785_4155" x="61" y="20.6609" width="12" height="12" filterUnits="userSpaceOnUse" color-interpolation-filters="sRGB">
<feFlood flood-opacity="0" result="BackgroundImageFix"/>
<feBlend mode="normal" in="SourceGraphic" in2="BackgroundImageFix" result="shape"/>
<feColorMatrix in="SourceAlpha" type="matrix" values="0 0 0 0 0 0 0 0 0 0 0 0 0 0 0 0 0 0 127 0" result="hardAlpha"/>
<feOffset/>
<feGaussianBlur stdDeviation="3"/>
<feComposite in2="hardAlpha" operator="arithmetic" k2="-1" k3="1"/>
<feColorMatrix type="matrix" values="0 0 0 0 0.407843 0 0 0 0 0.8 0 0 0 0 0.345098 0 0 0 1 0"/>
<feBlend mode="normal" in2="shape" result="effect1_innerShadow_785_4155"/>
</filter>
<clipPath id="clip0_785_4155">
<rect x="173.586" y="18.6609" width="102.828" height="16" fill="white"/>
</clipPath>
</defs>
</svg>
