<svg width="162" height="36" viewBox="0 0 162 36" fill="none" xmlns="http://www.w3.org/2000/svg">
<path d="M64.9645 20.8089L62.1652 13.2631C62.051 12.9545 61.6144 12.9545 61.5 13.2631L58.7012 20.8094C58.6813 20.863 58.6747 20.9207 58.6819 20.9774C58.6892 21.0342 58.71 21.0883 58.7427 21.1353C58.7754 21.1822 58.8189 21.2206 58.8696 21.2471C58.9203 21.2735 58.9767 21.2874 59.0339 21.2873H64.6317C64.689 21.2873 64.7453 21.2735 64.796 21.247C64.8467 21.2205 64.8903 21.1821 64.9229 21.1351C64.9556 21.0882 64.9764 21.034 64.9836 20.9772C64.9908 20.9205 64.9842 20.8628 64.9642 20.8092L64.9645 20.8089ZM66.2576 25.0503H57.4083C57.3359 25.0503 57.2652 25.0725 57.2058 25.1138C57.1464 25.1552 57.101 25.2137 57.0758 25.2816L55.3336 29.9768C55.3084 30.0446 55.2631 30.1032 55.2036 30.1445C55.1442 30.1859 55.0735 30.208 55.0011 30.208H51.1656C51.1076 30.208 51.0505 30.1938 50.9993 30.1666C50.9481 30.1394 50.9043 30.1001 50.8718 30.0521C50.8393 30.004 50.8191 29.9488 50.8129 29.8911C50.8068 29.8335 50.8148 29.7752 50.8364 29.7214L59.667 7.72301C59.6934 7.6573 59.7389 7.60101 59.7976 7.56139C59.8563 7.52178 59.9256 7.50064 59.9964 7.50071H63.669C63.8137 7.50071 63.944 7.58868 63.9982 7.72301L72.8286 29.7211C72.8502 29.775 72.8584 29.8333 72.8522 29.891C72.8461 29.9487 72.8259 30.0041 72.7934 30.0522C72.7609 30.1002 72.7171 30.1396 72.6658 30.1668C72.6146 30.1941 72.5574 30.2083 72.4994 30.2083H68.6645C68.5921 30.2082 68.5214 30.186 68.462 30.1447C68.4025 30.1033 68.3572 30.0447 68.332 29.9768L66.5896 25.2816C66.5644 25.2137 66.519 25.1552 66.4596 25.1138C66.4002 25.0725 66.3295 25.0503 66.2571 25.0503H66.2576ZM74.6256 15.221H77.9061C78.0002 15.221 78.0904 15.2584 78.157 15.3249C78.2235 15.3914 78.2609 15.4817 78.2609 15.5757V29.8533C78.2609 29.9474 78.2235 30.0376 78.157 30.1041C78.0904 30.1707 78.0002 30.208 77.9061 30.208H74.6256C74.5315 30.208 74.4413 30.1707 74.3748 30.1041C74.3083 30.0376 74.2709 29.9474 74.2709 29.8533V15.5755C74.2709 15.4814 74.3083 15.3912 74.3748 15.3247C74.4413 15.2581 74.5315 15.2208 74.6256 15.2208V15.221ZM90.2251 18.694C90.2251 18.7881 90.1878 18.8783 90.1212 18.9449C90.0547 19.0114 89.9645 19.0488 89.8704 19.0488H89.7711C88.149 19.0488 86.9593 19.438 86.2025 20.2165C85.4453 20.995 85.0674 22.282 85.0674 24.0769V29.8533C85.0674 29.9474 85.03 30.0376 84.9635 30.1041C84.897 30.1707 84.8067 30.208 84.7127 30.208H81.4643C81.3702 30.208 81.28 30.1707 81.2135 30.1041C81.1469 30.0376 81.1096 29.9474 81.1096 29.8533V15.5755C81.1096 15.4814 81.1469 15.3912 81.2135 15.3247C81.28 15.2581 81.3702 15.2208 81.4643 15.2208H84.68C84.7741 15.2208 84.8643 15.2581 84.9309 15.3247C84.9974 15.3912 85.0348 15.4814 85.0348 15.5755V18.3996H85.0998C85.489 17.2318 86.1053 16.3349 86.9491 15.7072C87.7922 15.0803 88.8303 14.7665 90.0629 14.7665H90.2251V18.6938V18.694ZM99.195 18.5621C99.1009 18.5621 99.0107 18.5995 98.9442 18.666C98.8777 18.7325 98.8403 18.8227 98.8403 18.9168V24.8554C98.8403 25.4611 98.9585 25.8936 99.1969 26.153C99.4346 26.4124 99.8456 26.5423 100.429 26.5423H100.756C100.85 26.5423 100.94 26.5797 101.007 26.6462C101.073 26.7127 101.111 26.8029 101.111 26.897V29.8855C101.111 29.9796 101.073 30.0698 101.007 30.1363C100.94 30.2028 100.85 30.2402 100.756 30.2402H99.3589C97.91 30.2402 96.7963 29.8673 96.0178 29.1212C95.2391 28.375 94.8498 27.2671 94.8498 25.7962V18.9168C94.8498 18.8227 94.8125 18.7325 94.7459 18.666C94.6794 18.5995 94.5892 18.5621 94.4951 18.5621H92.4474C92.3533 18.5621 92.2631 18.5247 92.1966 18.4582C92.13 18.3917 92.0927 18.3014 92.0927 18.2074V15.5755C92.0927 15.4814 92.13 15.3912 92.1966 15.3247C92.2631 15.2581 92.3533 15.2208 92.4474 15.2208H94.4953C94.5894 15.2208 94.6797 15.1834 94.7462 15.1169C94.8127 15.0504 94.8501 14.9601 94.8501 14.866V9.57421C94.8501 9.48013 94.8874 9.38991 94.954 9.32338C95.0205 9.25686 95.1107 9.21949 95.2048 9.21949H98.4853C98.5794 9.21949 98.6696 9.25686 98.7362 9.32338C98.8027 9.38991 98.8401 9.48013 98.8401 9.57421V14.866C98.8401 14.9601 98.8774 15.0504 98.944 15.1169C99.0105 15.1834 99.1007 15.2208 99.1948 15.2208H101.567C101.661 15.2208 101.751 15.2581 101.818 15.3247C101.884 15.3912 101.922 15.4814 101.922 15.5755V18.2076C101.922 18.3017 101.884 18.3919 101.818 18.4584C101.751 18.5249 101.661 18.5623 101.567 18.5623H99.195V18.5621ZM114.217 25.7638C114.963 24.9853 115.336 23.9688 115.336 22.7143C115.336 21.4604 114.963 20.4436 114.217 19.665C113.471 18.8865 112.492 18.4973 111.281 18.4973C110.07 18.4973 109.091 18.8865 108.345 19.665C107.599 20.4436 107.226 21.4604 107.226 22.7143C107.226 23.9688 107.599 24.9853 108.345 25.7638C109.091 26.5423 110.07 26.9315 111.281 26.9315C112.492 26.9315 113.471 26.5423 114.217 25.7638ZM106.642 29.7538C105.539 29.1268 104.668 28.2128 104.031 27.0126C103.393 25.8125 103.074 24.3799 103.074 22.7143C103.074 21.0494 103.393 19.6163 104.031 18.4162C104.668 17.216 105.539 16.3027 106.642 15.6751C107.745 15.0479 108.956 14.7343 110.275 14.7343C111.443 14.7343 112.443 14.9614 113.276 15.4154C114.108 15.8695 114.773 16.5077 115.271 17.3295H115.336V15.5755C115.336 15.4814 115.373 15.3912 115.44 15.3247C115.506 15.2581 115.597 15.2208 115.691 15.2208H118.939C119.033 15.2208 119.123 15.2581 119.19 15.3247C119.256 15.3912 119.293 15.4814 119.293 15.5755V29.8531C119.293 29.9472 119.256 30.0374 119.19 30.1039C119.123 30.1704 119.033 30.2078 118.939 30.2078H115.691C115.597 30.2078 115.506 30.1704 115.44 30.1039C115.373 30.0374 115.336 29.9472 115.336 29.8531V28.0993H115.271C114.773 28.9216 114.108 29.5591 113.276 30.0132C112.443 30.4672 111.443 30.6943 110.275 30.6943C108.956 30.6943 107.745 30.3807 106.642 29.7538ZM132.802 25.7638C133.548 24.9853 133.921 23.9688 133.921 22.7143C133.921 21.4604 133.548 20.4436 132.802 19.665C132.056 18.8865 131.077 18.4973 129.866 18.4973C128.655 18.4973 127.677 18.8865 126.931 19.665C126.185 20.4436 125.811 21.4604 125.811 22.7143C125.811 23.9688 126.185 24.9853 126.931 25.7638C127.677 26.5423 128.655 26.9315 129.866 26.9315C131.077 26.9315 132.056 26.5423 132.802 25.7638ZM127.871 30.0132C127.039 29.5591 126.374 28.9216 125.876 28.0993H125.811V29.8531C125.811 29.9472 125.774 30.0374 125.708 30.1039C125.641 30.1704 125.551 30.2078 125.457 30.2078H122.176C122.082 30.2078 121.992 30.1704 121.925 30.1039C121.859 30.0374 121.821 29.9472 121.821 29.8531V7.85473C121.821 7.76065 121.859 7.67042 121.925 7.6039C121.992 7.53737 122.082 7.5 122.176 7.5H125.457C125.551 7.5 125.641 7.53737 125.708 7.6039C125.774 7.67042 125.811 7.76065 125.811 7.85473V17.3293H125.876C126.374 16.5075 127.039 15.8695 127.871 15.4154C128.704 14.9611 129.704 14.7341 130.872 14.7341C132.191 14.7341 133.402 15.0477 134.505 15.6748C135.608 16.3025 136.479 17.2158 137.117 18.4157C137.754 19.6166 138.074 21.0497 138.074 22.7145C138.074 24.3801 137.754 25.8125 137.117 27.0129C136.479 28.213 135.609 29.1271 134.506 29.7538C133.403 30.3809 132.191 30.6947 130.872 30.6947C129.704 30.6947 128.704 30.4677 127.872 30.0134L127.871 30.0132ZM143.601 30.208H140.321C140.226 30.208 140.136 30.1707 140.07 30.1041C140.003 30.0376 139.966 29.9474 139.966 29.8533V7.85544C139.966 7.76136 140.003 7.67113 140.07 7.60461C140.136 7.53808 140.226 7.50071 140.321 7.50071H143.601C143.695 7.50071 143.785 7.53808 143.852 7.60461C143.918 7.67113 143.956 7.76136 143.956 7.85544V29.8533C143.956 29.9474 143.918 30.0376 143.852 30.1041C143.785 30.1707 143.695 30.208 143.601 30.208ZM151.339 18.6921C150.795 19.1164 150.428 19.7289 150.238 20.5301C150.186 20.751 150.358 20.9629 150.585 20.9629H156.828C157.045 20.9629 157.215 20.769 157.18 20.5552C157.055 19.7972 156.73 19.193 156.205 18.7409C155.589 18.2111 154.783 17.9463 153.788 17.9463C152.793 17.9463 151.977 18.1948 151.339 18.6921ZM159.336 16.8267C160.611 18.222 161.249 20.1955 161.249 22.7469V23.1707C161.249 23.2648 161.212 23.355 161.146 23.4215C161.079 23.4881 160.989 23.5254 160.895 23.5254H150.465C150.413 23.5255 150.362 23.537 150.314 23.559C150.267 23.581 150.226 23.6129 150.192 23.6527C150.159 23.6925 150.134 23.7391 150.121 23.7892C150.107 23.8394 150.105 23.8919 150.114 23.9431C150.28 24.8909 150.7 25.6439 151.372 26.2017C152.139 26.8403 153.107 27.1588 154.275 27.1588C155.783 27.1588 157.178 26.5704 158.461 25.3934C158.618 25.2497 158.867 25.2802 158.988 25.4549L160.583 27.7441C160.633 27.8153 160.655 27.9024 160.645 27.9888C160.635 28.0752 160.594 28.1549 160.529 28.2128C159.746 28.8981 158.876 29.4763 157.941 29.9323C156.902 30.4403 155.68 30.6947 154.275 30.6947C152.653 30.6947 151.236 30.3646 150.025 29.7053C148.814 29.046 147.873 28.1161 147.203 26.9155C146.533 25.7153 146.198 24.3259 146.198 22.7469C146.198 21.1686 146.522 19.7738 147.171 18.5623C147.819 17.3515 148.728 16.4108 149.896 15.7401C151.064 15.0701 152.426 14.7346 153.983 14.7346C156.275 14.7346 158.059 15.4322 159.336 16.8267ZM78.6894 9.94266C78.6894 11.2807 77.6046 12.3655 76.2663 12.3655C74.9278 12.3655 73.8431 11.2807 73.8431 9.94242C73.8431 8.60415 74.9281 7.51939 76.2663 7.51939C77.6046 7.51939 78.6894 8.60415 78.6894 9.94242" fill="#716E76"/>
<path d="M19.1218 1.10301L3.52327 7.55741C2.65584 7.9164 2.66482 9.14872 3.53769 9.4947L19.2013 15.7062C20.5775 16.252 22.1102 16.252 23.4864 15.7062L39.1503 9.49446C40.0229 9.14872 40.0323 7.91663 39.1644 7.55765L23.5663 1.10278C22.1433 0.513918 20.5447 0.513918 19.1216 1.10278" fill="#C6C5C8"/>
<path d="M22.7337 19.098V34.6155C22.7337 35.3533 23.4779 35.8589 24.1639 35.5869L41.618 28.8121C41.8126 28.7349 41.9796 28.6011 42.0973 28.4278C42.2149 28.2546 42.2778 28.05 42.2778 27.8406V12.3234C42.2778 11.5853 41.5336 11.08 40.8475 11.3519L23.3935 18.1268C23.1988 18.204 23.0319 18.3379 22.9142 18.5111C22.7966 18.6843 22.7337 18.8889 22.7337 19.0982" fill="#A4A2A7"/>
<path d="M18.6578 19.899L13.4778 22.4001L12.9519 22.6543L2.01728 27.8936C1.32438 28.228 0.439453 27.7229 0.439453 26.9529V12.3887C0.439453 12.1101 0.58229 11.8696 0.773843 11.6887C0.852427 11.6105 0.941581 11.5436 1.03871 11.4901C1.29979 11.3333 1.67249 11.2914 1.98938 11.4168L18.5708 17.9868C19.4136 18.3212 19.4798 19.5022 18.6578 19.8993" fill="#716E76"/>
<path d="M18.6579 19.899L13.4779 22.4001L0.773895 11.6885C0.852495 11.6103 0.941647 11.5435 1.03876 11.4901C1.29984 11.3333 1.67254 11.2914 1.98943 11.4168L18.5708 17.9868C19.4137 18.3212 19.4799 19.5022 18.6579 19.8993" fill="#716E76"/>
</svg>
