<svg width="114" height="36" viewBox="0 0 114 36" fill="none" xmlns="http://www.w3.org/2000/svg">
<path d="M16.6864 13.3738C16.667 13.9577 16.7448 14.5416 16.9005 15.1061C17.0757 15.5927 17.2898 16.0599 17.5234 16.5076C17.6013 16.6439 17.6597 16.7996 17.6597 16.9553C17.6402 17.1889 17.5039 17.4224 17.2898 17.5392L16.0635 18.3568C15.9078 18.4541 15.7326 18.5319 15.5575 18.5319C15.3433 18.5125 15.1292 18.4151 14.9735 18.2594C14.7205 17.9869 14.4674 17.6755 14.2728 17.3446C14.0781 17.0137 13.8835 16.6439 13.6694 16.1962C12.1511 17.9869 10.2436 18.8823 7.94671 18.8823C6.31166 18.8823 5.00752 18.4151 4.05374 17.4808C3.09996 16.5465 2.61334 15.3008 2.61334 13.7436C2.61334 12.0891 3.19729 10.746 4.38464 9.73384C5.572 8.72166 7.14865 8.21558 9.15353 8.21558C9.8348 8.21558 10.5355 8.27397 11.2168 8.3713C11.937 8.46862 12.6767 8.62434 13.4553 8.79952V7.37859C13.4553 5.89926 13.1438 4.86763 12.5404 4.26422C11.937 3.66081 10.8664 3.36884 9.36764 3.36884C8.66691 3.36884 7.94671 3.4467 7.26544 3.62188C6.54524 3.79706 5.84451 4.01118 5.16324 4.28368C4.94912 4.38101 4.71554 4.45887 4.48197 4.53673C4.38464 4.57566 4.26785 4.59512 4.17053 4.59512C3.89802 4.59512 3.76177 4.40047 3.76177 3.99171V3.03793C3.7423 2.80436 3.8007 2.57078 3.89802 2.35667C4.05374 2.18148 4.22892 2.04523 4.44304 1.9479C5.22163 1.55861 6.03915 1.26664 6.89561 1.07199C7.88831 0.818944 8.91995 0.702155 9.93212 0.702155C12.2484 0.702155 13.9419 1.22771 15.0319 2.27881C16.1219 3.32991 16.6475 4.92602 16.6475 7.06715V13.3738H16.6864ZM8.7837 16.3324C9.46497 16.3324 10.1462 16.2156 10.7886 15.982C11.5088 15.729 12.1316 15.3008 12.6377 14.7363C12.9492 14.3859 13.1827 13.9577 13.2995 13.4905C13.4358 12.9455 13.4942 12.3616 13.4942 11.7971V10.9796C12.9102 10.8433 12.3068 10.7265 11.7034 10.6487C11.1 10.5708 10.4771 10.5319 9.87373 10.5319C8.56958 10.5319 7.61581 10.7849 6.97347 11.3105C6.33113 11.836 6.01969 12.5757 6.01969 13.5489C6.01969 14.4638 6.25327 15.1451 6.73989 15.6122C7.22651 16.0794 7.88831 16.3324 8.7837 16.3324ZM24.414 18.4346C24.1609 18.4541 23.8884 18.3957 23.6743 18.24C23.4796 18.0259 23.3239 17.7728 23.2655 17.4808L18.6913 2.43453C18.594 2.18148 18.5356 1.92844 18.5161 1.65593C18.4966 1.42235 18.6524 1.20824 18.8859 1.16931H20.9103C21.2801 1.16931 21.5332 1.22771 21.6694 1.36396C21.8057 1.50021 21.9419 1.75326 22.0587 2.12309L25.3093 15.0088L28.3459 2.12309C28.4432 1.73379 28.56 1.48075 28.7157 1.36396C28.9493 1.22771 29.2218 1.14985 29.4943 1.16931H31.0515C31.4213 1.16931 31.6743 1.22771 31.8301 1.36396C32.0247 1.57807 32.161 1.83112 32.1999 2.12309L35.2753 15.1645L38.6428 2.12309C38.7012 1.83112 38.8374 1.57807 39.0321 1.36396C39.2656 1.22771 39.5187 1.14985 39.7912 1.16931H41.6014C41.835 1.13038 42.0491 1.30556 42.088 1.53914V1.65593C42.088 1.75326 42.0686 1.87004 42.0491 1.96737C42.0102 2.14255 41.9712 2.29827 41.9129 2.45399L37.2218 17.5003C37.105 17.8896 36.9688 18.1426 36.8131 18.2594C36.599 18.3957 36.3264 18.4735 36.0734 18.4541H34.3994C34.0296 18.4541 33.7765 18.3957 33.6208 18.2594C33.4262 18.0453 33.2899 17.7728 33.251 17.4808L30.2339 4.92602L27.2364 17.4614C27.1974 17.7533 27.0612 18.0259 26.8665 18.24C26.633 18.3957 26.3604 18.4541 26.0879 18.4346H24.414ZM49.4263 18.9602C48.4141 18.9602 47.4019 18.8434 46.4287 18.6098C45.4555 18.3762 44.6963 18.1232 44.1902 17.8312C43.9372 17.7144 43.7231 17.5198 43.5868 17.2862C43.509 17.111 43.47 16.9358 43.47 16.7412V15.7485C43.47 15.3397 43.6258 15.1451 43.9177 15.1451C44.0345 15.1451 44.1513 15.1645 44.2681 15.2035C44.3849 15.2424 44.5601 15.3202 44.7547 15.3981C45.436 15.7095 46.1562 15.9237 46.8959 16.0794C47.655 16.2351 48.4336 16.3129 49.2122 16.3129C50.4385 16.3129 51.3922 16.0988 52.054 15.6706C52.6964 15.2813 53.0857 14.5806 53.0662 13.8214C53.0857 13.3154 52.891 12.8287 52.5407 12.4589C52.1903 12.0891 51.5285 11.7582 50.5747 11.4467L47.7523 10.5708C46.3314 10.1231 45.2803 9.46133 44.6379 8.58541C44.0151 7.76789 43.6647 6.79465 43.6647 5.76301C43.6452 5.00388 43.8204 4.26422 44.1902 3.60241C44.5406 2.97954 45.0078 2.43453 45.5917 2.0063C46.1951 1.53914 46.8764 1.20824 47.6161 0.994128C48.4141 0.76055 49.2316 0.643761 50.0686 0.663225C50.4968 0.663225 50.9445 0.68269 51.3728 0.741085C51.8205 0.799479 52.2292 0.877339 52.638 0.955198C53.0467 1.03306 53.3971 1.14985 53.7475 1.26664C54.0394 1.36396 54.312 1.48075 54.565 1.617C54.7986 1.73379 54.9932 1.88951 55.1489 2.10362C55.2852 2.29827 55.3436 2.51238 55.3241 2.74596V3.66081C55.3241 4.06957 55.1684 4.28368 54.8764 4.28368C54.6234 4.24475 54.3703 4.16689 54.1368 4.05011C52.9689 3.52456 51.6842 3.27151 50.3995 3.29098C49.29 3.29098 48.4141 3.46616 47.8107 3.83599C47.2073 4.20582 46.8959 4.7703 46.8959 5.56836C46.8764 6.09391 47.0905 6.6 47.4798 6.95037C47.8691 7.3202 48.5893 7.69003 49.6209 8.02093L52.3849 8.89685C53.7864 9.34454 54.7986 9.96741 55.402 10.7655C56.0054 11.5441 56.3168 12.5173 56.2974 13.4905C56.3168 14.2691 56.1417 15.0477 55.7913 15.7485C55.4409 16.4103 54.9543 16.9942 54.3703 17.4614C53.728 17.9675 52.9883 18.3373 52.2098 18.5514C51.3144 18.8239 50.3801 18.9602 49.4263 18.9602Z" fill="#716E76"/>
<path d="M53.1051 28.4201C46.7012 33.1501 37.397 35.6611 29.397 35.6611C18.1852 35.6611 8.08297 31.515 0.452756 24.6245C-0.150653 24.0795 0.394362 23.3398 1.11456 23.768C9.36765 28.5564 19.5478 31.4566 30.0782 31.4566C37.6695 31.4177 45.1829 29.88 52.1708 26.9408C53.2414 26.4542 54.1562 27.6415 53.1051 28.4201Z" fill="#716E76"/>
<path d="M55.7719 25.3832C54.9543 24.3321 50.3606 24.8771 48.2779 25.1302C47.655 25.208 47.5577 24.663 48.1222 24.2543C51.7816 21.6849 57.7962 22.4246 58.4969 23.281C59.1977 24.1375 58.3023 30.1716 54.8765 33.0524C54.3509 33.5001 53.8448 33.2665 54.0784 32.6825C54.857 30.7555 56.5894 26.4149 55.7719 25.3832Z" fill="#716E76"/>
<path d="M89.8547 22.5414C90.0494 22.9307 90.3414 23.2616 90.6917 23.5146C91.0616 23.7676 91.4703 23.9623 91.918 24.0596C92.3852 24.1764 92.8718 24.2348 93.3584 24.2348C93.7282 24.2348 94.0786 24.1959 94.4485 24.1569C94.8183 24.0985 95.1881 24.0012 95.5385 23.826C95.8694 23.6703 96.1614 23.4367 96.3755 23.1642C96.609 22.8528 96.7258 22.483 96.7064 22.0937C96.7258 21.6654 96.5507 21.2567 96.2587 20.9647C95.9278 20.6533 95.519 20.4197 95.0908 20.2445C94.5652 20.0304 94.0202 19.8747 93.4557 19.7384C92.8523 19.6022 92.2295 19.427 91.6066 19.2518C90.9642 19.0961 90.3414 18.9014 89.7185 18.6679C89.1345 18.4537 88.5701 18.1423 88.0834 17.753C87.5968 17.3832 87.2075 16.916 86.9156 16.371C86.6041 15.7481 86.4484 15.0669 86.4679 14.3661C86.4484 13.5681 86.643 12.77 87.0518 12.0693C87.4216 11.4269 87.9277 10.8625 88.5311 10.4342C89.154 9.98654 89.8547 9.6751 90.5944 9.46099C91.3535 9.24688 92.1321 9.14955 92.9107 9.14955C93.7866 9.14955 94.6431 9.24688 95.4995 9.44153C96.2976 9.61671 97.0373 9.94761 97.6991 10.4148C98.3414 10.8625 98.867 11.4464 99.2368 12.1277C99.6261 12.9063 99.8207 13.7822 99.8013 14.6581H96.1419C96.1224 14.2104 96.0056 13.7822 95.811 13.3929C95.6358 13.062 95.3828 12.7895 95.0713 12.5948C94.7404 12.4002 94.3901 12.2639 94.0202 12.1861C93.592 12.1082 93.1638 12.0693 92.7355 12.0693C92.4241 12.0693 92.1127 12.1082 91.8207 12.1666C91.5287 12.225 91.2367 12.3418 90.9837 12.4975C90.7307 12.6532 90.536 12.8673 90.3803 13.1009C90.2051 13.3734 90.1273 13.6849 90.1467 14.0158C90.1273 14.3077 90.2051 14.5802 90.3414 14.8333C90.536 15.1058 90.7891 15.3004 91.1005 15.4172C91.6066 15.6313 92.1321 15.8065 92.6577 15.9428C93.3195 16.118 94.1954 16.3515 95.266 16.6241C95.5774 16.6824 96.0251 16.7992 96.609 16.9744C97.2125 17.1496 97.7769 17.4221 98.3025 17.7725C98.8864 18.1618 99.3925 18.6484 99.7624 19.2323C100.171 19.8552 100.385 20.6338 100.385 21.607C100.385 22.3662 100.23 23.1058 99.9181 23.8066C99.6066 24.4878 99.1395 25.0913 98.5555 25.5584C97.8937 26.084 97.1346 26.4733 96.3171 26.7068C95.3049 26.9988 94.2733 27.1351 93.2222 27.1156C92.2878 27.1156 91.373 26.9988 90.4582 26.7652C89.6017 26.5511 88.8036 26.1813 88.1029 25.6557C87.4216 25.1497 86.8572 24.5073 86.4679 23.7482C86.0396 22.8917 85.845 21.9574 85.8839 21.0036H89.5433C89.5238 21.5681 89.6406 22.0742 89.8547 22.5414ZM107.607 16.7214C108.015 16.7019 108.405 16.6046 108.775 16.4489C109.125 16.3126 109.436 16.079 109.67 15.7871C109.923 15.4562 110.04 15.0474 110.02 14.6386C110.02 13.9184 109.787 13.354 109.3 12.9841C108.833 12.5948 108.249 12.4002 107.646 12.4002C106.77 12.4002 106.127 12.6922 105.68 13.2566C105.213 13.8795 104.998 14.6386 105.037 15.4172H101.787C101.806 14.5997 101.962 13.8016 102.254 13.0425C102.526 12.3613 102.916 11.7189 103.441 11.1934C103.967 10.6678 104.57 10.259 105.251 10.006C106.011 9.71403 106.809 9.57778 107.607 9.57778C108.288 9.57778 108.969 9.6751 109.631 9.86975C110.293 10.0644 110.896 10.3758 111.441 10.7651C111.967 11.1544 112.415 11.6605 112.745 12.225C113.096 12.8284 113.271 13.5291 113.251 14.2299C113.271 14.989 113.057 15.7481 112.668 16.3905C112.259 17.0328 111.636 17.4805 110.896 17.6752V17.7335C111.753 17.9087 112.531 18.3759 113.076 19.0766C113.621 19.7968 113.894 20.6727 113.874 21.5487C113.894 22.3662 113.719 23.1837 113.368 23.9039C113.037 24.5852 112.57 25.1691 111.986 25.6363C111.383 26.1034 110.721 26.4733 109.981 26.6874C109.222 26.921 108.424 27.0572 107.626 27.0572C106.75 27.0767 105.874 26.921 105.037 26.6484C104.298 26.3954 103.616 25.9866 103.052 25.4611C102.487 24.9161 102.059 24.2737 101.787 23.5341C101.475 22.6971 101.339 21.8212 101.358 20.9258H104.609C104.629 21.354 104.687 21.8017 104.823 22.2105C104.94 22.5998 105.135 22.9501 105.388 23.281C105.641 23.573 105.933 23.826 106.283 23.9818C106.692 24.1764 107.12 24.2543 107.568 24.2543C108.288 24.2737 108.989 24.0207 109.514 23.5535C110.04 23.0864 110.312 22.4246 110.312 21.607C110.312 20.9647 110.196 20.4781 109.942 20.1472C109.709 19.8163 109.378 19.5632 108.989 19.4075C108.58 19.2518 108.152 19.1739 107.723 19.1545C107.256 19.135 106.828 19.1156 106.419 19.1156V16.7214C106.809 16.7603 107.217 16.7603 107.607 16.7214ZM73.2707 1.03271H74.6332V35.2908H73.2707V1.03271Z" fill="#716E76"/>
</svg>
