<svg width="34" height="46" viewBox="0 0 34 46" fill="none" xmlns="http://www.w3.org/2000/svg">
<path d="M22.4949 16.9146L17.9321 21.1051L13.6966 12.6749L15.8846 7.82763C16.4376 6.86073 17.3421 6.84796 17.8951 7.82763L22.4949 16.9146Z" fill="#C6C5C8"/>
<path d="M17.9339 21.1037L0.86647 36.762L13.6985 12.6753L17.9339 21.1037Z" fill="#716E76"/>
<path d="M27.4979 10.5065C28.3153 9.73843 29.1569 9.99749 29.3696 11.0884L33.8066 36.5507L19.0899 45.2656C18.5739 45.5502 17.2052 45.6614 17.2052 45.6614C17.2052 45.6614 15.9605 45.5118 15.4833 45.2528L0.86647 36.7623L27.4979 10.5065Z" fill="#A4A2A7"/>
<path d="M13.6985 12.6753L0.866455 36.762L6.5852 1.55596C6.79975 0.46501 7.42674 0.353726 7.99269 1.32062L13.6985 12.6753Z" fill="#716E76"/>
</svg>
