<svg width="204" height="36" viewBox="0 0 204 36" fill="none" xmlns="http://www.w3.org/2000/svg">
<path d="M25.5101 33.6772C25.5097 34.2032 25.3008 34.7075 24.9293 35.0794C24.5579 35.4513 24.0542 35.6604 23.5288 35.6608H2.38826C1.86292 35.6608 1.35905 35.4521 0.987279 35.0805C0.61551 34.7089 0.406233 34.2048 0.405396 33.6788V2.70002C0.405189 2.43926 0.456335 2.18102 0.55591 1.94008C0.655484 1.69913 0.801533 1.48021 0.985701 1.29582C1.16987 1.11144 1.38854 0.965223 1.62921 0.865532C1.86987 0.765842 2.12781 0.714637 2.38826 0.714844H15.9557L25.5101 10.47V33.6772Z" fill="#716E76"/>
<path d="M17.0071 10.2158L25.5101 18.3525V10.4133H17.9781C17.6492 10.4171 17.325 10.3354 17.0371 10.1763L17.0071 10.2158Z" fill="#716E76"/>
<path opacity="0.4" d="M25.5101 10.4542H17.9575C17.4322 10.4538 16.9285 10.2447 16.557 9.87279C16.1855 9.50088 15.9767 8.9966 15.9762 8.47064V0.661133L25.5101 10.4542Z" fill="#C6C5C8"/>
<path fill-rule="evenodd" clip-rule="evenodd" d="M19.4652 29.2189H6.40137V17.8784H19.4652V29.2189ZM13.7455 19.5143V21.4995H17.8597V19.5174L13.7455 19.5143ZM13.7455 22.7497V24.6463H17.8597V22.7402L13.7455 22.7497ZM13.7455 25.8554V27.6114H17.8597V25.846L13.7455 25.8554ZM12.1305 27.602V25.846H8.01797V27.602H12.1305ZM12.1305 24.6258V22.7402H8.01797V24.6353L12.1305 24.6258ZM12.1305 21.52V19.5143H8.01797V21.4995L12.1305 21.52Z" fill="white"/>
<path d="M70.2098 18.1975C70.2098 15.7097 68.3375 14.009 66.1636 14.009C63.9897 14.009 62.1158 15.7097 62.1158 18.1975C62.1158 20.66 63.9897 22.3859 66.1636 22.3859C68.3375 22.3859 70.2098 20.6568 70.2098 18.1975ZM73.361 18.1975C73.361 22.1773 70.1293 25.1108 66.162 25.1108C62.1963 25.1108 58.9647 22.1773 58.9647 18.1975C58.9647 14.1892 62.1963 11.2841 66.1636 11.2841C70.1293 11.2841 73.361 14.1892 73.361 18.1975ZM85.7365 18.1975C85.7365 15.7097 83.8641 14.009 81.6902 14.009C79.5164 14.009 77.644 15.7097 77.644 18.1975C77.644 20.66 79.5164 22.3859 81.6902 22.3859C83.8641 22.3859 85.7365 20.6568 85.7365 18.1975ZM88.8876 18.1975C88.8876 22.1773 85.656 25.1108 81.6902 25.1108C77.7245 25.1108 74.4913 22.1773 74.4913 18.1975C74.4913 14.1924 77.7245 11.2841 81.6902 11.2841C85.656 11.2841 88.8892 14.1892 88.8892 18.1975H88.8876ZM101.001 18.2212C101.001 15.7871 99.315 14.0074 97.1711 14.0074C94.9956 14.0074 93.1754 15.7871 93.1754 18.2212C93.1754 20.6315 94.9956 22.3859 97.1695 22.3859C99.315 22.3859 101.001 20.6315 101.001 18.2228V18.2212ZM103.77 11.7014V24.1135C103.77 29.2187 100.644 31.305 96.9501 31.305C95.6074 31.3269 94.2881 30.9521 93.157 30.2274C92.026 29.5026 91.1335 28.4602 90.591 27.2303L93.3333 26.1303C93.8227 27.2556 95.0193 28.5833 96.9485 28.5833C99.3119 28.5833 100.777 27.1766 100.777 24.5307V23.535H100.666C99.9623 24.3743 98.603 25.1076 96.8885 25.1076C93.3017 25.1076 90.0148 22.0967 90.0148 18.2228C90.0148 14.3188 93.3017 11.2841 96.8885 11.2841C98.5998 11.2841 99.9591 12.0159 100.668 12.8299H100.778V11.7046H103.77V11.7014ZM108.704 4.42297H105.63V24.6856H108.702L108.704 4.42297ZM113.151 17.9825L119.564 15.4173C119.212 14.5527 118.149 13.9521 116.902 13.9521C115.299 13.9521 113.07 15.3145 113.151 17.9825ZM120.68 20.4687L123.125 22.0398C122.452 22.9984 121.556 23.7784 120.514 24.3124C119.473 24.8464 118.317 25.1183 117.147 25.1045C113.07 25.1045 110.027 22.0698 110.027 18.1911C110.027 14.0801 113.097 11.2778 116.795 11.2778C120.517 11.2778 122.339 14.1323 122.936 15.6749L123.261 16.4604L113.669 20.2885C114.403 21.6763 115.546 22.3828 117.147 22.3828C118.752 22.3828 119.864 21.6241 120.68 20.4703V20.4687ZM47.3311 16.3956V13.4621H57.5896C57.6891 13.9727 57.7412 14.578 57.7412 15.2324C57.7412 17.4325 57.1176 20.1542 55.1047 22.0919C53.1471 24.0566 50.6464 25.1045 47.3343 25.1045C41.1931 25.1045 36.0307 20.2838 36.0307 14.3694C36.0307 8.45496 41.1931 3.63428 47.3343 3.63428C50.7317 3.63428 53.1502 4.91768 54.9689 6.59148L52.8219 8.66201C51.5179 7.48292 49.7513 6.56778 47.3311 6.56778C42.8476 6.56778 39.3412 10.0482 39.3412 14.3694C39.3412 18.6906 42.8476 22.171 47.3311 22.171C50.2391 22.171 51.8952 21.0456 52.9561 20.023C53.818 19.1932 54.3832 18.0094 54.6074 16.3925L47.3311 16.3956ZM141.703 20.4292C141.703 22.0303 141.116 23.3169 139.943 24.2873C138.751 25.242 137.307 25.7193 135.605 25.7193C134.089 25.7193 132.755 25.2768 131.598 24.3901C130.441 23.505 129.641 22.2943 129.199 20.7611L131.445 19.8428C131.598 20.3865 131.81 20.8812 132.083 21.3238C132.354 21.7664 132.67 22.1504 133.027 22.4744C133.401 22.7811 133.81 23.0276 134.252 23.2141C134.694 23.3848 135.161 23.4702 135.655 23.4702C136.727 23.4702 137.604 23.1983 138.284 22.653C138.964 22.0904 139.305 21.3491 139.305 20.4292C139.305 19.6626 139.024 19.0067 138.462 18.463C137.935 17.9351 136.948 17.423 135.502 16.9299C134.039 16.402 133.129 16.0448 132.771 15.8551C130.832 14.8688 129.862 13.4116 129.862 11.4865C129.862 10.1414 130.398 8.99234 131.47 8.03769C132.56 7.08462 133.895 6.60729 135.477 6.60729C136.873 6.60729 138.08 6.9645 139.1 7.68049C140.122 8.37909 140.802 9.25629 141.143 10.3121L138.949 11.232C138.742 10.5472 138.309 9.95278 137.722 9.54553C137.127 9.08559 136.396 8.85483 135.528 8.85483C134.609 8.85483 133.835 9.11088 133.207 9.6214C132.575 10.0987 132.26 10.7199 132.26 11.4865C132.26 12.1187 132.507 12.6624 133.002 13.1223C133.546 13.5807 134.729 14.1275 136.549 14.7582C138.402 15.3872 139.722 16.1633 140.504 17.0816C141.304 17.9857 141.703 19.1015 141.703 20.4292ZM144.122 7.01507H146.47V12.7904L146.367 14.529H146.47C146.826 13.9142 147.371 13.4037 148.104 12.9959C148.813 12.5968 149.612 12.3852 150.426 12.381C151.956 12.381 153.13 12.8236 153.946 13.7087C154.78 14.578 155.197 15.8219 155.197 17.4388V25.3099H152.849V17.9003C152.849 15.6512 151.855 14.5274 149.864 14.5274C148.91 14.5274 148.104 14.9273 147.439 15.7287C146.796 16.5025 146.452 17.4818 146.47 18.4883V25.3099H144.122V7.01507ZM163.569 25.7193C161.731 25.7193 160.217 25.0871 159.025 23.8274C157.835 22.5677 157.24 20.9745 157.24 19.0494C157.24 17.1417 157.817 15.5579 158.975 14.2982C160.132 13.0196 161.611 12.381 163.416 12.381C165.269 12.381 166.742 12.9864 167.83 14.1955C168.936 15.3872 169.489 17.0658 169.489 19.228L169.464 19.484H159.638C159.672 20.7105 160.08 21.6984 160.863 22.4476C161.646 23.1968 162.582 23.5729 163.67 23.5729C165.168 23.5729 166.341 22.8237 167.192 21.3238L169.285 22.3464C168.749 23.3754 167.936 24.2337 166.938 24.8247C165.949 25.4206 164.827 25.7193 163.569 25.7193ZM159.816 17.5431H166.988C166.963 17.1314 166.856 16.729 166.672 16.3602C166.487 15.9913 166.23 15.6635 165.916 15.3967C165.286 14.8167 164.435 14.5274 163.363 14.5274C162.479 14.5274 161.714 14.7993 161.066 15.3446C160.438 15.8899 160.021 16.6232 159.816 17.5415V17.5431ZM177.376 25.7193C175.538 25.7193 174.023 25.0871 172.833 23.8274C171.642 22.5677 171.045 20.9745 171.045 19.0494C171.045 17.1417 171.625 15.5579 172.782 14.2982C173.939 13.0196 175.419 12.381 177.223 12.381C179.076 12.381 180.548 12.9864 181.637 14.1955C182.744 15.3872 183.296 17.0658 183.296 19.228L183.271 19.484H173.445C173.48 20.7105 173.887 21.6984 174.67 22.4476C175.453 23.1968 176.388 23.5729 177.477 23.5729C178.975 23.5729 180.148 22.8237 180.999 21.3238L183.093 22.3464C182.556 23.3758 181.742 24.2342 180.744 24.8247C179.757 25.4206 178.634 25.7193 177.376 25.7193ZM173.624 17.5431H180.796C180.771 17.1314 180.663 16.729 180.479 16.3602C180.295 15.9913 180.038 15.6635 179.724 15.3967C179.094 14.8167 178.243 14.5274 177.171 14.5274C176.287 14.5274 175.521 14.7993 174.874 15.3446C174.246 15.8899 173.827 16.6232 173.624 17.5415V17.5431ZM190.02 25.5138C189 25.5138 188.149 25.1977 187.469 24.5687C186.804 23.938 186.465 23.0608 186.447 21.937V14.9352H184.253V12.7904H186.447V8.95757H188.795V12.7904H191.858V14.9368H188.795V21.1705C188.795 22.005 188.958 22.5772 189.281 22.8822C189.603 23.1715 189.97 23.3169 190.378 23.3169C190.565 23.3169 190.743 23.3011 190.914 23.2663C191.101 23.2141 191.27 23.1557 191.424 23.0877L192.164 25.1819C191.551 25.4032 190.838 25.5138 190.02 25.5138ZM203.911 21.8343C203.911 22.9249 203.434 23.8448 202.482 24.594C201.529 25.3431 200.329 25.7193 198.883 25.7193C197.625 25.7193 196.518 25.3953 195.566 24.7473C194.634 24.1099 193.921 23.1996 193.525 22.1409L195.617 21.2479C195.923 21.9971 196.365 22.5851 196.944 23.0102C197.539 23.4196 198.185 23.6235 198.883 23.6235C199.633 23.6235 200.253 23.4623 200.746 23.1383C201.257 22.8143 201.512 22.4318 201.512 21.9876C201.512 21.1879 200.899 20.5999 199.674 20.2253L197.532 19.6879C195.097 19.0763 193.882 17.9003 193.882 16.1633C193.882 15.0221 194.341 14.1102 195.26 13.4289C196.196 12.7303 197.386 12.381 198.832 12.381C199.938 12.381 200.934 12.645 201.818 13.1729C202.721 13.7008 203.349 14.4089 203.707 15.294L201.614 16.1633C201.373 15.6326 200.959 15.2 200.44 14.9368C199.896 14.626 199.28 14.4671 198.654 14.4769C198.042 14.4769 197.489 14.6302 196.995 14.9352C196.518 15.2434 196.28 15.618 196.28 16.0606C196.28 16.7766 196.952 17.2871 198.297 17.5937L200.185 18.0789C202.669 18.6922 203.911 19.944 203.911 21.8343Z" fill="#716E76"/>
</svg>
