<svg width="122" height="36" viewBox="0 0 122 36" fill="none" xmlns="http://www.w3.org/2000/svg">
<path d="M0.911163 7.18652H5.12876V16.5374H14.0239V7.18652H18.247V30.1401H14.0239V20.5928H5.12876V30.1401H0.911163V7.18652ZM31.6083 22.6638C31.6083 24.5853 30.0395 26.1489 28.1145 26.1489C26.1888 26.1489 24.6211 24.5853 24.6211 22.6638V12.7815H20.6213V22.6638C20.6213 26.7866 23.9829 30.1401 28.1145 30.1401C32.2452 30.1401 35.6066 26.7866 35.6066 22.6638V12.7815H31.6083V22.6638ZM46.7724 12.8972C44.7884 12.8972 43.4034 13.4718 42.066 14.7819V7.18652H38.0532V21.2629C38.0532 26.5318 41.8706 30.1401 46.1593 30.1401C50.9272 30.1401 55.1046 26.4674 55.1046 21.5189C55.1046 16.6332 51.2525 12.8972 46.7724 12.8972ZM46.8721 26.4356C44.1531 26.4356 42.0738 24.1694 42.0738 21.5189C42.0738 18.868 44.1531 16.6011 46.8721 16.6011C49.1761 16.6011 51.2565 18.868 51.2565 21.5189C51.2565 24.1694 49.1761 26.4356 46.8721 26.4356ZM61.8442 13.9061C61.8442 11.8931 63.1882 11.2549 64.6596 11.2549C65.8442 11.2549 67.4117 12.1489 68.4347 13.2348L71.0578 10.1697C69.7469 8.41368 67.0916 7.19996 64.9157 7.19996C60.5637 7.19996 57.4279 9.72265 57.4279 13.9061C57.4279 21.6651 66.9955 19.2056 66.9955 23.5493C66.9955 24.8889 65.684 26.0715 64.181 26.0715C61.8123 26.0715 61.044 24.9219 59.9565 23.7082L57.0442 26.7093C58.9012 28.9766 61.2042 30.1267 63.9563 30.1267C68.0836 30.1267 71.4115 27.5722 71.4115 23.5802C71.4115 14.9592 61.8442 17.6418 61.8442 13.9061ZM81.9753 12.6723C77.6871 12.6723 73.8692 16.2786 73.8692 21.5486V35.6613H77.8818V28.0298C79.2194 29.339 80.6036 29.9145 82.5884 29.9145C87.0682 29.9145 90.9208 26.1791 90.9208 21.2933C90.9208 16.3441 86.7422 12.6723 81.9753 12.6723ZM82.6883 26.2111C79.9695 26.2111 77.89 23.9419 77.89 21.2933C77.89 18.6423 79.9695 16.3755 82.6883 16.3755C84.9918 16.3755 87.0725 18.6423 87.0725 21.2933C87.0725 23.9419 84.9918 26.2111 82.6883 26.2111ZM120.457 26.4356C118.091 26.4356 117.419 25.4142 117.419 23.849V16.9203H121.098V13.4084H117.419V8.77794L113.356 10.5976V24.7112C113.356 28.3198 115.851 30.1401 119.273 30.1401C119.785 30.1401 120.49 30.1071 120.874 30.0126L121.866 26.3728C121.419 26.4037 120.907 26.4356 120.457 26.4356Z" fill="#716E76"/>
<path d="M109.875 17.1244C109.106 15.8036 108.024 14.7448 106.671 13.9477C105.66 13.3604 104.612 12.9876 103.431 12.8276V8.63094C104.612 8.13041 105.345 7.02255 105.345 5.73008C105.345 3.96845 103.93 2.54089 102.166 2.54089C100.4 2.54089 98.96 3.96845 98.96 5.73008C98.96 7.02255 99.6508 8.13041 100.832 8.63094V12.8294C99.8871 12.9657 98.9071 13.2597 98.0122 13.7114C96.1843 12.3261 90.1905 7.78124 86.6843 5.12676C86.7675 4.82757 86.8315 4.51919 86.8315 4.19384C86.8315 2.24265 85.2481 0.661133 83.2922 0.661133C81.3362 0.661133 79.7536 2.24265 79.7536 4.19384C79.7536 6.14479 81.3379 7.72678 83.2938 7.72678C83.961 7.72678 84.5781 7.53203 85.1106 7.21187L85.8506 7.77204L96.018 15.0826C95.4805 15.5752 94.9799 16.1353 94.5794 16.7639C93.7679 18.0453 93.272 19.4551 93.272 20.993V21.3139C93.272 22.3935 93.4775 23.4127 93.8276 24.3701C94.136 25.2062 94.5867 25.9663 95.145 26.6535L91.7706 30.0292C91.2816 29.8476 90.7505 29.8103 90.2408 29.9218C89.7311 30.0334 89.2643 30.289 88.8963 30.6582C88.6416 30.9112 88.4396 31.2122 88.3022 31.5436C88.1648 31.8751 88.0947 32.2305 88.0959 32.5891C88.0961 33.3184 88.3808 34.0037 88.8977 34.5194C89.1511 34.7738 89.4526 34.9756 89.7846 35.1129C90.1167 35.2503 90.4727 35.3205 90.8322 35.3195C91.1917 35.3205 91.5479 35.2502 91.8801 35.1129C92.2122 34.9755 92.5138 34.7738 92.7673 34.5194C93.022 34.2664 93.2238 33.9655 93.3613 33.6342C93.4988 33.3029 93.5691 32.9477 93.5682 32.5891C93.5682 32.3069 93.5245 32.0316 93.4423 31.7699L96.9301 28.2888C97.4083 28.6184 97.9248 28.8959 98.4799 29.1352C99.575 29.6077 100.784 29.8955 102.106 29.8955H102.349C103.811 29.8955 105.191 29.5527 106.488 28.8516C107.854 28.1106 108.924 27.0972 109.732 25.8036C110.544 24.5064 110.991 23.0732 110.991 21.4964V21.4177C110.991 19.8666 110.631 18.4355 109.875 17.1244ZM105.614 24.4267C104.667 25.4766 103.579 26.1233 102.349 26.1233H102.146C101.444 26.1233 100.756 25.9295 100.083 25.577C99.325 25.189 98.7486 24.6354 98.2768 23.9344C97.7891 23.2465 97.5245 22.4953 97.5245 21.6989V21.457C97.5245 20.6741 97.675 19.9316 98.0545 19.2305C98.4601 18.464 99.008 17.868 99.7366 17.3941C100.452 16.9235 101.216 16.6927 102.067 16.6927H102.146C102.918 16.6927 103.648 16.8445 104.338 17.1965C105.04 17.5719 105.614 18.0846 106.059 18.7592C106.491 19.4339 106.748 20.1617 106.831 20.9546C106.844 21.1194 106.85 21.2882 106.85 21.4495C106.85 22.5255 106.438 23.5221 105.614 24.4267Z" fill="#716E76"/>
</svg>
