<svg width="65" height="46" viewBox="0 0 65 46" fill="none" xmlns="http://www.w3.org/2000/svg">
<path d="M27.2094 5.56908C29.2785 3.40866 32.159 2.06872 35.3447 2.06872C39.5797 2.06872 43.2745 4.4352 45.2421 7.9483C46.952 7.18273 48.8446 6.75682 50.8359 6.75682C58.4741 6.75682 64.6666 13.0166 64.6666 20.7379C64.6666 28.4601 58.4741 34.7198 50.8359 34.7198C49.9211 34.7203 49.0084 34.6292 48.1117 34.4478C46.379 37.5451 43.0771 39.6378 39.2873 39.6378C37.7007 39.6378 36.2001 39.2706 34.8641 38.6176C33.1076 42.758 29.0152 45.6611 24.2457 45.6611C19.2787 45.6611 15.0456 42.5116 13.4208 38.0946C12.7107 38.2457 11.975 38.3245 11.2201 38.3245C5.30645 38.3245 0.512207 33.4707 0.512207 27.4821C0.512207 23.4689 2.66623 19.9649 5.86662 18.0902C5.20774 16.5709 4.84125 14.894 4.84125 13.131C4.84125 6.24397 10.4205 0.661133 17.302 0.661133C21.3423 0.661133 24.9329 2.5862 27.2094 5.56908Z" fill="#716E76"/>
<path d="M9.80441 23.9972C9.76421 24.1026 9.81905 24.1246 9.83183 24.1429C9.95243 24.2308 10.075 24.2941 10.1983 24.3645C10.8526 24.7125 11.4705 24.8141 12.1166 24.8141C13.4326 24.8141 14.2496 24.1126 14.2496 22.9834V22.9614C14.2496 21.9173 13.3275 21.5382 12.462 21.2644L12.3496 21.2278C11.6971 21.0153 11.1342 20.8322 11.1342 20.4017V20.3789C11.1342 20.0107 11.4632 19.7396 11.9731 19.7396C12.5397 19.7396 13.2124 19.9282 13.6455 20.1682C13.6455 20.1682 13.7725 20.2506 13.8192 20.127C13.8447 20.061 14.0641 19.4694 14.087 19.4053C14.1116 19.3357 14.0677 19.2844 14.023 19.2569C13.5286 18.9556 12.845 18.7495 12.1377 18.7495L12.0061 18.7504C10.8016 18.7504 9.96085 19.4794 9.96085 20.5244V20.5464C9.96085 21.6481 10.8884 22.0053 11.7576 22.2544L11.8974 22.2974C12.5307 22.4925 13.0763 22.6601 13.0763 23.107V23.129C13.0763 23.5375 12.7217 23.8415 12.1496 23.8415C11.9275 23.8415 11.2193 23.8369 10.4544 23.3524C10.362 23.2983 10.3081 23.259 10.2369 23.216C10.1994 23.1922 10.1053 23.1509 10.0642 23.2755L9.80441 23.9972ZM29.0698 23.9972C29.0296 24.1026 29.0845 24.1246 29.0973 24.1429C29.2179 24.2308 29.3404 24.2941 29.4637 24.3645C30.118 24.7125 30.7359 24.8141 31.382 24.8141C32.6979 24.8141 33.515 24.1126 33.515 22.9834V22.9614C33.515 21.9173 32.5929 21.5382 31.7274 21.2644L31.615 21.2278C30.9625 21.0153 30.3995 20.8322 30.3995 20.4017V20.3789C30.3995 20.0107 30.7285 19.7396 31.2384 19.7396C31.805 19.7396 32.4777 19.9282 32.9109 20.1682C32.9109 20.1682 33.0379 20.2506 33.0845 20.127C33.11 20.061 33.3294 19.4694 33.3523 19.4053C33.377 19.3357 33.3331 19.2844 33.2883 19.2569C32.7939 18.9556 32.1103 18.7495 31.403 18.7495L31.2713 18.7504C30.0668 18.7504 29.2261 19.4794 29.2261 20.5244V20.5464C29.2261 21.6481 30.1537 22.0053 31.0228 22.2544L31.1626 22.2974C31.7959 22.4925 32.3425 22.6601 32.3425 23.107V23.129C32.3425 23.5375 31.987 23.8415 31.4149 23.8415C31.1928 23.8415 30.4846 23.8369 29.7197 23.3524C29.6273 23.2983 29.5725 23.2608 29.5031 23.216C29.4793 23.2004 29.3678 23.1573 29.3294 23.2755L29.0698 23.9972ZM42.2219 21.7854C42.2219 22.4237 42.1031 22.9264 41.8691 23.2818C41.6379 23.6335 41.2879 23.8048 40.7999 23.8048C40.311 23.8048 39.9629 23.6344 39.7353 23.2818C39.5049 22.9274 39.388 22.4237 39.388 21.7854C39.388 21.148 39.5049 20.6461 39.7353 20.2944C39.9629 19.9464 40.311 19.7769 40.7999 19.7769C41.2879 19.7769 41.6379 19.9464 41.8701 20.2944C42.1031 20.646 42.2219 21.1479 42.2219 21.7854ZM43.3204 20.6021C43.2125 20.2366 43.0444 19.9143 42.8205 19.646C42.5966 19.3767 42.3133 19.1606 41.9769 19.0031C41.6415 18.8465 41.245 18.7668 40.7999 18.7668C40.3539 18.7668 39.9573 18.8465 39.6219 19.0031C39.2856 19.1606 39.0023 19.3768 38.7775 19.646C38.5545 19.9152 38.3864 20.2376 38.2776 20.6021C38.1707 20.9657 38.1168 21.3631 38.1168 21.7854C38.1168 22.2076 38.1707 22.6059 38.2776 22.9686C38.3864 23.3331 38.5536 23.6555 38.7785 23.9247C39.0023 24.194 39.2866 24.4092 39.622 24.5621C39.9582 24.7151 40.3539 24.7929 40.8 24.7929C41.245 24.7929 41.6408 24.7151 41.977 24.5621C42.3124 24.4092 42.5966 24.1939 42.8206 23.9247C43.0444 23.6564 43.2126 23.334 43.3205 22.9686C43.4283 22.605 43.4822 22.2066 43.4822 21.7854C43.4822 21.3641 43.4282 20.9657 43.3204 20.6021ZM52.341 23.6343C52.3044 23.5271 52.2012 23.5674 52.2012 23.5674C52.0413 23.6288 51.8712 23.6856 51.6903 23.714C51.5066 23.7423 51.3046 23.757 51.088 23.757C50.5562 23.757 50.134 23.5986 49.8315 23.2853C49.5281 22.9721 49.3581 22.4657 49.3599 21.7807C49.3618 21.157 49.5116 20.688 49.7812 20.3309C50.049 19.9756 50.4566 19.7933 51.0004 19.7933C51.4537 19.7933 51.7991 19.8455 52.1609 19.96C52.1609 19.96 52.2477 19.9975 52.2888 19.884C52.3848 19.6165 52.4561 19.4251 52.5584 19.1311C52.5877 19.0478 52.5164 19.0121 52.4908 19.002C52.3482 18.9461 52.0119 18.8555 51.7579 18.817C51.5203 18.7804 51.2425 18.7612 50.9336 18.7612C50.472 18.7612 50.0608 18.8399 49.709 18.9975C49.358 19.1541 49.0601 19.3702 48.8244 19.6395C48.5886 19.9087 48.4095 20.231 48.2897 20.5955C48.1709 20.9591 48.1106 21.3584 48.1106 21.7807C48.1106 22.6937 48.3565 23.4318 48.8418 23.9722C49.3279 24.5144 50.0581 24.79 51.0104 24.79C51.5734 24.79 52.151 24.6756 52.5659 24.5116C52.5659 24.5116 52.6454 24.4732 52.6106 24.3807L52.341 23.6343ZM54.263 21.1738C54.3151 20.8194 54.4129 20.5245 54.5636 20.2947C54.7912 19.9458 55.1385 19.7544 55.6265 19.7544C56.1146 19.7544 56.4372 19.9467 56.6683 20.2947C56.8219 20.5245 56.8886 20.8323 56.9151 21.1738H54.263ZM57.9614 20.3944C57.8683 20.0418 57.637 19.6856 57.4853 19.5226C57.2459 19.2643 57.012 19.0839 56.7798 18.9831C56.4764 18.8531 56.1127 18.767 55.7143 18.767C55.25 18.767 54.8287 18.8449 54.4869 19.006C54.1442 19.1672 53.8564 19.3871 53.6306 19.6609C53.4048 19.9338 53.2349 20.2589 53.127 20.628C53.0183 20.9953 52.9634 21.3955 52.9634 21.8176C52.9634 22.2472 53.0202 22.6474 53.1325 23.0073C53.2459 23.37 53.4268 23.6896 53.6717 23.9542C53.9157 24.2208 54.2301 24.4296 54.6066 24.5751C54.9804 24.7198 55.4346 24.7949 55.9564 24.794C57.0303 24.7903 57.5959 24.5504 57.829 24.4212C57.8701 24.3984 57.9094 24.3581 57.86 24.2427L57.6169 23.5603C57.5804 23.4587 57.4771 23.4962 57.4771 23.4962C57.2111 23.5952 56.8329 23.7728 55.9509 23.771C55.3743 23.7701 54.9465 23.5998 54.6787 23.3332C54.4037 23.0604 54.2693 22.6592 54.2456 22.0932L57.9641 22.0969C57.9641 22.0969 58.0619 22.0951 58.072 21.9998C58.0757 21.9596 58.2 21.2343 57.9614 20.3944ZM24.4826 21.1738C24.5356 20.8194 24.6325 20.5245 24.7833 20.2947C25.0108 19.9458 25.3581 19.7544 25.8461 19.7544C26.3341 19.7544 26.6567 19.9467 26.8888 20.2947C27.0414 20.5245 27.1081 20.8323 27.1346 21.1738H24.4826ZM28.1801 20.3944C28.0869 20.0418 27.8566 19.6856 27.7049 19.5226C27.4655 19.2643 27.2315 19.0839 26.9994 18.9831C26.696 18.8531 26.3323 18.767 25.9339 18.767C25.4705 18.767 25.0483 18.8449 24.7065 19.006C24.3638 19.1672 24.076 19.3871 23.8502 19.6609C23.6245 19.9338 23.4545 20.2589 23.3467 20.628C23.2389 20.9953 23.1831 21.3955 23.1831 21.8176C23.1831 22.2472 23.2398 22.6474 23.3522 23.0073C23.4656 23.37 23.6465 23.6896 23.8914 23.9542C24.1354 24.2208 24.4498 24.4296 24.8263 24.5751C25.2001 24.7198 25.6543 24.7949 26.1761 24.794C27.2499 24.7903 27.8156 24.5504 28.0486 24.4212C28.0898 24.3984 28.129 24.3581 28.0797 24.2427L27.8376 23.5603C27.8001 23.4587 27.6969 23.4962 27.6969 23.4962C27.4309 23.5952 27.0534 23.7728 26.1697 23.771C25.594 23.7701 25.1663 23.5998 24.8985 23.3332C24.6234 23.0604 24.4891 22.6592 24.4653 22.0932L28.1839 22.0969C28.1839 22.0969 28.2816 22.0951 28.2917 21.9998C28.2952 21.9596 28.4195 21.2343 28.1801 20.3944ZM16.4449 23.6139C16.2996 23.4975 16.2795 23.4682 16.2302 23.3931C16.157 23.2787 16.1196 23.1156 16.1196 22.9087C16.1196 22.5808 16.2274 22.3454 16.4514 22.187C16.4487 22.188 16.7712 21.9077 17.5297 21.9177C18.0625 21.9251 18.5386 22.0038 18.5386 22.0038V23.6981H18.5395C18.5395 23.6981 18.067 23.7997 17.5352 23.8318C16.7785 23.8776 16.4422 23.613 16.4449 23.6139ZM17.9245 20.9955C17.7737 20.9845 17.5781 20.9781 17.3441 20.9781C17.0252 20.9781 16.7172 21.0184 16.4284 21.0962C16.1378 21.174 15.8765 21.2959 15.6516 21.457C15.4271 21.6176 15.2426 21.8279 15.1125 22.0715C14.9809 22.317 14.9142 22.6064 14.9142 22.9306C14.9142 23.2603 14.9708 23.547 15.0841 23.7815C15.1975 24.0168 15.361 24.2128 15.5694 24.3639C15.7759 24.5151 16.0309 24.6258 16.327 24.6927C16.6185 24.7595 16.9493 24.7934 17.3112 24.7934C17.6923 24.7934 18.0725 24.7623 18.4408 24.699C18.8054 24.6367 19.2532 24.5461 19.3775 24.5178C19.4646 24.4967 19.5514 24.4744 19.6379 24.4509C19.7303 24.428 19.723 24.3291 19.723 24.3291L19.7211 20.9213C19.7211 20.174 19.5219 19.6199 19.1298 19.2765C18.7396 18.934 18.1648 18.7608 17.4218 18.7608C17.143 18.7608 16.6944 18.7993 16.4257 18.8533C16.4257 18.8533 15.6132 19.0109 15.2787 19.2728C15.2787 19.2728 15.2056 19.3186 15.2458 19.4212L15.5091 20.1301C15.542 20.2216 15.6306 20.1905 15.6306 20.1905C15.6306 20.1905 15.659 20.1795 15.6919 20.1602C16.4075 19.7701 17.3122 19.782 17.3122 19.782C17.7143 19.782 18.0232 19.8626 18.2316 20.0228C18.4344 20.1785 18.5377 20.4139 18.5377 20.9102V21.0678C18.2178 21.022 17.9245 20.9955 17.9245 20.9955ZM47.9164 19.0754C47.9446 18.9911 47.8853 18.9508 47.8606 18.9417C47.7976 18.917 47.4814 18.8501 47.2373 18.8345C46.7704 18.8061 46.5109 18.8849 46.2787 18.9893C46.0484 19.0937 45.7925 19.2622 45.6499 19.4536V19.0003C45.6499 18.9371 45.6052 18.8867 45.543 18.8867H44.5898C44.5277 18.8867 44.4829 18.937 44.4829 19.0003V24.5584C44.4829 24.6207 44.5341 24.672 44.5962 24.672H45.5732C45.6031 24.6718 45.6317 24.6598 45.6528 24.6385C45.6739 24.6172 45.6856 24.5884 45.6856 24.5584V21.7817C45.6856 21.4089 45.7267 21.0372 45.809 20.8036C45.8894 20.5728 45.9991 20.3878 46.1343 20.255C46.2705 20.1231 46.4249 20.0306 46.594 19.9784C46.7667 19.9253 46.9577 19.9079 47.093 19.9079C47.2876 19.9079 47.5015 19.9582 47.5015 19.9582C47.5727 19.9665 47.613 19.9225 47.6366 19.8575C47.7007 19.6872 47.8816 19.177 47.9164 19.0754Z" fill="white"/>
<path d="M38.7464 16.499C38.6276 16.4623 38.5198 16.4376 38.379 16.411C38.2364 16.3854 38.0664 16.3726 37.8737 16.3726C37.201 16.3726 36.6709 16.5631 36.299 16.9385C35.9289 17.3122 35.6775 17.8809 35.5514 18.6292L35.5057 18.881H34.6613C34.6613 18.881 34.559 18.8773 34.537 18.9891L34.399 19.7648C34.389 19.8381 34.421 19.8848 34.5197 19.8848H35.3413L34.5078 24.5482C34.4428 24.9237 34.3679 25.2323 34.2847 25.4667C34.2034 25.6975 34.1239 25.8706 34.0252 25.997C33.9302 26.1179 33.8406 26.2076 33.6852 26.2598C33.5573 26.3029 33.4092 26.323 33.2475 26.323C33.1579 26.323 33.0383 26.3083 32.9496 26.29C32.8618 26.2726 32.8152 26.2534 32.7485 26.2249C32.7485 26.2249 32.6526 26.1884 32.6142 26.2845C32.584 26.3642 32.3647 26.9677 32.3381 27.0419C32.3126 27.1161 32.3491 27.1738 32.3957 27.1912C32.5054 27.2297 32.5867 27.2553 32.7357 27.291C32.9422 27.3396 33.1167 27.3423 33.2803 27.3423C33.6221 27.3423 33.9346 27.2937 34.1933 27.2004C34.4529 27.106 34.6794 26.942 34.8805 26.7205C35.0971 26.4805 35.2332 26.2296 35.3631 25.8862C35.4919 25.5473 35.6026 25.126 35.6902 24.6352L36.5283 19.8848H37.7529C37.7529 19.8848 37.8561 19.8884 37.8772 19.7758L38.016 19.001C38.0252 18.9269 37.9941 18.8811 37.8945 18.8811H36.7055C36.7119 18.8546 36.7658 18.435 36.902 18.0404C36.9605 17.8728 37.0702 17.7363 37.1625 17.6429C37.254 17.5513 37.359 17.4863 37.4742 17.4487C37.5921 17.4102 37.7265 17.3919 37.8736 17.3919C37.9851 17.3919 38.0956 17.4048 38.1788 17.4221C38.2939 17.4469 38.3387 17.4597 38.3689 17.4689C38.4905 17.5055 38.5069 17.4698 38.5307 17.4113L38.8149 16.6291C38.8441 16.5447 38.7719 16.509 38.7464 16.499ZM22.1343 24.5583C22.1343 24.6206 22.0896 24.6709 22.0274 24.6709H21.0413C20.9792 24.6709 20.9353 24.6206 20.9353 24.5583V16.6052C20.9353 16.543 20.9792 16.4926 21.0413 16.4926H22.0274C22.0896 16.4926 22.1343 16.543 22.1343 16.6052V24.5583Z" fill="white"/>
</svg>
