<svg width="203" height="36" viewBox="0 0 203 36" fill="none" xmlns="http://www.w3.org/2000/svg">
<path d="M35.9303 0.661133H12.6112V12.1829H0.965332V35.2535H24.2845V23.7318H35.9303V0.661133Z" fill="white"/>
<path opacity="0.4" d="M0.965317 12.1831V23.732H12.6111V35.2537H24.2844V12.1831H0.965317Z" fill="#716E76"/>
<path d="M42.4673 30.4712L47.5487 26.5309C48.9769 28.9766 51.2566 30.3896 53.866 30.3896C56.695 30.3896 58.2057 28.569 58.2057 26.5853C58.2057 24.2212 55.2942 23.4603 52.1905 22.5092C48.2902 21.3136 43.9231 19.819 43.9231 14.3027C43.9231 9.68312 47.9881 6.01465 53.6188 6.01465C58.3705 6.01465 61.0897 7.78095 63.4518 10.1994L58.8649 13.6233C57.6564 11.857 55.9534 10.906 53.6737 10.906C51.0918 10.906 49.691 12.2918 49.691 14.1125C49.691 16.3136 52.4926 17.0744 55.5964 18.107C59.5516 19.3842 64.0286 21.0962 64.0286 26.6396C64.0286 31.232 60.3481 35.6342 53.9209 35.6342C48.6198 35.6614 45.1041 33.4331 42.4673 30.4712ZM87.128 15.4983H92.5664V17.6994C93.8573 16.069 95.8075 15.0907 98.0872 15.0907C102.784 15.0907 105.641 18.0799 105.641 23.1886V35.2266H100.092V23.9222C100.092 21.2864 98.8563 19.7375 96.4117 19.7375C94.3243 19.7375 92.6213 21.1505 92.6213 24.4657V35.2538H87.1555V15.4983H87.128ZM106.877 25.3896C106.877 18.4059 112.068 15.1179 116.572 15.1179C119.154 15.1179 121.214 16.069 122.532 17.4549V6.42226H127.998V35.2538H122.532V33.0527C121.214 34.6016 119.099 35.6614 116.517 35.6614C112.287 35.6614 106.877 32.319 106.877 25.3896ZM122.697 25.3353C122.697 22.4005 120.555 20.0364 117.588 20.0364C114.567 20.0364 112.232 22.2918 112.232 25.3353C112.232 28.3788 114.54 30.6614 117.588 30.6614C120.527 30.6614 122.697 28.2701 122.697 25.3353ZM129.289 20.8516C129.289 12.6451 135.552 6.04182 144.176 6.04182C148.488 6.04182 152.114 7.59073 154.751 10.0364C155.822 11.0418 156.728 12.1831 157.443 13.4331L152.581 16.3679C150.796 13.0799 148.021 11.3951 144.231 11.3951C138.93 11.3951 134.81 15.6886 134.81 20.8788C134.81 26.1777 138.848 30.3625 144.423 30.3625C148.653 30.3625 151.647 27.9983 152.691 24.3299H143.544V19.0309H158.679V21.232C158.679 28.9766 153.103 35.6342 144.423 35.6342C135.304 35.6614 129.289 28.8135 129.289 20.8516ZM160.052 15.4983H165.49V18.732C166.479 16.6668 168.292 15.4983 171.011 15.4983H173.208L171.203 20.7701H169.72C166.809 20.7701 165.518 22.2646 165.518 25.9331V35.2538H160.052V15.4983ZM174.609 15.4983H180.075V35.2538H174.609V20.7701H172.632L174.609 15.4983ZM177.356 12.5092C179.169 12.5092 180.624 11.069 180.624 9.27552C180.624 7.48204 179.169 6.04182 177.356 6.04182C175.543 6.04182 174.087 7.48204 174.087 9.27552C174.087 11.0418 175.543 12.5092 177.356 12.5092ZM181.366 25.3896C181.366 18.4059 186.557 15.1179 191.062 15.1179C193.643 15.1179 195.703 16.069 197.022 17.4549V6.42226H202.488V35.2538H197.022V33.0527C195.703 34.6016 193.589 35.6614 191.007 35.6614C186.749 35.6614 181.366 32.319 181.366 25.3896ZM197.187 25.3353C197.187 22.4005 195.044 20.0364 192.078 20.0364C189.057 20.0364 186.722 22.2918 186.722 25.3353C186.722 28.3788 189.029 30.6614 192.078 30.6614C195.017 30.6614 197.187 28.2701 197.187 25.3353ZM85.8371 25.3353C85.8371 19.6559 81.6347 15.1179 75.5371 15.1179C69.7966 15.1179 65.1547 19.7103 65.1547 25.3896C65.1547 31.069 69.467 35.6614 75.7019 35.6614C80.0142 35.6614 83.1179 33.5962 84.8483 30.6614L80.5086 28.107C79.6022 29.8462 77.8168 30.9331 75.7294 30.9331C72.8454 30.9331 71.0601 29.5201 70.4283 27.3462H85.8371V25.3353ZM70.6755 22.9712C71.527 21.1233 73.2574 19.8462 75.592 19.8462C77.8992 19.8462 79.6296 20.9059 80.3438 22.9712H70.6755Z" fill="#716E76"/>
<path d="M0.965317 23.7324H12.6111V35.2541H0.965317V23.7324Z" fill="#716E76"/>
<path opacity="0.4" d="M24.2844 12.1829V0.661133H12.6111V23.7318H35.9303V12.1829H24.2844Z" fill="#716E76"/>
<path d="M24.2844 0.661133H35.9303V12.1829H24.2844V0.661133Z" fill="#716E76"/>
</svg>
