<svg width="125" height="36" viewBox="0 0 125 36" fill="none" xmlns="http://www.w3.org/2000/svg">
<path d="M14.6809 1.76835C14.929 1.76835 15.053 1.89115 15.301 2.01395C13.8128 2.62796 12.3245 4.22436 11.5804 7.66278L8.85194 8.39958C9.72009 5.94357 11.4564 1.76835 14.6809 1.76835ZM16.0452 2.99636C16.2932 3.73316 16.5412 4.59277 16.5412 5.94357C16.5412 6.06637 16.5412 6.06637 16.5412 6.18917L12.9446 7.17158C13.6888 4.59277 14.929 3.48756 16.0452 2.99636ZM19.2697 5.20677L17.6574 5.69797C17.6574 5.57517 17.6574 5.45237 17.6574 5.32957C17.6574 4.22436 17.5334 3.36476 17.2854 2.62796C18.1535 2.87356 18.8976 3.97876 19.2697 5.20677ZM27.3311 7.17158C27.3311 7.04878 27.207 6.92598 27.083 6.92598C26.835 6.92598 24.2305 6.68038 24.2305 6.68038C24.2305 6.68038 22.3702 4.83837 22.1222 4.71557C21.8741 4.46996 21.5021 4.59276 21.3781 4.59276C21.3781 4.59276 21.006 4.71557 20.3859 4.96117C19.7658 3.24196 18.6496 1.64555 16.7893 1.64555H16.6653C16.1692 0.908747 15.4251 0.663146 14.8049 0.663146C10.3402 0.540345 8.23184 6.06637 7.48771 8.89079C6.49555 9.13639 5.50338 9.50479 4.38719 9.87319C3.39503 10.1188 3.39502 10.2416 3.271 11.1012C3.14698 11.7152 0.666565 31.1177 0.666565 31.1177L20.3859 34.8017L31.0517 32.4685C31.0517 32.4685 27.3311 7.41718 27.3311 7.17158Z" fill="#A4A2A7"/>
<path d="M26.959 6.92598C26.835 6.92598 24.2305 6.68038 24.2305 6.68038C24.2305 6.68038 22.3702 4.83837 22.1222 4.71557C21.9981 4.59277 21.9981 4.59277 21.8741 4.59277L20.3859 34.8017L31.0517 32.4685C31.0517 32.4685 27.331 7.41719 27.331 7.17159C27.331 7.04879 27.083 6.92598 26.959 6.92598Z" fill="#716E76"/>
<path d="M16.7893 12.8204L15.425 16.75C15.425 16.75 14.3088 16.136 12.8206 16.136C10.7122 16.136 10.5882 17.364 10.5882 17.7325C10.5882 19.4517 15.301 20.1885 15.301 24.3637C15.301 27.6793 13.1926 29.7669 10.3402 29.7669C6.9916 29.7669 5.25531 27.6793 5.25531 27.6793L6.12346 24.7321C6.12346 24.7321 7.85975 26.2057 9.348 26.2057C10.3402 26.2057 10.7122 25.4689 10.7122 24.8549C10.7122 22.5217 6.86758 22.3989 6.86758 18.5921C6.86758 15.3992 9.22398 12.3292 13.8128 12.3292C15.9211 12.2064 16.7893 12.8204 16.7893 12.8204Z" fill="#FFFFFE"/>
<path d="M43.5778 20.0652C42.4616 19.4512 41.9655 18.96 41.9655 18.346C41.9655 17.4864 42.7096 16.9952 43.9499 16.9952C45.3141 16.9952 46.5543 17.6092 46.5543 17.6092L47.5465 14.662C47.5465 14.662 46.6783 13.9252 44.0739 13.9252C40.3532 13.9252 37.8728 16.0128 37.8728 18.96C37.8728 20.6792 39.113 21.9072 40.6013 22.7668C41.8415 23.5036 42.3376 23.9948 42.3376 24.7316C42.3376 25.4684 41.7175 26.2052 40.4773 26.2052C38.741 26.2052 37.0047 25.3456 37.0047 25.3456L36.0125 28.2928C36.0125 28.2928 37.5008 29.2752 40.1052 29.2752C43.8258 29.2752 46.5543 27.4332 46.5543 24.1176C46.5543 22.2756 45.1901 20.9248 43.5778 20.0652ZM58.5843 13.8024C56.724 13.8024 55.2358 14.662 54.1196 16.0128L55.7318 7.66235H51.5151L47.4224 28.9068H51.6391L53.0034 21.6616C53.4995 18.96 54.9877 17.2408 56.3519 17.2408C57.3441 17.2408 57.7162 17.8548 57.7162 18.8372C57.7162 19.4512 57.7162 20.0652 57.5922 20.6792L55.9799 29.0296H60.1966L61.8089 20.4336C61.9329 19.574 62.0569 18.4688 62.0569 17.732C62.0569 15.276 60.8167 13.8024 58.5843 13.8024ZM69.3741 25.9596C67.8859 25.9596 67.3898 24.7316 67.3898 23.258C67.3898 20.9248 68.63 16.9952 70.8624 16.9952C72.3506 16.9952 72.8467 18.2232 72.8467 19.4512C72.8467 22.1528 71.6065 25.9596 69.3741 25.9596ZM71.4825 13.8024C66.3976 13.8024 63.0491 18.346 63.0491 23.3808C63.0491 26.5736 65.0334 29.1524 68.8781 29.1524C73.8389 29.1524 77.1875 24.7316 77.1875 19.574C77.1875 16.6268 75.4512 13.8024 71.4825 13.8024ZM83.8846 26.0824C82.7684 26.0824 82.1483 25.4684 82.1483 25.4684L82.8924 21.5388C83.3885 18.96 84.7527 17.2408 86.241 17.2408C87.4812 17.2408 87.9773 18.4688 87.9773 19.574C87.8533 22.2756 86.241 26.0824 83.8846 26.0824ZM87.9773 13.8024C85.1248 13.8024 83.5125 16.2584 83.5125 16.2584L83.7606 14.048H80.0399C79.9159 15.5216 79.5439 17.8548 79.1718 19.574L76.1953 34.8013H80.412L81.5282 28.6612H81.6522C81.6522 28.6612 82.5204 29.1524 84.1326 29.1524C89.0935 29.1524 92.318 24.1176 92.318 19.0828C92.318 16.3812 91.0778 13.8024 87.9773 13.8024ZM98.271 7.90795C96.9068 7.90795 95.9146 9.01315 95.9146 10.364C95.9146 11.592 96.6587 12.4516 97.899 12.4516C99.2632 12.4516 100.379 11.592 100.379 9.99556C100.379 8.76755 99.5112 7.90795 98.271 7.90795ZM92.442 28.9068H96.6587L99.5112 14.1708H95.2945L92.442 28.9068ZM110.177 14.1708H107.201L107.325 13.434C107.573 11.9604 108.441 10.7324 109.805 10.7324C110.549 10.7324 111.169 10.978 111.169 10.978L112.037 7.66235C112.037 7.66235 111.293 7.29395 109.805 7.29395C108.317 7.29395 106.828 7.66235 105.712 8.64475C104.224 9.87276 103.604 11.592 103.232 13.3112L103.108 14.048H101.123L100.503 17.2408H102.488L100.255 28.9068H104.472L106.704 17.2408H109.557L110.177 14.1708ZM120.223 14.1708C120.223 14.1708 117.618 20.6792 116.378 24.2404C116.254 23.1352 115.386 14.1708 115.386 14.1708H110.921L113.402 27.6788C113.402 27.9244 113.402 28.17 113.278 28.4156C112.781 29.398 111.913 30.2577 111.045 30.8717C110.301 31.4857 109.309 31.8541 108.689 32.0997L109.805 35.6609C110.673 35.5381 112.409 34.8013 113.898 33.4505C115.758 31.7313 117.618 28.9068 119.355 25.2228L124.439 14.2936L120.223 14.1708Z" fill="#716E76"/>
</svg>
