<svg width="86" height="36" viewBox="0 0 86 36" fill="none" xmlns="http://www.w3.org/2000/svg">
<mask id="mask0_162_60" style="mask-type:alpha" maskUnits="userSpaceOnUse" x="0" y="0" width="86" height="36">
<path d="M0.875854 0.661133H85.4054V35.6611H0.875854V0.661133Z" fill="white"/>
</mask>
<g mask="url(#mask0_162_60)">
<path fill-rule="evenodd" clip-rule="evenodd" d="M9.69895 16.405C7.87724 15.7324 6.87888 15.2093 6.87888 14.3872C6.87888 13.6896 7.45292 13.291 8.47617 13.291C10.3479 13.291 12.2693 14.0135 13.5921 14.6611L14.3407 10.0527C13.2926 9.55439 11.1463 8.73232 8.17671 8.73232C6.08042 8.73232 4.33339 9.2803 3.08572 10.3017C1.7879 11.3728 1.11409 12.9174 1.11409 14.7857C1.11409 18.1736 3.18548 19.6185 6.55452 20.8391C8.72567 21.6113 9.44945 22.1595 9.44945 23.0064C9.44945 23.8284 8.75056 24.3017 7.47782 24.3017C5.9056 24.3017 3.31032 23.5295 1.61327 22.5331L0.864594 27.1914C2.31197 28.0135 5.00719 28.8604 7.80237 28.8604C10.0233 28.8604 11.8701 28.3373 13.118 27.3409C14.5154 26.2447 15.2391 24.6257 15.2391 22.5331C15.2391 19.0704 13.118 17.6256 9.69895 16.405ZM27.427 13.6896L28.1757 9.10599H24.2232V3.54173L18.9091 4.41461L18.1417 9.10599L16.2727 9.40866L15.573 13.6896H18.1341V22.6826C18.1341 25.0242 18.733 26.6434 19.9558 27.6398C20.979 28.4619 22.4513 28.8604 24.5227 28.8604C26.1198 28.8604 27.0931 28.5865 27.7669 28.412V23.5543C27.3925 23.6541 26.5441 23.8284 25.9701 23.8284C24.7473 23.8284 24.2232 23.2057 24.2232 21.7858V13.6896H27.427ZM39.2965 8.83826C37.5496 8.83826 36.152 9.75374 35.6031 11.3979L35.2287 9.10599H29.8134V28.4867H36.0023V15.9067C36.7761 14.96 37.874 14.6178 39.3713 14.6178C39.6959 14.6178 40.0451 14.6178 40.4694 14.6925V8.98772C40.0451 8.88814 39.6708 8.83826 39.2965 8.83826ZM45.0863 7.18777C46.8831 7.18777 48.3305 5.71814 48.3305 3.92455C48.3305 2.10591 46.8831 0.661133 45.0863 0.661133C43.2644 0.661133 41.8171 2.10591 41.8171 3.92455C41.8171 5.71814 43.2644 7.18777 45.0863 7.18777ZM41.9668 9.10599H48.1808V28.4867H41.9668V9.10599ZM65.7902 10.8497C64.692 9.42977 63.1698 8.73232 61.2233 8.73232C59.4264 8.73232 57.8542 9.47965 56.3818 11.0491L56.0574 9.10599H50.617V35.6611L56.8061 34.6399V28.412C57.7543 28.7109 58.7275 28.8604 59.6011 28.8604C61.1484 28.8604 63.3944 28.4619 65.1412 26.5687C66.8132 24.7501 67.6618 21.9353 67.6618 18.2234C67.6618 14.9352 67.0378 12.4441 65.7902 10.8497ZM60.6492 22.807C60.15 23.7537 59.3765 24.252 58.4781 24.252C57.8542 24.252 57.3051 24.1274 56.8061 23.8783V14.6611C57.8542 13.5651 58.8024 13.4405 59.1519 13.4405C60.7241 13.4405 61.4976 15.1345 61.4976 18.4476C61.4976 20.3408 61.2232 21.8106 60.6492 22.807ZM85.4054 18.622C85.4054 15.533 84.7316 13.0917 83.4089 11.3728C82.0613 9.62912 80.0399 8.73232 77.4695 8.73232C72.2037 8.73232 68.9346 12.6185 68.9346 18.8462C68.9346 22.3338 69.8079 24.9494 71.5299 26.6184C73.0772 28.1131 75.2983 28.8604 78.1682 28.8604C80.8134 28.8604 83.2592 28.2377 84.8065 27.2163L84.1327 22.9815C82.6102 23.8036 80.8385 24.252 78.842 24.252C77.6441 24.252 76.8206 24.0028 76.2216 23.4796C75.5727 22.9316 75.1984 22.0348 75.0737 20.7644H85.3306C85.3554 20.4654 85.4054 19.0704 85.4054 18.622ZM75.0237 16.9778C75.1984 14.2127 75.947 12.9174 77.3695 12.9174C78.7671 12.9174 79.4909 14.2377 79.5907 16.9778H75.0237Z" fill="#716E76"/>
</g>
</svg>
