<svg width="181" height="36" viewBox="0 0 181 36" fill="none" xmlns="http://www.w3.org/2000/svg">
<path d="M47.3699 21.4703C47.5564 23.2218 49.1428 26.2242 53.7468 26.2242C57.7594 26.2242 59.6884 23.6596 59.6884 21.1576C59.6884 18.9057 58.1639 17.0605 55.1467 16.4349L52.969 15.9658C52.1292 15.8095 51.5693 15.3403 51.5693 14.5897C51.5693 13.714 52.4402 13.0572 53.5291 13.0572C55.2709 13.0572 55.9242 14.2144 56.0487 15.1214L59.5015 14.3395C59.315 12.6819 57.8528 9.89844 53.498 9.89844C50.2005 9.89844 47.7743 12.1815 47.7743 14.9337C47.7743 17.0917 49.1117 18.8745 52.0669 19.5312L54.089 20.0004C55.2709 20.2506 55.7377 20.8136 55.7377 21.5016C55.7377 22.3148 55.0844 23.0341 53.7156 23.0341C51.9115 23.0341 51.0092 21.9082 50.9161 20.6884L47.3699 21.4703Z" fill="#716E76"/>
<path d="M72.9098 25.7552H76.8605C76.7982 25.2235 76.7048 24.1602 76.7048 22.9717V10.3677H72.5673V19.3124C72.5673 21.0952 71.5099 22.3462 69.6747 22.3462C67.746 22.3462 66.8748 20.9701 66.8748 19.2499V10.3677H62.7376V20.0944C62.7376 23.4408 64.8528 26.1618 68.5547 26.1618C70.1719 26.1618 71.9458 25.5363 72.7856 24.0976C72.7856 24.7231 72.8476 25.4425 72.9098 25.7552Z" fill="#716E76"/>
<path d="M85.2573 31.6978V24.2543C86.0037 25.2863 87.5593 26.1308 89.6747 26.1308C93.9984 26.1308 96.8911 22.6905 96.8911 18.0304C96.8911 13.4642 94.3095 10.0239 89.8301 10.0239C87.5284 10.0239 85.8175 11.056 85.1331 12.2445V10.3679H81.1204V31.6978H85.2573ZM92.8162 18.0617C92.8162 20.814 91.1366 22.409 89.0212 22.409C86.9063 22.409 85.1953 20.7827 85.1953 18.0617C85.1953 15.3408 86.9063 13.7457 89.0212 13.7457C91.1366 13.7457 92.8162 15.3408 92.8162 18.0617Z" fill="#716E76"/>
<path d="M99.2342 21.5642C99.2342 23.9724 101.225 26.193 104.491 26.193C106.762 26.193 108.224 25.1296 109.001 23.9098C109.001 24.5041 109.064 25.3485 109.157 25.7551H112.952C112.859 25.2234 112.766 24.1287 112.766 23.3156V15.7469C112.766 12.6506 110.961 9.89844 106.109 9.89844C102.003 9.89844 99.7937 12.5568 99.5453 14.965L103.216 15.7469C103.34 14.4021 104.336 13.2449 106.139 13.2449C107.882 13.2449 108.722 14.1519 108.722 15.2465C108.722 15.7782 108.442 16.2161 107.571 16.3412L103.807 16.9041C101.256 17.2794 99.2342 18.8119 99.2342 21.5642ZM105.362 23.0967C104.025 23.0967 103.371 22.221 103.371 21.314C103.371 20.1255 104.211 19.5312 105.269 19.3749L108.722 18.8432V19.5312C108.722 22.2523 107.104 23.0967 105.362 23.0967Z" fill="#716E76"/>
<path d="M120.949 25.7553V23.8788C121.757 25.1924 123.375 26.1306 125.49 26.1306C129.846 26.1306 132.708 22.659 132.708 17.999C132.708 13.4327 130.125 9.96117 125.646 9.96117C123.375 9.96117 121.695 10.962 121.011 12.0566V3.11182H116.936V25.7553H120.949ZM128.57 18.0302C128.57 20.845 126.89 22.4088 124.775 22.4088C122.691 22.4088 120.949 20.8138 120.949 18.0302C120.949 15.2154 122.691 13.6829 124.775 13.6829C126.89 13.6829 128.57 15.2154 128.57 18.0302Z" fill="#716E76"/>
<path d="M135.05 21.5642C135.05 23.9724 137.041 26.193 140.307 26.193C142.577 26.193 144.04 25.1296 144.817 23.9098C144.817 24.5041 144.88 25.3485 144.973 25.7551H148.768C148.675 25.2234 148.582 24.1287 148.582 23.3156V15.7469C148.582 12.6506 146.777 9.89844 141.925 9.89844C137.818 9.89844 135.61 12.5568 135.361 14.965L139.031 15.7469C139.156 14.4021 140.152 13.2449 141.955 13.2449C143.698 13.2449 144.538 14.1519 144.538 15.2465C144.538 15.7782 144.258 16.2161 143.386 16.3412L139.623 16.9041C137.072 17.2794 135.05 18.8119 135.05 21.5642ZM141.178 23.0967C139.841 23.0967 139.187 22.221 139.187 21.314C139.187 20.1255 140.027 19.5312 141.085 19.3749L144.538 18.8432V19.5312C144.538 22.2523 142.92 23.0967 141.178 23.0967Z" fill="#716E76"/>
<path d="M151.445 21.4703C151.632 23.2218 153.218 26.2242 157.822 26.2242C161.835 26.2242 163.763 23.6596 163.763 21.1576C163.763 18.9057 162.239 17.0605 159.222 16.4349L157.044 15.9658C156.204 15.8095 155.645 15.3403 155.645 14.5897C155.645 13.714 156.515 13.0572 157.604 13.0572C159.347 13.0572 160 14.2144 160.125 15.1214L163.577 14.3395C163.39 12.6819 161.928 9.89844 157.573 9.89844C154.276 9.89844 151.85 12.1815 151.85 14.9337C151.85 17.0917 153.187 18.8745 156.142 19.5312L158.164 20.0004C159.347 20.2506 159.813 20.8136 159.813 21.5016C159.813 22.3148 159.16 23.0341 157.791 23.0341C155.987 23.0341 155.085 21.9082 154.992 20.6884L151.445 21.4703Z" fill="#716E76"/>
<path d="M170.047 16.3099C170.14 14.9025 171.322 13.2761 173.469 13.2761C175.833 13.2761 176.828 14.7774 176.891 16.3099H170.047ZM177.295 20.3132C176.797 21.6892 175.74 22.6588 173.811 22.6588C171.758 22.6588 170.047 21.1888 169.954 19.156H180.903C180.903 19.0934 180.965 18.4679 180.965 17.8736C180.965 12.9321 178.135 9.89844 173.406 9.89844C169.487 9.89844 165.878 13.0885 165.878 17.9988C165.878 23.1905 169.58 26.2242 173.78 26.2242C177.544 26.2242 179.97 24.0036 180.748 21.3452L177.295 20.3132Z" fill="#716E76"/>
<path d="M20.0658 35.0797C19.1754 36.2057 17.3701 35.5888 17.3487 34.1511L17.035 13.1226H31.1151C33.6654 13.1226 35.0878 16.0806 33.5019 18.0863L20.0658 35.0797Z" fill="#716E76"/>
<path d="M20.0658 35.0797C19.1754 36.2057 17.3701 35.5888 17.3487 34.1511L17.035 13.1226H31.1151C33.6654 13.1226 35.0878 16.0806 33.5019 18.0863L20.0658 35.0797Z" fill="#716E76"/>
<path d="M14.3395 1.24268C15.2298 0.116575 17.0352 0.7336 17.0566 2.17135L17.1941 23.1998H3.29016C0.739785 23.1998 -0.682604 20.2418 0.903293 18.236L14.3395 1.24268Z" fill="#716E76"/>
</svg>
