<svg width="117" height="36" viewBox="0 0 117 36" fill="none" xmlns="http://www.w3.org/2000/svg">
<path d="M81.9129 7.52112H75.7612C75.6214 7.52112 75.4816 7.66114 75.4816 7.80114V11.3711C75.4816 11.5111 75.6214 11.6511 75.7612 11.6511H81.9129C82.0528 11.6511 82.1926 11.5111 82.1926 11.3711V7.80114C82.2625 7.66114 82.1227 7.52112 81.9129 7.52112ZM81.843 12.8411H69.959C69.8192 12.8411 69.6095 12.9811 69.5396 13.1211L68.0017 18.9311L67.9318 19.2111L66.1142 12.9811C66.0443 12.8411 65.9045 12.7011 65.6948 12.7011H61.081C60.9412 12.7011 60.7314 12.8411 60.6615 12.9811L58.9139 18.7911L58.844 19.0711L58.7741 18.9311L58.075 16.0611L57.306 13.1911C57.2361 13.0511 57.0963 12.9111 56.8866 12.9111H47.5891V7.87112C47.5891 7.73112 47.3794 7.52113 47.1697 7.59113L41.2976 9.41113C41.0879 9.48113 41.018 9.55113 41.018 9.69113V12.8411H39.48C39.3402 12.8411 39.2004 12.9811 39.2004 13.1211V17.6011C39.2004 17.7411 39.3402 17.8811 39.48 17.8811H41.018V23.3411C41.018 27.1911 43.1152 29.0111 46.96 29.0111C48.5678 29.0111 50.1057 28.6611 51.1543 28.1011V23.4811C51.1543 23.2711 50.9446 23.2011 50.8048 23.2011C50.1757 23.4811 49.6863 23.5511 49.1271 23.5511C48.0785 23.5511 47.5192 23.1311 47.5192 21.9411V17.9511H50.8747C51.0145 17.9511 51.1543 17.8111 51.1543 17.6711V13.8911L55.5584 28.5211C55.6283 28.6611 55.7681 28.8011 55.9778 28.8011H60.8713C61.0111 28.8011 61.2208 28.6611 61.2907 28.5211L63.3879 22.0111L64.4365 25.3711L65.4151 28.4511C65.485 28.5911 65.6249 28.7311 65.8346 28.7311H70.728C70.8678 28.7311 71.0775 28.5911 71.1474 28.4511L75.6214 13.7511V28.4511C75.6214 28.5911 75.7612 28.7311 75.901 28.7311H81.843C81.9828 28.7311 82.1227 28.5911 82.1227 28.4511V13.1911C82.1227 12.9811 81.9828 12.8411 81.843 12.8411ZM89.6725 7.52112H83.7305C83.5907 7.52112 83.4509 7.66114 83.4509 7.80114V28.4511C83.4509 28.5911 83.5907 28.7311 83.7305 28.7311H89.6725C89.8123 28.7311 89.9521 28.5911 89.9521 28.4511V7.80114C89.9521 7.66114 89.8123 7.52112 89.6725 7.52112ZM97.5719 7.52112H91.4201C91.2803 7.52112 91.1405 7.66114 91.1405 7.80114V11.3711C91.1405 11.5111 91.2803 11.6511 91.4201 11.6511H97.5719C97.7117 11.6511 97.8515 11.5111 97.8515 11.3711V7.80114C97.9214 7.66114 97.7816 7.52112 97.5719 7.52112ZM97.502 12.8411H91.56C91.4201 12.8411 91.2803 12.9811 91.2803 13.1211V28.4511C91.2803 28.5911 91.4201 28.7311 91.56 28.7311H97.502C97.6418 28.7311 97.7816 28.5911 97.7816 28.4511V13.1911C97.7816 12.9811 97.6418 12.8411 97.502 12.8411ZM107.359 12.4911C102.116 12.4911 98.4107 16.3411 98.4107 20.8211V20.8911C98.4107 25.3711 102.116 29.1511 107.289 29.1511C112.532 29.1511 116.237 25.3011 116.237 20.8211V20.7511C116.237 16.2711 112.532 12.4911 107.359 12.4911ZM109.875 20.8211C109.875 22.3611 108.827 23.5511 107.359 23.5511C105.891 23.5511 104.772 22.2911 104.772 20.7511V20.6811C104.772 19.1411 105.821 17.9511 107.289 17.9511C108.757 17.9511 109.875 19.2111 109.875 20.8211ZM17.5296 0.661133C7.88256 0.661133 0.0531006 8.50113 0.0531006 18.1611C0.0531006 27.8211 7.88256 35.6611 17.5296 35.6611C27.1766 35.6611 35.0061 27.8211 35.0061 18.1611C35.0061 8.50113 27.1766 0.661133 17.5296 0.661133ZM17.5296 31.0411C10.3992 31.0411 4.6669 25.3011 4.6669 18.1611C4.6669 11.0211 10.3992 5.28114 17.5296 5.28114C24.66 5.28114 30.3923 11.0211 30.3923 18.1611C30.3923 25.3011 24.66 31.0411 17.5296 31.0411Z" fill="#716E76"/>
</svg>
