<svg width="47" height="46" viewBox="0 0 47 46" fill="none" xmlns="http://www.w3.org/2000/svg">
<path d="M28.8766 23.1513C28.8773 21.5287 28.5794 19.9194 27.9972 18.401C26.4511 17.829 24.8126 17.5359 23.1606 17.5356H23.1413C21.4401 17.5377 19.8101 17.8432 18.3061 18.4003C17.7235 19.9188 17.4253 21.5284 17.4258 23.1513V23.171C17.4251 24.7932 17.7227 26.4023 18.3043 27.9206C19.8503 28.4936 21.4891 28.7869 23.1415 28.7861H23.1608C24.8129 28.7869 26.4516 28.4937 27.9973 27.9208C28.5797 26.4026 28.8776 24.7935 28.8767 23.1712V23.1515L28.8766 23.1513ZM45.735 26.9111H32.3668L41.8189 36.1981C41.077 37.222 40.2495 38.1833 39.3448 39.072V39.0727C38.4402 39.9604 37.462 40.7727 36.4204 41.5013L26.9675 32.2142V45.3479C25.7103 45.5557 24.4376 45.6605 23.1627 45.6611H23.1391C21.8423 45.6604 20.5722 45.5521 19.3344 45.3479V32.2142L9.8815 41.5013C8.83973 40.7729 7.86196 39.96 6.95848 39.0711L6.95347 39.0676C6.05038 38.18 5.22396 37.2202 4.48276 36.1981L13.9364 26.9111H0.568347C0.568347 26.9111 0.249512 24.4443 0.249512 23.1689V23.1534C0.249512 21.8779 0.359548 20.628 0.568347 19.4112H13.9365L4.48294 10.1241C5.97007 8.07383 7.79457 6.28133 9.8815 4.82029L19.3344 14.108V0.973671C20.5902 0.766918 21.8613 0.662384 23.1347 0.661133H23.167C24.4404 0.662262 25.7115 0.7668 26.9673 0.973671V14.108L36.4211 4.82029C37.4625 5.5491 38.4404 6.36166 39.3448 7.24959L39.347 7.2517C40.2504 8.1404 41.0772 9.10117 41.8189 10.1241L32.3653 19.4112H45.735C45.943 20.6258 46.0516 21.8721 46.0531 23.1448V23.1775C46.0516 24.4501 45.943 25.6964 45.735 26.9111Z" fill="#716E76"/>
</svg>
