<svg width="18" height="25" viewBox="0 0 18 25" fill="none" xmlns="http://www.w3.org/2000/svg">
<path d="M15 1.73291C15 0.936035 14.2969 0.23291 13.5 0.23291C12.6562 0.23291 12 0.936035 12 1.73291V6.23291H15V1.73291ZM17.25 7.73291H0.75C0.328125 7.73291 0 8.06104 0 8.48291V9.98291C0 10.3579 0.328125 10.7329 0.75 10.7329H1.5V12.2329C1.5 15.7954 3.98438 18.8892 7.5 19.5923V24.2329H10.5V19.5923C13.9688 18.8892 16.5 15.7954 16.5 12.2329V10.7329H17.25C17.625 10.7329 18 10.3579 18 9.98291V8.48291C18 8.10791 17.625 7.73291 17.25 7.73291ZM6 1.73291C6 0.936035 5.29688 0.23291 4.5 0.23291C3.65625 0.23291 3 0.936035 3 1.73291V6.23291H6V1.73291Z" fill="#1F1926"/>
</svg>
