<svg width="21" height="25" viewBox="0 0 21 25" fill="none" xmlns="http://www.w3.org/2000/svg">
<path d="M21 3.98242V6.23242C21 8.3418 16.2656 9.98242 10.5 9.98242C4.6875 9.98242 0 8.3418 0 6.23242V3.98242C0 1.91992 4.6875 0.232422 10.5 0.232422C16.2656 0.232422 21 1.91992 21 3.98242ZM18.4219 10.3105C19.3594 9.98242 20.2969 9.51367 21 8.99805V13.7324C21 15.8418 16.2656 17.4824 10.5 17.4824C4.6875 17.4824 0 15.8418 0 13.7324V8.99805C0.65625 9.51367 1.59375 9.98242 2.53125 10.3105C4.64062 11.0605 7.45312 11.4824 10.5 11.4824C13.5 11.4824 16.3125 11.0605 18.4219 10.3105ZM2.53125 17.8105C4.64062 18.5605 7.45312 18.9824 10.5 18.9824C13.5 18.9824 16.3125 18.5605 18.4219 17.8105C19.3594 17.4824 20.2969 17.0137 21 16.498V20.4824C21 22.5918 16.2656 24.2324 10.5 24.2324C4.6875 24.2324 0 22.5918 0 20.4824V16.498C0.65625 17.0137 1.59375 17.4824 2.53125 17.8105Z" fill="#1F1926"/>
</svg>
