<svg width="16" height="20" viewBox="0 0 16 20" fill="none" xmlns="http://www.w3.org/2000/svg">
<path d="M14.7578 3.67188L11.8281 0.742188C11.3594 0.273438 10.7344 0 10.0703 0H3C1.59375 0 0.5 1.13281 0.5 2.5V17.5C0.5 18.9062 1.59375 20 3 20H13C14.3672 20 15.5 18.9062 15.5 17.5V5.42969C15.5 4.76562 15.2266 4.14062 14.7578 3.67188ZM13.625 17.5C13.625 17.8516 13.3125 18.125 13 18.125H3C2.64844 18.125 2.375 17.8516 2.375 17.5V2.53906C2.375 2.1875 2.64844 1.91406 3 1.91406H9.25V5C9.25 5.70312 9.79688 6.25 10.5 6.25H13.5859V17.5H13.625ZM4.25 10.9375C4.25 11.4844 4.64062 11.875 5.1875 11.875H10.8125C11.3203 11.875 11.75 11.4844 11.75 10.9375C11.75 10.4297 11.3203 10 10.8125 10H5.1875C4.64062 10 4.25 10.4297 4.25 10.9375ZM10.8125 13.75H5.1875C4.64062 13.75 4.25 14.1797 4.25 14.6875C4.25 15.2344 4.64062 15.625 5.1875 15.625H10.8125C11.3203 15.625 11.75 15.2344 11.75 14.6875C11.75 14.1797 11.3203 13.75 10.8125 13.75Z" fill="#1F1926"/>
</svg>
