<svg width="20" height="18" viewBox="0 0 20 18" fill="none" xmlns="http://www.w3.org/2000/svg">
<path d="M3.4375 0.875C3.94531 0.875 4.375 1.30469 4.375 1.8125V3.6875C4.375 4.23438 3.94531 4.625 3.4375 4.625H1.5625C1.01562 4.625 0.625 4.23438 0.625 3.6875V1.8125C0.625 1.30469 1.01562 0.875 1.5625 0.875H3.4375ZM19.0625 1.8125C19.5703 1.8125 20 2.24219 20 2.75C20 3.29688 19.5703 3.6875 19.0625 3.6875H7.1875C6.64062 3.6875 6.25 3.29688 6.25 2.75C6.25 2.24219 6.64062 1.8125 7.1875 1.8125H19.0625ZM19.0625 8.0625C19.5703 8.0625 20 8.49219 20 9C20 9.54688 19.5703 9.9375 19.0625 9.9375H7.1875C6.64062 9.9375 6.25 9.54688 6.25 9C6.25 8.49219 6.64062 8.0625 7.1875 8.0625H19.0625ZM19.0625 14.3125C19.5703 14.3125 20 14.7422 20 15.25C20 15.7969 19.5703 16.1875 19.0625 16.1875H7.1875C6.64062 16.1875 6.25 15.7969 6.25 15.25C6.25 14.7422 6.64062 14.3125 7.1875 14.3125H19.0625ZM0.625 8.0625C0.625 7.55469 1.01562 7.125 1.5625 7.125H3.4375C3.94531 7.125 4.375 7.55469 4.375 8.0625V9.9375C4.375 10.4844 3.94531 10.875 3.4375 10.875H1.5625C1.01562 10.875 0.625 10.4844 0.625 9.9375V8.0625ZM3.4375 13.375C3.94531 13.375 4.375 13.8047 4.375 14.3125V16.1875C4.375 16.7344 3.94531 17.125 3.4375 17.125H1.5625C1.01562 17.125 0.625 16.7344 0.625 16.1875V14.3125C0.625 13.8047 1.01562 13.375 1.5625 13.375H3.4375Z" fill="#1F1926"/>
</svg>
