<svg width="140" height="43" viewBox="0 0 140 43" fill="none" xmlns="http://www.w3.org/2000/svg">
<path d="M0 21.6611C0 10.0632 9.40202 0.661133 21 0.661133C32.598 0.661133 42 10.0632 42 21.6611C42 33.2591 32.598 42.6611 21 42.6611C9.40202 42.6611 0 33.2591 0 21.6611Z" fill="#F2F1FF" fill-opacity="0.64"/>
<path fill-rule="evenodd" clip-rule="evenodd" d="M21.0309 8.66117C21.0206 8.66114 21.0103 8.66113 21 8.66113C13.8203 8.66113 8 14.4814 8 21.6611C8 28.8408 13.8203 34.6611 21 34.6611C28.1694 34.6611 33.9833 28.8575 34 21.692H27.2066C27.19 25.1056 24.4176 27.8678 21 27.8678C17.5722 27.8678 14.7934 25.089 14.7934 21.6611C14.7934 18.2333 17.5722 15.4545 21 15.4545C21.0103 15.4545 21.0206 15.4545 21.0309 15.4546V8.66117Z" fill="#1F1926"/>
<path d="M48.5397 21.7191C48.5397 20.7658 48.7157 19.8345 49.0677 18.9251C49.4343 18.0011 49.9623 17.1651 50.6517 16.4171C51.341 15.6691 52.177 15.0751 53.1597 14.6351C54.157 14.1805 55.279 13.9531 56.5257 13.9531C58.0217 13.9531 59.327 14.2685 60.4417 14.8991C61.5563 15.5151 62.385 16.3365 62.9277 17.3631L59.6497 19.6951C59.459 19.1818 59.1803 18.7858 58.8137 18.5071C58.4617 18.2285 58.073 18.0378 57.6477 17.9351C57.237 17.8178 56.8337 17.7591 56.4377 17.7591C55.8217 17.7591 55.2863 17.8838 54.8317 18.1331C54.3917 18.3678 54.025 18.6831 53.7317 19.0791C53.453 19.4751 53.2403 19.9151 53.0937 20.3991C52.9617 20.8831 52.8957 21.3671 52.8957 21.8511C52.8957 22.3938 52.9763 22.9145 53.1377 23.4131C53.299 23.9118 53.5337 24.3591 53.8417 24.7551C54.1497 25.1365 54.5237 25.4371 54.9637 25.6571C55.4183 25.8771 55.9243 25.9871 56.4817 25.9871C56.8777 25.9871 57.281 25.9285 57.6917 25.8111C58.1023 25.6791 58.4763 25.4738 58.8137 25.1951C59.151 24.9165 59.4077 24.5425 59.5837 24.0731L63.0817 26.1631C62.7737 26.9258 62.2603 27.5785 61.5417 28.1211C60.823 28.6638 60.009 29.0818 59.0997 29.3751C58.1903 29.6538 57.2883 29.7931 56.3937 29.7931C55.235 29.7931 54.1717 29.5658 53.2037 29.1111C52.2503 28.6418 51.4217 28.0258 50.7177 27.2631C50.0283 26.4858 49.493 25.6205 49.1117 24.6671C48.7303 23.6991 48.5397 22.7165 48.5397 21.7191ZM69.9132 29.8811C68.8865 29.8811 67.9772 29.7198 67.1852 29.3971C66.3932 29.0745 65.7258 28.6345 65.1832 28.0771C64.6552 27.5051 64.2518 26.8598 63.9732 26.1411C63.7092 25.4225 63.5772 24.6671 63.5772 23.8751C63.5772 23.0831 63.7092 22.3278 63.9732 21.6091C64.2518 20.8758 64.6552 20.2305 65.1832 19.6731C65.7258 19.1158 66.3932 18.6758 67.1852 18.3531C67.9772 18.0305 68.8865 17.8691 69.9132 17.8691C70.9545 17.8691 71.8638 18.0305 72.6412 18.3531C73.4332 18.6758 74.0932 19.1158 74.6212 19.6731C75.1638 20.2305 75.5672 20.8758 75.8312 21.6091C76.1098 22.3278 76.2492 23.0831 76.2492 23.8751C76.2492 24.6671 76.1098 25.4225 75.8312 26.1411C75.5672 26.8598 75.1638 27.5051 74.6212 28.0771C74.0932 28.6345 73.4332 29.0745 72.6412 29.3971C71.8638 29.7198 70.9545 29.8811 69.9132 29.8811ZM67.8672 23.8751C67.8672 24.3885 67.9552 24.8358 68.1312 25.2171C68.3072 25.5838 68.5492 25.8698 68.8572 26.0751C69.1652 26.2658 69.5172 26.3611 69.9132 26.3611C70.3092 26.3611 70.6612 26.2658 70.9692 26.0751C71.2772 25.8698 71.5192 25.5838 71.6952 25.2171C71.8712 24.8358 71.9592 24.3885 71.9592 23.8751C71.9592 23.3618 71.8712 22.9218 71.6952 22.5551C71.5192 22.1738 71.2772 21.8878 70.9692 21.6971C70.6612 21.4918 70.3092 21.3891 69.9132 21.3891C69.5172 21.3891 69.1652 21.4918 68.8572 21.6971C68.5492 21.8878 68.3072 22.1738 68.1312 22.5551C67.9552 22.9218 67.8672 23.3618 67.8672 23.8751ZM77.1129 23.8531C77.1129 22.7091 77.3255 21.6898 77.7509 20.7951C78.1909 19.8858 78.7922 19.1745 79.5549 18.6611C80.3175 18.1331 81.1902 17.8691 82.1729 17.8691C82.9209 17.8691 83.6102 18.0451 84.2409 18.3971C84.8715 18.7345 85.3482 19.2038 85.6709 19.8051V13.6011H89.8509V25.0411C89.8509 25.4371 89.9095 25.7158 90.0269 25.8771C90.1442 26.0238 90.3495 26.1118 90.6429 26.1411V29.6611C89.9242 29.8078 89.3375 29.8811 88.8829 29.8811C88.1789 29.8811 87.6215 29.7491 87.2109 29.4851C86.8002 29.2211 86.5362 28.8178 86.4189 28.2751L86.3309 27.8571C85.9349 28.5611 85.3995 29.0745 84.7249 29.3971C84.0502 29.7198 83.3315 29.8811 82.5689 29.8811C81.7769 29.8811 81.0435 29.7345 80.3689 29.4411C79.7089 29.1478 79.1295 28.7371 78.6309 28.2091C78.1469 27.6665 77.7729 27.0285 77.5089 26.2951C77.2449 25.5471 77.1129 24.7331 77.1129 23.8531ZM85.6929 25.1731V23.1051C85.5609 22.7678 85.3775 22.4745 85.1429 22.2251C84.9229 21.9611 84.6735 21.7558 84.3949 21.6091C84.1162 21.4625 83.8302 21.3891 83.5369 21.3891C83.2289 21.3891 82.9429 21.4551 82.6789 21.5871C82.4295 21.7191 82.2095 21.9025 82.0189 22.1371C81.8282 22.3718 81.6815 22.6431 81.5789 22.9511C81.4762 23.2591 81.4249 23.5891 81.4249 23.9411C81.4249 24.3078 81.4762 24.6378 81.5789 24.9311C81.6962 25.2245 81.8575 25.4811 82.0629 25.7011C82.2682 25.9065 82.5102 26.0678 82.7889 26.1851C83.0675 26.3025 83.3755 26.3611 83.7129 26.3611C83.9182 26.3611 84.1089 26.3391 84.2849 26.2951C84.4609 26.2365 84.6295 26.1631 84.7909 26.0751C84.9522 25.9725 85.1062 25.8478 85.2529 25.7011C85.4142 25.5398 85.5609 25.3638 85.6929 25.1731ZM98.0577 29.8811C97.0457 29.8811 96.1437 29.7271 95.3517 29.4191C94.5597 29.0965 93.8924 28.6638 93.3497 28.1211C92.8217 27.5785 92.4184 26.9551 92.1397 26.2511C91.861 25.5471 91.7217 24.8065 91.7217 24.0291C91.7217 22.9145 91.9637 21.8951 92.4477 20.9711C92.9317 20.0325 93.643 19.2845 94.5817 18.7271C95.5204 18.1551 96.679 17.8691 98.0577 17.8691C99.4364 17.8691 100.595 18.1478 101.534 18.7051C102.472 19.2625 103.184 19.9958 103.668 20.9051C104.152 21.8145 104.394 22.8045 104.394 23.8751C104.394 24.0951 104.379 24.3225 104.35 24.5571C104.335 24.7771 104.313 24.9751 104.284 25.1511H96.1657C96.195 25.5618 96.305 25.8991 96.4957 26.1631C96.701 26.4125 96.9504 26.5958 97.2437 26.7131C97.5517 26.8305 97.867 26.8891 98.1897 26.8891C98.6444 26.8891 99.0697 26.7865 99.4657 26.5811C99.8764 26.3758 100.148 26.0898 100.28 25.7231L103.822 26.7351C103.514 27.3511 103.081 27.8938 102.524 28.3631C101.981 28.8325 101.336 29.2065 100.588 29.4851C99.8397 29.7491 98.9964 29.8811 98.0577 29.8811ZM96.0777 22.6431H99.9057C99.8617 22.2618 99.7517 21.9391 99.5757 21.6751C99.4144 21.4111 99.1944 21.2058 98.9157 21.0591C98.6517 20.9125 98.3437 20.8391 97.9917 20.8391C97.6397 20.8391 97.3244 20.9125 97.0457 21.0591C96.7817 21.2058 96.5617 21.4111 96.3857 21.6751C96.2244 21.9391 96.1217 22.2618 96.0777 22.6431ZM105.678 13.6011H109.858V25.0631C109.858 25.4885 109.946 25.8185 110.122 26.0531C110.313 26.2731 110.584 26.3831 110.936 26.3831C111.112 26.3831 111.303 26.3538 111.508 26.2951C111.713 26.2365 111.904 26.1558 112.08 26.0531L112.608 29.1331C112.109 29.3678 111.545 29.5511 110.914 29.6831C110.298 29.8151 109.711 29.8811 109.154 29.8811C108.039 29.8811 107.181 29.5951 106.58 29.0231C105.979 28.4365 105.678 27.6078 105.678 26.5371V13.6011ZM112.948 26.1631C112.948 25.3858 113.161 24.7038 113.586 24.1171C114.012 23.5158 114.598 23.0465 115.346 22.7091C116.109 22.3718 116.974 22.2031 117.942 22.2031C118.397 22.2031 118.822 22.2398 119.218 22.3131C119.629 22.3865 119.981 22.4965 120.274 22.6431V22.2911C120.274 21.7485 120.113 21.3451 119.79 21.0811C119.482 20.8171 118.976 20.6851 118.272 20.6851C117.627 20.6851 117.018 20.7951 116.446 21.0151C115.889 21.2205 115.302 21.5285 114.686 21.9391L113.476 19.3431C114.254 18.8445 115.068 18.4778 115.918 18.2431C116.784 17.9938 117.708 17.8691 118.69 17.8691C120.524 17.8691 121.939 18.2871 122.936 19.1231C123.948 19.9445 124.454 21.1691 124.454 22.7971V25.0411C124.454 25.4371 124.513 25.7158 124.63 25.8771C124.748 26.0238 124.953 26.1118 125.246 26.1411V29.6611C124.909 29.7345 124.586 29.7858 124.278 29.8151C123.985 29.8591 123.721 29.8811 123.486 29.8811C122.738 29.8811 122.166 29.7491 121.77 29.4851C121.389 29.2065 121.14 28.8031 121.022 28.2751L120.934 27.8571C120.421 28.5171 119.827 29.0231 119.152 29.3751C118.478 29.7125 117.759 29.8811 116.996 29.8811C116.234 29.8811 115.544 29.7198 114.928 29.3971C114.312 29.0745 113.828 28.6345 113.476 28.0771C113.124 27.5051 112.948 26.8671 112.948 26.1631ZM119.724 26.4491C119.886 26.3318 120.018 26.2071 120.12 26.0751C120.223 25.9285 120.274 25.7818 120.274 25.6351V24.7771C120.04 24.6891 119.768 24.6158 119.46 24.5571C119.167 24.4985 118.903 24.4691 118.668 24.4691C118.17 24.4691 117.744 24.5938 117.392 24.8431C117.055 25.0925 116.886 25.4078 116.886 25.7891C116.886 25.9945 116.945 26.1851 117.062 26.3611C117.18 26.5225 117.341 26.6545 117.546 26.7571C117.752 26.8451 117.986 26.8891 118.25 26.8891C118.5 26.8891 118.756 26.8525 119.02 26.7791C119.299 26.6911 119.534 26.5811 119.724 26.4491ZM134.126 29.8811C133.261 29.8811 132.513 29.7125 131.882 29.3751C131.252 29.0231 130.753 28.5171 130.386 27.8571V29.6611H126.756V13.6011H130.936V19.8051C131.274 19.1745 131.75 18.6978 132.366 18.3751C132.982 18.0378 133.708 17.8691 134.544 17.8691C135.248 17.8691 135.901 18.0231 136.502 18.3311C137.104 18.6245 137.624 19.0425 138.064 19.5851C138.519 20.1278 138.871 20.7731 139.12 21.5211C139.37 22.2545 139.494 23.0538 139.494 23.9191C139.494 24.7698 139.355 25.5618 139.076 26.2951C138.812 27.0138 138.438 27.6445 137.954 28.1871C137.485 28.7298 136.92 29.1478 136.26 29.4411C135.615 29.7345 134.904 29.8811 134.126 29.8811ZM132.916 26.3611C133.254 26.3611 133.562 26.3025 133.84 26.1851C134.119 26.0678 134.361 25.9065 134.566 25.7011C134.772 25.4811 134.926 25.2245 135.028 24.9311C135.146 24.6378 135.204 24.3078 135.204 23.9411C135.204 23.4718 135.109 23.0465 134.918 22.6651C134.742 22.2691 134.493 21.9611 134.17 21.7411C133.862 21.5065 133.503 21.3891 133.092 21.3891C132.799 21.3891 132.513 21.4625 132.234 21.6091C131.956 21.7558 131.699 21.9611 131.464 22.2251C131.244 22.4745 131.068 22.7678 130.936 23.1051V25.1731C131.068 25.3638 131.208 25.5398 131.354 25.7011C131.516 25.8478 131.677 25.9725 131.838 26.0751C132 26.1631 132.168 26.2365 132.344 26.2951C132.535 26.3391 132.726 26.3611 132.916 26.3611Z" fill="#F2F1FF" fill-opacity="0.64"/>
</svg>
