<svg width="29" height="25" viewBox="0 0 29 25" fill="none" xmlns="http://www.w3.org/2000/svg">
<path d="M24.2031 10.7329C24.0156 10.7329 23.8281 10.7329 23.6406 10.7329C22.4219 10.7329 21.3438 10.2173 20.5938 9.37354C19.8438 10.2173 18.7656 10.7329 17.5469 10.7329C16.3281 10.7329 15.2031 10.2173 14.4531 9.37354C13.75 10.2173 12.625 10.7329 11.4062 10.7329C10.1875 10.7329 9.10938 10.2173 8.35938 9.37354C7.60938 10.2173 6.53125 10.7329 5.3125 10.7329C5.125 10.7329 4.9375 10.7329 4.75 10.7329C2.125 10.3579 0.90625 7.31104 2.3125 5.10791L4.98438 0.88916C5.21875 0.467285 5.64062 0.23291 6.10938 0.23291H22.8438C23.3125 0.23291 23.7344 0.467285 23.9688 0.88916L26.6406 5.10791C28.0469 7.31104 26.8281 10.3579 24.2031 10.7329ZM24.3906 12.186C24.5781 12.186 24.8125 12.1392 25 12.0923V21.2329C25 22.9204 23.6406 24.2329 22 24.2329H7C5.3125 24.2329 4 22.9204 4 21.2329V12.0923C4.14062 12.1392 4.32812 12.186 4.51562 12.186H4.5625C4.79688 12.2329 5.03125 12.2329 5.3125 12.2329C5.875 12.2329 6.4375 12.186 7 11.9985V18.2329H22V11.9985C22.5156 12.186 23.0781 12.2329 23.6406 12.2329C23.9219 12.2329 24.1562 12.2329 24.3906 12.186Z" fill="#1F1926"/>
</svg>
