<svg width="18" height="18" viewBox="0 0 18 18" fill="none" xmlns="http://www.w3.org/2000/svg">
<path d="M3.375 4.625C3.375 3.96094 3.92188 3.375 4.625 3.375C5.28906 3.375 5.875 3.96094 5.875 4.625C5.875 5.32812 5.28906 5.875 4.625 5.875C3.92188 5.875 3.375 5.32812 3.375 4.625ZM7.94531 0.25C8.60938 0.25 9.23438 0.523438 9.70312 0.992188L16.5781 7.86719C17.5547 8.84375 17.5547 10.4453 16.5781 11.4219L11.3828 16.6172C10.4062 17.5938 8.80469 17.5938 7.82812 16.6172L0.953125 9.74219C0.484375 9.27344 0.25 8.64844 0.25 7.98438V2.125C0.25 1.10938 1.07031 0.25 2.125 0.25H7.94531ZM2.28125 8.41406L9.15625 15.2891C9.39062 15.5625 9.82031 15.5625 10.0547 15.2891L15.25 10.0938C15.5234 9.85938 15.5234 9.42969 15.25 9.19531L8.375 2.32031C8.25781 2.20312 8.10156 2.125 7.94531 2.125H2.125V7.98438C2.125 8.14062 2.16406 8.29688 2.28125 8.41406Z" fill="#1F1926"/>
</svg>
