<svg width="482" height="513" viewBox="0 0 482 513" fill="none" xmlns="http://www.w3.org/2000/svg">
<g filter="url(#filter0_ddd_785_4155)">
<rect x="50" y="40.6609" width="382" height="412" rx="10" fill="white"/>
<g filter="url(#filter1_di_785_4155)">
<path d="M50 50.6609C50 45.138 54.4772 40.6609 60 40.6609H422C427.523 40.6609 432 45.138 432 50.6609V92.6609H50V50.6609Z" fill="white"/>
<g filter="url(#filter2_i_785_4155)">
<path fill-rule="evenodd" clip-rule="evenodd" d="M77 72.6609C80.3137 72.6609 83 69.9746 83 66.6609C83 63.3472 80.3137 60.6609 77 60.6609C73.6863 60.6609 71 63.3472 71 66.6609C71 69.9746 73.6863 72.6609 77 72.6609Z" fill="#EE6A5F"/>
</g>
<path d="M82.75 66.6609C82.75 69.8365 80.1756 72.4109 77 72.4109C73.8244 72.4109 71.25 69.8365 71.25 66.6609C71.25 63.4853 73.8244 60.9109 77 60.9109C80.1756 60.9109 82.75 63.4853 82.75 66.6609Z" stroke="#CE5347" stroke-width="0.5"/>
<g filter="url(#filter3_i_785_4155)">
<path fill-rule="evenodd" clip-rule="evenodd" d="M97 72.6609C100.314 72.6609 103 69.9746 103 66.6609C103 63.3472 100.314 60.6609 97 60.6609C93.6863 60.6609 91 63.3472 91 66.6609C91 69.9746 93.6863 72.6609 97 72.6609Z" fill="#F5BD4F"/>
</g>
<path d="M102.75 66.6609C102.75 69.8365 100.176 72.4109 97 72.4109C93.8244 72.4109 91.25 69.8365 91.25 66.6609C91.25 63.4853 93.8244 60.9109 97 60.9109C100.176 60.9109 102.75 63.4853 102.75 66.6609Z" stroke="#D6A243" stroke-width="0.5"/>
<g filter="url(#filter4_i_785_4155)">
<path fill-rule="evenodd" clip-rule="evenodd" d="M117 72.6609C120.314 72.6609 123 69.9746 123 66.6609C123 63.3472 120.314 60.6609 117 60.6609C113.686 60.6609 111 63.3472 111 66.6609C111 69.9746 113.686 72.6609 117 72.6609Z" fill="#61C454"/>
</g>
<path d="M122.75 66.6609C122.75 69.8365 120.176 72.4109 117 72.4109C113.824 72.4109 111.25 69.8365 111.25 66.6609C111.25 63.4853 113.824 60.9109 117 60.9109C120.176 60.9109 122.75 63.4853 122.75 66.6609Z" stroke="#58A942" stroke-width="0.5"/>
<rect x="139" y="52.6609" width="272" height="28" rx="6" fill="black" fill-opacity="0.05"/>
<g clip-path="url(#clip0_785_4155)">
<path d="M224.711 72.3767H230.289C231.045 72.3767 231.414 72.0017 231.414 71.1814V66.8806C231.414 66.1423 231.109 65.7615 230.482 65.697V64.2205C230.482 62.0115 229.035 60.9451 227.5 60.9451C225.965 60.9451 224.518 62.0115 224.518 64.2205V65.7263C223.943 65.8142 223.586 66.1892 223.586 66.8806V71.1814C223.586 72.0017 223.955 72.3767 224.711 72.3767ZM225.461 64.0974C225.461 62.6267 226.404 61.8474 227.5 61.8474C228.596 61.8474 229.539 62.6267 229.539 64.0974V65.6912L225.461 65.697V64.0974Z" fill="#9E9E9E"/>
<path d="M240.321 71.7815C241.242 71.7815 241.959 71.3816 242.391 70.6516H242.492V71.6609H243.597V66.9763C243.597 65.5544 242.664 64.6975 240.994 64.6975C239.534 64.6975 238.493 65.4211 238.315 66.4939L238.309 66.532H239.414L239.42 66.5129C239.598 65.9797 240.137 65.675 240.956 65.675C241.978 65.675 242.492 66.1321 242.492 66.9763V67.5984L240.531 67.719C238.938 67.8142 238.036 68.5188 238.036 69.7375V69.7502C238.036 70.9944 239.02 71.7815 240.321 71.7815ZM239.166 69.7249V69.7122C239.166 69.033 239.623 68.6648 240.664 68.6013L242.492 68.4871V69.1091C242.492 70.0867 241.673 70.823 240.55 70.823C239.756 70.823 239.166 70.4167 239.166 69.7249ZM245.563 73.946H246.668V70.5818H246.769C247.144 71.3118 247.963 71.7815 248.902 71.7815C250.641 71.7815 251.771 70.3914 251.771 68.2458V68.2332C251.771 66.1003 250.635 64.6975 248.902 64.6975C247.95 64.6975 247.188 65.1482 246.769 65.9099H246.668V64.8181H245.563V73.946ZM248.648 70.804C247.404 70.804 246.642 69.8264 246.642 68.2458V68.2332C246.642 66.6526 247.404 65.675 248.648 65.675C249.899 65.675 250.641 66.6399 250.641 68.2332V68.2458C250.641 69.8391 249.899 70.804 248.648 70.804ZM253.446 73.946H254.55V70.5818H254.652C255.026 71.3118 255.845 71.7815 256.785 71.7815C258.524 71.7815 259.654 70.3914 259.654 68.2458V68.2332C259.654 66.1003 258.518 64.6975 256.785 64.6975C255.833 64.6975 255.071 65.1482 254.652 65.9099H254.55V64.8181H253.446V73.946ZM256.531 70.804C255.287 70.804 254.525 69.8264 254.525 68.2458V68.2332C254.525 66.6526 255.287 65.675 256.531 65.675C257.781 65.675 258.524 66.6399 258.524 68.2332V68.2458C258.524 69.8391 257.781 70.804 256.531 70.804ZM262.103 71.7244C262.56 71.7244 262.928 71.3499 262.928 70.8992C262.928 70.4421 262.56 70.074 262.103 70.074C261.652 70.074 261.278 70.4421 261.278 70.8992C261.278 71.3499 261.652 71.7244 262.103 71.7244ZM267.554 71.7815C269.198 71.7815 270.119 70.8992 270.398 69.6614L270.411 69.5916L269.319 69.5979L269.306 69.636C269.052 70.3977 268.468 70.804 267.548 70.804C266.329 70.804 265.542 69.7947 265.542 68.2205V68.2078C265.542 66.6653 266.316 65.675 267.548 65.675C268.532 65.675 269.141 66.2209 269.313 66.8938L269.319 66.9128H270.417L270.411 66.8748C270.208 65.656 269.211 64.6975 267.548 64.6975C265.631 64.6975 264.412 66.0813 264.412 68.2078V68.2205C264.412 70.3914 265.637 71.7815 267.554 71.7815ZM274.789 71.7815C276.738 71.7815 277.944 70.4358 277.944 68.2458V68.2332C277.944 66.0369 276.738 64.6975 274.789 64.6975C272.841 64.6975 271.635 66.0369 271.635 68.2332V68.2458C271.635 70.4358 272.841 71.7815 274.789 71.7815ZM274.789 70.804C273.494 70.804 272.764 69.8582 272.764 68.2458V68.2332C272.764 66.6145 273.494 65.675 274.789 65.675C276.084 65.675 276.814 66.6145 276.814 68.2332V68.2458C276.814 69.8582 276.084 70.804 274.789 70.804ZM282.132 71.7815C283.084 71.7815 283.846 71.3308 284.265 70.5691H284.367V71.6609H285.471V62.1013H284.367V65.8972H284.265C283.891 65.1672 283.072 64.6975 282.132 64.6975C280.393 64.6975 279.263 66.0876 279.263 68.2332V68.2458C279.263 70.3787 280.399 71.7815 282.132 71.7815ZM282.386 70.804C281.136 70.804 280.393 69.8391 280.393 68.2458V68.2332C280.393 66.6399 281.136 65.675 282.386 65.675C283.63 65.675 284.392 66.6526 284.392 68.2332V68.2458C284.392 69.8264 283.63 70.804 282.386 70.804ZM290.332 71.7815C291.945 71.7815 292.922 70.8674 293.157 69.9407L293.17 69.8899H292.065L292.04 69.947C291.856 70.3596 291.284 70.7976 290.358 70.7976C289.139 70.7976 288.358 69.9724 288.326 68.5569H293.252V68.1252C293.252 66.0813 292.122 64.6975 290.262 64.6975C288.403 64.6975 287.197 66.1448 287.197 68.2585V68.2649C287.197 70.4104 288.377 71.7815 290.332 71.7815ZM290.256 65.6814C291.265 65.6814 292.014 66.3225 292.129 67.6746H288.345C288.466 66.3733 289.24 65.6814 290.256 65.6814ZM294.978 71.6609H296.082V62.1013H294.978V71.6609ZM300.029 71.7815C300.949 71.7815 301.667 71.3816 302.098 70.6516H302.2V71.6609H303.304V66.9763C303.304 65.5544 302.371 64.6975 300.702 64.6975C299.242 64.6975 298.201 65.4211 298.023 66.4939L298.017 66.532H299.121L299.128 66.5129C299.305 65.9797 299.845 65.675 300.664 65.675C301.686 65.675 302.2 66.1321 302.2 66.9763V67.5984L300.239 67.719C298.645 67.8142 297.744 68.5188 297.744 69.7375V69.7502C297.744 70.9944 298.728 71.7815 300.029 71.7815ZM298.874 69.7249V69.7122C298.874 69.033 299.331 68.6648 300.372 68.6013L302.2 68.4871V69.1091C302.2 70.0867 301.381 70.823 300.258 70.823C299.464 70.823 298.874 70.4167 298.874 69.7249ZM308.673 71.7815C310.406 71.7815 311.543 70.3787 311.543 68.2458V68.2332C311.543 66.0876 310.413 64.6975 308.673 64.6975C307.734 64.6975 306.915 65.1672 306.541 65.8972H306.439V62.1013H305.334V71.6609H306.439V70.5691H306.541C306.959 71.3308 307.721 71.7815 308.673 71.7815ZM308.419 70.804C307.175 70.804 306.414 69.8264 306.414 68.2458V68.2332C306.414 66.6526 307.175 65.675 308.419 65.675C309.67 65.675 310.413 66.6399 310.413 68.2332V68.2458C310.413 69.8391 309.67 70.804 308.419 70.804ZM313.979 71.7244C314.436 71.7244 314.804 71.3499 314.804 70.8992C314.804 70.4421 314.436 70.074 313.979 70.074C313.528 70.074 313.154 70.4421 313.154 70.8992C313.154 71.3499 313.528 71.7244 313.979 71.7244ZM318.764 71.7815C319.684 71.7815 320.401 71.3816 320.833 70.6516H320.935V71.6609H322.039V66.9763C322.039 65.5544 321.106 64.6975 319.437 64.6975C317.977 64.6975 316.936 65.4211 316.758 66.4939L316.751 66.532H317.856L317.862 66.5129C318.04 65.9797 318.58 65.675 319.398 65.675C320.42 65.675 320.935 66.1321 320.935 66.9763V67.5984L318.973 67.719C317.38 67.8142 316.479 68.5188 316.479 69.7375V69.7502C316.479 70.9944 317.462 71.7815 318.764 71.7815ZM317.608 69.7249V69.7122C317.608 69.033 318.065 68.6648 319.106 68.6013L320.935 68.4871V69.1091C320.935 70.0867 320.116 70.823 318.992 70.823C318.199 70.823 317.608 70.4167 317.608 69.7249ZM324.59 63.4978C325.009 63.4978 325.351 63.155 325.351 62.7361C325.351 62.3171 325.009 61.9744 324.59 61.9744C324.171 61.9744 323.828 62.3171 323.828 62.7361C323.828 63.155 324.171 63.4978 324.59 63.4978ZM324.031 71.6609H325.136V64.8181H324.031V71.6609Z" fill="#4C4C4C"/>
</g>
<path d="M399.283 66.2761C399.43 66.2761 399.541 66.2292 399.623 66.1414L402.037 63.7156C402.143 63.616 402.184 63.4988 402.184 63.364C402.184 63.2351 402.131 63.1062 402.037 63.0125L399.623 60.5632C399.541 60.4695 399.424 60.4226 399.283 60.4226C399.02 60.4226 398.82 60.6335 398.82 60.9031C398.82 61.0261 398.867 61.1433 398.949 61.2371L400.514 62.7722C400.18 62.7136 399.84 62.6785 399.5 62.6785C396.629 62.6785 394.32 64.9812 394.32 67.8523C394.32 70.7292 396.629 73.0378 399.5 73.0378C402.371 73.0378 404.674 70.7292 404.674 67.8523C404.674 67.571 404.475 67.366 404.188 67.366C403.912 67.366 403.73 67.571 403.73 67.8523C403.73 70.2078 401.85 72.0945 399.5 72.0945C397.15 72.0945 395.264 70.2078 395.264 67.8523C395.264 65.5027 397.15 63.6218 399.5 63.6218C399.945 63.6218 400.355 63.657 400.707 63.7332L398.955 65.4734C398.867 65.5671 398.82 65.6843 398.82 65.8074C398.82 66.0769 399.02 66.2761 399.283 66.2761Z" fill="#797979"/>
</g>
</g>
<defs>
<filter id="filter0_ddd_785_4155" x="0" y="0.660889" width="482" height="512" filterUnits="userSpaceOnUse" color-interpolation-filters="sRGB">
<feFlood flood-opacity="0" result="BackgroundImageFix"/>
<feColorMatrix in="SourceAlpha" type="matrix" values="0 0 0 0 0 0 0 0 0 0 0 0 0 0 0 0 0 0 127 0" result="hardAlpha"/>
<feOffset dy="10"/>
<feGaussianBlur stdDeviation="25"/>
<feColorMatrix type="matrix" values="0 0 0 0 0 0 0 0 0 0 0 0 0 0 0 0 0 0 0.2 0"/>
<feBlend mode="normal" in2="BackgroundImageFix" result="effect1_dropShadow_785_4155"/>
<feColorMatrix in="SourceAlpha" type="matrix" values="0 0 0 0 0 0 0 0 0 0 0 0 0 0 0 0 0 0 127 0" result="hardAlpha"/>
<feOffset dy="20"/>
<feGaussianBlur stdDeviation="15"/>
<feColorMatrix type="matrix" values="0 0 0 0 0 0 0 0 0 0 0 0 0 0 0 0 0 0 0.3 0"/>
<feBlend mode="normal" in2="effect1_dropShadow_785_4155" result="effect2_dropShadow_785_4155"/>
<feColorMatrix in="SourceAlpha" type="matrix" values="0 0 0 0 0 0 0 0 0 0 0 0 0 0 0 0 0 0 127 0" result="hardAlpha"/>
<feOffset/>
<feGaussianBlur stdDeviation="0.5"/>
<feColorMatrix type="matrix" values="0 0 0 0 0 0 0 0 0 0 0 0 0 0 0 0 0 0 0.7 0"/>
<feBlend mode="normal" in2="effect2_dropShadow_785_4155" result="effect3_dropShadow_785_4155"/>
<feBlend mode="normal" in="SourceGraphic" in2="effect3_dropShadow_785_4155" result="shape"/>
</filter>
<filter id="filter1_di_785_4155" x="50" y="40.6609" width="382" height="52.5" filterUnits="userSpaceOnUse" color-interpolation-filters="sRGB">
<feFlood flood-opacity="0" result="BackgroundImageFix"/>
<feColorMatrix in="SourceAlpha" type="matrix" values="0 0 0 0 0 0 0 0 0 0 0 0 0 0 0 0 0 0 127 0" result="hardAlpha"/>
<feOffset dy="0.5"/>
<feColorMatrix type="matrix" values="0 0 0 0 0 0 0 0 0 0 0 0 0 0 0 0 0 0 0.15 0"/>
<feBlend mode="normal" in2="BackgroundImageFix" result="effect1_dropShadow_785_4155"/>
<feBlend mode="normal" in="SourceGraphic" in2="effect1_dropShadow_785_4155" result="shape"/>
<feColorMatrix in="SourceAlpha" type="matrix" values="0 0 0 0 0 0 0 0 0 0 0 0 0 0 0 0 0 0 127 0" result="hardAlpha"/>
<feOffset dy="-0.5"/>
<feComposite in2="hardAlpha" operator="arithmetic" k2="-1" k3="1"/>
<feColorMatrix type="matrix" values="0 0 0 0 0 0 0 0 0 0 0 0 0 0 0 0 0 0 0.05 0"/>
<feBlend mode="normal" in2="shape" result="effect2_innerShadow_785_4155"/>
</filter>
<filter id="filter2_i_785_4155" x="71" y="60.6609" width="12" height="12" filterUnits="userSpaceOnUse" color-interpolation-filters="sRGB">
<feFlood flood-opacity="0" result="BackgroundImageFix"/>
<feBlend mode="normal" in="SourceGraphic" in2="BackgroundImageFix" result="shape"/>
<feColorMatrix in="SourceAlpha" type="matrix" values="0 0 0 0 0 0 0 0 0 0 0 0 0 0 0 0 0 0 127 0" result="hardAlpha"/>
<feOffset/>
<feGaussianBlur stdDeviation="3"/>
<feComposite in2="hardAlpha" operator="arithmetic" k2="-1" k3="1"/>
<feColorMatrix type="matrix" values="0 0 0 0 0.92549 0 0 0 0 0.427451 0 0 0 0 0.384314 0 0 0 1 0"/>
<feBlend mode="normal" in2="shape" result="effect1_innerShadow_785_4155"/>
</filter>
<filter id="filter3_i_785_4155" x="91" y="60.6609" width="12" height="12" filterUnits="userSpaceOnUse" color-interpolation-filters="sRGB">
<feFlood flood-opacity="0" result="BackgroundImageFix"/>
<feBlend mode="normal" in="SourceGraphic" in2="BackgroundImageFix" result="shape"/>
<feColorMatrix in="SourceAlpha" type="matrix" values="0 0 0 0 0 0 0 0 0 0 0 0 0 0 0 0 0 0 127 0" result="hardAlpha"/>
<feOffset/>
<feGaussianBlur stdDeviation="3"/>
<feComposite in2="hardAlpha" operator="arithmetic" k2="-1" k3="1"/>
<feColorMatrix type="matrix" values="0 0 0 0 0.960784 0 0 0 0 0.768627 0 0 0 0 0.317647 0 0 0 1 0"/>
<feBlend mode="normal" in2="shape" result="effect1_innerShadow_785_4155"/>
</filter>
<filter id="filter4_i_785_4155" x="111" y="60.6609" width="12" height="12" filterUnits="userSpaceOnUse" color-interpolation-filters="sRGB">
<feFlood flood-opacity="0" result="BackgroundImageFix"/>
<feBlend mode="normal" in="SourceGraphic" in2="BackgroundImageFix" result="shape"/>
<feColorMatrix in="SourceAlpha" type="matrix" values="0 0 0 0 0 0 0 0 0 0 0 0 0 0 0 0 0 0 127 0" result="hardAlpha"/>
<feOffset/>
<feGaussianBlur stdDeviation="3"/>
<feComposite in2="hardAlpha" operator="arithmetic" k2="-1" k3="1"/>
<feColorMatrix type="matrix" values="0 0 0 0 0.407843 0 0 0 0 0.8 0 0 0 0 0.345098 0 0 0 1 0"/>
<feBlend mode="normal" in2="shape" result="effect1_innerShadow_785_4155"/>
</filter>
<clipPath id="clip0_785_4155">
<rect x="223.586" y="58.6609" width="102.828" height="16" fill="white"/>
</clipPath>
</defs>
</svg>
