<svg width="1030" height="366" viewBox="0 0 1030 366" fill="none" xmlns="http://www.w3.org/2000/svg">
<path d="M40.4559 20.796V15.6H39.1839V20.736C39.1839 22.212 38.4159 23.004 37.1439 23.004C35.8719 23.004 35.1039 22.212 35.1039 20.736V15.6H33.8439V20.796C33.8439 22.896 35.1399 24.108 37.1439 24.108C39.1359 24.108 40.4559 22.896 40.4559 20.796ZM45.4252 19.464H46.5292C46.2892 18.348 45.4372 17.7 44.0212 17.7C42.5692 17.7 41.6452 18.36 41.6452 19.452C41.6452 20.316 42.1852 20.868 43.4212 21.156L44.4892 21.396C45.1012 21.54 45.4492 21.696 45.4492 22.236C45.4492 22.848 44.8732 23.16 44.0812 23.16C43.3132 23.16 42.7132 22.884 42.5572 22.128H41.4292C41.5972 23.46 42.6172 24.084 44.0692 24.084C45.4732 24.084 46.6612 23.532 46.6612 22.236C46.6612 21.048 45.9172 20.832 44.7652 20.568L43.7212 20.328C43.0732 20.172 42.7852 19.932 42.7852 19.488C42.7852 18.972 43.2412 18.624 44.0332 18.624C44.7532 18.624 45.2332 18.864 45.4252 19.464ZM53.1566 20.988C53.1566 18.66 51.8246 17.7 50.3126 17.7C48.8366 17.7 47.3486 18.66 47.3486 20.904C47.3486 23.112 48.8126 24.084 50.3126 24.084C51.6446 24.084 52.4966 23.592 52.9526 22.476H51.8606C51.5486 22.956 51.1166 23.16 50.3846 23.16C49.3286 23.16 48.6326 22.608 48.5126 21.3H53.1446C53.1566 21.192 53.1566 21.096 53.1566 20.988ZM48.5126 20.508C48.6326 19.236 49.3526 18.624 50.3126 18.624C51.3206 18.624 51.9686 19.296 51.9926 20.508H48.5126ZM57.4516 17.7C56.2876 17.7 55.5916 18.396 55.3996 19.236V17.76H54.1876V24H55.3996V20.46C55.5796 19.44 56.2516 18.792 57.5356 18.792C57.6196 18.792 57.7276 18.792 57.9196 18.804V17.736C57.7276 17.7 57.5836 17.7 57.4516 17.7ZM63.2992 24V15.6H62.0392V24H63.2992ZM68.0008 17.7C66.7168 17.7 65.9968 18.696 65.8528 19.152V17.76H64.6408V24H65.8528V20.196C65.9608 19.668 66.5008 18.72 67.5808 18.72C68.4328 18.72 69.0088 19.116 69.0088 20.28V24H70.2208V20.232C70.2208 18.336 69.2608 17.7 68.0008 17.7ZM73.8013 23.112C73.3213 23.112 73.1653 22.896 73.1653 22.548V18.72H74.3893V17.76H73.1653V16.2H71.9533V17.76H70.9693V18.72H71.9533V22.68C71.9533 23.82 72.6133 24.072 73.4533 24.072C73.8493 24.072 74.2093 24.012 74.4733 23.916V23.016C74.2093 23.088 74.0053 23.112 73.8013 23.112ZM80.9066 20.988C80.9066 18.66 79.5746 17.7 78.0626 17.7C76.5866 17.7 75.0986 18.66 75.0986 20.904C75.0986 23.112 76.5626 24.084 78.0626 24.084C79.3946 24.084 80.2466 23.592 80.7026 22.476H79.6106C79.2986 22.956 78.8666 23.16 78.1346 23.16C77.0786 23.16 76.3826 22.608 76.2626 21.3H80.8946C80.9066 21.192 80.9066 21.096 80.9066 20.988ZM76.2626 20.508C76.3826 19.236 77.1026 18.624 78.0626 18.624C79.0706 18.624 79.7186 19.296 79.7426 20.508H76.2626ZM85.2016 17.7C84.0376 17.7 83.3416 18.396 83.1496 19.236V17.76H81.9376V24H83.1496V20.46C83.3296 19.44 84.0016 18.792 85.2856 18.792C85.3696 18.792 85.4776 18.792 85.6696 18.804V17.736C85.4776 17.7 85.3336 17.7 85.2016 17.7ZM89.1206 16.356C89.3606 16.356 89.6126 16.404 89.7806 16.44V15.54C89.5646 15.468 89.1806 15.408 88.8566 15.408C88.0526 15.408 87.0926 15.6 87.0926 17.232V17.76H86.2166V18.72H87.0926V24H88.3046V18.72H89.7206V17.76H88.3046V17.256C88.3046 16.608 88.5326 16.356 89.1206 16.356ZM95.3471 22.752V20.148C95.3471 18.384 94.5551 17.7 92.8031 17.7C91.2911 17.7 90.4031 18.3 90.2831 19.464H91.4351C91.5311 18.888 91.9871 18.612 92.7911 18.612C93.5951 18.612 94.1351 18.864 94.1351 19.86V19.92C93.7271 20.148 92.8631 20.244 92.1431 20.364C90.7871 20.58 89.9111 21 89.9111 22.212C89.9111 23.484 90.8351 24.084 91.9751 24.084C93.4751 24.084 94.1111 23.088 94.2431 22.812V23.124C94.2431 23.784 94.6871 24.048 95.3351 24.048C95.5151 24.048 95.6471 24.036 95.8031 23.964V23.244C95.4791 23.244 95.3471 23.1 95.3471 22.752ZM94.1351 22.02C93.9791 22.308 93.4151 23.196 92.2751 23.196C91.5191 23.196 91.1231 22.764 91.1231 22.164C91.1231 21.588 91.4231 21.276 92.3111 21.108C93.0551 20.976 93.7511 20.868 94.1351 20.676V22.02ZM99.3441 23.088C98.3481 23.088 97.5321 22.392 97.5321 20.892C97.5321 19.416 98.3361 18.696 99.3321 18.696C100.16 18.696 100.604 19.068 100.82 19.728H101.936C101.588 18.168 100.448 17.7 99.3201 17.7C97.8921 17.7 96.3681 18.624 96.3681 20.892C96.3681 23.172 97.9041 24.084 99.3321 24.084C100.46 24.084 101.648 23.616 101.984 22.008H100.88C100.652 22.704 100.196 23.088 99.3441 23.088ZM108.469 20.988C108.469 18.66 107.137 17.7 105.625 17.7C104.149 17.7 102.661 18.66 102.661 20.904C102.661 23.112 104.125 24.084 105.625 24.084C106.957 24.084 107.809 23.592 108.265 22.476H107.173C106.861 22.956 106.429 23.16 105.697 23.16C104.641 23.16 103.945 22.608 103.825 21.3H108.457C108.469 21.192 108.469 21.096 108.469 20.988ZM103.825 20.508C103.945 19.236 104.665 18.624 105.625 18.624C106.633 18.624 107.281 19.296 107.305 20.508H103.825Z" fill="white"/>
<path d="M466.104 16.976V16.1H460.764V24.5H461.76V20.72H465.324V19.892H461.76V16.976H466.104ZM470.259 18.2C469.059 18.2 468.327 18.932 468.123 19.772V18.26H467.163V24.5H468.123V20.852C468.327 19.76 469.059 19.064 470.331 19.064C470.415 19.064 470.523 19.064 470.703 19.076V18.224C470.523 18.2 470.391 18.2 470.259 18.2ZM474.079 18.2C472.711 18.2 471.187 19.184 471.187 21.38C471.187 23.6 472.711 24.584 474.079 24.584C475.447 24.584 476.983 23.6 476.983 21.38C476.983 19.184 475.447 18.2 474.079 18.2ZM476.047 21.38C476.047 23.036 475.087 23.78 474.079 23.78C473.071 23.78 472.111 23.036 472.111 21.38C472.111 19.736 473.071 19.004 474.079 19.004C475.087 19.004 476.047 19.736 476.047 21.38ZM481.241 18.2C479.897 18.2 479.153 19.256 479.021 19.712V18.26H478.061V24.5H479.021V20.636C479.141 20.048 479.741 19.016 480.929 19.016C481.877 19.016 482.501 19.448 482.501 20.756V24.5H483.461V20.72C483.461 18.824 482.489 18.2 481.241 18.2ZM486.793 23.792C486.325 23.792 486.169 23.6 486.169 23.264V19.028H487.381V18.26H486.169V16.7H485.209V18.26H484.249V19.028H485.209V23.36C485.209 24.332 485.785 24.572 486.505 24.572C486.865 24.572 487.213 24.524 487.477 24.428V23.696C487.213 23.768 487.009 23.792 486.793 23.792ZM493.832 21.428C493.832 19.196 492.548 18.2 491.048 18.2C489.572 18.2 488.144 19.196 488.144 21.392C488.144 23.576 489.512 24.584 491.06 24.584C492.308 24.584 493.124 24.14 493.616 23.108H492.728C492.356 23.636 491.888 23.84 491.108 23.84C489.98 23.84 489.188 23.204 489.08 21.728H493.82C493.832 21.62 493.832 21.524 493.832 21.428ZM489.08 21.068C489.188 19.628 490.004 18.944 491.048 18.944C492.14 18.944 492.884 19.676 492.908 21.068H489.08ZM498.093 18.2C496.749 18.2 496.005 19.256 495.873 19.712V18.26H494.913V24.5H495.873V20.636C495.993 20.048 496.593 19.016 497.781 19.016C498.729 19.016 499.353 19.448 499.353 20.756V24.5H500.313V20.72C500.313 18.824 499.341 18.2 498.093 18.2ZM504.158 18.2C502.838 18.2 501.398 19.172 501.398 21.38C501.398 23.612 502.838 24.584 504.182 24.584C505.238 24.584 505.946 23.96 506.258 23.24V24.5H507.218V16.028H506.258V19.424C505.886 18.668 505.106 18.2 504.158 18.2ZM504.326 23.78C503.282 23.78 502.334 23.036 502.334 21.38C502.334 19.724 503.282 19.004 504.326 19.004C505.358 19.004 506.306 19.712 506.306 21.38C506.306 23 505.358 23.78 504.326 23.78ZM518.013 24.5H519.093L515.745 16.1H514.869L511.533 24.5H512.613L513.429 22.352H517.197L518.013 24.5ZM513.717 21.584L515.313 17.396L516.909 21.584H513.717ZM523.168 18.2C522.22 18.2 521.44 18.668 521.068 19.436V18.26H520.108V26.78H521.068V23.252C521.38 23.996 522.088 24.584 523.144 24.584C524.476 24.584 525.928 23.612 525.928 21.38C525.928 19.172 524.476 18.2 523.168 18.2ZM522.988 23.78C521.956 23.78 521.02 23 521.02 21.38C521.02 19.712 521.956 19.004 522.988 19.004C524.032 19.004 524.992 19.712 524.992 21.38C524.992 23.048 524.032 23.78 522.988 23.78ZM530.082 18.2C529.134 18.2 528.354 18.668 527.982 19.436V18.26H527.022V26.78H527.982V23.252C528.294 23.996 529.002 24.584 530.058 24.584C531.39 24.584 532.842 23.612 532.842 21.38C532.842 19.172 531.39 18.2 530.082 18.2ZM529.902 23.78C528.87 23.78 527.934 23 527.934 21.38C527.934 19.712 528.87 19.004 529.902 19.004C530.946 19.004 531.906 19.712 531.906 21.38C531.906 23.048 530.946 23.78 529.902 23.78ZM533.936 16.028V24.5H534.896V16.028H533.936ZM536.28 15.992V16.88H537.24V15.992H536.28ZM536.28 18.26V24.5H537.24V18.26H536.28ZM541.252 23.78C540.184 23.78 539.248 23.036 539.248 21.392C539.248 19.76 540.172 18.992 541.24 18.992C542.116 18.992 542.644 19.388 542.908 20.12H543.796C543.436 18.68 542.368 18.2 541.228 18.2C539.8 18.2 538.324 19.16 538.324 21.392C538.324 23.624 539.812 24.584 541.24 24.584C542.38 24.584 543.484 24.104 543.844 22.616H542.956C542.68 23.396 542.152 23.78 541.252 23.78ZM549.838 23.42V20.576C549.838 18.848 549.034 18.2 547.378 18.2C545.938 18.2 545.062 18.752 544.93 19.868H545.842C545.95 19.268 546.418 18.932 547.366 18.932C548.35 18.932 548.878 19.268 548.878 20.348V20.432C548.446 20.66 547.486 20.78 546.742 20.888C545.29 21.116 544.546 21.62 544.546 22.724C544.546 23.96 545.422 24.584 546.586 24.584C548.11 24.584 548.794 23.552 548.962 23.216V23.66C548.962 24.308 549.31 24.548 549.898 24.548C550.066 24.548 550.162 24.536 550.294 24.476V23.888C549.958 23.9 549.838 23.756 549.838 23.42ZM548.878 22.508C548.722 22.832 548.086 23.864 546.802 23.864C545.974 23.864 545.506 23.396 545.506 22.7C545.506 22.04 545.842 21.68 546.862 21.512C547.69 21.368 548.518 21.236 548.878 21.044V22.508ZM553.156 23.792C552.688 23.792 552.532 23.6 552.532 23.264V19.028H553.744V18.26H552.532V16.7H551.572V18.26H550.612V19.028H551.572V23.36C551.572 24.332 552.148 24.572 552.868 24.572C553.228 24.572 553.576 24.524 553.84 24.428V23.696C553.576 23.768 553.372 23.792 553.156 23.792ZM554.925 15.992V16.88H555.885V15.992H554.925ZM554.925 18.26V24.5H555.885V18.26H554.925ZM559.86 18.2C558.492 18.2 556.968 19.184 556.968 21.38C556.968 23.6 558.492 24.584 559.86 24.584C561.228 24.584 562.764 23.6 562.764 21.38C562.764 19.184 561.228 18.2 559.86 18.2ZM561.828 21.38C561.828 23.036 560.868 23.78 559.86 23.78C558.852 23.78 557.892 23.036 557.892 21.38C557.892 19.736 558.852 19.004 559.86 19.004C560.868 19.004 561.828 19.736 561.828 21.38ZM567.022 18.2C565.678 18.2 564.934 19.256 564.802 19.712V18.26H563.842V24.5H564.802V20.636C564.922 20.048 565.522 19.016 566.71 19.016C567.658 19.016 568.282 19.448 568.282 20.756V24.5H569.242V20.72C569.242 18.824 568.27 18.2 567.022 18.2Z" fill="white"/>
<path d="M932.505 24H933.585L930.237 15.6H929.361L926.025 24H927.105L927.921 21.852H931.689L932.505 24ZM928.209 21.084L929.805 16.896L931.401 21.084H928.209ZM937.624 15.6H934.6V24H935.596V21.012H937.624C939.604 21.012 940.624 19.98 940.624 18.312C940.624 16.632 939.604 15.6 937.624 15.6ZM937.636 20.136H935.596V16.476H937.636C938.896 16.476 939.568 17.136 939.568 18.312C939.568 19.476 938.896 20.136 937.636 20.136ZM942.698 24V15.6H941.702V24H942.698ZM950.95 19.368L949.81 19.14C948.826 18.948 948.394 18.468 948.394 17.784C948.394 17.076 948.934 16.344 950.266 16.344C951.526 16.344 952.078 16.956 952.222 17.724H953.242C953.074 16.368 952.054 15.492 950.266 15.492C948.382 15.492 947.362 16.488 947.362 17.76C947.362 19.02 948.214 19.668 949.618 19.956L950.842 20.196C951.742 20.376 952.438 20.736 952.438 21.696C952.438 22.596 951.73 23.256 950.362 23.256C948.934 23.256 948.382 22.452 948.226 21.552H947.194C947.338 23.04 948.358 24.108 950.362 24.108C952.282 24.108 953.47 23.184 953.47 21.708C953.47 20.28 952.534 19.692 950.95 19.368ZM960.039 20.928C960.039 18.696 958.755 17.7 957.255 17.7C955.779 17.7 954.351 18.696 954.351 20.892C954.351 23.076 955.719 24.084 957.267 24.084C958.515 24.084 959.331 23.64 959.823 22.608H958.935C958.563 23.136 958.095 23.34 957.315 23.34C956.187 23.34 955.395 22.704 955.287 21.228H960.027C960.039 21.12 960.039 21.024 960.039 20.928ZM955.287 20.568C955.395 19.128 956.211 18.444 957.255 18.444C958.347 18.444 959.091 19.176 959.115 20.568H955.287ZM964.216 17.7C963.016 17.7 962.284 18.432 962.08 19.272V17.76H961.12V24H962.08V20.352C962.284 19.26 963.016 18.564 964.288 18.564C964.372 18.564 964.48 18.564 964.66 18.576V17.724C964.48 17.7 964.348 17.7 964.216 17.7ZM968.822 24L971.306 17.76H970.346L968.282 23.064L966.218 17.76H965.258L967.742 24H968.822ZM972.206 15.492V16.38H973.166V15.492H972.206ZM972.206 17.76V24H973.166V17.76H972.206ZM977.178 23.28C976.11 23.28 975.174 22.536 975.174 20.892C975.174 19.26 976.098 18.492 977.166 18.492C978.042 18.492 978.57 18.888 978.834 19.62H979.722C979.362 18.18 978.294 17.7 977.154 17.7C975.726 17.7 974.25 18.66 974.25 20.892C974.25 23.124 975.738 24.084 977.166 24.084C978.306 24.084 979.41 23.604 979.77 22.116H978.882C978.606 22.896 978.078 23.28 977.178 23.28ZM986.16 20.928C986.16 18.696 984.876 17.7 983.376 17.7C981.9 17.7 980.472 18.696 980.472 20.892C980.472 23.076 981.84 24.084 983.388 24.084C984.636 24.084 985.452 23.64 985.944 22.608H985.056C984.684 23.136 984.216 23.34 983.436 23.34C982.308 23.34 981.516 22.704 981.408 21.228H986.148C986.16 21.12 986.16 21.024 986.16 20.928ZM981.408 20.568C981.516 19.128 982.332 18.444 983.376 18.444C984.468 18.444 985.212 19.176 985.236 20.568H981.408ZM990.949 19.356H991.837C991.585 18.276 990.709 17.7 989.413 17.7C988.009 17.7 987.097 18.348 987.097 19.404C987.097 20.28 987.661 20.784 988.813 21.06L989.905 21.312C990.601 21.48 991.009 21.648 991.009 22.272C991.009 22.992 990.325 23.328 989.473 23.328C988.657 23.328 987.961 23.04 987.781 22.176H986.881C987.037 23.496 988.081 24.084 989.461 24.084C990.781 24.084 991.969 23.556 991.969 22.284C991.969 21.132 991.249 20.892 990.097 20.628L989.089 20.388C988.321 20.208 988.009 19.932 988.009 19.428C988.009 18.864 988.513 18.444 989.413 18.444C990.193 18.444 990.733 18.708 990.949 19.356Z" fill="white"/>
<g filter="url(#filter0_d_752_3595)">
<rect x="36.5" y="73.3333" width="70" height="68.4444" rx="4" fill="white"/>
<path d="M93.6875 97.5554H79.3125C77.75 97.5554 76.5 98.8835 76.5 100.368V124.743C76.5 126.305 77.75 127.555 79.3125 127.555H93.6875C95.1719 127.555 96.5 126.305 96.5 124.743V100.368C96.5 98.8835 95.1719 97.5554 93.6875 97.5554ZM91.5 122.555H81.5V102.555H91.5V122.555ZM56.5 92.5554H81.5V95.0554H86.5V91.3054C86.5 89.2742 84.7812 87.6335 82.75 87.5554H55.1719C53.1406 87.6335 51.5 89.2742 51.5 91.3054V110.055H47.75C47.0469 110.055 46.5 110.68 46.5 111.305V112.555C46.5 115.368 48.6875 117.555 51.4219 117.555H74V110.055H56.5V92.5554Z" fill="#672FD6"/>
</g>
<path d="M69.7857 147.378L67.8657 154.29L65.6817 147.378H64.6497L62.4777 154.29L60.5577 147.378H59.5137L61.9497 155.778H62.8977L65.1657 148.818L67.4457 155.778H68.3937L70.8297 147.378H69.7857ZM76.5235 152.706C76.5235 150.474 75.2395 149.478 73.7395 149.478C72.2635 149.478 70.8355 150.474 70.8355 152.67C70.8355 154.854 72.2035 155.862 73.7515 155.862C74.9995 155.862 75.8155 155.418 76.3075 154.386H75.4195C75.0475 154.914 74.5795 155.118 73.7995 155.118C72.6715 155.118 71.8795 154.482 71.7715 153.006H76.5115C76.5235 152.898 76.5235 152.802 76.5235 152.706ZM71.7715 152.346C71.8795 150.906 72.6955 150.222 73.7395 150.222C74.8315 150.222 75.5755 150.954 75.5995 152.346H71.7715ZM80.6642 149.478C79.7162 149.478 78.9362 149.946 78.5642 150.702V147.306H77.6042V155.778H78.5642V154.518C78.8762 155.238 79.5842 155.862 80.6402 155.862C81.9842 155.862 83.4242 154.89 83.4242 152.658C83.4242 150.45 81.9842 149.478 80.6642 149.478ZM80.4962 155.058C79.4642 155.058 78.5162 154.278 78.5162 152.658C78.5162 150.99 79.4642 150.282 80.4962 150.282C81.5402 150.282 82.4882 151.002 82.4882 152.658C82.4882 154.314 81.5402 155.058 80.4962 155.058Z" fill="white"/>
<g filter="url(#filter1_d_752_3595)">
<rect x="36.5" y="169.778" width="70" height="68.4444" rx="4" fill="white"/>
<path d="M85.25 186.5H57.75C55.6406 186.5 54 188.219 54 190.25V217.75C54 219.859 55.6406 221.5 57.75 221.5H85.25C87.2812 221.5 89 219.859 89 217.75V190.25C89 188.219 87.2812 186.5 85.25 186.5ZM63.9219 214.078C63.4531 214.859 62.5156 215.094 61.7344 214.625C61.0312 214.234 60.7188 213.219 61.1875 212.516L62.2812 210.562C63.5312 210.172 64.625 210.484 65.4062 211.5L63.9219 214.078ZM74.7031 209.859H60.5625C59.7031 209.859 59 209.156 59 208.297C59 207.438 59.7031 206.734 60.5625 206.734H64.5469L69.625 197.906L67.9844 195.094C67.5938 194.391 67.8281 193.453 68.6094 192.984C69.3125 192.594 70.3281 192.828 70.7188 193.531L71.4219 194.781L72.125 193.531C72.5156 192.828 73.5312 192.594 74.2344 192.984C75.0156 193.453 75.25 194.391 74.7812 195.094L68.1406 206.734H72.9844C74.5469 206.734 75.4062 208.609 74.7031 209.859ZM82.4375 209.859H80.1719L81.6562 212.516C82.125 213.297 81.8125 214.234 81.1094 214.625C80.3281 215.094 79.3906 214.781 79 214.078C76.4219 209.625 74.4688 206.266 73.2188 204.078C71.8906 201.812 72.8281 199.547 73.7656 198.766C74.7812 200.562 76.2656 203.219 78.375 206.734H82.4375C83.2969 206.734 84 207.438 84 208.297C84 209.156 83.2969 209.859 82.4375 209.859Z" fill="#672FD6"/>
</g>
<path d="M63.0788 243.714V244.602H64.0388V243.714H63.0788ZM63.0788 245.982V252.222H64.0388V245.982H63.0788ZM69.0226 243.714C66.8026 243.714 65.2426 245.178 65.2426 248.022C65.2426 250.854 66.8026 252.33 69.0226 252.33C71.2306 252.33 72.8026 250.854 72.8026 248.022C72.8026 245.178 71.2306 243.714 69.0226 243.714ZM69.0226 251.442C67.3786 251.442 66.2746 250.314 66.2746 248.022C66.2746 245.718 67.3786 244.59 69.0226 244.59C70.6666 244.59 71.7586 245.718 71.7586 248.022C71.7586 250.314 70.6666 251.442 69.0226 251.442ZM77.5767 247.59L76.4367 247.362C75.4527 247.17 75.0207 246.69 75.0207 246.006C75.0207 245.298 75.5607 244.566 76.8927 244.566C78.1527 244.566 78.7047 245.178 78.8487 245.946H79.8687C79.7007 244.59 78.6807 243.714 76.8927 243.714C75.0087 243.714 73.9887 244.71 73.9887 245.982C73.9887 247.242 74.8407 247.89 76.2447 248.178L77.4687 248.418C78.3687 248.598 79.0647 248.958 79.0647 249.918C79.0647 250.818 78.3567 251.478 76.9887 251.478C75.5607 251.478 75.0087 250.674 74.8527 249.774H73.8207C73.9647 251.262 74.9847 252.33 76.9887 252.33C78.9087 252.33 80.0967 251.406 80.0967 249.93C80.0967 248.502 79.1607 247.914 77.5767 247.59Z" fill="white"/>
<g filter="url(#filter2_d_752_3595)">
<rect x="36.5" y="266.222" width="70" height="68.4444" rx="4" fill="white"/>
<path d="M81.8125 304.038C80.4062 304.038 79.4688 302.476 80.1719 301.226C80.9531 299.976 82.75 299.976 83.4531 301.226C83.6094 301.538 83.6875 301.851 83.6875 302.163C83.6875 303.257 82.8281 304.038 81.8125 304.038ZM61.1094 304.038C59.625 304.038 58.7656 302.476 59.4688 301.226C60.1719 299.976 61.9688 299.976 62.75 301.226C62.9062 301.538 62.9844 301.851 62.9844 302.163C62.9844 303.257 62.125 304.038 61.1094 304.038ZM82.5156 292.788L86.2656 286.304C86.5781 285.835 86.2656 285.132 85.6406 285.054C85.3281 285.054 85.0156 285.21 84.8594 285.522L81.1094 292.085C74.9375 289.351 67.9844 289.351 61.8125 292.085L58.0625 285.522C57.75 284.976 57.0469 284.897 56.6562 285.444C56.5 285.679 56.5 286.069 56.6562 286.304L60.4062 292.788C54 296.304 49.625 302.788 49 310.444H94C93.2969 302.788 88.9219 296.304 82.5156 292.788Z" fill="#672FD6"/>
</g>
<path d="M57.2808 348.667H58.3608L55.0128 340.267H54.1368L50.8008 348.667H51.8808L52.6968 346.519H56.4648L57.2808 348.667ZM52.9848 345.751L54.5808 341.563L56.1768 345.751H52.9848ZM62.5557 342.367C61.2117 342.367 60.4677 343.423 60.3357 343.879V342.427H59.3757V348.667H60.3357V344.803C60.4557 344.215 61.0557 343.183 62.2437 343.183C63.1917 343.183 63.8157 343.615 63.8157 344.923V348.667H64.7757V344.887C64.7757 342.991 63.8037 342.367 62.5557 342.367ZM68.6208 342.367C67.3008 342.367 65.8608 343.339 65.8608 345.547C65.8608 347.779 67.3008 348.751 68.6448 348.751C69.7008 348.751 70.4088 348.127 70.7208 347.407V348.667H71.6808V340.195H70.7208V343.591C70.3488 342.835 69.5688 342.367 68.6208 342.367ZM68.7888 347.947C67.7448 347.947 66.7968 347.203 66.7968 345.547C66.7968 343.891 67.7448 343.171 68.7888 343.171C69.8208 343.171 70.7688 343.879 70.7688 345.547C70.7688 347.167 69.8208 347.947 68.7888 347.947ZM76.1709 342.367C74.9709 342.367 74.2389 343.099 74.0349 343.939V342.427H73.0749V348.667H74.0349V345.019C74.2389 343.927 74.9709 343.231 76.2429 343.231C76.3269 343.231 76.4349 343.231 76.6149 343.243V342.391C76.4349 342.367 76.3029 342.367 76.1709 342.367ZM79.9911 342.367C78.6231 342.367 77.0991 343.351 77.0991 345.547C77.0991 347.767 78.6231 348.751 79.9911 348.751C81.3591 348.751 82.8951 347.767 82.8951 345.547C82.8951 343.351 81.3591 342.367 79.9911 342.367ZM81.9591 345.547C81.9591 347.203 80.9991 347.947 79.9911 347.947C78.9831 347.947 78.0231 347.203 78.0231 345.547C78.0231 343.903 78.9831 343.171 79.9911 343.171C80.9991 343.171 81.9591 343.903 81.9591 345.547ZM83.9733 340.159V341.047H84.9333V340.159H83.9733ZM83.9733 342.427V348.667H84.9333V342.427H83.9733ZM88.7771 342.367C87.4571 342.367 86.0171 343.339 86.0171 345.547C86.0171 347.779 87.4571 348.751 88.8011 348.751C89.8571 348.751 90.5651 348.127 90.8771 347.407V348.667H91.8371V340.195H90.8771V343.591C90.5051 342.835 89.7251 342.367 88.7771 342.367ZM88.9451 347.947C87.9011 347.947 86.9531 347.203 86.9531 345.547C86.9531 343.891 87.9011 343.171 88.9451 343.171C89.9771 343.171 90.9251 343.879 90.9251 345.547C90.9251 347.167 89.9771 347.947 88.9451 347.947Z" fill="white"/>
<rect x="24.5" y="61.3333" width="94" height="301.333" rx="4" stroke="#E2DEFA"/>
<path d="M135.613 212L138.5 214.887L141.387 212L138.5 209.113L135.613 212ZM448.354 212.354C448.549 212.158 448.549 211.842 448.354 211.646L445.172 208.464C444.976 208.269 444.66 208.269 444.464 208.464C444.269 208.66 444.269 208.976 444.464 209.172L447.293 212L444.464 214.828C444.269 215.024 444.269 215.34 444.464 215.536C444.66 215.731 444.976 215.731 445.172 215.536L448.354 212.354ZM138.5 212.5H138.999V211.5H138.5V212.5ZM139.998 212.5H140.996V211.5H139.998V212.5ZM141.994 212.5H142.993V211.5H141.994V212.5ZM143.991 212.5H144.99V211.5H143.991V212.5ZM145.988 212.5H146.986V211.5H145.988V212.5ZM147.985 212.5H148.983V211.5H147.985V212.5ZM149.981 212.5H150.98V211.5H149.981V212.5ZM151.978 212.5H152.977V211.5H151.978V212.5ZM153.975 212.5H154.973V211.5H153.975V212.5ZM155.972 212.5H156.97V211.5H155.972V212.5ZM157.969 212.5H158.967V211.5H157.969V212.5ZM159.965 212.5H160.964V211.5H159.965V212.5ZM161.962 212.5H162.96V211.5H161.962V212.5ZM163.959 212.5H164.957V211.5H163.959V212.5ZM165.956 212.5H166.954V211.5H165.956V212.5ZM167.952 212.5H168.951V211.5H167.952V212.5ZM169.949 212.5H170.948V211.5H169.949V212.5ZM171.946 212.5H172.944V211.5H171.946V212.5ZM173.943 212.5H174.941V211.5H173.943V212.5ZM175.94 212.5H176.938V211.5H175.94V212.5ZM177.936 212.5H178.935V211.5H177.936V212.5ZM179.933 212.5H180.931V211.5H179.933V212.5ZM181.93 212.5H182.928V211.5H181.93V212.5ZM183.927 212.5H184.925V211.5H183.927V212.5ZM185.923 212.5H186.922V211.5H185.923V212.5ZM187.92 212.5H188.919V211.5H187.92V212.5ZM189.917 212.5H190.915V211.5H189.917V212.5ZM191.914 212.5H192.912V211.5H191.914V212.5ZM193.91 212.5H194.909V211.5H193.91V212.5ZM195.907 212.5H196.906V211.5H195.907V212.5ZM197.904 212.5H198.902V211.5H197.904V212.5ZM199.901 212.5H200.899V211.5H199.901V212.5ZM201.898 212.5H202.896V211.5H201.898V212.5ZM203.894 212.5H204.893V211.5H203.894V212.5ZM205.891 212.5H206.889V211.5H205.891V212.5ZM207.888 212.5H208.886V211.5H207.888V212.5ZM209.885 212.5H210.883V211.5H209.885V212.5ZM211.881 212.5H212.88V211.5H211.881V212.5ZM213.878 212.5H214.877V211.5H213.878V212.5ZM215.875 212.5H216.873V211.5H215.875V212.5ZM217.872 212.5H218.87V211.5H217.872V212.5ZM219.869 212.5H220.867V211.5H219.869V212.5ZM221.865 212.5H222.864V211.5H221.865V212.5ZM223.862 212.5H224.861V211.5H223.862V212.5ZM225.859 212.5H226.857V211.5H225.859V212.5ZM227.856 212.5H228.854V211.5H227.856V212.5ZM229.852 212.5H230.851V211.5H229.852V212.5ZM231.849 212.5H232.848V211.5H231.849V212.5ZM233.846 212.5H234.844V211.5H233.846V212.5ZM235.843 212.5H236.841V211.5H235.843V212.5ZM237.84 212.5H238.838V211.5H237.84V212.5ZM239.836 212.5H240.835V211.5H239.836V212.5ZM241.833 212.5H242.832V211.5H241.833V212.5ZM243.83 212.5H244.828V211.5H243.83V212.5ZM245.827 212.5H246.825V211.5H245.827V212.5ZM247.823 212.5H248.822V211.5H247.823V212.5ZM249.82 212.5H250.819V211.5H249.82V212.5ZM251.817 212.5H252.815V211.5H251.817V212.5ZM253.814 212.5H254.812V211.5H253.814V212.5ZM255.811 212.5H256.809V211.5H255.811V212.5ZM257.807 212.5H258.806V211.5H257.807V212.5ZM259.804 212.5H260.803V211.5H259.804V212.5ZM261.801 212.5H262.799V211.5H261.801V212.5ZM263.798 212.5H264.796V211.5H263.798V212.5ZM265.795 212.5H266.793V211.5H265.795V212.5ZM267.791 212.5H268.79V211.5H267.791V212.5ZM269.788 212.5H270.786V211.5H269.788V212.5ZM271.785 212.5H272.783V211.5H271.785V212.5ZM273.782 212.5H274.78V211.5H273.782V212.5ZM275.778 212.5H276.777V211.5H275.778V212.5ZM277.775 212.5H278.774V211.5H277.775V212.5ZM279.772 212.5H280.77V211.5H279.772V212.5ZM281.769 212.5H282.767V211.5H281.769V212.5ZM283.765 212.5H284.764V211.5H283.765V212.5ZM285.762 212.5H286.761V211.5H285.762V212.5ZM287.759 212.5H288.757V211.5H287.759V212.5ZM289.756 212.5H290.754V211.5H289.756V212.5ZM291.752 212.5H292.751V211.5H291.752V212.5ZM293.749 212.5H294.748V211.5H293.749V212.5ZM295.746 212.5H296.744V211.5H295.746V212.5ZM297.743 212.5H298.741V211.5H297.743V212.5ZM299.74 212.5H300.738V211.5H299.74V212.5ZM301.736 212.5H302.735V211.5H301.736V212.5ZM303.733 212.5H304.731V211.5H303.733V212.5ZM305.73 212.5H306.728V211.5H305.73V212.5ZM307.727 212.5H308.725V211.5H307.727V212.5ZM309.723 212.5H310.722V211.5H309.723V212.5ZM311.72 212.5H312.719V211.5H311.72V212.5ZM313.717 212.5H314.715V211.5H313.717V212.5ZM315.714 212.5H316.712V211.5H315.714V212.5ZM317.71 212.5H318.709V211.5H317.71V212.5ZM319.707 212.5H320.706V211.5H319.707V212.5ZM321.704 212.5H322.702V211.5H321.704V212.5ZM323.701 212.5H324.699V211.5H323.701V212.5ZM325.697 212.5H326.696V211.5H325.697V212.5ZM327.694 212.5H328.693V211.5H327.694V212.5ZM329.691 212.5H330.689V211.5H329.691V212.5ZM331.688 212.5H332.686V211.5H331.688V212.5ZM333.685 212.5H334.683V211.5H333.685V212.5ZM335.681 212.5H336.68V211.5H335.681V212.5ZM337.678 212.5H338.676V211.5H337.678V212.5ZM339.675 212.5H340.673V211.5H339.675V212.5ZM341.672 212.5H342.67V211.5H341.672V212.5ZM343.668 212.5H344.667V211.5H343.668V212.5ZM345.665 212.5H346.664V211.5H345.665V212.5ZM347.662 212.5H348.66V211.5H347.662V212.5ZM349.659 212.5H350.657V211.5H349.659V212.5ZM351.655 212.5H352.654V211.5H351.655V212.5ZM353.652 212.5H354.651V211.5H353.652V212.5ZM355.649 212.5H356.647V211.5H355.649V212.5ZM357.646 212.5H358.644V211.5H357.646V212.5ZM359.642 212.5H360.641V211.5H359.642V212.5ZM361.639 212.5H362.638V211.5H361.639V212.5ZM363.636 212.5H364.634V211.5H363.636V212.5ZM365.633 212.5H366.631V211.5H365.633V212.5ZM367.63 212.5H368.628V211.5H367.63V212.5ZM369.626 212.5H370.625V211.5H369.626V212.5ZM371.623 212.5H372.621V211.5H371.623V212.5ZM373.62 212.5H374.618V211.5H373.62V212.5ZM375.617 212.5H376.615V211.5H375.617V212.5ZM377.613 212.5H378.612V211.5H377.613V212.5ZM379.61 212.5H380.609V211.5H379.61V212.5ZM381.607 212.5H382.605V211.5H381.607V212.5ZM383.604 212.5H384.602V211.5H383.604V212.5ZM385.6 212.5H386.599V211.5H385.6V212.5ZM387.597 212.5H388.596V211.5H387.597V212.5ZM389.594 212.5H390.592V211.5H389.594V212.5ZM391.591 212.5H392.589V211.5H391.591V212.5ZM393.587 212.5H394.586V211.5H393.587V212.5ZM395.584 212.5H396.583V211.5H395.584V212.5ZM397.581 212.5H398.579V211.5H397.581V212.5ZM399.578 212.5H400.576V211.5H399.578V212.5ZM401.575 212.5H402.573V211.5H401.575V212.5ZM403.571 212.5H404.57V211.5H403.571V212.5ZM405.568 212.5H406.566V211.5H405.568V212.5ZM407.565 212.5H408.563V211.5H407.565V212.5ZM409.562 212.5H410.56V211.5H409.562V212.5ZM411.558 212.5H412.557V211.5H411.558V212.5ZM413.555 212.5H414.554V211.5H413.555V212.5ZM415.552 212.5H416.55V211.5H415.552V212.5ZM417.549 212.5H418.547V211.5H417.549V212.5ZM419.545 212.5H420.544V211.5H419.545V212.5ZM421.542 212.5H422.541V211.5H421.542V212.5ZM423.539 212.5H424.537V211.5H423.539V212.5ZM425.536 212.5H426.534V211.5H425.536V212.5ZM427.532 212.5H428.531V211.5H427.532V212.5ZM429.529 212.5H430.528V211.5H429.529V212.5ZM431.526 212.5H432.524V211.5H431.526V212.5ZM433.523 212.5H434.521V211.5H433.523V212.5ZM435.52 212.5H436.518V211.5H435.52V212.5ZM437.516 212.5H438.515V211.5H437.516V212.5ZM439.513 212.5H440.511V211.5H439.513V212.5ZM441.51 212.5H442.508V211.5H441.51V212.5ZM443.507 212.5H444.505V211.5H443.507V212.5ZM445.503 212.5H446.502V211.5H445.503V212.5ZM447.5 212.5H448V211.5H447.5V212.5Z" fill="#E2DEFA"/>
<g filter="url(#filter3_d_752_3595)">
<rect x="480" y="169" width="70" height="70" rx="4" fill="white"/>
<path d="M494 204C494 192.402 503.402 183 515 183V183C526.598 183 536 192.402 536 204V204C536 215.598 526.598 225 515 225V225C503.402 225 494 215.598 494 204V204Z" fill="#FFBF46"/>
<path fill-rule="evenodd" clip-rule="evenodd" d="M515.031 191C515.021 191 515.01 191 515 191C507.82 191 502 196.82 502 204C502 211.18 507.82 217 515 217C522.169 217 527.983 211.196 528 204.031H521.207C521.19 207.445 518.418 210.207 515 210.207C511.572 210.207 508.793 207.428 508.793 204C508.793 200.572 511.572 197.793 515 197.793C515.01 197.793 515.021 197.793 515.031 197.793V191Z" fill="white"/>
<path d="M497.55 252.22C495.99 252.22 494.874 251.08 494.874 248.8C494.874 246.508 495.99 245.368 497.55 245.368C498.738 245.368 499.434 245.884 499.746 246.724H500.766C500.454 245.284 499.17 244.492 497.538 244.492C495.414 244.492 493.842 245.92 493.842 248.8C493.842 251.668 495.414 253.108 497.538 253.108C499.182 253.108 500.478 252.304 500.79 250.864H499.782C499.458 251.704 498.75 252.22 497.55 252.22ZM504.267 246.7C502.899 246.7 501.375 247.684 501.375 249.88C501.375 252.1 502.899 253.084 504.267 253.084C505.635 253.084 507.171 252.1 507.171 249.88C507.171 247.684 505.635 246.7 504.267 246.7ZM506.235 249.88C506.235 251.536 505.275 252.28 504.267 252.28C503.259 252.28 502.299 251.536 502.299 249.88C502.299 248.236 503.259 247.504 504.267 247.504C505.275 247.504 506.235 248.236 506.235 249.88ZM510.767 246.7C509.447 246.7 508.007 247.672 508.007 249.88C508.007 252.112 509.447 253.084 510.791 253.084C511.847 253.084 512.555 252.46 512.867 251.74V253H513.827V244.528H512.867V247.924C512.495 247.168 511.715 246.7 510.767 246.7ZM510.935 252.28C509.891 252.28 508.943 251.536 508.943 249.88C508.943 248.224 509.891 247.504 510.935 247.504C511.967 247.504 512.915 248.212 512.915 249.88C512.915 251.5 511.967 252.28 510.935 252.28ZM520.609 249.928C520.609 247.696 519.325 246.7 517.825 246.7C516.349 246.7 514.921 247.696 514.921 249.892C514.921 252.076 516.289 253.084 517.837 253.084C519.085 253.084 519.901 252.64 520.393 251.608H519.505C519.133 252.136 518.665 252.34 517.885 252.34C516.757 252.34 515.965 251.704 515.857 250.228H520.597C520.609 250.12 520.609 250.024 520.609 249.928ZM515.857 249.568C515.965 248.128 516.781 247.444 517.825 247.444C518.917 247.444 519.661 248.176 519.685 249.568H515.857ZM521.69 244.528V253H522.65V244.528H521.69ZM529.026 251.92V249.076C529.026 247.348 528.222 246.7 526.566 246.7C525.126 246.7 524.25 247.252 524.118 248.368H525.03C525.138 247.768 525.606 247.432 526.554 247.432C527.538 247.432 528.066 247.768 528.066 248.848V248.932C527.634 249.16 526.674 249.28 525.93 249.388C524.478 249.616 523.734 250.12 523.734 251.224C523.734 252.46 524.61 253.084 525.774 253.084C527.298 253.084 527.982 252.052 528.15 251.716V252.16C528.15 252.808 528.498 253.048 529.086 253.048C529.254 253.048 529.35 253.036 529.482 252.976V252.388C529.146 252.4 529.026 252.256 529.026 251.92ZM528.066 251.008C527.91 251.332 527.274 252.364 525.99 252.364C525.162 252.364 524.694 251.896 524.694 251.2C524.694 250.54 525.03 250.18 526.05 250.012C526.878 249.868 527.706 249.736 528.066 249.544V251.008ZM533.516 246.7C532.568 246.7 531.788 247.168 531.416 247.924V244.528H530.456V253H531.416V251.74C531.728 252.46 532.436 253.084 533.492 253.084C534.836 253.084 536.276 252.112 536.276 249.88C536.276 247.672 534.836 246.7 533.516 246.7ZM533.348 252.28C532.316 252.28 531.368 251.5 531.368 249.88C531.368 248.212 532.316 247.504 533.348 247.504C534.392 247.504 535.34 248.224 535.34 249.88C535.34 251.536 534.392 252.28 533.348 252.28Z" fill="white"/>
</g>
<rect x="468" y="157" width="94" height="110" rx="4" stroke="#E2DEFA"/>
<path d="M579.113 212L582 214.887L584.887 212L582 209.113L579.113 212ZM891.854 212.354C892.049 212.158 892.049 211.842 891.854 211.646L888.672 208.464C888.476 208.269 888.16 208.269 887.964 208.464C887.769 208.66 887.769 208.976 887.964 209.172L890.793 212L887.964 214.828C887.769 215.024 887.769 215.34 887.964 215.536C888.16 215.731 888.476 215.731 888.672 215.536L891.854 212.354ZM582 212.5H582.499V211.5H582V212.5ZM583.498 212.5H584.496V211.5H583.498V212.5ZM585.494 212.5H586.493V211.5H585.494V212.5ZM587.491 212.5H588.49V211.5H587.491V212.5ZM589.488 212.5H590.486V211.5H589.488V212.5ZM591.485 212.5H592.483V211.5H591.485V212.5ZM593.481 212.5H594.48V211.5H593.481V212.5ZM595.478 212.5H596.477V211.5H595.478V212.5ZM597.475 212.5H598.473V211.5H597.475V212.5ZM599.472 212.5H600.47V211.5H599.472V212.5ZM601.469 212.5H602.467V211.5H601.469V212.5ZM603.465 212.5H604.464V211.5H603.465V212.5ZM605.462 212.5H606.46V211.5H605.462V212.5ZM607.459 212.5H608.457V211.5H607.459V212.5ZM609.456 212.5H610.454V211.5H609.456V212.5ZM611.452 212.5H612.451V211.5H611.452V212.5ZM613.449 212.5H614.448V211.5H613.449V212.5ZM615.446 212.5H616.444V211.5H615.446V212.5ZM617.443 212.5H618.441V211.5H617.443V212.5ZM619.44 212.5H620.438V211.5H619.44V212.5ZM621.436 212.5H622.435V211.5H621.436V212.5ZM623.433 212.5H624.431V211.5H623.433V212.5ZM625.43 212.5H626.428V211.5H625.43V212.5ZM627.427 212.5H628.425V211.5H627.427V212.5ZM629.423 212.5H630.422V211.5H629.423V212.5ZM631.42 212.5H632.419V211.5H631.42V212.5ZM633.417 212.5H634.415V211.5H633.417V212.5ZM635.414 212.5H636.412V211.5H635.414V212.5ZM637.41 212.5H638.409V211.5H637.41V212.5ZM639.407 212.5H640.406V211.5H639.407V212.5ZM641.404 212.5H642.402V211.5H641.404V212.5ZM643.401 212.5H644.399V211.5H643.401V212.5ZM645.398 212.5H646.396V211.5H645.398V212.5ZM647.394 212.5H648.393V211.5H647.394V212.5ZM649.391 212.5H650.389V211.5H649.391V212.5ZM651.388 212.5H652.386V211.5H651.388V212.5ZM653.385 212.5H654.383V211.5H653.385V212.5ZM655.381 212.5H656.38V211.5H655.381V212.5ZM657.378 212.5H658.377V211.5H657.378V212.5ZM659.375 212.5H660.373V211.5H659.375V212.5ZM661.372 212.5H662.37V211.5H661.372V212.5ZM663.369 212.5H664.367V211.5H663.369V212.5ZM665.365 212.5H666.364V211.5H665.365V212.5ZM667.362 212.5H668.361V211.5H667.362V212.5ZM669.359 212.5H670.357V211.5H669.359V212.5ZM671.356 212.5H672.354V211.5H671.356V212.5ZM673.352 212.5H674.351V211.5H673.352V212.5ZM675.349 212.5H676.348V211.5H675.349V212.5ZM677.346 212.5H678.344V211.5H677.346V212.5ZM679.343 212.5H680.341V211.5H679.343V212.5ZM681.34 212.5H682.338V211.5H681.34V212.5ZM683.336 212.5H684.335V211.5H683.336V212.5ZM685.333 212.5H686.332V211.5H685.333V212.5ZM687.33 212.5H688.328V211.5H687.33V212.5ZM689.327 212.5H690.325V211.5H689.327V212.5ZM691.323 212.5H692.322V211.5H691.323V212.5ZM693.32 212.5H694.319V211.5H693.32V212.5ZM695.317 212.5H696.315V211.5H695.317V212.5ZM697.314 212.5H698.312V211.5H697.314V212.5ZM699.311 212.5H700.309V211.5H699.311V212.5ZM701.307 212.5H702.306V211.5H701.307V212.5ZM703.304 212.5H704.303V211.5H703.304V212.5ZM705.301 212.5H706.299V211.5H705.301V212.5ZM707.298 212.5H708.296V211.5H707.298V212.5ZM709.295 212.5H710.293V211.5H709.295V212.5ZM711.291 212.5H712.29V211.5H711.291V212.5ZM713.288 212.5H714.286V211.5H713.288V212.5ZM715.285 212.5H716.283V211.5H715.285V212.5ZM717.282 212.5H718.28V211.5H717.282V212.5ZM719.278 212.5H720.277V211.5H719.278V212.5ZM721.275 212.5H722.274V211.5H721.275V212.5ZM723.272 212.5H724.27V211.5H723.272V212.5ZM725.269 212.5H726.267V211.5H725.269V212.5ZM727.265 212.5H728.264V211.5H727.265V212.5ZM729.262 212.5H730.261V211.5H729.262V212.5ZM731.259 212.5H732.257V211.5H731.259V212.5ZM733.256 212.5H734.254V211.5H733.256V212.5ZM735.252 212.5H736.251V211.5H735.252V212.5ZM737.249 212.5H738.248V211.5H737.249V212.5ZM739.246 212.5H740.244V211.5H739.246V212.5ZM741.243 212.5H742.241V211.5H741.243V212.5ZM743.24 212.5H744.238V211.5H743.24V212.5ZM745.236 212.5H746.235V211.5H745.236V212.5ZM747.233 212.5H748.231V211.5H747.233V212.5ZM749.23 212.5H750.228V211.5H749.23V212.5ZM751.227 212.5H752.225V211.5H751.227V212.5ZM753.223 212.5H754.222V211.5H753.223V212.5ZM755.22 212.5H756.219V211.5H755.22V212.5ZM757.217 212.5H758.215V211.5H757.217V212.5ZM759.214 212.5H760.212V211.5H759.214V212.5ZM761.21 212.5H762.209V211.5H761.21V212.5ZM763.207 212.5H764.206V211.5H763.207V212.5ZM765.204 212.5H766.202V211.5H765.204V212.5ZM767.201 212.5H768.199V211.5H767.201V212.5ZM769.197 212.5H770.196V211.5H769.197V212.5ZM771.194 212.5H772.193V211.5H771.194V212.5ZM773.191 212.5H774.189V211.5H773.191V212.5ZM775.188 212.5H776.186V211.5H775.188V212.5ZM777.185 212.5H778.183V211.5H777.185V212.5ZM779.181 212.5H780.18V211.5H779.181V212.5ZM781.178 212.5H782.176V211.5H781.178V212.5ZM783.175 212.5H784.173V211.5H783.175V212.5ZM785.172 212.5H786.17V211.5H785.172V212.5ZM787.168 212.5H788.167V211.5H787.168V212.5ZM789.165 212.5H790.164V211.5H789.165V212.5ZM791.162 212.5H792.16V211.5H791.162V212.5ZM793.159 212.5H794.157V211.5H793.159V212.5ZM795.155 212.5H796.154V211.5H795.155V212.5ZM797.152 212.5H798.151V211.5H797.152V212.5ZM799.149 212.5H800.147V211.5H799.149V212.5ZM801.146 212.5H802.144V211.5H801.146V212.5ZM803.142 212.5H804.141V211.5H803.142V212.5ZM805.139 212.5H806.138V211.5H805.139V212.5ZM807.136 212.5H808.134V211.5H807.136V212.5ZM809.133 212.5H810.131V211.5H809.133V212.5ZM811.13 212.5H812.128V211.5H811.13V212.5ZM813.126 212.5H814.125V211.5H813.126V212.5ZM815.123 212.5H816.121V211.5H815.123V212.5ZM817.12 212.5H818.118V211.5H817.12V212.5ZM819.117 212.5H820.115V211.5H819.117V212.5ZM821.113 212.5H822.112V211.5H821.113V212.5ZM823.11 212.5H824.109V211.5H823.11V212.5ZM825.107 212.5H826.105V211.5H825.107V212.5ZM827.104 212.5H828.102V211.5H827.104V212.5ZM829.1 212.5H830.099V211.5H829.1V212.5ZM831.097 212.5H832.096V211.5H831.097V212.5ZM833.094 212.5H834.092V211.5H833.094V212.5ZM835.091 212.5H836.089V211.5H835.091V212.5ZM837.087 212.5H838.086V211.5H837.087V212.5ZM839.084 212.5H840.083V211.5H839.084V212.5ZM841.081 212.5H842.079V211.5H841.081V212.5ZM843.078 212.5H844.076V211.5H843.078V212.5ZM845.075 212.5H846.073V211.5H845.075V212.5ZM847.071 212.5H848.07V211.5H847.071V212.5ZM849.068 212.5H850.066V211.5H849.068V212.5ZM851.065 212.5H852.063V211.5H851.065V212.5ZM853.062 212.5H854.06V211.5H853.062V212.5ZM855.058 212.5H856.057V211.5H855.058V212.5ZM857.055 212.5H858.054V211.5H857.055V212.5ZM859.052 212.5H860.05V211.5H859.052V212.5ZM861.049 212.5H862.047V211.5H861.049V212.5ZM863.045 212.5H864.044V211.5H863.045V212.5ZM865.042 212.5H866.041V211.5H865.042V212.5ZM867.039 212.5H868.037V211.5H867.039V212.5ZM869.036 212.5H870.034V211.5H869.036V212.5ZM871.032 212.5H872.031V211.5H871.032V212.5ZM873.029 212.5H874.028V211.5H873.029V212.5ZM875.026 212.5H876.024V211.5H875.026V212.5ZM877.023 212.5H878.021V211.5H877.023V212.5ZM879.02 212.5H880.018V211.5H879.02V212.5ZM881.016 212.5H882.015V211.5H881.016V212.5ZM883.013 212.5H884.011V211.5H883.013V212.5ZM885.01 212.5H886.008V211.5H885.01V212.5ZM887.007 212.5H888.005V211.5H887.007V212.5ZM889.003 212.5H890.002V211.5H889.003V212.5ZM891 212.5H891.5V211.5H891V212.5Z" fill="#E2DEFA"/>
<g filter="url(#filter4_d_752_3595)">
<rect x="923.5" y="71" width="70" height="70" rx="4" fill="white"/>
<path d="M945.167 116.562L957.862 93.3542C958.129 92.8651 958.852 92.874 959.107 93.3704L963.5 101.937L945.167 116.562Z" fill="#FF8F00"/>
<path d="M945.167 116.556L949.788 88.7694C949.909 88.0422 950.911 87.8846 951.261 88.5378L960.167 105.181L945.167 116.556Z" fill="#FFA000"/>
<path d="M945.173 116.551L945.34 116.424L959.948 104.772L955.828 97.0723L945.173 116.551Z" fill="#FF6F00"/>
<path d="M945.167 116.562L967.388 95.6706C967.854 95.2327 968.632 95.4911 968.727 96.1151L971.833 116.562L959.333 123.666C958.826 123.944 958.207 123.944 957.699 123.666L945.167 116.562Z" fill="#FFC400"/>
<path d="M941.983 147.476V146.6H936.643V155H937.639V151.22H941.203V150.392H937.639V147.476H941.983ZM943.042 146.492V147.38H944.002V146.492H943.042ZM943.042 148.76V155H944.002V148.76H943.042ZM948.481 148.7C947.281 148.7 946.549 149.432 946.345 150.272V148.76H945.385V155H946.345V151.352C946.549 150.26 947.281 149.564 948.553 149.564C948.637 149.564 948.745 149.564 948.925 149.576V148.724C948.745 148.7 948.613 148.7 948.481 148.7ZM955.098 151.928C955.098 149.696 953.814 148.7 952.314 148.7C950.838 148.7 949.41 149.696 949.41 151.892C949.41 154.076 950.778 155.084 952.326 155.084C953.574 155.084 954.39 154.64 954.882 153.608H953.994C953.622 154.136 953.154 154.34 952.374 154.34C951.246 154.34 950.454 153.704 950.346 152.228H955.086C955.098 152.12 955.098 152.024 955.098 151.928ZM950.346 151.568C950.454 150.128 951.27 149.444 952.314 149.444C953.406 149.444 954.15 150.176 954.174 151.568H950.346ZM959.238 148.7C958.29 148.7 957.51 149.168 957.138 149.924V146.528H956.178V155H957.138V153.74C957.45 154.46 958.158 155.084 959.214 155.084C960.558 155.084 961.998 154.112 961.998 151.88C961.998 149.672 960.558 148.7 959.238 148.7ZM959.07 154.28C958.038 154.28 957.09 153.5 957.09 151.88C957.09 150.212 958.038 149.504 959.07 149.504C960.114 149.504 961.062 150.224 961.062 151.88C961.062 153.536 960.114 154.28 959.07 154.28ZM968.084 153.92V151.076C968.084 149.348 967.28 148.7 965.624 148.7C964.184 148.7 963.308 149.252 963.176 150.368H964.088C964.196 149.768 964.664 149.432 965.612 149.432C966.596 149.432 967.124 149.768 967.124 150.848V150.932C966.692 151.16 965.732 151.28 964.988 151.388C963.536 151.616 962.792 152.12 962.792 153.224C962.792 154.46 963.668 155.084 964.832 155.084C966.356 155.084 967.04 154.052 967.208 153.716V154.16C967.208 154.808 967.556 155.048 968.144 155.048C968.312 155.048 968.408 155.036 968.54 154.976V154.388C968.204 154.4 968.084 154.256 968.084 153.92ZM967.124 153.008C966.968 153.332 966.332 154.364 965.048 154.364C964.22 154.364 963.752 153.896 963.752 153.2C963.752 152.54 964.088 152.18 965.108 152.012C965.936 151.868 966.764 151.736 967.124 151.544V153.008ZM973.222 150.356H974.11C973.858 149.276 972.982 148.7 971.686 148.7C970.282 148.7 969.37 149.348 969.37 150.404C969.37 151.28 969.934 151.784 971.086 152.06L972.178 152.312C972.874 152.48 973.282 152.648 973.282 153.272C973.282 153.992 972.598 154.328 971.746 154.328C970.93 154.328 970.234 154.04 970.054 153.176H969.154C969.31 154.496 970.354 155.084 971.734 155.084C973.054 155.084 974.242 154.556 974.242 153.284C974.242 152.132 973.522 151.892 972.37 151.628L971.362 151.388C970.594 151.208 970.282 150.932 970.282 150.428C970.282 149.864 970.786 149.444 971.686 149.444C972.466 149.444 973.006 149.708 973.222 150.356ZM980.668 151.928C980.668 149.696 979.384 148.7 977.884 148.7C976.408 148.7 974.98 149.696 974.98 151.892C974.98 154.076 976.348 155.084 977.896 155.084C979.144 155.084 979.96 154.64 980.452 153.608H979.564C979.192 154.136 978.724 154.34 977.944 154.34C976.816 154.34 976.024 153.704 975.916 152.228H980.656C980.668 152.12 980.668 152.024 980.668 151.928ZM975.916 151.568C976.024 150.128 976.84 149.444 977.884 149.444C978.976 149.444 979.72 150.176 979.744 151.568H975.916Z" fill="white"/>
</g>
<g filter="url(#filter5_d_752_3595)">
<rect x="923.5" y="169" width="70" height="70" rx="4" fill="white"/>
<path fill-rule="evenodd" clip-rule="evenodd" d="M967.5 184.567L961.5 188.1L955.5 191.633L949.5 195.167V216.367L955.5 212.833L961.5 209.3V202.233L955.5 205.767V198.7L961.5 195.167L967.5 191.633V212.833L961.5 216.367L955.5 219.9L949.5 223.433L943.5 226.966L949.5 230.5L955.5 226.966L961.5 223.433L967.5 219.9L973.5 216.367V181.034L967.5 177.5V184.567Z" fill="#6246EA"/>
<path d="M937.341 248.692H934.257V249.508H936.417C936.381 251.344 935.505 252.22 933.885 252.22C932.277 252.22 931.173 251.08 931.173 248.8C931.173 246.508 932.265 245.368 933.849 245.368C934.989 245.368 935.625 245.848 935.961 246.58H936.969C936.621 245.248 935.433 244.492 933.837 244.492C931.689 244.492 930.141 245.92 930.141 248.8C930.141 251.68 931.689 253.108 933.885 253.108C936.189 253.108 937.341 251.752 937.341 249.172V248.692ZM941.702 246.7C940.502 246.7 939.77 247.432 939.566 248.272V246.76H938.606V253H939.566V249.352C939.77 248.26 940.502 247.564 941.774 247.564C941.858 247.564 941.966 247.564 942.146 247.576V246.724C941.966 246.7 941.834 246.7 941.702 246.7ZM947.793 251.92V249.076C947.793 247.348 946.989 246.7 945.333 246.7C943.893 246.7 943.017 247.252 942.885 248.368H943.797C943.905 247.768 944.373 247.432 945.321 247.432C946.305 247.432 946.833 247.768 946.833 248.848V248.932C946.401 249.16 945.441 249.28 944.697 249.388C943.245 249.616 942.501 250.12 942.501 251.224C942.501 252.46 943.377 253.084 944.541 253.084C946.065 253.084 946.749 252.052 946.917 251.716V252.16C946.917 252.808 947.265 253.048 947.853 253.048C948.021 253.048 948.117 253.036 948.249 252.976V252.388C947.913 252.4 947.793 252.256 947.793 251.92ZM946.833 251.008C946.677 251.332 946.041 252.364 944.757 252.364C943.929 252.364 943.461 251.896 943.461 251.2C943.461 250.54 943.797 250.18 944.817 250.012C945.645 249.868 946.473 249.736 946.833 249.544V251.008ZM952.342 246.7C951.394 246.7 950.614 247.168 950.242 247.936V246.76H949.282V255.28H950.242V251.752C950.554 252.496 951.262 253.084 952.318 253.084C953.65 253.084 955.102 252.112 955.102 249.88C955.102 247.672 953.65 246.7 952.342 246.7ZM952.162 252.28C951.13 252.28 950.194 251.5 950.194 249.88C950.194 248.212 951.13 247.504 952.162 247.504C953.206 247.504 954.166 248.212 954.166 249.88C954.166 251.548 953.206 252.28 952.162 252.28ZM959.376 246.7C958.032 246.7 957.288 247.756 957.156 248.212V244.528H956.196V253H957.156V249.136C957.276 248.548 957.876 247.516 959.064 247.516C960.012 247.516 960.636 247.948 960.636 249.256V253H961.596V249.22C961.596 247.324 960.624 246.7 959.376 246.7ZM966.509 252.22C964.949 252.22 963.833 251.08 963.833 248.8C963.833 246.508 964.949 245.368 966.509 245.368C967.697 245.368 968.393 245.884 968.705 246.724H969.725C969.413 245.284 968.129 244.492 966.497 244.492C964.373 244.492 962.801 245.92 962.801 248.8C962.801 251.668 964.373 253.108 966.497 253.108C968.141 253.108 969.437 252.304 969.749 250.864H968.741C968.417 251.704 967.709 252.22 966.509 252.22ZM970.809 244.6V253H971.805V246.448H971.841L974.685 253H975.501L978.333 246.448H978.369V253H979.377V244.6H978.261L975.093 251.728L971.913 244.6H970.809ZM984.335 248.368L983.195 248.14C982.211 247.948 981.779 247.468 981.779 246.784C981.779 246.076 982.319 245.344 983.651 245.344C984.911 245.344 985.463 245.956 985.607 246.724H986.627C986.459 245.368 985.439 244.492 983.651 244.492C981.767 244.492 980.747 245.488 980.747 246.76C980.747 248.02 981.599 248.668 983.003 248.956L984.227 249.196C985.127 249.376 985.823 249.736 985.823 250.696C985.823 251.596 985.115 252.256 983.747 252.256C982.319 252.256 981.767 251.452 981.611 250.552H980.579C980.723 252.04 981.743 253.108 983.747 253.108C985.667 253.108 986.855 252.184 986.855 250.708C986.855 249.28 985.919 248.692 984.335 248.368Z" fill="white"/>
</g>
<g filter="url(#filter6_d_752_3595)">
<rect x="923.5" y="267" width="70" height="70" rx="4" fill="white"/>
<g clip-path="url(#clip0_752_3595)">
<path d="M977.867 295.301C979.054 291.536 978.341 284.018 976.039 281.244C975.738 280.881 975.173 280.933 974.923 281.332L972.086 285.864C971.383 286.771 970.12 286.978 969.173 286.346C966.096 284.298 962.419 283.105 958.467 283.105C954.514 283.105 950.837 284.298 947.76 286.346C946.813 286.978 945.55 286.766 944.847 285.864L942.01 281.332C941.76 280.933 941.195 280.881 940.894 281.244C938.592 284.018 937.879 291.536 939.066 295.301C939.458 296.55 939.57 297.873 939.336 299.164C939.107 300.439 938.872 301.984 938.872 303.053C938.872 314.066 947.648 323 958.467 323C969.29 323 978.061 314.071 978.061 303.053C978.061 301.979 977.832 300.439 977.597 299.164C977.363 297.873 977.475 296.55 977.867 295.301ZM958.467 318.541C950.103 318.541 943.298 311.613 943.298 303.099C943.298 302.819 943.309 302.544 943.319 302.27C943.624 296.467 947.083 291.505 951.983 289.141C953.949 288.187 956.149 287.658 958.467 287.658C960.784 287.658 962.984 288.192 964.956 289.146C969.855 291.51 973.314 296.473 973.619 302.27C973.635 302.544 973.64 302.819 973.64 303.099C973.635 311.613 966.83 318.541 958.467 318.541Z" fill="#1EB4D4"/>
<path d="M965.037 309.042L961.161 302.202L957.835 296.499C957.758 296.364 957.616 296.281 957.458 296.281H954.28C954.122 296.281 953.979 296.369 953.903 296.504C953.826 296.644 953.826 296.815 953.908 296.95L957.086 302.394L952.818 309.021C952.731 309.156 952.721 309.332 952.797 309.477C952.874 309.622 953.022 309.71 953.179 309.71H956.378C956.526 309.71 956.663 309.633 956.745 309.508L959.052 305.837L961.12 309.487C961.196 309.627 961.344 309.71 961.497 309.71H964.65C964.808 309.71 964.95 309.627 965.027 309.487C965.118 309.347 965.118 309.182 965.037 309.042Z" fill="#1EB4D4"/>
</g>
<path d="M945.94 342.6V346.464H941.536V342.6H940.54V351H941.536V347.292H945.94V351H946.948V342.6H945.94ZM953.325 349.92V347.076C953.325 345.348 952.521 344.7 950.865 344.7C949.425 344.7 948.549 345.252 948.417 346.368H949.329C949.437 345.768 949.905 345.432 950.853 345.432C951.837 345.432 952.365 345.768 952.365 346.848V346.932C951.933 347.16 950.973 347.28 950.229 347.388C948.777 347.616 948.033 348.12 948.033 349.224C948.033 350.46 948.909 351.084 950.073 351.084C951.597 351.084 952.281 350.052 952.449 349.716V350.16C952.449 350.808 952.797 351.048 953.385 351.048C953.553 351.048 953.649 351.036 953.781 350.976V350.388C953.445 350.4 953.325 350.256 953.325 349.92ZM952.365 349.008C952.209 349.332 951.573 350.364 950.289 350.364C949.461 350.364 948.993 349.896 948.993 349.2C948.993 348.54 949.329 348.18 950.349 348.012C951.177 347.868 952.005 347.736 952.365 347.544V349.008ZM958.463 346.356H959.351C959.099 345.276 958.223 344.7 956.927 344.7C955.523 344.7 954.611 345.348 954.611 346.404C954.611 347.28 955.175 347.784 956.327 348.06L957.419 348.312C958.115 348.48 958.523 348.648 958.523 349.272C958.523 349.992 957.839 350.328 956.987 350.328C956.171 350.328 955.475 350.04 955.295 349.176H954.395C954.551 350.496 955.595 351.084 956.975 351.084C958.295 351.084 959.483 350.556 959.483 349.284C959.483 348.132 958.763 347.892 957.611 347.628L956.603 347.388C955.835 347.208 955.523 346.932 955.523 346.428C955.523 345.864 956.027 345.444 956.927 345.444C957.707 345.444 958.247 345.708 958.463 346.356ZM964.9 344.76V348.636C964.768 349.224 964.168 350.268 962.992 350.268C962.044 350.268 961.42 349.824 961.42 348.516V344.76H960.46V348.54C960.46 350.448 961.432 351.084 962.68 351.084C964.024 351.084 964.768 350.004 964.9 349.548V351H965.86V344.76H964.9ZM970.331 344.7C969.131 344.7 968.399 345.432 968.195 346.272V344.76H967.235V351H968.195V347.352C968.399 346.26 969.131 345.564 970.403 345.564C970.487 345.564 970.595 345.564 970.775 345.576V344.724C970.595 344.7 970.463 344.7 970.331 344.7ZM976.422 349.92V347.076C976.422 345.348 975.618 344.7 973.962 344.7C972.522 344.7 971.646 345.252 971.514 346.368H972.426C972.534 345.768 973.002 345.432 973.95 345.432C974.934 345.432 975.462 345.768 975.462 346.848V346.932C975.03 347.16 974.07 347.28 973.326 347.388C971.874 347.616 971.13 348.12 971.13 349.224C971.13 350.46 972.006 351.084 973.17 351.084C974.694 351.084 975.378 350.052 975.546 349.716V350.16C975.546 350.808 975.894 351.048 976.482 351.048C976.65 351.048 976.746 351.036 976.878 350.976V350.388C976.542 350.4 976.422 350.256 976.422 349.92ZM975.462 349.008C975.306 349.332 974.67 350.364 973.386 350.364C972.558 350.364 972.09 349.896 972.09 349.2C972.09 348.54 972.426 348.18 973.446 348.012C974.274 347.868 975.102 347.736 975.462 347.544V349.008Z" fill="white"/>
</g>
<rect x="911.5" y="59" width="94" height="306" rx="4" stroke="#E2DEFA"/>
<defs>
<filter id="filter0_d_752_3595" x="27.5" y="64.3333" width="90" height="88.4446" filterUnits="userSpaceOnUse" color-interpolation-filters="sRGB">
<feFlood flood-opacity="0" result="BackgroundImageFix"/>
<feColorMatrix in="SourceAlpha" type="matrix" values="0 0 0 0 0 0 0 0 0 0 0 0 0 0 0 0 0 0 127 0" result="hardAlpha"/>
<feMorphology radius="2" operator="dilate" in="SourceAlpha" result="effect1_dropShadow_752_3595"/>
<feOffset dx="1" dy="1"/>
<feGaussianBlur stdDeviation="4"/>
<feComposite in2="hardAlpha" operator="out"/>
<feColorMatrix type="matrix" values="0 0 0 0 0.886275 0 0 0 0 0.870588 0 0 0 0 0.980392 0 0 0 0.38 0"/>
<feBlend mode="normal" in2="BackgroundImageFix" result="effect1_dropShadow_752_3595"/>
<feBlend mode="normal" in="SourceGraphic" in2="effect1_dropShadow_752_3595" result="shape"/>
</filter>
<filter id="filter1_d_752_3595" x="27.5" y="160.778" width="90" height="88.4443" filterUnits="userSpaceOnUse" color-interpolation-filters="sRGB">
<feFlood flood-opacity="0" result="BackgroundImageFix"/>
<feColorMatrix in="SourceAlpha" type="matrix" values="0 0 0 0 0 0 0 0 0 0 0 0 0 0 0 0 0 0 127 0" result="hardAlpha"/>
<feMorphology radius="2" operator="dilate" in="SourceAlpha" result="effect1_dropShadow_752_3595"/>
<feOffset dx="1" dy="1"/>
<feGaussianBlur stdDeviation="4"/>
<feComposite in2="hardAlpha" operator="out"/>
<feColorMatrix type="matrix" values="0 0 0 0 0.886275 0 0 0 0 0.870588 0 0 0 0 0.980392 0 0 0 0.38 0"/>
<feBlend mode="normal" in2="BackgroundImageFix" result="effect1_dropShadow_752_3595"/>
<feBlend mode="normal" in="SourceGraphic" in2="effect1_dropShadow_752_3595" result="shape"/>
</filter>
<filter id="filter2_d_752_3595" x="27.5" y="257.222" width="90" height="88.4443" filterUnits="userSpaceOnUse" color-interpolation-filters="sRGB">
<feFlood flood-opacity="0" result="BackgroundImageFix"/>
<feColorMatrix in="SourceAlpha" type="matrix" values="0 0 0 0 0 0 0 0 0 0 0 0 0 0 0 0 0 0 127 0" result="hardAlpha"/>
<feMorphology radius="2" operator="dilate" in="SourceAlpha" result="effect1_dropShadow_752_3595"/>
<feOffset dx="1" dy="1"/>
<feGaussianBlur stdDeviation="4"/>
<feComposite in2="hardAlpha" operator="out"/>
<feColorMatrix type="matrix" values="0 0 0 0 0.886275 0 0 0 0 0.870588 0 0 0 0 0.980392 0 0 0 0.38 0"/>
<feBlend mode="normal" in2="BackgroundImageFix" result="effect1_dropShadow_752_3595"/>
<feBlend mode="normal" in="SourceGraphic" in2="effect1_dropShadow_752_3595" result="shape"/>
</filter>
<filter id="filter3_d_752_3595" x="471" y="160" width="90" height="106" filterUnits="userSpaceOnUse" color-interpolation-filters="sRGB">
<feFlood flood-opacity="0" result="BackgroundImageFix"/>
<feColorMatrix in="SourceAlpha" type="matrix" values="0 0 0 0 0 0 0 0 0 0 0 0 0 0 0 0 0 0 127 0" result="hardAlpha"/>
<feMorphology radius="2" operator="dilate" in="SourceAlpha" result="effect1_dropShadow_752_3595"/>
<feOffset dx="1" dy="1"/>
<feGaussianBlur stdDeviation="4"/>
<feComposite in2="hardAlpha" operator="out"/>
<feColorMatrix type="matrix" values="0 0 0 0 0.886275 0 0 0 0 0.870588 0 0 0 0 0.980392 0 0 0 0.38 0"/>
<feBlend mode="normal" in2="BackgroundImageFix" result="effect1_dropShadow_752_3595"/>
<feBlend mode="normal" in="SourceGraphic" in2="effect1_dropShadow_752_3595" result="shape"/>
</filter>
<filter id="filter4_d_752_3595" x="914.5" y="62" width="90" height="106" filterUnits="userSpaceOnUse" color-interpolation-filters="sRGB">
<feFlood flood-opacity="0" result="BackgroundImageFix"/>
<feColorMatrix in="SourceAlpha" type="matrix" values="0 0 0 0 0 0 0 0 0 0 0 0 0 0 0 0 0 0 127 0" result="hardAlpha"/>
<feMorphology radius="2" operator="dilate" in="SourceAlpha" result="effect1_dropShadow_752_3595"/>
<feOffset dx="1" dy="1"/>
<feGaussianBlur stdDeviation="4"/>
<feComposite in2="hardAlpha" operator="out"/>
<feColorMatrix type="matrix" values="0 0 0 0 0.886275 0 0 0 0 0.870588 0 0 0 0 0.980392 0 0 0 0.38 0"/>
<feBlend mode="normal" in2="BackgroundImageFix" result="effect1_dropShadow_752_3595"/>
<feBlend mode="normal" in="SourceGraphic" in2="effect1_dropShadow_752_3595" result="shape"/>
</filter>
<filter id="filter5_d_752_3595" x="914.5" y="160" width="90" height="106.28" filterUnits="userSpaceOnUse" color-interpolation-filters="sRGB">
<feFlood flood-opacity="0" result="BackgroundImageFix"/>
<feColorMatrix in="SourceAlpha" type="matrix" values="0 0 0 0 0 0 0 0 0 0 0 0 0 0 0 0 0 0 127 0" result="hardAlpha"/>
<feMorphology radius="2" operator="dilate" in="SourceAlpha" result="effect1_dropShadow_752_3595"/>
<feOffset dx="1" dy="1"/>
<feGaussianBlur stdDeviation="4"/>
<feComposite in2="hardAlpha" operator="out"/>
<feColorMatrix type="matrix" values="0 0 0 0 0.886275 0 0 0 0 0.870588 0 0 0 0 0.980392 0 0 0 0.38 0"/>
<feBlend mode="normal" in2="BackgroundImageFix" result="effect1_dropShadow_752_3595"/>
<feBlend mode="normal" in="SourceGraphic" in2="effect1_dropShadow_752_3595" result="shape"/>
</filter>
<filter id="filter6_d_752_3595" x="914.5" y="258" width="90" height="106" filterUnits="userSpaceOnUse" color-interpolation-filters="sRGB">
<feFlood flood-opacity="0" result="BackgroundImageFix"/>
<feColorMatrix in="SourceAlpha" type="matrix" values="0 0 0 0 0 0 0 0 0 0 0 0 0 0 0 0 0 0 127 0" result="hardAlpha"/>
<feMorphology radius="2" operator="dilate" in="SourceAlpha" result="effect1_dropShadow_752_3595"/>
<feOffset dx="1" dy="1"/>
<feGaussianBlur stdDeviation="4"/>
<feComposite in2="hardAlpha" operator="out"/>
<feColorMatrix type="matrix" values="0 0 0 0 0.886275 0 0 0 0 0.870588 0 0 0 0 0.980392 0 0 0 0.38 0"/>
<feBlend mode="normal" in2="BackgroundImageFix" result="effect1_dropShadow_752_3595"/>
<feBlend mode="normal" in="SourceGraphic" in2="effect1_dropShadow_752_3595" result="shape"/>
</filter>
<clipPath id="clip0_752_3595">
<rect width="40" height="42" fill="white" transform="translate(938.5 281)"/>
</clipPath>
</defs>
</svg>
