<svg width="20" height="18" viewBox="0 0 20 18" fill="none" xmlns="http://www.w3.org/2000/svg">
<path d="M17.5 0.25H2.5C1.09375 0.25 0 1.38281 0 2.75V15.25C0 16.6562 1.09375 17.75 2.5 17.75H17.5C18.8672 17.75 20 16.6562 20 15.25V2.75C20 1.38281 18.8672 0.25 17.5 0.25ZM4.375 15.875H2.5C2.14844 15.875 1.875 15.6016 1.875 15.25V12.4375H4.375V15.875ZM4.375 10.5625H1.875V7.4375H4.375V10.5625ZM4.375 5.5625H1.875V2.75C1.875 2.4375 2.14844 2.125 2.5 2.125H4.375V5.5625ZM13.75 15.875H6.25V9.9375H13.75V15.875ZM13.75 8.0625H6.25V2.125H13.75V8.0625ZM18.125 15.25C18.125 15.6016 17.8125 15.875 17.5 15.875H15.625V12.4375H18.125V15.25ZM18.125 10.5625H15.625V7.4375H18.125V10.5625ZM18.125 5.5625H15.625V2.125H17.5C17.8125 2.125 18.125 2.4375 18.125 2.75V5.5625Z" fill="#1F1926"/>
</svg>
